<?xml version="1.0" encoding="UTF-8" standalone="no"?>
<!-- Created with Inkscape (http://www.inkscape.org/) -->

<svg
   width="210mm"
   height="297mm"
   viewBox="0 0 210 297"
   version="1.1"
   id="svg1"
   xml:space="preserve"
   inkscape:version="1.3 (0e150ed6c4, 2023-07-21)"
   sodipodi:docname="Acrylic_Lasercutting.svg"
   xmlns:inkscape="http://www.inkscape.org/namespaces/inkscape"
   xmlns:sodipodi="http://sodipodi.sourceforge.net/DTD/sodipodi-0.dtd"
   xmlns="http://www.w3.org/2000/svg"
   xmlns:svg="http://www.w3.org/2000/svg"><sodipodi:namedview
     id="namedview1"
     pagecolor="#505050"
     bordercolor="#ffffff"
     borderopacity="1"
     inkscape:showpageshadow="0"
     inkscape:pageopacity="0"
     inkscape:pagecheckerboard="1"
     inkscape:deskcolor="#d1d1d1"
     inkscape:document-units="mm"
     inkscape:zoom="0.71713664"
     inkscape:cx="396.71658"
     inkscape:cy="561.25984"
     inkscape:window-width="1920"
     inkscape:window-height="1011"
     inkscape:window-x="0"
     inkscape:window-y="0"
     inkscape:window-maximized="1"
     inkscape:current-layer="layer1" /><defs
     id="defs1" /><g
     inkscape:label="Layer 1"
     inkscape:groupmode="layer"
     id="layer1"><path
       d="m 85.66296,274.54228 a 4.35,4.35 0 0 0 -4.35,4.35 v 10.3 a 4.35,4.35 0 0 0 4.35,4.35 h 34.15 a 4.35,4.35 0 0 0 4.35,-4.35 v -10.3 a 4.35,4.35 0 0 0 -4.35,-4.35 z"
       fill="#000000"
       stroke-linecap="round"
       stroke-linejoin="round"
       id="path1"
       style="stroke-width:0.1;fill:#000000;fill-opacity:0;stroke:#ff0000;stroke-dasharray:none" /><path
       d="m 18.337403,295.41778 h 44.000006 a 16.000002,16.000002 0 0 0 16,-16.00001 v -44 a 16.000002,16.000002 0 0 0 -16,-16.00001 H 18.337403 A 16.000002,16.000002 0 0 0 2.3374025,235.41777 v 44 a 16.000002,16.000002 0 0 0 16.0000005,16.00001 z"
       fill="#000000"
       stroke-linecap="round"
       stroke-linejoin="round"
       id="path1-6"
       style="stroke-width:0.1;fill:#ff0000;stroke:#ff0000;fill-opacity:0;stroke-dasharray:none" /></g></svg>
