<?xml version="1.0" encoding="UTF-8" standalone="no"?>
<!-- Created with Inkscape (http://www.inkscape.org/) -->

<svg
   width="304.79999mm"
   height="304.79999mm"
   viewBox="0 0 304.79999 304.79999"
   version="1.1"
   id="svg5"
   xml:space="preserve"
   inkscape:version="1.2.2 (b0a8486541, 2022-12-01)"
   sodipodi:docname="Black_Vinyl.svg"
   xmlns:inkscape="http://www.inkscape.org/namespaces/inkscape"
   xmlns:sodipodi="http://sodipodi.sourceforge.net/DTD/sodipodi-0.dtd"
   xmlns="http://www.w3.org/2000/svg"
   xmlns:svg="http://www.w3.org/2000/svg"><sodipodi:namedview
     id="namedview7"
     pagecolor="#ffffff"
     bordercolor="#000000"
     borderopacity="0.25"
     inkscape:showpageshadow="2"
     inkscape:pageopacity="0.0"
     inkscape:pagecheckerboard="0"
     inkscape:deskcolor="#d1d1d1"
     inkscape:document-units="mm"
     showgrid="false"
     inkscape:zoom="0.88818042"
     inkscape:cx="121.59692"
     inkscape:cy="651.33163"
     inkscape:window-width="2560"
     inkscape:window-height="1381"
     inkscape:window-x="0"
     inkscape:window-y="1108"
     inkscape:window-maximized="1"
     inkscape:current-layer="layer1" /><defs
     id="defs2" /><g
     inkscape:label="Layer 1"
     inkscape:groupmode="layer"
     id="layer1"><g
       id="g199"
       transform="matrix(10,0,0,10,1.8765149,227.37607)"><path
         d="M 3.8000005,5.850001 A 1.6000002,1.6000002 0 0 1 2.2000004,7.4500011 H -2.2 A 1.6000002,1.6000002 89.999986 0 1 -3.8000006,5.8500009 V 1.4500005 A 1.6000002,1.6000002 179.99999 0 1 -2.2,-0.15 h 4.4000004 a 1.6000002,1.6000002 -90.000001 0 1 1.6000001,1.6000006 z"
         transform="matrix(1,0,0,-1,3.8000006,7.4500011)"
         fill="#000000"
         stroke-linecap="round"
         stroke-linejoin="round"
         id="path187" /><path
         d="M 3.5000005,5.850001 V 1.4500005 A 1.3000002,1.3000002 1.68e-5 0 0 2.2000004,0.15 H -2.2 A 1.3000002,1.3000002 -89.999983 0 0 -3.5000006,1.4500005 V 5.850001 A 1.3000002,1.3000002 -180 0 0 -2.2,7.1500011 H 2.2000004 A 1.3000002,1.3000002 90.000001 0 0 3.5000005,5.850001 Z"
         transform="matrix(1,0,0,-1,3.8000006,7.4500011)"
         fill="#ffffff"
         stroke="#000000"
         stroke-width="0.001cm"
         stroke-linecap="round"
         stroke-linejoin="round"
         id="path189" /></g><path
       d="m 6.3609666,207.42391 a 4.35,4.35 0 0 0 -4.35,4.35 v 10.3 a 4.35,4.35 0 0 0 4.35,4.35 H 40.510967 a 4.35,4.35 0 0 0 4.35,-4.35 v -10.3 a 4.35,4.35 0 0 0 -4.35,-4.35 z"
       fill="#000000"
       stroke-linecap="round"
       stroke-linejoin="round"
       id="path201"
       style="stroke-width:10" /></g><g
     inkscape:groupmode="layer"
     id="layer2"
     inkscape:label="Layer 2"><g
       id="g185"
       transform="matrix(10,0,0,10,14.376515,239.87607)"><path
         d="M 0.6300003,2.2000004 A 0.3500002,0.3500002 0 0 1 0.2800002,2.5500005 H -4.1200002 A 0.3500002,0.3500002 89.999938 0 1 -4.4700008,2.2000003 v -4.4000004 a 0.3500002,0.3500002 179.99994 0 1 0.3500003,-0.3500005 h 4.4000007 a 0.3500002,0.3500002 -90.000003 0 1 0.3500001,0.3500002 z"
         transform="matrix(1,0,0,-1,4.4700008,2.5500005)"
         fill="#000000"
         stroke-linecap="round"
         stroke-linejoin="round"
         id="path173" /><path
         d="m -0.6300003,-1.3425001 h -2.685 v 2.685 h 2.685 z"
         transform="matrix(1,0,0,-1,4.4700008,2.5500005)"
         fill="#ffffff"
         stroke="#000000"
         stroke-width="0.001cm"
         stroke-linecap="round"
         stroke-linejoin="round"
         id="path175" /></g></g></svg>
