<?xml version="1.0" encoding="UTF-8" standalone="no"?>
<!-- Created with Inkscape (http://www.inkscape.org/) -->

<svg
   width="304.79999mm"
   height="304.79999mm"
   viewBox="0 0 304.79999 304.79999"
   version="1.1"
   id="svg5"
   xml:space="preserve"
   inkscape:version="1.2.2 (b0a8486541, 2022-12-01)"
   sodipodi:docname="Frosted_Vinyl.svg"
   xmlns:inkscape="http://www.inkscape.org/namespaces/inkscape"
   xmlns:sodipodi="http://sodipodi.sourceforge.net/DTD/sodipodi-0.dtd"
   xmlns="http://www.w3.org/2000/svg"
   xmlns:svg="http://www.w3.org/2000/svg"><sodipodi:namedview
     id="namedview7"
     pagecolor="#ffffff"
     bordercolor="#000000"
     borderopacity="0.25"
     inkscape:showpageshadow="2"
     inkscape:pageopacity="0.0"
     inkscape:pagecheckerboard="0"
     inkscape:deskcolor="#d1d1d1"
     inkscape:document-units="mm"
     showgrid="false"
     inkscape:zoom="0.88818042"
     inkscape:cx="121.59692"
     inkscape:cy="651.33163"
     inkscape:window-width="2560"
     inkscape:window-height="1381"
     inkscape:window-x="0"
     inkscape:window-y="1108"
     inkscape:window-maximized="1"
     inkscape:current-layer="layer1" /><defs
     id="defs2" /><g
     inkscape:label="Layer 1"
     inkscape:groupmode="layer"
     id="layer1"><g
       id="g546"
       transform="matrix(10,0,0,10,1.6245878,233.76947)"><path
         d="m -6.5250011,2.2 v -4.4000004 a 1.3000002,1.3000002 -180 0 1 1.3000001,-1.3000002 h 4.4000005 A 1.3000002,1.3000002 -90.000017 0 1 0.475,-2.2000004 V 2.2 A 1.3000002,1.3000002 0 0 1 -0.8250005,3.5000006 H -5.225001 A 1.3000002,1.3000002 89.999999 0 1 -6.5250011,2.2 Z"
         transform="matrix(1,0,0,-1,6.5250011,3.5000006)"
         fill="#000000"
         stroke-linecap="round"
         stroke-linejoin="round"
         id="path534" /><path
         d="m -5.225001,-2.5500006 a 0.3500002,0.3500002 -89.999999 0 0 -0.3500001,0.3500002 v 4.4000007 a 0.3500002,0.3500002 -179.99998 0 0 0.3500001,0.3500003 h 4.4000007 A 0.3500002,0.3500002 90.000017 0 0 -0.475,2.2000004 v -4.4000008 a 0.3500002,0.3500002 9e-7 0 0 -0.3500005,-0.3500002 z"
         transform="matrix(1,0,0,-1,6.5250011,3.5000006)"
         fill="#ffffff"
         stroke="#000000"
         stroke-width="0.001cm"
         stroke-linecap="round"
         stroke-linejoin="round"
         id="path536" /></g></g><g
     inkscape:groupmode="layer"
     id="layer2"
     inkscape:label="Layer 2" /></svg>
