<?xml version="1.0" standalone="no"?>
 <!DOCTYPE svg PUBLIC "-//W3C//DTD SVG 1.1//EN" 
 "http://www.w3.org/Graphics/SVG/1.1/DTD/svg11.dtd"> 
<svg
  xmlns:svg="http://www.w3.org/2000/svg"
  xmlns="http://www.w3.org/2000/svg"
  xmlns:xlink="http://www.w3.org/1999/xlink"
  version="1.1"
  width="42.7736mm" height="31.6992mm" viewBox="0.0000 0.0000 42.7736 31.6992">
<title>SVG Image created as Button_PCB-Edge_Cuts.svg date 2023/10/15 15:45:43 </title>
  <desc>Image generated by PCBNEW </desc>
<g style="fill:#000000; fill-opacity:1.0000;stroke:#000000; stroke-opacity:1.0000;
stroke-linecap:round; stroke-linejoin:round;"
 transform="translate(0 0) scale(1 1)">
</g>
<g style="fill:#000000; fill-opacity:0.0; 
stroke:#000000; stroke-width:0.0000; stroke-opacity:1; 
stroke-linecap:round; stroke-linejoin:round;">
</g>
<g style="fill:#000000; fill-opacity:0.0; 
stroke:#000000; stroke-width:0.1000; stroke-opacity:1; 
stroke-linecap:round; stroke-linejoin:round;">
<path d="M21.3000 4.6179
L39.8500 4.6179
" />
<path d="M0.0500 28.7679
L0.0500 7.3179
" />
<path d="M0.0500 28.7679 A2.7000 2.7000 0.0 0 0 2.7500 31.4679" />
<path d="M42.5500 7.3179
L42.5500 28.7679
" />
<path d="M2.7500 4.6179
L21.3000 4.6179
" />
<path d="M2.7500 4.6179 A2.7000 2.7000 0.0 0 0 0.0500 7.3179" />
<path d="M39.8500 31.4679 A2.7000 2.7000 0.0 0 0 42.5500 28.7679" />
<circle cx="2.7500" cy="7.3179" r="1.7000" /> 
<circle cx="2.7500" cy="28.7679" r="1.7000" /> 
<path d="M39.8500 31.4679
L2.7500 31.4679
" />
<path d="M42.5500 7.3179 A2.7000 2.7000 0.0 0 0 39.8500 4.6179" />
<circle cx="39.8500" cy="7.3179" r="1.7000" /> 
<circle cx="39.8500" cy="28.7679" r="1.7000" /> 
<g >
</g>
<g >
</g>
<g >
</g>
<g >
</g>
<g >
</g>
<g >
</g>
<g >
</g>
</g> 
</svg>
