<?xml version="1.0" standalone="no"?>
 <!DOCTYPE svg PUBLIC "-//W3C//DTD SVG 1.1//EN" 
 "http://www.w3.org/Graphics/SVG/1.1/DTD/svg11.dtd"> 
<svg
  xmlns:svg="http://www.w3.org/2000/svg"
  xmlns="http://www.w3.org/2000/svg"
  xmlns:xlink="http://www.w3.org/1999/xlink"
  version="1.1"
  width="42.7736mm" height="31.6992mm" viewBox="0.0000 0.0000 42.7736 31.6992">
<title>SVG Image created as Button_PCB-F_Cu.svg date 2023/10/15 15:43:17 </title>
  <desc>Image generated by PCBNEW </desc>
<g style="fill:#000000; fill-opacity:1.0000;stroke:#000000; stroke-opacity:1.0000;
stroke-linecap:round; stroke-linejoin:round;"
 transform="translate(0 0) scale(1 1)">
</g>
<g style="fill:#000000; fill-opacity:0.0; 
stroke:#000000; stroke-width:0.0000; stroke-opacity:1; 
stroke-linecap:round; stroke-linejoin:round;">
<g >
</g>
<g style="fill:#000000; fill-opacity:1.0000; 
stroke:#000000; stroke-width:0.0000; stroke-opacity:1; 
stroke-linecap:round; stroke-linejoin:round;">
<circle cx="5.4600" cy="12.2079" r="0.7620" /> 
</g>
<g style="fill:#000000; fill-opacity:1.0000; 
stroke:#000000; stroke-width:0.0212; stroke-opacity:1; 
stroke-linecap:round; stroke-linejoin:round;">
</g>
<g style="fill:#000000; fill-opacity:1.0000; 
stroke:#000000; stroke-width:0.0000; stroke-opacity:1; 
stroke-linecap:round; stroke-linejoin:round;">
<circle cx="8.0000" cy="12.2079" r="0.7620" /> 
</g>
<g style="fill:#000000; fill-opacity:1.0000; 
stroke:#000000; stroke-width:0.0212; stroke-opacity:1; 
stroke-linecap:round; stroke-linejoin:round;">
</g>
<g style="fill:#000000; fill-opacity:1.0000; 
stroke:#000000; stroke-width:0.0000; stroke-opacity:1; 
stroke-linecap:round; stroke-linejoin:round;">
<circle cx="10.5400" cy="12.2079" r="0.7620" /> 
</g>
<g style="fill:#000000; fill-opacity:1.0000; 
stroke:#000000; stroke-width:0.0212; stroke-opacity:1; 
stroke-linecap:round; stroke-linejoin:round;">
</g>
<g >
</g>
<g style="fill:#000000; fill-opacity:1.0000; 
stroke:#000000; stroke-width:0.0212; stroke-opacity:1; 
stroke-linecap:round; stroke-linejoin:round;">
</g>
<g style="fill:#000000; fill-opacity:1.0000; 
stroke:#000000; stroke-width:0.0000; stroke-opacity:1; 
stroke-linecap:round; stroke-linejoin:round;">
<circle cx="32.0600" cy="12.2079" r="0.7620" /> 
</g>
<g style="fill:#000000; fill-opacity:1.0000; 
stroke:#000000; stroke-width:0.0212; stroke-opacity:1; 
stroke-linecap:round; stroke-linejoin:round;">
</g>
<g style="fill:#000000; fill-opacity:1.0000; 
stroke:#000000; stroke-width:0.0000; stroke-opacity:1; 
stroke-linecap:round; stroke-linejoin:round;">
<circle cx="34.6000" cy="12.2079" r="0.7620" /> 
</g>
<g style="fill:#000000; fill-opacity:1.0000; 
stroke:#000000; stroke-width:0.0212; stroke-opacity:1; 
stroke-linecap:round; stroke-linejoin:round;">
</g>
<g style="fill:#000000; fill-opacity:1.0000; 
stroke:#000000; stroke-width:0.0000; stroke-opacity:1; 
stroke-linecap:round; stroke-linejoin:round;">
<circle cx="37.1400" cy="12.2079" r="0.7620" /> 
</g>
<g style="fill:#000000; fill-opacity:1.0000; 
stroke:#000000; stroke-width:0.0212; stroke-opacity:1; 
stroke-linecap:round; stroke-linejoin:round;">
</g>
<g >
</g>
<g style="fill:#000000; fill-opacity:1.0000; 
stroke:#000000; stroke-width:0.0212; stroke-opacity:1; 
stroke-linecap:round; stroke-linejoin:round;">
</g>
<g style="fill:#000000; fill-opacity:1.0000; 
stroke:#000000; stroke-width:0.0000; stroke-opacity:1; 
stroke-linecap:round; stroke-linejoin:round;">
<circle cx="18.7600" cy="12.2079" r="0.7620" /> 
</g>
<g style="fill:#000000; fill-opacity:1.0000; 
stroke:#000000; stroke-width:0.0212; stroke-opacity:1; 
stroke-linecap:round; stroke-linejoin:round;">
</g>
<g style="fill:#000000; fill-opacity:1.0000; 
stroke:#000000; stroke-width:0.0000; stroke-opacity:1; 
stroke-linecap:round; stroke-linejoin:round;">
<circle cx="21.3000" cy="12.2079" r="0.7620" /> 
</g>
<g style="fill:#000000; fill-opacity:1.0000; 
stroke:#000000; stroke-width:0.0212; stroke-opacity:1; 
stroke-linecap:round; stroke-linejoin:round;">
</g>
<g style="fill:#000000; fill-opacity:1.0000; 
stroke:#000000; stroke-width:0.0000; stroke-opacity:1; 
stroke-linecap:round; stroke-linejoin:round;">
<circle cx="23.8400" cy="12.2079" r="0.7620" /> 
</g>
<g style="fill:#000000; fill-opacity:1.0000; 
stroke:#000000; stroke-width:0.0212; stroke-opacity:1; 
stroke-linecap:round; stroke-linejoin:round;">
</g>
<g >
</g>
<g style="fill:#000000; fill-opacity:1.0000; 
stroke:#000000; stroke-width:0.0212; stroke-opacity:1; 
stroke-linecap:round; stroke-linejoin:round;">
</g>
<g style="fill:#000000; fill-opacity:1.0000; 
stroke:#000000; stroke-width:0.0000; stroke-opacity:1; 
stroke-linecap:round; stroke-linejoin:round;">
<path style="fill:#000000; fill-opacity:1.0000; 
stroke:#000000; stroke-width:0.0000; stroke-opacity:1; 
stroke-linecap:round; stroke-linejoin:round;fill-rule:evenodd;"
d="M 27.2250,7.6179
25.5250,7.6179
25.5250,5.9179
27.2250,5.9179
Z" /> 
<circle cx="23.8350" cy="6.7679" r="0.8500" /> 
<circle cx="21.2950" cy="6.7679" r="0.8500" /> 
<circle cx="18.7550" cy="6.7679" r="0.8500" /> 
<circle cx="16.2150" cy="6.7679" r="0.8500" /> 
</g>
<g >
</g>
<g >
</g>
<g style="fill:#000000; fill-opacity:1.0000; 
stroke:#000000; stroke-width:0.0000; stroke-opacity:1; 
stroke-linecap:round; stroke-linejoin:round;">
</g>
<g style="fill:#000000; fill-opacity:1.0000; 
stroke:#000000; stroke-width:1.5000; stroke-opacity:1; 
stroke-linecap:round; stroke-linejoin:round;">
</g>
<g style="fill:#000000; fill-opacity:0.0; 
stroke:#000000; stroke-width:1.5000; stroke-opacity:1; 
stroke-linecap:round; stroke-linejoin:round;">
<path d="M37.1400 9.5479
L37.1400 12.2079
" />
<path d="M23.8400 13.8379
L23.1100 14.5679
" />
<path d="M26.3750 6.7679
L34.3600 6.7679
" />
<path d="M37.1400 12.2079
L37.1400 13.2379
" />
<path d="M12.9000 14.5679
L10.5400 12.2079
" />
<path d="M35.8100 14.5679
L26.2000 14.5679
" />
<path d="M23.8400 12.2079
L23.8400 13.8379
" />
<path d="M34.3600 6.7679
L37.1400 9.5479
" />
<path d="M37.1400 13.2379
L35.8100 14.5679
" />
<path d="M23.1100 14.5679
L12.9000 14.5679
" />
<path d="M26.2000 14.5679
L23.8400 12.2079
" />
<path d="M33.9050 10.1229
L34.6000 10.8179
" />
<path d="M21.2950 6.7679
L21.2950 7.6729
" />
<path d="M34.6000 10.8179
L34.6000 12.2079
" />
<path d="M21.2950 7.6729
L23.7450 10.1229
" />
<path d="M23.7450 10.1229
L33.9050 10.1229
" />
<path d="M18.7550 6.7679
L18.7550 8.3079
" />
<path d="M21.3000 10.8529
L21.3000 12.2079
" />
<path d="M18.7550 8.3079
L21.3000 10.8529
" />
<path d="M9.9550 6.7679
L8.0000 8.7229
" />
<path d="M8.0000 8.7229
L8.0000 12.2079
" />
<path d="M16.2150 6.7679
L9.9550 6.7679
" />
</g>
<g >
</g>
</g>
<g style="fill:#000000; fill-opacity:0.0; 
stroke:#000000; stroke-width:1.5000; stroke-opacity:1; 
stroke-linecap:round; stroke-linejoin:round;">
</g>
<g style="fill:#000000; fill-opacity:0.0; 
stroke:#000000; stroke-width:0.1000; stroke-opacity:1; 
stroke-linecap:round; stroke-linejoin:round;">
<path d="M21.3000 4.6179
L39.8500 4.6179
" />
<path d="M0.0500 28.7679
L0.0500 7.3179
" />
<path d="M0.0500 28.7679 A2.7000 2.7000 0.0 0 0 2.7500 31.4679" />
<path d="M42.5500 7.3179
L42.5500 28.7679
" />
<path d="M2.7500 4.6179
L21.3000 4.6179
" />
<path d="M2.7500 4.6179 A2.7000 2.7000 0.0 0 0 0.0500 7.3179" />
<path d="M39.8500 31.4679 A2.7000 2.7000 0.0 0 0 42.5500 28.7679" />
<circle cx="2.7500" cy="7.3179" r="1.7000" /> 
<circle cx="2.7500" cy="28.7679" r="1.7000" /> 
<path d="M39.8500 31.4679
L2.7500 31.4679
" />
<path d="M42.5500 7.3179 A2.7000 2.7000 0.0 0 0 39.8500 4.6179" />
<circle cx="39.8500" cy="7.3179" r="1.7000" /> 
<circle cx="39.8500" cy="28.7679" r="1.7000" /> 
<g >
</g>
<g >
</g>
<g >
</g>
<g >
</g>
<g >
</g>
<g >
</g>
<g >
</g>
</g> 
</svg>
