<?xml version="1.0" standalone="no"?>
 <!DOCTYPE svg PUBLIC "-//W3C//DTD SVG 1.1//EN" 
 "http://www.w3.org/Graphics/SVG/1.1/DTD/svg11.dtd"> 
<svg
  xmlns:svg="http://www.w3.org/2000/svg"
  xmlns="http://www.w3.org/2000/svg"
  xmlns:xlink="http://www.w3.org/1999/xlink"
  version="1.1"
  width="42.7736mm" height="31.6992mm" viewBox="0.0000 0.0000 42.7736 31.6992">
<title>SVG Image created as Button_PCB-B_Silkscreen.svg date 2023/10/15 15:45:43 </title>
  <desc>Image generated by PCBNEW </desc>
<g style="fill:#000000; fill-opacity:1.0000;stroke:#000000; stroke-opacity:1.0000;
stroke-linecap:round; stroke-linejoin:round;"
 transform="translate(0 0) scale(1 1)">
</g>
<g style="fill:#000000; fill-opacity:0.0; 
stroke:#000000; stroke-width:0.0000; stroke-opacity:1; 
stroke-linecap:round; stroke-linejoin:round;">
</g>
<g style="fill:#000000; fill-opacity:0.0; 
stroke:#000000; stroke-width:0.1500; stroke-opacity:1; 
stroke-linecap:round; stroke-linejoin:round;">
<text x="21.3000" y="9.3179"
transform="scale(-1 1) translate(-42.600000 0)"
textLength="2.2710" font-size="1.0667" lengthAdjust="spacingAndGlyphs"
text-anchor="middle" opacity="0">RIG</text>
<g class="stroked-text"><desc>RIG</desc>
<path d="M21.6429 9.2727
L21.9095 8.7965
" />
<path d="M22.1000 9.2727
L22.1000 8.2727
" />
<path d="M22.1000 8.2727
L21.7952 8.2727
" />
<path d="M21.7952 8.2727
L21.7190 8.3203
" />
<path d="M21.7190 8.3203
L21.6810 8.3679
" />
<path d="M21.6810 8.3679
L21.6429 8.4632
" />
<path d="M21.6429 8.4632
L21.6429 8.6060
" />
<path d="M21.6429 8.6060
L21.6810 8.7012
" />
<path d="M21.6810 8.7012
L21.7190 8.7489
" />
<path d="M21.7190 8.7489
L21.7952 8.7965
" />
<path d="M21.7952 8.7965
L22.1000 8.7965
" />
<path d="M21.3000 9.2727
L21.3000 8.2727
" />
<path d="M20.5000 8.3203
L20.5762 8.2727
" />
<path d="M20.5762 8.2727
L20.6905 8.2727
" />
<path d="M20.6905 8.2727
L20.8048 8.3203
" />
<path d="M20.8048 8.3203
L20.8810 8.4155
" />
<path d="M20.8810 8.4155
L20.9190 8.5108
" />
<path d="M20.9190 8.5108
L20.9571 8.7012
" />
<path d="M20.9571 8.7012
L20.9571 8.8441
" />
<path d="M20.9571 8.8441
L20.9190 9.0346
" />
<path d="M20.9190 9.0346
L20.8810 9.1298
" />
<path d="M20.8810 9.1298
L20.8048 9.2251
" />
<path d="M20.8048 9.2251
L20.6905 9.2727
" />
<path d="M20.6905 9.2727
L20.6143 9.2727
" />
<path d="M20.6143 9.2727
L20.5000 9.2251
" />
<path d="M20.5000 9.2251
L20.4619 9.1774
" />
<path d="M20.4619 9.1774
L20.4619 8.8441
" />
<path d="M20.4619 8.8441
L20.6143 8.8441
" />
</g><text x="23.8300" y="9.3279"
transform="scale(-1 1) translate(-47.660000 0)"
textLength="2.7281" font-size="1.0667" lengthAdjust="spacingAndGlyphs"
text-anchor="middle" opacity="0">GND</text>
<g class="stroked-text"><desc>GND</desc>
<path d="M24.4395 8.3303
L24.5157 8.2827
" />
<path d="M24.5157 8.2827
L24.6300 8.2827
" />
<path d="M24.6300 8.2827
L24.7443 8.3303
" />
<path d="M24.7443 8.3303
L24.8205 8.4255
" />
<path d="M24.8205 8.4255
L24.8586 8.5208
" />
<path d="M24.8586 8.5208
L24.8967 8.7112
" />
<path d="M24.8967 8.7112
L24.8967 8.8541
" />
<path d="M24.8967 8.8541
L24.8586 9.0446
" />
<path d="M24.8586 9.0446
L24.8205 9.1398
" />
<path d="M24.8205 9.1398
L24.7443 9.2351
" />
<path d="M24.7443 9.2351
L24.6300 9.2827
" />
<path d="M24.6300 9.2827
L24.5538 9.2827
" />
<path d="M24.5538 9.2827
L24.4395 9.2351
" />
<path d="M24.4395 9.2351
L24.4014 9.1874
" />
<path d="M24.4014 9.1874
L24.4014 8.8541
" />
<path d="M24.4014 8.8541
L24.5538 8.8541
" />
<path d="M24.0586 9.2827
L24.0586 8.2827
" />
<path d="M24.0586 8.2827
L23.6014 9.2827
" />
<path d="M23.6014 9.2827
L23.6014 8.2827
" />
<path d="M23.2205 9.2827
L23.2205 8.2827
" />
<path d="M23.2205 8.2827
L23.0300 8.2827
" />
<path d="M23.0300 8.2827
L22.9157 8.3303
" />
<path d="M22.9157 8.3303
L22.8395 8.4255
" />
<path d="M22.8395 8.4255
L22.8014 8.5208
" />
<path d="M22.8014 8.5208
L22.7633 8.7112
" />
<path d="M22.7633 8.7112
L22.7633 8.8541
" />
<path d="M22.7633 8.8541
L22.8014 9.0446
" />
<path d="M22.8014 9.0446
L22.8395 9.1398
" />
<path d="M22.8395 9.1398
L22.9157 9.2351
" />
<path d="M22.9157 9.2351
L23.0300 9.2827
" />
<path d="M23.0300 9.2827
L23.2205 9.2827
" />
</g><text x="16.2200" y="9.3179"
transform="scale(-1 1) translate(-32.440000 0)"
textLength="2.3471" font-size="1.0667" lengthAdjust="spacingAndGlyphs"
text-anchor="middle" opacity="0">LEF</text>
<g class="stroked-text"><desc>LEF</desc>
<path d="M16.6771 9.2727
L17.0581 9.2727
" />
<path d="M17.0581 9.2727
L17.0581 8.2727
" />
<path d="M16.4105 8.7489
L16.1438 8.7489
" />
<path d="M16.0295 9.2727
L16.4105 9.2727
" />
<path d="M16.4105 9.2727
L16.4105 8.2727
" />
<path d="M16.4105 8.2727
L16.0295 8.2727
" />
<path d="M15.4200 8.7489
L15.6867 8.7489
" />
<path d="M15.6867 9.2727
L15.6867 8.2727
" />
<path d="M15.6867 8.2727
L15.3057 8.2727
" />
</g><text x="26.3500" y="9.3179"
transform="scale(-1 1) translate(-52.700000 0)"
textLength="2.5757" font-size="1.0667" lengthAdjust="spacingAndGlyphs"
text-anchor="middle" opacity="0">VCC</text>
<g class="stroked-text"><desc>VCC</desc>
<path d="M27.4167 8.2727
L27.1500 9.2727
" />
<path d="M27.1500 9.2727
L26.8833 8.2727
" />
<path d="M26.1595 9.1774
L26.1976 9.2251
" />
<path d="M26.1976 9.2251
L26.3119 9.2727
" />
<path d="M26.3119 9.2727
L26.3881 9.2727
" />
<path d="M26.3881 9.2727
L26.5024 9.2251
" />
<path d="M26.5024 9.2251
L26.5786 9.1298
" />
<path d="M26.5786 9.1298
L26.6167 9.0346
" />
<path d="M26.6167 9.0346
L26.6548 8.8441
" />
<path d="M26.6548 8.8441
L26.6548 8.7012
" />
<path d="M26.6548 8.7012
L26.6167 8.5108
" />
<path d="M26.6167 8.5108
L26.5786 8.4155
" />
<path d="M26.5786 8.4155
L26.5024 8.3203
" />
<path d="M26.5024 8.3203
L26.3881 8.2727
" />
<path d="M26.3881 8.2727
L26.3119 8.2727
" />
<path d="M26.3119 8.2727
L26.1976 8.3203
" />
<path d="M26.1976 8.3203
L26.1595 8.3679
" />
<path d="M25.3595 9.1774
L25.3976 9.2251
" />
<path d="M25.3976 9.2251
L25.5119 9.2727
" />
<path d="M25.5119 9.2727
L25.5881 9.2727
" />
<path d="M25.5881 9.2727
L25.7024 9.2251
" />
<path d="M25.7024 9.2251
L25.7786 9.1298
" />
<path d="M25.7786 9.1298
L25.8167 9.0346
" />
<path d="M25.8167 9.0346
L25.8548 8.8441
" />
<path d="M25.8548 8.8441
L25.8548 8.7012
" />
<path d="M25.8548 8.7012
L25.8167 8.5108
" />
<path d="M25.8167 8.5108
L25.7786 8.4155
" />
<path d="M25.7786 8.4155
L25.7024 8.3203
" />
<path d="M25.7024 8.3203
L25.5881 8.2727
" />
<path d="M25.5881 8.2727
L25.5119 8.2727
" />
<path d="M25.5119 8.2727
L25.3976 8.3203
" />
<path d="M25.3976 8.3203
L25.3595 8.3679
" />
</g><text x="18.7900" y="9.3179"
transform="scale(-1 1) translate(-37.580000 0)"
textLength="2.3852" font-size="1.0667" lengthAdjust="spacingAndGlyphs"
text-anchor="middle" opacity="0">MID</text>
<g class="stroked-text"><desc>MID</desc>
<path d="M19.6471 9.2727
L19.6471 8.2727
" />
<path d="M19.6471 8.2727
L19.3805 8.9870
" />
<path d="M19.3805 8.9870
L19.1138 8.2727
" />
<path d="M19.1138 8.2727
L19.1138 9.2727
" />
<path d="M18.7329 9.2727
L18.7329 8.2727
" />
<path d="M18.3519 9.2727
L18.3519 8.2727
" />
<path d="M18.3519 8.2727
L18.1614 8.2727
" />
<path d="M18.1614 8.2727
L18.0471 8.3203
" />
<path d="M18.0471 8.3203
L17.9710 8.4155
" />
<path d="M17.9710 8.4155
L17.9329 8.5108
" />
<path d="M17.9329 8.5108
L17.8948 8.7012
" />
<path d="M17.8948 8.7012
L17.8948 8.8441
" />
<path d="M17.8948 8.8441
L17.9329 9.0346
" />
<path d="M17.9329 9.0346
L17.9710 9.1298
" />
<path d="M17.9710 9.1298
L18.0471 9.2251
" />
<path d="M18.0471 9.2251
L18.1614 9.2727
" />
<path d="M18.1614 9.2727
L18.3519 9.2727
" />
</g><text x="28.7600" y="7.2579"
transform="scale(-1 1) translate(-57.520000 0)"
textLength="1.9643" font-size="1.3333" lengthAdjust="spacingAndGlyphs"
text-anchor="middle" opacity="0">J1</text>
<g class="stroked-text"><desc>J1</desc>
<path d="M29.0933 6.2127
L29.0933 6.9270
" />
<path d="M29.0933 6.9270
L29.1410 7.0698
" />
<path d="M29.1410 7.0698
L29.2362 7.1651
" />
<path d="M29.2362 7.1651
L29.3790 7.2127
" />
<path d="M29.3790 7.2127
L29.4743 7.2127
" />
<path d="M28.0933 7.2127
L28.6648 7.2127
" />
<path d="M28.3790 7.2127
L28.3790 6.2127
" />
<path d="M28.3790 6.2127
L28.4743 6.3555
" />
<path d="M28.4743 6.3555
L28.5695 6.4508
" />
<path d="M28.5695 6.4508
L28.6648 6.4984
" />
</g></g>
<g style="fill:#000000; fill-opacity:0.0; 
stroke:#000000; stroke-width:0.1200; stroke-opacity:1; 
stroke-linecap:round; stroke-linejoin:round;">
<path d="M14.8850 8.0979
L14.8850 5.4379
" />
<path d="M25.1050 8.0979
L14.8850 8.0979
" />
<path d="M25.1050 8.0979
L25.1050 5.4379
" />
<path d="M26.3750 8.0979
L27.7050 8.0979
" />
<path d="M27.7050 8.0979
L27.7050 6.7679
" />
<path d="M25.1050 5.4379
L14.8850 5.4379
" />
<g >
</g>
<g >
</g>
<g >
</g>
<g >
</g>
<g >
</g>
<g >
</g>
<g >
</g>
</g>
<g style="fill:#000000; fill-opacity:0.0; 
stroke:#000000; stroke-width:0.1200; stroke-opacity:1; 
stroke-linecap:round; stroke-linejoin:round;">
</g>
<g style="fill:#000000; fill-opacity:0.0; 
stroke:#000000; stroke-width:0.1000; stroke-opacity:1; 
stroke-linecap:round; stroke-linejoin:round;">
<path d="M21.3000 4.6179
L39.8500 4.6179
" />
<path d="M0.0500 28.7679
L0.0500 7.3179
" />
<path d="M0.0500 28.7679 A2.7000 2.7000 0.0 0 0 2.7500 31.4679" />
<path d="M42.5500 7.3179
L42.5500 28.7679
" />
<path d="M2.7500 4.6179
L21.3000 4.6179
" />
<path d="M2.7500 4.6179 A2.7000 2.7000 0.0 0 0 0.0500 7.3179" />
<path d="M39.8500 31.4679 A2.7000 2.7000 0.0 0 0 42.5500 28.7679" />
<circle cx="2.7500" cy="7.3179" r="1.7000" /> 
<circle cx="2.7500" cy="28.7679" r="1.7000" /> 
<path d="M39.8500 31.4679
L2.7500 31.4679
" />
<path d="M42.5500 7.3179 A2.7000 2.7000 0.0 0 0 39.8500 4.6179" />
<circle cx="39.8500" cy="7.3179" r="1.7000" /> 
<circle cx="39.8500" cy="28.7679" r="1.7000" /> 
<g >
</g>
<g >
</g>
<g >
</g>
<g >
</g>
<g >
</g>
<g >
</g>
<g >
</g>
</g> 
</svg>
