<?xml version="1.0" standalone="no"?>
 <!DOCTYPE svg PUBLIC "-//W3C//DTD SVG 1.1//EN" 
 "http://www.w3.org/Graphics/SVG/1.1/DTD/svg11.dtd"> 
<svg
  xmlns:svg="http://www.w3.org/2000/svg"
  xmlns="http://www.w3.org/2000/svg"
  xmlns:xlink="http://www.w3.org/1999/xlink"
  version="1.1"
  width="42.7736mm" height="31.6992mm" viewBox="0.0000 0.0000 42.7736 31.6992">
<title>SVG Image created as Button_PCB-B_Cu.svg date 2023/10/15 15:45:43 </title>
  <desc>Image generated by PCBNEW </desc>
<g style="fill:#000000; fill-opacity:1.0000;stroke:#000000; stroke-opacity:1.0000;
stroke-linecap:round; stroke-linejoin:round;"
 transform="translate(0 0) scale(1 1)">
</g>
<g style="fill:#000000; fill-opacity:0.0; 
stroke:#000000; stroke-width:0.0000; stroke-opacity:1; 
stroke-linecap:round; stroke-linejoin:round;">
<g >
</g>
<g style="fill:#000000; fill-opacity:1.0000; 
stroke:#000000; stroke-width:0.0000; stroke-opacity:1; 
stroke-linecap:round; stroke-linejoin:round;">
<circle cx="5.4600" cy="12.2079" r="0.7620" /> 
</g>
<g style="fill:#000000; fill-opacity:1.0000; 
stroke:#000000; stroke-width:0.0212; stroke-opacity:1; 
stroke-linecap:round; stroke-linejoin:round;">
</g>
<g style="fill:#000000; fill-opacity:1.0000; 
stroke:#000000; stroke-width:0.0000; stroke-opacity:1; 
stroke-linecap:round; stroke-linejoin:round;">
<circle cx="8.0000" cy="12.2079" r="0.7620" /> 
</g>
<g style="fill:#000000; fill-opacity:1.0000; 
stroke:#000000; stroke-width:0.0212; stroke-opacity:1; 
stroke-linecap:round; stroke-linejoin:round;">
</g>
<g style="fill:#000000; fill-opacity:1.0000; 
stroke:#000000; stroke-width:0.0000; stroke-opacity:1; 
stroke-linecap:round; stroke-linejoin:round;">
<circle cx="10.5400" cy="12.2079" r="0.7620" /> 
</g>
<g style="fill:#000000; fill-opacity:1.0000; 
stroke:#000000; stroke-width:0.0212; stroke-opacity:1; 
stroke-linecap:round; stroke-linejoin:round;">
</g>
<g >
</g>
<g style="fill:#000000; fill-opacity:1.0000; 
stroke:#000000; stroke-width:0.0212; stroke-opacity:1; 
stroke-linecap:round; stroke-linejoin:round;">
</g>
<g style="fill:#000000; fill-opacity:1.0000; 
stroke:#000000; stroke-width:0.0000; stroke-opacity:1; 
stroke-linecap:round; stroke-linejoin:round;">
<circle cx="32.0600" cy="12.2079" r="0.7620" /> 
</g>
<g style="fill:#000000; fill-opacity:1.0000; 
stroke:#000000; stroke-width:0.0212; stroke-opacity:1; 
stroke-linecap:round; stroke-linejoin:round;">
</g>
<g style="fill:#000000; fill-opacity:1.0000; 
stroke:#000000; stroke-width:0.0000; stroke-opacity:1; 
stroke-linecap:round; stroke-linejoin:round;">
<circle cx="34.6000" cy="12.2079" r="0.7620" /> 
</g>
<g style="fill:#000000; fill-opacity:1.0000; 
stroke:#000000; stroke-width:0.0212; stroke-opacity:1; 
stroke-linecap:round; stroke-linejoin:round;">
</g>
<g style="fill:#000000; fill-opacity:1.0000; 
stroke:#000000; stroke-width:0.0000; stroke-opacity:1; 
stroke-linecap:round; stroke-linejoin:round;">
<circle cx="37.1400" cy="12.2079" r="0.7620" /> 
</g>
<g style="fill:#000000; fill-opacity:1.0000; 
stroke:#000000; stroke-width:0.0212; stroke-opacity:1; 
stroke-linecap:round; stroke-linejoin:round;">
</g>
<g >
</g>
<g style="fill:#000000; fill-opacity:1.0000; 
stroke:#000000; stroke-width:0.0212; stroke-opacity:1; 
stroke-linecap:round; stroke-linejoin:round;">
</g>
<g style="fill:#000000; fill-opacity:1.0000; 
stroke:#000000; stroke-width:0.0000; stroke-opacity:1; 
stroke-linecap:round; stroke-linejoin:round;">
<circle cx="18.7600" cy="12.2079" r="0.7620" /> 
</g>
<g style="fill:#000000; fill-opacity:1.0000; 
stroke:#000000; stroke-width:0.0212; stroke-opacity:1; 
stroke-linecap:round; stroke-linejoin:round;">
</g>
<g style="fill:#000000; fill-opacity:1.0000; 
stroke:#000000; stroke-width:0.0000; stroke-opacity:1; 
stroke-linecap:round; stroke-linejoin:round;">
<circle cx="21.3000" cy="12.2079" r="0.7620" /> 
</g>
<g style="fill:#000000; fill-opacity:1.0000; 
stroke:#000000; stroke-width:0.0212; stroke-opacity:1; 
stroke-linecap:round; stroke-linejoin:round;">
</g>
<g style="fill:#000000; fill-opacity:1.0000; 
stroke:#000000; stroke-width:0.0000; stroke-opacity:1; 
stroke-linecap:round; stroke-linejoin:round;">
<circle cx="23.8400" cy="12.2079" r="0.7620" /> 
</g>
<g style="fill:#000000; fill-opacity:1.0000; 
stroke:#000000; stroke-width:0.0212; stroke-opacity:1; 
stroke-linecap:round; stroke-linejoin:round;">
</g>
<g >
</g>
<g style="fill:#000000; fill-opacity:1.0000; 
stroke:#000000; stroke-width:0.0212; stroke-opacity:1; 
stroke-linecap:round; stroke-linejoin:round;">
</g>
<g style="fill:#000000; fill-opacity:1.0000; 
stroke:#000000; stroke-width:0.0000; stroke-opacity:1; 
stroke-linecap:round; stroke-linejoin:round;">
<path style="fill:#000000; fill-opacity:1.0000; 
stroke:#000000; stroke-width:0.0000; stroke-opacity:1; 
stroke-linecap:round; stroke-linejoin:round;fill-rule:evenodd;"
d="M 27.2250,7.6179
25.5250,7.6179
25.5250,5.9179
27.2250,5.9179
Z" /> 
<circle cx="23.8350" cy="6.7679" r="0.8500" /> 
<circle cx="21.2950" cy="6.7679" r="0.8500" /> 
<circle cx="18.7550" cy="6.7679" r="0.8500" /> 
<circle cx="16.2150" cy="6.7679" r="0.8500" /> 
</g>
<g >
</g>
<g >
</g>
<g >
</g>
<g style="fill:#000000; fill-opacity:1.0000; 
stroke:#000000; stroke-width:0.0000; stroke-opacity:1; 
stroke-linecap:round; stroke-linejoin:round;">
<g >
<path style="fill:#000000; fill-opacity:1.0000; 
stroke:#000000; stroke-width:0.0000; stroke-opacity:1; 
stroke-linecap:round; stroke-linejoin:round;fill-rule:evenodd;"
d="M 39.8517,4.6185
39.8829,4.6202
39.9656,4.6249
40.1563,4.6364
40.1629,4.6371
40.3050,4.6613
40.4662,4.6908
40.4722,4.6922
40.6161,4.7337
40.7677,4.7809
40.7729,4.7828
40.8989,4.8350
40.9136,4.8411
41.0566,4.9054
41.0611,4.9077
41.1955,4.9820
41.3291,5.0627
41.3328,5.0652
41.4576,5.1537
41.4599,5.1555
41.5814,5.2506
41.5845,5.2532
41.6987,5.3553
41.7012,5.3577
41.8102,5.4666
41.8126,5.4692
41.9147,5.5834
41.9172,5.5865
42.0124,5.7079
42.0142,5.7103
42.0285,5.7305
42.0839,5.8087
42.1026,5.8350
42.1051,5.8388
42.1859,5.9723
42.2601,6.1067
42.2624,6.1113
42.3268,6.2543
42.3850,6.3949
42.3869,6.4002
42.4342,6.5517
42.4756,6.6957
42.4770,6.7016
42.5066,6.8628
42.5307,7.0049
42.5315,7.0116
42.5430,7.2024
42.5494,7.3161
42.5495,7.3196
42.5495,28.7661
42.5494,28.7696
42.5430,28.8833
42.5315,29.0742
42.5307,29.0808
42.5066,29.2229
42.4770,29.3841
42.4756,29.3901
42.4342,29.5340
42.3869,29.6855
42.3850,29.6908
42.3268,29.8314
42.2624,29.9744
42.2601,29.9790
42.1859,30.1134
42.1051,30.2469
42.1026,30.2507
42.0142,30.3754
42.0124,30.3778
41.9172,30.4992
41.9147,30.5023
41.8126,30.6165
41.8102,30.6191
41.7012,30.7281
41.6987,30.7304
41.5845,30.8325
41.5814,30.8351
41.4599,30.9303
41.4576,30.9320
41.3329,31.0205
41.3291,31.0230
41.1955,31.1037
41.0611,31.1780
41.0566,31.1803
40.9136,31.2446
40.7729,31.3029
40.7677,31.3048
40.6161,31.3520
40.4722,31.3935
40.4662,31.3949
40.3050,31.4244
40.1629,31.4486
40.1563,31.4493
39.9655,31.4609
39.8517,31.4673
39.8483,31.4674
2.7517,31.4674
2.7483,31.4673
2.6345,31.4609
2.4437,31.4493
2.4371,31.4486
2.2950,31.4244
2.1338,31.3949
2.1278,31.3935
1.9839,31.3520
1.8323,31.3048
1.8271,31.3029
1.6864,31.2446
1.5434,31.1803
1.5389,31.1780
1.4045,31.1037
1.2709,31.0230
1.2671,31.0205
1.1965,30.9704
1.1424,30.9320
1.1401,30.9303
1.0186,30.8351
1.0155,30.8325
0.9013,30.7304
0.8988,30.7281
0.7898,30.6191
0.7874,30.6165
0.6853,30.5023
0.6828,30.4992
0.5876,30.3778
0.5858,30.3754
0.5827,30.3709
0.4973,30.2507
0.4949,30.2469
0.4141,30.1134
0.3399,29.9790
0.3376,29.9744
0.2732,29.8314
0.2594,29.7981
0.2500,29.7507
0.2500,28.7679
1.0447,28.7679
1.0638,29.0220
1.1201,29.2688
1.1205,29.2705
1.2136,29.5077
1.3410,29.7285
1.4999,29.9277
1.6868,30.1011
1.8974,30.2447
1.8974,30.2447
1.8974,30.2447
1.8974,30.2447
2.0559,30.3210
2.1270,30.3552
2.1692,30.3683
2.1762,30.3709
2.2112,30.3866
2.2392,30.3899
2.3705,30.4304
2.3705,30.4304
2.3705,30.4304
2.4181,30.4375
2.4253,30.4391
2.4280,30.4398
2.4280,30.4398
2.4622,30.4492
2.4892,30.4483
2.6226,30.4684
2.6226,30.4684
2.6747,30.4684
2.6818,30.4688
2.7197,30.4731
2.7452,30.4684
2.8774,30.4684
2.8774,30.4684
2.9330,30.4600
2.9399,30.4593
2.9452,30.4591
2.9452,30.4591
2.9473,30.4590
2.9473,30.4590
2.9778,30.4579
3.0012,30.4497
3.1295,30.4304
3.1872,30.4126
3.1936,30.4110
3.2011,30.4095
3.2011,30.4095
3.2018,30.4094
3.2018,30.4094
3.2305,30.4038
3.2514,30.3927
3.3730,30.3552
3.4312,30.3272
3.4371,30.3248
3.4464,30.3214
3.4464,30.3214
3.4474,30.3210
3.4475,30.3210
3.4722,30.3122
3.4902,30.2988
3.6026,30.2447
3.6595,30.2059
3.6648,30.2027
3.6754,30.1969
3.6754,30.1969
3.6971,30.1851
3.7121,30.1701
3.8132,30.1011
3.8669,30.0513
3.8714,30.0475
3.9002,30.0256
3.9120,30.0094
4.0000,29.9277
4.0484,29.8670
4.0522,29.8627
4.0635,29.8511
4.0635,29.8511
4.0641,29.8504
4.0641,29.8504
4.0768,29.8372
4.0854,29.8207
4.1590,29.7285
4.1608,29.7252
4.1838,29.6855
4.2000,29.6573
4.2030,29.6527
4.2134,29.6379
4.2134,29.6379
4.2228,29.6245
4.2285,29.6080
4.2864,29.5077
4.3181,29.4269
4.3203,29.4221
4.3243,29.4140
4.3291,29.4043
4.3291,29.4043
4.3311,29.4001
4.3319,29.3993
4.3333,29.3957
4.3338,29.3947
4.3354,29.3844
4.3371,29.3790
4.3385,29.3751
4.3795,29.2705
4.3999,29.1812
4.4012,29.1763
4.4075,29.1565
4.4087,29.1547
4.4102,29.1483
4.4102,29.1399
4.4116,29.1305
4.4124,29.1262
4.4362,29.0220
4.4434,28.9257
4.4440,28.9210
4.4475,28.8982
4.4475,28.8982
4.4476,28.8973
4.4477,28.8972
4.4487,28.8907
4.4478,28.8847
4.4478,28.8833
4.4482,28.8639
4.4483,28.8606
4.4553,28.7679
38.1447,28.7679
38.1638,29.0220
38.2201,29.2688
38.2205,29.2705
38.3136,29.5077
38.4410,29.7285
38.5999,29.9277
38.7868,30.1011
38.9974,30.2447
38.9974,30.2447
38.9974,30.2447
38.9974,30.2447
39.1559,30.3210
39.2270,30.3552
39.2692,30.3683
39.2762,30.3709
39.3112,30.3866
39.3392,30.3899
39.4705,30.4304
39.4705,30.4304
39.4705,30.4304
39.5181,30.4375
39.5253,30.4391
39.5280,30.4398
39.5280,30.4398
39.5622,30.4492
39.5892,30.4483
39.7226,30.4684
39.7226,30.4684
39.7747,30.4684
39.7818,30.4688
39.8197,30.4731
39.8452,30.4684
39.9774,30.4684
39.9774,30.4684
40.0330,30.4600
40.0399,30.4593
40.0452,30.4591
40.0452,30.4591
40.0473,30.4590
40.0473,30.4590
40.0778,30.4579
40.1012,30.4497
40.2295,30.4304
40.2872,30.4126
40.2936,30.4110
40.3011,30.4095
40.3011,30.4095
40.3018,30.4094
40.3018,30.4094
40.3305,30.4038
40.3514,30.3927
40.4730,30.3552
40.5312,30.3272
40.5371,30.3248
40.5464,30.3214
40.5464,30.3214
40.5474,30.3210
40.5475,30.3210
40.5722,30.3122
40.5902,30.2988
40.7026,30.2447
40.7595,30.2059
40.7648,30.2027
40.7754,30.1969
40.7754,30.1969
40.7971,30.1851
40.8121,30.1701
40.9132,30.1011
40.9669,30.0513
40.9714,30.0475
41.0002,30.0256
41.0120,30.0094
41.1000,29.9277
41.1484,29.8670
41.1522,29.8627
41.1635,29.8511
41.1635,29.8511
41.1641,29.8504
41.1641,29.8504
41.1768,29.8372
41.1854,29.8207
41.2590,29.7285
41.2608,29.7252
41.2838,29.6855
41.3000,29.6573
41.3030,29.6527
41.3134,29.6379
41.3134,29.6379
41.3228,29.6245
41.3285,29.6080
41.3864,29.5077
41.4181,29.4269
41.4203,29.4221
41.4243,29.4140
41.4291,29.4043
41.4291,29.4043
41.4311,29.4001
41.4318,29.3993
41.4333,29.3957
41.4338,29.3947
41.4354,29.3844
41.4371,29.3790
41.4385,29.3751
41.4795,29.2705
41.4999,29.1812
41.5012,29.1763
41.5075,29.1565
41.5087,29.1547
41.5102,29.1483
41.5102,29.1399
41.5116,29.1305
41.5124,29.1262
41.5362,29.0220
41.5434,28.9257
41.5440,28.9210
41.5475,28.8982
41.5475,28.8982
41.5476,28.8973
41.5477,28.8972
41.5487,28.8907
41.5478,28.8847
41.5478,28.8833
41.5482,28.8639
41.5483,28.8606
41.5553,28.7679
41.5551,28.7661
41.5545,28.7578
41.5483,28.6751
41.5482,28.6718
41.5478,28.6510
41.5489,28.6467
41.5477,28.6388
41.5477,28.6387
41.5475,28.6375
41.5475,28.6375
41.5440,28.6147
41.5434,28.6100
41.5362,28.5137
41.5124,28.4095
41.5116,28.4053
41.5102,28.3958
41.5109,28.3901
41.5106,28.3890
41.5090,28.3822
41.5075,28.3792
41.5070,28.3775
41.5012,28.3594
41.4999,28.3545
41.4795,28.2652
41.4385,28.1606
41.4371,28.1567
41.4354,28.1513
41.4352,28.1438
41.4333,28.1400
41.4321,28.1369
41.4311,28.1356
41.4291,28.1314
41.4202,28.1136
41.4181,28.1088
41.3864,28.0280
41.3285,27.9277
41.3254,27.9148
41.3030,27.8830
41.3000,27.8784
41.2608,27.8105
41.2590,27.8072
41.1854,27.7150
41.1801,27.7019
41.1522,27.6730
41.1484,27.6687
41.1000,27.6080
41.1000,27.6080
41.0120,27.5263
41.0042,27.5132
40.9714,27.4882
40.9668,27.4844
40.9132,27.4346
40.8121,27.3657
40.8018,27.3532
40.7648,27.3331
40.7595,27.3298
40.7026,27.2911
40.7026,27.2911
40.5902,27.2369
40.5776,27.2255
40.5488,27.2152
40.5488,27.2152
40.5371,27.2110
40.5312,27.2085
40.4730,27.1805
40.4730,27.1805
40.4222,27.1648
40.3514,27.1430
40.3365,27.1331
40.2936,27.1248
40.2871,27.1231
40.2295,27.1053
40.2295,27.1053
40.2295,27.1053
40.1819,27.0982
40.1012,27.0860
40.0841,27.0781
40.0399,27.0764
40.0330,27.0757
39.9774,27.0674
39.9774,27.0674
39.8452,27.0674
39.8263,27.0618
39.7912,27.0659
39.7912,27.0659
39.7818,27.0669
39.7747,27.0674
39.7226,27.0674
39.5892,27.0875
39.5689,27.0847
39.5291,27.0956
39.5290,27.0956
39.5253,27.0967
39.5181,27.0982
39.4705,27.1053
39.3391,27.1459
39.3178,27.1462
39.2762,27.1648
39.2692,27.1675
39.2270,27.1805
38.9974,27.2910
38.7868,27.4346
38.6000,27.6080
38.5999,27.6080
38.4410,27.8072
38.3136,28.0280
38.2205,28.2652
38.2205,28.2652
38.1638,28.5137
38.1447,28.7679
38.1447,28.7679
4.4553,28.7679
4.4553,28.7679
4.4551,28.7661
4.4545,28.7578
4.4483,28.6751
4.4482,28.6718
4.4478,28.6510
4.4489,28.6467
4.4477,28.6388
4.4477,28.6387
4.4475,28.6375
4.4475,28.6375
4.4440,28.6147
4.4434,28.6100
4.4362,28.5137
4.4124,28.4095
4.4116,28.4053
4.4102,28.3958
4.4109,28.3901
4.4106,28.3890
4.4090,28.3822
4.4075,28.3792
4.4070,28.3775
4.4012,28.3594
4.3999,28.3545
4.3795,28.2652
4.3385,28.1606
4.3371,28.1567
4.3354,28.1513
4.3352,28.1438
4.3333,28.1400
4.3321,28.1369
4.3311,28.1356
4.3291,28.1314
4.3202,28.1136
4.3181,28.1088
4.2864,28.0280
4.2285,27.9277
4.2254,27.9148
4.2030,27.8830
4.2000,27.8784
4.1608,27.8105
4.1590,27.8072
4.0854,27.7150
4.0801,27.7019
4.0522,27.6730
4.0484,27.6687
4.0000,27.6080
4.0000,27.6080
3.9120,27.5263
3.9042,27.5132
3.8714,27.4882
3.8668,27.4844
3.8132,27.4346
3.7121,27.3657
3.7018,27.3532
3.6648,27.3331
3.6595,27.3298
3.6026,27.2911
3.6026,27.2911
3.4902,27.2369
3.4776,27.2255
3.4488,27.2152
3.4488,27.2152
3.4371,27.2110
3.4312,27.2085
3.3730,27.1805
3.3730,27.1805
3.3222,27.1648
3.2514,27.1430
3.2365,27.1331
3.1936,27.1248
3.1871,27.1231
3.1295,27.1053
3.1295,27.1053
3.1295,27.1053
3.0819,27.0982
3.0012,27.0860
2.9841,27.0781
2.9399,27.0764
2.9330,27.0757
2.8774,27.0674
2.8774,27.0674
2.7452,27.0674
2.7263,27.0618
2.6912,27.0659
2.6912,27.0659
2.6818,27.0669
2.6747,27.0674
2.6226,27.0674
2.4892,27.0875
2.4689,27.0847
2.4291,27.0956
2.4290,27.0956
2.4253,27.0967
2.4181,27.0982
2.3705,27.1053
2.2391,27.1459
2.2178,27.1462
2.1762,27.1648
2.1692,27.1675
2.1270,27.1805
1.8974,27.2910
1.6868,27.4346
1.5000,27.6080
1.4999,27.6080
1.3410,27.8072
1.2136,28.0280
1.1205,28.2652
1.1205,28.2652
1.0638,28.5137
1.0447,28.7679
1.0447,28.7679
0.2500,28.7679
0.2500,12.2079
4.1932,12.2079
4.2124,12.4278
4.2124,12.4278
4.2696,12.6411
4.2696,12.6411
4.3629,12.8413
4.3629,12.8413
4.4083,12.9060
4.9371,12.3773
4.9984,12.3438
5.0681,12.3488
5.1240,12.3906
5.1285,12.3971
5.1758,12.4695
5.2762,12.5476
5.2762,12.5476
5.2765,12.5478
5.3173,12.6046
5.3210,12.6743
5.2880,12.7334
4.7618,13.2596
4.8266,13.3050
4.8266,13.3050
5.0267,13.3983
5.0267,13.3983
5.2400,13.4554
5.2400,13.4554
5.4600,13.4747
5.4600,13.4747
5.6800,13.4554
5.6800,13.4554
5.8933,13.3983
5.8933,13.3983
6.0934,13.3050
6.0934,13.3050
6.1582,13.2596
6.1582,13.2596
5.6293,12.7307
5.5958,12.6694
5.6008,12.5997
5.6426,12.5437
5.6579,12.5340
5.6973,12.5127
5.7834,12.4191
5.7841,12.4175
5.7857,12.4156
5.7890,12.4105
5.7896,12.4109
5.8290,12.3640
5.8958,12.3433
5.9631,12.3620
5.9853,12.3796
6.5117,12.9060
6.5117,12.9060
6.5571,12.8413
6.5571,12.8413
6.6129,12.7215
6.6591,12.6691
6.7263,12.6499
6.7932,12.6702
6.8377,12.7215
6.8955,12.8455
6.8955,12.8455
7.0230,13.0276
7.1802,13.1848
7.3623,13.3123
7.5638,13.4063
7.7785,13.4638
7.9367,13.4777
8.0000,13.4832
8.0000,13.4832
8.0000,13.4832
8.0554,13.4784
8.2215,13.4638
8.4362,13.4063
8.6377,13.3123
8.8198,13.1848
8.9770,13.0276
9.1045,12.8455
9.1576,12.7316
9.2038,12.6792
9.2710,12.6600
9.3379,12.6802
9.3824,12.7316
9.4355,12.8455
9.5630,13.0276
9.7202,13.1848
9.9023,13.3123
10.1038,13.4063
10.3185,13.4638
10.4767,13.4777
10.5400,13.4832
10.5400,13.4832
10.5400,13.4832
10.5954,13.4784
10.7615,13.4638
10.9762,13.4063
11.1777,13.3123
11.3598,13.1848
11.5170,13.0276
11.6445,12.8455
11.7384,12.6441
11.7960,12.4293
11.8154,12.2079
17.4932,12.2079
17.5124,12.4278
17.5124,12.4278
17.5696,12.6411
17.5696,12.6411
17.6629,12.8413
17.6629,12.8413
17.7083,12.9060
18.2370,12.3773
18.2984,12.3438
18.3681,12.3488
18.4240,12.3906
18.4285,12.3971
18.4758,12.4695
18.5762,12.5476
18.5762,12.5476
18.5765,12.5478
18.6173,12.6046
18.6210,12.6743
18.5880,12.7334
18.0618,13.2596
18.1266,13.3050
18.1266,13.3050
18.3267,13.3983
18.3267,13.3983
18.5400,13.4554
18.5400,13.4554
18.7600,13.4747
18.7600,13.4747
18.9800,13.4554
18.9800,13.4554
19.1933,13.3983
19.1933,13.3983
19.3934,13.3050
19.3934,13.3050
19.4582,13.2596
19.4582,13.2596
18.9293,12.7307
18.8958,12.6694
18.9008,12.5997
18.9426,12.5437
18.9579,12.5340
18.9973,12.5127
19.0834,12.4191
19.0841,12.4175
19.0857,12.4156
19.0890,12.4105
19.0896,12.4109
19.1290,12.3640
19.1958,12.3433
19.2631,12.3620
19.2853,12.3796
19.8117,12.9060
19.8117,12.9060
19.8571,12.8413
19.8571,12.8413
19.9129,12.7215
19.9591,12.6691
20.0263,12.6499
20.0932,12.6702
20.1377,12.7215
20.1955,12.8455
20.1955,12.8455
20.3230,13.0276
20.4802,13.1848
20.6623,13.3123
20.8638,13.4063
21.0785,13.4638
21.2367,13.4777
21.3000,13.4832
21.3000,13.4832
21.3000,13.4832
21.3554,13.4784
21.5215,13.4638
21.7362,13.4063
21.9377,13.3123
22.1198,13.1848
22.2770,13.0276
22.4045,12.8455
22.4576,12.7316
22.5038,12.6792
22.5710,12.6600
22.6379,12.6802
22.6824,12.7316
22.7355,12.8455
22.8630,13.0276
23.0202,13.1848
23.2023,13.3123
23.4038,13.4063
23.6185,13.4638
23.7767,13.4777
23.8400,13.4832
23.8400,13.4832
23.8400,13.4832
23.8954,13.4784
24.0615,13.4638
24.2762,13.4063
24.4777,13.3123
24.6598,13.1848
24.8170,13.0276
24.9445,12.8455
25.0384,12.6441
25.0960,12.4293
25.1154,12.2079
30.7932,12.2079
30.8124,12.4278
30.8124,12.4278
30.8696,12.6411
30.8696,12.6411
30.9629,12.8413
30.9629,12.8413
31.0083,12.9060
31.5370,12.3773
31.5984,12.3438
31.6681,12.3488
31.7240,12.3906
31.7285,12.3971
31.7758,12.4695
31.8762,12.5476
31.8762,12.5476
31.8765,12.5478
31.9173,12.6046
31.9210,12.6743
31.8880,12.7334
31.3618,13.2596
31.4266,13.3050
31.4266,13.3050
31.6267,13.3983
31.6267,13.3983
31.8400,13.4554
31.8400,13.4554
32.0600,13.4747
32.0600,13.4747
32.2800,13.4554
32.2800,13.4554
32.4933,13.3983
32.4933,13.3983
32.6934,13.3050
32.6934,13.3050
32.7582,13.2596
32.7582,13.2596
32.2293,12.7307
32.1958,12.6694
32.2008,12.5997
32.2426,12.5437
32.2579,12.5340
32.2973,12.5127
32.3834,12.4191
32.3841,12.4175
32.3857,12.4156
32.3890,12.4105
32.3896,12.4109
32.4290,12.3640
32.4958,12.3433
32.5631,12.3620
32.5853,12.3796
33.1117,12.9060
33.1117,12.9060
33.1571,12.8413
33.1571,12.8413
33.2129,12.7215
33.2591,12.6691
33.3263,12.6499
33.3932,12.6702
33.4377,12.7215
33.4955,12.8455
33.4955,12.8455
33.6230,13.0276
33.7802,13.1848
33.9623,13.3123
34.1638,13.4063
34.3785,13.4638
34.5367,13.4777
34.6000,13.4832
34.6000,13.4832
34.6000,13.4832
34.6554,13.4784
34.8215,13.4638
35.0362,13.4063
35.2377,13.3123
35.4198,13.1848
35.5770,13.0276
35.7045,12.8455
35.7576,12.7316
35.8038,12.6792
35.8710,12.6600
35.9379,12.6802
35.9824,12.7316
36.0355,12.8455
36.1630,13.0276
36.3202,13.1848
36.5023,13.3123
36.7038,13.4063
36.9185,13.4638
37.0767,13.4777
37.1400,13.4832
37.1400,13.4832
37.1400,13.4832
37.1954,13.4784
37.3615,13.4638
37.5762,13.4063
37.7777,13.3123
37.9598,13.1848
38.1170,13.0276
38.2445,12.8455
38.3384,12.6441
38.3960,12.4293
38.4154,12.2079
38.4126,12.1760
38.4071,12.1130
38.3960,11.9864
38.3384,11.7717
38.2445,11.5702
38.2445,11.5702
38.2445,11.5702
38.1170,11.3881
38.1170,11.3881
37.9598,11.2309
37.8197,11.1328
37.7777,11.1034
37.6769,11.0564
37.5762,11.0094
37.5762,11.0094
37.5762,11.0094
37.3615,10.9519
37.3615,10.9519
37.1400,10.9325
37.1400,10.9325
36.9185,10.9519
36.9185,10.9519
36.7038,11.0094
36.5023,11.1034
36.5023,11.1034
36.3202,11.2309
36.1630,11.3881
36.0355,11.5702
36.0355,11.5702
35.9824,11.6841
35.9362,11.7366
35.8690,11.7557
35.8021,11.7355
35.7576,11.6841
35.7481,11.6638
35.7045,11.5702
35.7045,11.5702
35.7045,11.5702
35.5770,11.3881
35.5770,11.3881
35.4198,11.2309
35.2797,11.1328
35.2377,11.1034
35.1369,11.0564
35.0362,11.0094
35.0362,11.0094
35.0362,11.0094
34.8215,10.9519
34.8215,10.9519
34.6000,10.9325
34.6000,10.9325
34.3785,10.9519
34.3785,10.9519
34.1638,11.0094
33.9623,11.1034
33.9623,11.1034
33.7802,11.2309
33.6230,11.3881
33.4955,11.5702
33.4955,11.5702
33.4377,11.6942
33.3915,11.7466
33.3243,11.7658
33.2574,11.7455
33.2129,11.6942
33.1571,11.5745
33.1571,11.5744
33.1117,11.5097
32.5829,12.0385
32.5216,12.0719
32.4519,12.0670
32.3960,12.0251
32.3915,12.0186
32.3442,11.9462
32.3442,11.9462
32.2887,11.9030
32.2438,11.8681
32.2438,11.8681
32.2435,11.8679
32.2027,11.8112
32.1990,11.7414
32.2320,11.6823
32.7582,11.1561
32.6934,11.1108
32.6934,11.1108
32.4933,11.0174
32.4933,11.0174
32.2800,10.9603
32.2800,10.9603
32.0600,10.9410
32.0600,10.9410
31.8400,10.9603
31.8400,10.9603
31.6267,11.0174
31.6267,11.0174
31.4266,11.1108
31.3618,11.1561
31.3618,11.1561
31.8907,11.6850
31.9242,11.7464
31.9192,11.8160
31.8774,11.8720
31.8621,11.8818
31.8227,11.9030
31.8227,11.9030
31.7366,11.9966
31.7366,11.9966
31.7359,11.9982
31.7343,12.0001
31.7310,12.0052
31.7304,12.0048
31.6910,12.0517
31.6242,12.0724
31.5569,12.0537
31.5347,12.0361
31.0083,11.5097
31.0083,11.5097
30.9629,11.5744
30.8696,11.7746
30.8696,11.7746
30.8124,11.9879
30.8124,11.9879
30.7932,12.2079
30.7932,12.2079
25.1154,12.2079
25.1126,12.1760
25.1071,12.1130
25.0960,11.9864
25.0384,11.7717
24.9445,11.5702
24.9445,11.5702
24.9445,11.5702
24.8170,11.3881
24.8170,11.3881
24.6598,11.2309
24.5197,11.1328
24.4777,11.1034
24.3769,11.0564
24.2762,11.0094
24.2762,11.0094
24.2762,11.0094
24.0615,10.9519
24.0615,10.9519
23.8400,10.9325
23.8400,10.9325
23.6185,10.9519
23.6185,10.9519
23.4038,11.0094
23.2023,11.1034
23.2023,11.1034
23.0202,11.2309
22.8630,11.3881
22.7355,11.5702
22.7355,11.5702
22.6824,11.6841
22.6362,11.7366
22.5690,11.7557
22.5021,11.7355
22.4576,11.6841
22.4481,11.6638
22.4045,11.5702
22.4045,11.5702
22.4045,11.5702
22.2770,11.3881
22.2770,11.3881
22.1198,11.2309
21.9797,11.1328
21.9377,11.1034
21.8369,11.0564
21.7362,11.0094
21.7362,11.0094
21.7362,11.0094
21.5215,10.9519
21.5215,10.9519
21.3000,10.9325
21.3000,10.9325
21.0785,10.9519
21.0785,10.9519
20.8638,11.0094
20.6623,11.1034
20.6623,11.1034
20.4802,11.2309
20.3230,11.3881
20.1955,11.5702
20.1955,11.5702
20.1377,11.6942
20.0915,11.7466
20.0243,11.7658
19.9574,11.7455
19.9129,11.6942
19.8571,11.5745
19.8571,11.5744
19.8117,11.5097
19.2829,12.0385
19.2216,12.0719
19.1519,12.0670
19.0960,12.0251
19.0915,12.0186
19.0442,11.9462
19.0442,11.9462
18.9887,11.9030
18.9438,11.8681
18.9438,11.8681
18.9435,11.8679
18.9027,11.8112
18.8990,11.7414
18.9320,11.6823
19.4582,11.1561
19.3934,11.1108
19.3934,11.1108
19.1933,11.0174
19.1933,11.0174
18.9800,10.9603
18.9800,10.9603
18.7600,10.9410
18.7600,10.9410
18.5400,10.9603
18.5400,10.9603
18.3267,11.0174
18.3267,11.0174
18.1266,11.1108
18.0618,11.1561
18.0618,11.1561
18.5907,11.6850
18.6242,11.7464
18.6192,11.8160
18.5774,11.8720
18.5621,11.8818
18.5227,11.9030
18.5227,11.9030
18.4366,11.9966
18.4366,11.9966
18.4359,11.9982
18.4343,12.0001
18.4310,12.0052
18.4304,12.0048
18.3910,12.0517
18.3242,12.0724
18.2569,12.0537
18.2347,12.0361
17.7083,11.5097
17.7083,11.5097
17.6629,11.5744
17.5696,11.7746
17.5696,11.7746
17.5124,11.9879
17.5124,11.9879
17.4932,12.2079
17.4932,12.2079
11.8154,12.2079
11.8126,12.1760
11.8071,12.1130
11.7960,11.9864
11.7384,11.7717
11.6445,11.5702
11.6445,11.5702
11.6445,11.5702
11.5170,11.3881
11.5170,11.3881
11.3598,11.2309
11.2197,11.1328
11.1777,11.1034
11.0769,11.0564
10.9762,11.0094
10.9762,11.0094
10.9762,11.0094
10.7615,10.9519
10.7615,10.9519
10.5400,10.9325
10.5400,10.9325
10.3185,10.9519
10.3185,10.9519
10.1038,11.0094
9.9023,11.1034
9.9023,11.1034
9.7202,11.2309
9.5630,11.3881
9.4355,11.5702
9.4355,11.5702
9.3824,11.6841
9.3362,11.7366
9.2690,11.7557
9.2021,11.7355
9.1576,11.6841
9.1481,11.6638
9.1045,11.5702
9.1045,11.5702
9.1045,11.5702
8.9770,11.3881
8.9770,11.3881
8.8198,11.2309
8.6797,11.1328
8.6377,11.1034
8.5369,11.0564
8.4362,11.0094
8.4362,11.0094
8.4362,11.0094
8.2215,10.9519
8.2215,10.9519
8.0000,10.9325
8.0000,10.9325
7.7785,10.9519
7.7785,10.9519
7.5638,11.0094
7.3623,11.1034
7.3623,11.1034
7.1802,11.2309
7.0230,11.3881
6.8955,11.5702
6.8955,11.5702
6.8377,11.6942
6.7915,11.7466
6.7243,11.7658
6.6574,11.7455
6.6129,11.6942
6.5571,11.5745
6.5571,11.5744
6.5117,11.5097
5.9829,12.0385
5.9216,12.0719
5.8519,12.0670
5.7960,12.0251
5.7915,12.0186
5.7442,11.9462
5.7442,11.9462
5.6887,11.9030
5.6438,11.8681
5.6438,11.8681
5.6435,11.8679
5.6027,11.8112
5.5990,11.7414
5.6320,11.6823
6.1582,11.1561
6.0934,11.1108
6.0934,11.1108
5.8933,11.0174
5.8933,11.0174
5.6800,10.9603
5.6800,10.9603
5.4600,10.9410
5.4600,10.9410
5.2400,10.9603
5.2400,10.9603
5.0267,11.0174
5.0267,11.0174
4.8266,11.1108
4.7618,11.1561
4.7618,11.1561
5.2907,11.6850
5.3242,11.7464
5.3192,11.8160
5.2774,11.8720
5.2621,11.8818
5.2227,11.9030
5.2227,11.9030
5.1366,11.9966
5.1366,11.9966
5.1359,11.9982
5.1343,12.0001
5.1310,12.0052
5.1304,12.0048
5.0910,12.0517
5.0242,12.0724
4.9569,12.0537
4.9347,12.0361
4.4083,11.5097
4.4083,11.5097
4.3629,11.5744
4.2696,11.7746
4.2696,11.7746
4.2124,11.9879
4.2124,11.9879
4.1932,12.2079
4.1932,12.2079
0.2500,12.2079
0.2500,7.3179
1.0447,7.3179
1.0638,7.5720
1.1201,7.8188
1.1205,7.8205
1.1835,7.9811
1.2136,8.0577
1.2405,8.1044
1.3410,8.2785
1.4999,8.4777
1.6868,8.6511
1.8974,8.7947
1.8974,8.7947
1.8974,8.7947
1.8974,8.7947
2.0559,8.8710
2.1270,8.9052
2.1692,8.9183
2.1762,8.9209
2.2112,8.9366
2.2392,8.9399
2.3705,8.9804
2.3705,8.9804
2.3705,8.9804
2.4181,8.9875
2.4253,8.9891
2.4280,8.9898
2.4280,8.9898
2.4622,8.9992
2.4892,8.9983
2.6226,9.0184
2.6226,9.0184
2.6747,9.0184
2.6818,9.0188
2.7197,9.0231
2.7452,9.0184
2.8774,9.0184
2.8774,9.0184
2.9330,9.0100
2.9399,9.0093
2.9452,9.0091
2.9452,9.0091
2.9473,9.0090
2.9473,9.0090
2.9778,9.0079
3.0012,8.9997
3.1295,8.9804
3.1872,8.9626
3.1936,8.9610
3.2011,8.9595
3.2011,8.9595
3.2018,8.9594
3.2018,8.9594
3.2305,8.9538
3.2514,8.9427
3.3730,8.9052
3.4312,8.8772
3.4371,8.8748
3.4464,8.8714
3.4464,8.8714
3.4474,8.8710
3.4475,8.8710
3.4722,8.8622
3.4902,8.8488
3.6026,8.7947
3.6595,8.7559
3.6648,8.7527
3.6754,8.7469
3.6754,8.7469
3.6971,8.7351
3.7121,8.7201
3.8132,8.6511
3.8669,8.6013
3.8714,8.5975
3.9002,8.5756
3.9120,8.5594
4.0000,8.4777
4.0484,8.4170
4.0522,8.4127
4.0635,8.4011
4.0635,8.4011
4.0641,8.4004
4.0641,8.4004
4.0768,8.3872
4.0854,8.3707
4.1590,8.2785
4.1608,8.2752
4.1739,8.2526
4.2000,8.2073
4.2030,8.2027
4.2134,8.1879
4.2134,8.1879
4.2228,8.1745
4.2285,8.1580
4.2864,8.0577
4.3181,7.9769
4.3203,7.9721
4.3291,7.9543
4.3291,7.9543
4.3311,7.9501
4.3319,7.9493
4.3333,7.9457
4.3338,7.9447
4.3354,7.9344
4.3371,7.9290
4.3385,7.9251
4.3795,7.8205
4.3999,7.7312
4.4012,7.7263
4.4075,7.7065
4.4087,7.7047
4.4102,7.6983
4.4102,7.6899
4.4116,7.6805
4.4124,7.6762
4.4362,7.5720
4.4434,7.4757
4.4440,7.4710
4.4475,7.4482
4.4475,7.4482
4.4476,7.4473
4.4477,7.4472
4.4487,7.4407
4.4478,7.4347
4.4478,7.4339
4.4482,7.4139
4.4483,7.4106
4.4553,7.3179
4.4483,7.2251
4.4482,7.2218
4.4478,7.2010
4.4489,7.1967
4.4477,7.1888
4.4477,7.1887
4.4475,7.1875
4.4475,7.1875
4.4440,7.1647
4.4434,7.1600
4.4362,7.0637
4.4124,6.9595
4.4116,6.9553
4.4102,6.9458
4.4109,6.9401
4.4106,6.9390
4.4090,6.9322
4.4075,6.9292
4.4070,6.9275
4.4012,6.9094
4.3999,6.9045
4.3795,6.8152
4.3609,6.7679
14.8518,6.7679
14.8704,6.9922
14.8704,6.9922
14.9257,7.2105
15.0161,7.4166
15.1393,7.6051
15.1393,7.6051
15.2584,7.7345
15.2918,7.7708
15.4694,7.9090
15.4694,7.9090
15.4694,7.9090
15.5530,7.9543
15.6674,8.0162
15.8804,8.0893
16.1024,8.1264
16.3276,8.1264
16.5496,8.0893
16.7626,8.0162
16.9606,7.9090
17.1382,7.7708
17.2433,7.6566
17.2907,7.6051
17.2907,7.6051
17.2907,7.6051
17.3812,7.4666
17.4343,7.4213
17.5036,7.4119
17.5669,7.4414
17.5888,7.4666
17.6793,7.6051
17.6793,7.6051
17.6793,7.6051
17.7984,7.7345
17.8318,7.7708
18.0094,7.9090
18.0094,7.9090
18.0094,7.9090
18.0930,7.9543
18.2074,8.0162
18.4204,8.0893
18.6424,8.1264
18.8676,8.1264
19.0896,8.0893
19.3026,8.0162
19.5006,7.9090
19.6782,7.7708
19.7833,7.6566
19.8307,7.6051
19.8307,7.6051
19.8307,7.6051
19.9212,7.4666
19.9743,7.4213
20.0436,7.4119
20.1069,7.4414
20.1288,7.4666
20.2193,7.6051
20.2193,7.6051
20.2193,7.6051
20.3384,7.7345
20.3718,7.7708
20.5494,7.9090
20.5494,7.9090
20.5494,7.9090
20.6330,7.9543
20.7474,8.0162
20.9604,8.0893
21.1824,8.1264
21.4076,8.1264
21.6296,8.0893
21.8426,8.0162
22.0406,7.9090
22.2182,7.7708
22.3233,7.6566
22.3707,7.6051
22.3707,7.6051
22.3707,7.6051
22.4647,7.4612
22.5179,7.4159
22.5871,7.4064
22.6505,7.4359
22.6701,7.4579
22.7969,7.6389
22.9639,7.8060
23.1574,7.9415
23.3715,8.0413
23.3715,8.0413
23.5850,8.0985
23.5850,7.3802
23.6047,7.3131
23.6575,7.2674
23.7266,7.2574
23.7992,7.2679
23.7992,7.2679
23.8708,7.2679
23.8708,7.2679
23.9434,7.2574
24.0125,7.2674
24.0653,7.3131
24.0850,7.3802
24.0850,8.0985
24.2985,8.0413
24.2985,8.0413
24.5126,7.9415
24.7061,7.8060
24.8219,7.6901
24.8832,7.6566
24.9529,7.6616
25.0089,7.7035
25.0258,7.7345
25.0741,7.8641
25.0741,7.8641
25.1617,7.9811
25.2788,8.0687
25.4158,8.1198
25.4430,8.1228
25.4763,8.1264
25.4764,8.1264
27.2736,8.1264
27.2737,8.1264
27.3007,8.1234
27.3342,8.1198
27.4712,8.0687
27.5883,7.9811
27.6759,7.8641
27.7270,7.7271
27.7325,7.6762
27.7335,7.6665
27.7335,7.6665
27.7335,7.3179
38.1447,7.3179
38.1638,7.5720
38.2201,7.8188
38.2205,7.8205
38.2835,7.9811
38.3136,8.0577
38.3405,8.1044
38.4410,8.2785
38.5999,8.4777
38.7868,8.6511
38.9974,8.7947
38.9974,8.7947
38.9974,8.7947
38.9974,8.7947
39.1559,8.8710
39.2270,8.9052
39.2692,8.9183
39.2762,8.9209
39.3112,8.9366
39.3392,8.9399
39.4705,8.9804
39.4705,8.9804
39.4705,8.9804
39.5181,8.9875
39.5253,8.9891
39.5280,8.9898
39.5280,8.9898
39.5622,8.9992
39.5892,8.9983
39.7226,9.0184
39.7226,9.0184
39.7747,9.0184
39.7818,9.0188
39.8197,9.0231
39.8452,9.0184
39.9774,9.0184
39.9774,9.0184
40.0330,9.0100
40.0399,9.0093
40.0452,9.0091
40.0452,9.0091
40.0473,9.0090
40.0473,9.0090
40.0778,9.0079
40.1012,8.9997
40.2295,8.9804
40.2872,8.9626
40.2936,8.9610
40.3011,8.9595
40.3011,8.9595
40.3018,8.9594
40.3018,8.9594
40.3305,8.9538
40.3514,8.9427
40.4730,8.9052
40.5312,8.8772
40.5371,8.8748
40.5464,8.8714
40.5464,8.8714
40.5474,8.8710
40.5475,8.8710
40.5722,8.8622
40.5902,8.8488
40.7026,8.7947
40.7595,8.7559
40.7648,8.7527
40.7754,8.7469
40.7754,8.7469
40.7971,8.7351
40.8121,8.7201
40.9132,8.6511
40.9669,8.6013
40.9714,8.5975
41.0002,8.5756
41.0120,8.5594
41.1000,8.4777
41.1484,8.4170
41.1522,8.4127
41.1635,8.4011
41.1635,8.4011
41.1641,8.4004
41.1641,8.4004
41.1768,8.3872
41.1854,8.3707
41.2590,8.2785
41.2608,8.2752
41.2739,8.2526
41.3000,8.2073
41.3030,8.2027
41.3134,8.1879
41.3134,8.1879
41.3228,8.1745
41.3285,8.1580
41.3864,8.0577
41.4181,7.9769
41.4203,7.9721
41.4291,7.9543
41.4291,7.9543
41.4311,7.9501
41.4318,7.9493
41.4333,7.9457
41.4338,7.9447
41.4354,7.9344
41.4371,7.9290
41.4385,7.9251
41.4795,7.8205
41.4999,7.7312
41.5012,7.7263
41.5075,7.7065
41.5087,7.7047
41.5102,7.6983
41.5102,7.6899
41.5116,7.6805
41.5124,7.6762
41.5362,7.5720
41.5434,7.4757
41.5440,7.4710
41.5475,7.4482
41.5475,7.4482
41.5476,7.4473
41.5477,7.4472
41.5487,7.4407
41.5478,7.4347
41.5478,7.4339
41.5482,7.4139
41.5483,7.4106
41.5553,7.3179
41.5483,7.2251
41.5482,7.2218
41.5478,7.2010
41.5489,7.1967
41.5477,7.1888
41.5477,7.1887
41.5475,7.1875
41.5475,7.1875
41.5440,7.1647
41.5434,7.1600
41.5362,7.0637
41.5124,6.9595
41.5116,6.9553
41.5102,6.9458
41.5109,6.9401
41.5106,6.9390
41.5090,6.9322
41.5075,6.9292
41.5070,6.9275
41.5012,6.9094
41.4999,6.9045
41.4795,6.8152
41.4385,6.7106
41.4371,6.7067
41.4354,6.7013
41.4352,6.6938
41.4333,6.6900
41.4321,6.6869
41.4311,6.6856
41.4243,6.6717
41.4202,6.6636
41.4181,6.6588
41.3864,6.5780
41.3285,6.4777
41.3254,6.4648
41.3030,6.4330
41.3000,6.4284
41.2988,6.4263
41.2590,6.3572
41.1854,6.2650
41.1801,6.2519
41.1522,6.2230
41.1484,6.2187
41.1000,6.1580
41.1000,6.1580
41.0120,6.0763
41.0042,6.0632
40.9714,6.0382
40.9668,6.0344
40.9132,5.9846
40.8121,5.9157
40.8018,5.9032
40.7648,5.8831
40.7595,5.8798
40.7026,5.8411
40.7026,5.8411
40.5902,5.7869
40.5776,5.7755
40.5488,5.7652
40.5488,5.7652
40.5371,5.7610
40.5312,5.7585
40.4730,5.7305
40.4730,5.7305
40.4222,5.7148
40.3514,5.6930
40.3365,5.6831
40.2936,5.6748
40.2871,5.6731
40.2295,5.6553
40.2295,5.6553
40.2295,5.6553
40.1819,5.6482
40.1012,5.6360
40.0841,5.6281
40.0399,5.6264
40.0330,5.6257
39.9774,5.6174
39.9774,5.6174
39.8452,5.6174
39.8263,5.6118
39.7912,5.6159
39.7912,5.6159
39.7818,5.6169
39.7747,5.6174
39.7226,5.6174
39.5892,5.6375
39.5689,5.6347
39.5291,5.6456
39.5290,5.6456
39.5253,5.6467
39.5181,5.6482
39.4705,5.6553
39.3391,5.6959
39.3178,5.6962
39.2762,5.7148
39.2692,5.7175
39.2270,5.7305
38.9974,5.8411
38.7868,5.9846
38.6000,6.1580
38.5999,6.1580
38.4410,6.3572
38.3136,6.5780
38.2205,6.8152
38.2205,6.8152
38.1638,7.0637
38.1447,7.3179
38.1447,7.3179
27.7335,7.3179
27.7335,5.8692
27.7335,5.8692
27.7298,5.8350
27.7270,5.8087
27.7242,5.8012
27.6976,5.7298
27.6759,5.6717
27.5883,5.5546
27.4712,5.4670
27.4703,5.4666
27.3342,5.4159
27.2737,5.4094
27.2736,5.4094
25.4764,5.4094
25.4763,5.4094
25.4158,5.4159
25.4158,5.4159
25.2788,5.4670
25.1617,5.5546
25.0741,5.6717
25.0258,5.8012
24.9839,5.8572
24.9184,5.8816
24.8502,5.8667
24.8219,5.8456
24.7061,5.7298
24.5126,5.5943
24.2985,5.4944
24.2985,5.4944
24.0850,5.4372
24.0850,5.4372
24.0850,6.1556
24.0653,6.2226
24.0125,6.2683
23.9434,6.2783
23.8708,6.2679
23.8708,6.2679
23.7992,6.2679
23.7992,6.2679
23.7266,6.2783
23.6575,6.2683
23.6047,6.2226
23.5850,6.1556
23.5850,5.4372
23.5850,5.4372
23.3715,5.4944
23.3715,5.4944
23.1574,5.5943
23.1574,5.5943
22.9639,5.7297
22.9639,5.7297
22.7969,5.8968
22.7969,5.8968
22.6701,6.0778
22.6156,6.1214
22.5461,6.1286
22.4837,6.0971
22.4648,6.0745
22.3707,5.9306
22.3707,5.9306
22.3707,5.9306
22.2182,5.7650
22.2182,5.7649
22.0774,5.6553
22.0406,5.6267
22.0406,5.6267
22.0406,5.6267
21.8426,5.5195
21.8426,5.5195
21.8426,5.5195
21.8426,5.5195
21.8426,5.5195
21.6296,5.4464
21.4076,5.4094
21.1824,5.4094
20.9604,5.4464
20.7474,5.5195
20.7474,5.5195
20.5494,5.6267
20.5494,5.6267
20.3718,5.7649
20.3718,5.7650
20.2193,5.9306
20.2193,5.9306
20.1288,6.0691
20.0757,6.1144
20.0064,6.1238
19.9431,6.0943
19.9212,6.0691
19.8307,5.9306
19.8307,5.9306
19.6782,5.7650
19.6782,5.7649
19.5374,5.6553
19.5006,5.6267
19.5006,5.6267
19.5006,5.6267
19.3026,5.5195
19.3026,5.5195
19.3026,5.5195
19.3026,5.5195
19.3026,5.5195
19.0896,5.4464
18.8676,5.4094
18.6424,5.4094
18.4204,5.4464
18.2074,5.5195
18.2074,5.5195
18.0094,5.6267
18.0094,5.6267
17.8318,5.7649
17.8318,5.7650
17.6793,5.9306
17.6793,5.9306
17.5888,6.0691
17.5357,6.1144
17.4664,6.1238
17.4031,6.0943
17.3812,6.0691
17.2907,5.9306
17.2907,5.9306
17.1382,5.7650
17.1382,5.7649
16.9974,5.6553
16.9606,5.6267
16.9606,5.6267
16.9606,5.6267
16.7626,5.5195
16.7626,5.5195
16.7626,5.5195
16.7626,5.5195
16.7626,5.5195
16.5496,5.4464
16.3276,5.4094
16.1024,5.4094
15.8804,5.4464
15.6674,5.5195
15.6674,5.5195
15.4694,5.6267
15.4694,5.6267
15.2918,5.7649
15.2918,5.7650
15.1393,5.9306
15.1393,5.9306
15.0161,6.1191
14.9257,6.3252
14.8704,6.5435
14.8704,6.5435
14.8518,6.7679
14.8518,6.7679
4.3609,6.7679
4.3385,6.7106
4.3371,6.7067
4.3354,6.7013
4.3352,6.6938
4.3333,6.6900
4.3321,6.6869
4.3311,6.6856
4.3243,6.6717
4.3202,6.6636
4.3181,6.6588
4.2864,6.5780
4.2285,6.4777
4.2254,6.4648
4.2030,6.4330
4.2000,6.4284
4.1988,6.4263
4.1590,6.3572
4.0854,6.2650
4.0801,6.2519
4.0522,6.2230
4.0484,6.2187
4.0000,6.1580
4.0000,6.1580
3.9120,6.0763
3.9042,6.0632
3.8714,6.0382
3.8668,6.0344
3.8132,5.9846
3.7121,5.9157
3.7018,5.9032
3.6648,5.8831
3.6595,5.8798
3.6026,5.8411
3.6026,5.8411
3.4902,5.7869
3.4776,5.7755
3.4488,5.7652
3.4488,5.7652
3.4371,5.7610
3.4312,5.7585
3.3730,5.7305
3.3730,5.7305
3.3222,5.7148
3.2514,5.6930
3.2365,5.6831
3.1936,5.6748
3.1871,5.6731
3.1295,5.6553
3.1295,5.6553
3.1295,5.6553
3.0819,5.6482
3.0012,5.6360
2.9841,5.6281
2.9399,5.6264
2.9330,5.6257
2.8774,5.6174
2.8774,5.6174
2.7452,5.6174
2.7263,5.6118
2.6912,5.6159
2.6912,5.6159
2.6818,5.6169
2.6747,5.6174
2.6226,5.6174
2.4892,5.6375
2.4689,5.6347
2.4291,5.6456
2.4290,5.6456
2.4253,5.6467
2.4181,5.6482
2.3705,5.6553
2.2391,5.6959
2.2178,5.6962
2.1762,5.7148
2.1692,5.7175
2.1270,5.7305
1.8974,5.8411
1.6868,5.9846
1.5000,6.1580
1.4999,6.1580
1.3410,6.3572
1.2136,6.5780
1.1205,6.8152
1.1205,6.8152
1.0638,7.0637
1.0447,7.3179
1.0447,7.3179
0.2500,7.3179
0.2500,6.3350
0.2594,6.2876
0.2732,6.2543
0.2743,6.2519
0.3376,6.1113
0.3399,6.1068
0.4141,5.9723
0.4949,5.8388
0.4973,5.8350
0.5859,5.7103
0.5876,5.7080
0.6828,5.5864
0.6853,5.5834
0.7874,5.4691
0.7898,5.4667
0.8988,5.3576
0.9013,5.3553
1.0155,5.2532
1.0186,5.2506
1.1401,5.1554
1.1424,5.1537
1.2672,5.0652
1.2709,5.0627
1.4045,4.9820
1.5389,4.9077
1.5434,4.9055
1.6864,4.8411
1.8271,4.7828
1.8323,4.7809
1.9839,4.7337
2.1278,4.6922
2.1338,4.6908
2.2949,4.6613
2.4371,4.6371
2.4437,4.6364
2.6343,4.6249
2.7230,4.6199
2.7483,4.6185
2.7517,4.6184
21.2999,4.6184
39.8483,4.6184
Z" /> 
</g>
</g>
</g>
<g style="fill:#000000; fill-opacity:1.0000; 
stroke:#000000; stroke-width:0.0000; stroke-opacity:1; 
stroke-linecap:round; stroke-linejoin:round;">
</g>
<g style="fill:#000000; fill-opacity:1.0000; 
stroke:#000000; stroke-width:0.1000; stroke-opacity:1; 
stroke-linecap:round; stroke-linejoin:round;">
</g>
<g style="fill:#000000; fill-opacity:0.0; 
stroke:#000000; stroke-width:0.1000; stroke-opacity:1; 
stroke-linecap:round; stroke-linejoin:round;">
<path d="M21.3000 4.6179
L39.8500 4.6179
" />
<path d="M0.0500 28.7679
L0.0500 7.3179
" />
<path d="M0.0500 28.7679 A2.7000 2.7000 0.0 0 0 2.7500 31.4679" />
<path d="M42.5500 7.3179
L42.5500 28.7679
" />
<path d="M2.7500 4.6179
L21.3000 4.6179
" />
<path d="M2.7500 4.6179 A2.7000 2.7000 0.0 0 0 0.0500 7.3179" />
<path d="M39.8500 31.4679 A2.7000 2.7000 0.0 0 0 42.5500 28.7679" />
<circle cx="2.7500" cy="7.3179" r="1.7000" /> 
<circle cx="2.7500" cy="28.7679" r="1.7000" /> 
<path d="M39.8500 31.4679
L2.7500 31.4679
" />
<path d="M42.5500 7.3179 A2.7000 2.7000 0.0 0 0 39.8500 4.6179" />
<circle cx="39.8500" cy="7.3179" r="1.7000" /> 
<circle cx="39.8500" cy="28.7679" r="1.7000" /> 
<g >
</g>
<g >
</g>
<g >
</g>
<g >
</g>
<g >
</g>
<g >
</g>
<g >
</g>
</g> 
</svg>
