<?xml version="1.0" standalone="no"?>
 <!DOCTYPE svg PUBLIC "-//W3C//DTD SVG 1.1//EN" 
 "http://www.w3.org/Graphics/SVG/1.1/DTD/svg11.dtd"> 
<svg
  xmlns:svg="http://www.w3.org/2000/svg"
  xmlns="http://www.w3.org/2000/svg"
  xmlns:xlink="http://www.w3.org/1999/xlink"
  version="1.1"
  width="42.7736mm" height="31.6992mm" viewBox="0.0000 0.0000 42.7736 31.6992">
<title>SVG Image created as Button_PCB-F_Silkscreen.svg date 2023/10/15 15:45:43 </title>
  <desc>Image generated by PCBNEW </desc>
<g style="fill:#000000; fill-opacity:1.0000;stroke:#000000; stroke-opacity:1.0000;
stroke-linecap:round; stroke-linejoin:round;"
 transform="translate(0 0) scale(1 1)">
</g>
<g style="fill:#000000; fill-opacity:0.0; 
stroke:#000000; stroke-width:0.0000; stroke-opacity:1; 
stroke-linecap:round; stroke-linejoin:round;">
</g>
<g style="fill:#000000; fill-opacity:0.0; 
stroke:#000000; stroke-width:0.1500; stroke-opacity:1; 
stroke-linecap:round; stroke-linejoin:round;">
<text x="21.3000" y="28.7679"
textLength="25.7738" font-size="1.3333" lengthAdjust="spacingAndGlyphs"
text-anchor="middle" opacity="0">Sunrise Alarm V3: Button PCB V1</text>
<g class="stroked-text"><desc>Sunrise Alarm V3: Button PCB V1</desc>
<path d="M8.7286 28.6751
L8.8714 28.7227
" />
<path d="M8.8714 28.7227
L9.1095 28.7227
" />
<path d="M9.1095 28.7227
L9.2048 28.6751
" />
<path d="M9.2048 28.6751
L9.2524 28.6274
" />
<path d="M9.2524 28.6274
L9.3000 28.5322
" />
<path d="M9.3000 28.5322
L9.3000 28.4370
" />
<path d="M9.3000 28.4370
L9.2524 28.3417
" />
<path d="M9.2524 28.3417
L9.2048 28.2941
" />
<path d="M9.2048 28.2941
L9.1095 28.2465
" />
<path d="M9.1095 28.2465
L8.9190 28.1989
" />
<path d="M8.9190 28.1989
L8.8238 28.1512
" />
<path d="M8.8238 28.1512
L8.7762 28.1036
" />
<path d="M8.7762 28.1036
L8.7286 28.0084
" />
<path d="M8.7286 28.0084
L8.7286 27.9132
" />
<path d="M8.7286 27.9132
L8.7762 27.8179
" />
<path d="M8.7762 27.8179
L8.8238 27.7703
" />
<path d="M8.8238 27.7703
L8.9190 27.7227
" />
<path d="M8.9190 27.7227
L9.1571 27.7227
" />
<path d="M9.1571 27.7227
L9.3000 27.7703
" />
<path d="M10.1571 28.0560
L10.1571 28.7227
" />
<path d="M9.7286 28.0560
L9.7286 28.5798
" />
<path d="M9.7286 28.5798
L9.7762 28.6751
" />
<path d="M9.7762 28.6751
L9.8714 28.7227
" />
<path d="M9.8714 28.7227
L10.0143 28.7227
" />
<path d="M10.0143 28.7227
L10.1095 28.6751
" />
<path d="M10.1095 28.6751
L10.1571 28.6274
" />
<path d="M10.6333 28.0560
L10.6333 28.7227
" />
<path d="M10.6333 28.1512
L10.6810 28.1036
" />
<path d="M10.6810 28.1036
L10.7762 28.0560
" />
<path d="M10.7762 28.0560
L10.9190 28.0560
" />
<path d="M10.9190 28.0560
L11.0143 28.1036
" />
<path d="M11.0143 28.1036
L11.0619 28.1989
" />
<path d="M11.0619 28.1989
L11.0619 28.7227
" />
<path d="M11.5381 28.7227
L11.5381 28.0560
" />
<path d="M11.5381 28.2465
L11.5857 28.1512
" />
<path d="M11.5857 28.1512
L11.6333 28.1036
" />
<path d="M11.6333 28.1036
L11.7286 28.0560
" />
<path d="M11.7286 28.0560
L11.8238 28.0560
" />
<path d="M12.1571 28.7227
L12.1571 28.0560
" />
<path d="M12.1571 27.7227
L12.1095 27.7703
" />
<path d="M12.1095 27.7703
L12.1571 27.8179
" />
<path d="M12.1571 27.8179
L12.2048 27.7703
" />
<path d="M12.2048 27.7703
L12.1571 27.7227
" />
<path d="M12.1571 27.7227
L12.1571 27.8179
" />
<path d="M12.5857 28.6751
L12.6810 28.7227
" />
<path d="M12.6810 28.7227
L12.8714 28.7227
" />
<path d="M12.8714 28.7227
L12.9667 28.6751
" />
<path d="M12.9667 28.6751
L13.0143 28.5798
" />
<path d="M13.0143 28.5798
L13.0143 28.5322
" />
<path d="M13.0143 28.5322
L12.9667 28.4370
" />
<path d="M12.9667 28.4370
L12.8714 28.3893
" />
<path d="M12.8714 28.3893
L12.7286 28.3893
" />
<path d="M12.7286 28.3893
L12.6333 28.3417
" />
<path d="M12.6333 28.3417
L12.5857 28.2465
" />
<path d="M12.5857 28.2465
L12.5857 28.1989
" />
<path d="M12.5857 28.1989
L12.6333 28.1036
" />
<path d="M12.6333 28.1036
L12.7286 28.0560
" />
<path d="M12.7286 28.0560
L12.8714 28.0560
" />
<path d="M12.8714 28.0560
L12.9667 28.1036
" />
<path d="M13.8238 28.6751
L13.7286 28.7227
" />
<path d="M13.7286 28.7227
L13.5381 28.7227
" />
<path d="M13.5381 28.7227
L13.4429 28.6751
" />
<path d="M13.4429 28.6751
L13.3952 28.5798
" />
<path d="M13.3952 28.5798
L13.3952 28.1989
" />
<path d="M13.3952 28.1989
L13.4429 28.1036
" />
<path d="M13.4429 28.1036
L13.5381 28.0560
" />
<path d="M13.5381 28.0560
L13.7286 28.0560
" />
<path d="M13.7286 28.0560
L13.8238 28.1036
" />
<path d="M13.8238 28.1036
L13.8714 28.1989
" />
<path d="M13.8714 28.1989
L13.8714 28.2941
" />
<path d="M13.8714 28.2941
L13.3952 28.3893
" />
<path d="M15.0143 28.4370
L15.4905 28.4370
" />
<path d="M14.9190 28.7227
L15.2524 27.7227
" />
<path d="M15.2524 27.7227
L15.5857 28.7227
" />
<path d="M16.0619 28.7227
L15.9667 28.6751
" />
<path d="M15.9667 28.6751
L15.9190 28.5798
" />
<path d="M15.9190 28.5798
L15.9190 27.7227
" />
<path d="M16.8714 28.7227
L16.8714 28.1989
" />
<path d="M16.8714 28.1989
L16.8238 28.1036
" />
<path d="M16.8238 28.1036
L16.7286 28.0560
" />
<path d="M16.7286 28.0560
L16.5381 28.0560
" />
<path d="M16.5381 28.0560
L16.4429 28.1036
" />
<path d="M16.8714 28.6751
L16.7762 28.7227
" />
<path d="M16.7762 28.7227
L16.5381 28.7227
" />
<path d="M16.5381 28.7227
L16.4429 28.6751
" />
<path d="M16.4429 28.6751
L16.3952 28.5798
" />
<path d="M16.3952 28.5798
L16.3952 28.4846
" />
<path d="M16.3952 28.4846
L16.4429 28.3893
" />
<path d="M16.4429 28.3893
L16.5381 28.3417
" />
<path d="M16.5381 28.3417
L16.7762 28.3417
" />
<path d="M16.7762 28.3417
L16.8714 28.2941
" />
<path d="M17.3476 28.7227
L17.3476 28.0560
" />
<path d="M17.3476 28.2465
L17.3952 28.1512
" />
<path d="M17.3952 28.1512
L17.4429 28.1036
" />
<path d="M17.4429 28.1036
L17.5381 28.0560
" />
<path d="M17.5381 28.0560
L17.6333 28.0560
" />
<path d="M17.9667 28.7227
L17.9667 28.0560
" />
<path d="M17.9667 28.1512
L18.0143 28.1036
" />
<path d="M18.0143 28.1036
L18.1095 28.0560
" />
<path d="M18.1095 28.0560
L18.2524 28.0560
" />
<path d="M18.2524 28.0560
L18.3476 28.1036
" />
<path d="M18.3476 28.1036
L18.3952 28.1989
" />
<path d="M18.3952 28.1989
L18.3952 28.7227
" />
<path d="M18.3952 28.1989
L18.4429 28.1036
" />
<path d="M18.4429 28.1036
L18.5381 28.0560
" />
<path d="M18.5381 28.0560
L18.6810 28.0560
" />
<path d="M18.6810 28.0560
L18.7762 28.1036
" />
<path d="M18.7762 28.1036
L18.8238 28.1989
" />
<path d="M18.8238 28.1989
L18.8238 28.7227
" />
<path d="M19.9190 27.7227
L20.2524 28.7227
" />
<path d="M20.2524 28.7227
L20.5857 27.7227
" />
<path d="M20.8238 27.7227
L21.4429 27.7227
" />
<path d="M21.4429 27.7227
L21.1095 28.1036
" />
<path d="M21.1095 28.1036
L21.2524 28.1036
" />
<path d="M21.2524 28.1036
L21.3476 28.1512
" />
<path d="M21.3476 28.1512
L21.3952 28.1989
" />
<path d="M21.3952 28.1989
L21.4429 28.2941
" />
<path d="M21.4429 28.2941
L21.4429 28.5322
" />
<path d="M21.4429 28.5322
L21.3952 28.6274
" />
<path d="M21.3952 28.6274
L21.3476 28.6751
" />
<path d="M21.3476 28.6751
L21.2524 28.7227
" />
<path d="M21.2524 28.7227
L20.9667 28.7227
" />
<path d="M20.9667 28.7227
L20.8714 28.6751
" />
<path d="M20.8714 28.6751
L20.8238 28.6274
" />
<path d="M21.8714 28.6274
L21.9190 28.6751
" />
<path d="M21.9190 28.6751
L21.8714 28.7227
" />
<path d="M21.8714 28.7227
L21.8238 28.6751
" />
<path d="M21.8238 28.6751
L21.8714 28.6274
" />
<path d="M21.8714 28.6274
L21.8714 28.7227
" />
<path d="M21.8714 28.1036
L21.9190 28.1512
" />
<path d="M21.9190 28.1512
L21.8714 28.1989
" />
<path d="M21.8714 28.1989
L21.8238 28.1512
" />
<path d="M21.8238 28.1512
L21.8714 28.1036
" />
<path d="M21.8714 28.1036
L21.8714 28.1989
" />
<path d="M23.4429 28.1989
L23.5857 28.2465
" />
<path d="M23.5857 28.2465
L23.6333 28.2941
" />
<path d="M23.6333 28.2941
L23.6810 28.3893
" />
<path d="M23.6810 28.3893
L23.6810 28.5322
" />
<path d="M23.6810 28.5322
L23.6333 28.6274
" />
<path d="M23.6333 28.6274
L23.5857 28.6751
" />
<path d="M23.5857 28.6751
L23.4905 28.7227
" />
<path d="M23.4905 28.7227
L23.1095 28.7227
" />
<path d="M23.1095 28.7227
L23.1095 27.7227
" />
<path d="M23.1095 27.7227
L23.4429 27.7227
" />
<path d="M23.4429 27.7227
L23.5381 27.7703
" />
<path d="M23.5381 27.7703
L23.5857 27.8179
" />
<path d="M23.5857 27.8179
L23.6333 27.9132
" />
<path d="M23.6333 27.9132
L23.6333 28.0084
" />
<path d="M23.6333 28.0084
L23.5857 28.1036
" />
<path d="M23.5857 28.1036
L23.5381 28.1512
" />
<path d="M23.5381 28.1512
L23.4429 28.1989
" />
<path d="M23.4429 28.1989
L23.1095 28.1989
" />
<path d="M24.5381 28.0560
L24.5381 28.7227
" />
<path d="M24.1095 28.0560
L24.1095 28.5798
" />
<path d="M24.1095 28.5798
L24.1571 28.6751
" />
<path d="M24.1571 28.6751
L24.2524 28.7227
" />
<path d="M24.2524 28.7227
L24.3952 28.7227
" />
<path d="M24.3952 28.7227
L24.4905 28.6751
" />
<path d="M24.4905 28.6751
L24.5381 28.6274
" />
<path d="M24.8714 28.0560
L25.2524 28.0560
" />
<path d="M25.0143 27.7227
L25.0143 28.5798
" />
<path d="M25.0143 28.5798
L25.0619 28.6751
" />
<path d="M25.0619 28.6751
L25.1571 28.7227
" />
<path d="M25.1571 28.7227
L25.2524 28.7227
" />
<path d="M25.4429 28.0560
L25.8238 28.0560
" />
<path d="M25.5857 27.7227
L25.5857 28.5798
" />
<path d="M25.5857 28.5798
L25.6333 28.6751
" />
<path d="M25.6333 28.6751
L25.7286 28.7227
" />
<path d="M25.7286 28.7227
L25.8238 28.7227
" />
<path d="M26.3000 28.7227
L26.2048 28.6751
" />
<path d="M26.2048 28.6751
L26.1571 28.6274
" />
<path d="M26.1571 28.6274
L26.1095 28.5322
" />
<path d="M26.1095 28.5322
L26.1095 28.2465
" />
<path d="M26.1095 28.2465
L26.1571 28.1512
" />
<path d="M26.1571 28.1512
L26.2048 28.1036
" />
<path d="M26.2048 28.1036
L26.3000 28.0560
" />
<path d="M26.3000 28.0560
L26.4429 28.0560
" />
<path d="M26.4429 28.0560
L26.5381 28.1036
" />
<path d="M26.5381 28.1036
L26.5857 28.1512
" />
<path d="M26.5857 28.1512
L26.6333 28.2465
" />
<path d="M26.6333 28.2465
L26.6333 28.5322
" />
<path d="M26.6333 28.5322
L26.5857 28.6274
" />
<path d="M26.5857 28.6274
L26.5381 28.6751
" />
<path d="M26.5381 28.6751
L26.4429 28.7227
" />
<path d="M26.4429 28.7227
L26.3000 28.7227
" />
<path d="M27.0619 28.0560
L27.0619 28.7227
" />
<path d="M27.0619 28.1512
L27.1095 28.1036
" />
<path d="M27.1095 28.1036
L27.2048 28.0560
" />
<path d="M27.2048 28.0560
L27.3476 28.0560
" />
<path d="M27.3476 28.0560
L27.4429 28.1036
" />
<path d="M27.4429 28.1036
L27.4905 28.1989
" />
<path d="M27.4905 28.1989
L27.4905 28.7227
" />
<path d="M28.7286 28.7227
L28.7286 27.7227
" />
<path d="M28.7286 27.7227
L29.1095 27.7227
" />
<path d="M29.1095 27.7227
L29.2048 27.7703
" />
<path d="M29.2048 27.7703
L29.2524 27.8179
" />
<path d="M29.2524 27.8179
L29.3000 27.9132
" />
<path d="M29.3000 27.9132
L29.3000 28.0560
" />
<path d="M29.3000 28.0560
L29.2524 28.1512
" />
<path d="M29.2524 28.1512
L29.2048 28.1989
" />
<path d="M29.2048 28.1989
L29.1095 28.2465
" />
<path d="M29.1095 28.2465
L28.7286 28.2465
" />
<path d="M30.3000 28.6274
L30.2524 28.6751
" />
<path d="M30.2524 28.6751
L30.1095 28.7227
" />
<path d="M30.1095 28.7227
L30.0143 28.7227
" />
<path d="M30.0143 28.7227
L29.8714 28.6751
" />
<path d="M29.8714 28.6751
L29.7762 28.5798
" />
<path d="M29.7762 28.5798
L29.7286 28.4846
" />
<path d="M29.7286 28.4846
L29.6810 28.2941
" />
<path d="M29.6810 28.2941
L29.6810 28.1512
" />
<path d="M29.6810 28.1512
L29.7286 27.9608
" />
<path d="M29.7286 27.9608
L29.7762 27.8655
" />
<path d="M29.7762 27.8655
L29.8714 27.7703
" />
<path d="M29.8714 27.7703
L30.0143 27.7227
" />
<path d="M30.0143 27.7227
L30.1095 27.7227
" />
<path d="M30.1095 27.7227
L30.2524 27.7703
" />
<path d="M30.2524 27.7703
L30.3000 27.8179
" />
<path d="M31.0619 28.1989
L31.2048 28.2465
" />
<path d="M31.2048 28.2465
L31.2524 28.2941
" />
<path d="M31.2524 28.2941
L31.3000 28.3893
" />
<path d="M31.3000 28.3893
L31.3000 28.5322
" />
<path d="M31.3000 28.5322
L31.2524 28.6274
" />
<path d="M31.2524 28.6274
L31.2048 28.6751
" />
<path d="M31.2048 28.6751
L31.1095 28.7227
" />
<path d="M31.1095 28.7227
L30.7286 28.7227
" />
<path d="M30.7286 28.7227
L30.7286 27.7227
" />
<path d="M30.7286 27.7227
L31.0619 27.7227
" />
<path d="M31.0619 27.7227
L31.1571 27.7703
" />
<path d="M31.1571 27.7703
L31.2048 27.8179
" />
<path d="M31.2048 27.8179
L31.2524 27.9132
" />
<path d="M31.2524 27.9132
L31.2524 28.0084
" />
<path d="M31.2524 28.0084
L31.2048 28.1036
" />
<path d="M31.2048 28.1036
L31.1571 28.1512
" />
<path d="M31.1571 28.1512
L31.0619 28.1989
" />
<path d="M31.0619 28.1989
L30.7286 28.1989
" />
<path d="M32.3476 27.7227
L32.6810 28.7227
" />
<path d="M32.6810 28.7227
L33.0143 27.7227
" />
<path d="M33.8714 28.7227
L33.3000 28.7227
" />
<path d="M33.5857 28.7227
L33.5857 27.7227
" />
<path d="M33.5857 27.7227
L33.4905 27.8655
" />
<path d="M33.4905 27.8655
L33.3952 27.9608
" />
<path d="M33.3952 27.9608
L33.3000 28.0084
" />
</g><text x="8.0500" y="19.2479"
textLength="1.9643" font-size="1.3333" lengthAdjust="spacingAndGlyphs"
text-anchor="middle" opacity="0">J4</text>
<g class="stroked-text"><desc>J4</desc>
<path d="M7.7167 18.2027
L7.7167 18.9170
" />
<path d="M7.7167 18.9170
L7.6690 19.0598
" />
<path d="M7.6690 19.0598
L7.5738 19.1551
" />
<path d="M7.5738 19.1551
L7.4310 19.2027
" />
<path d="M7.4310 19.2027
L7.3357 19.2027
" />
<path d="M8.6214 18.5360
L8.6214 19.2027
" />
<path d="M8.3833 18.1551
L8.1452 18.8693
" />
<path d="M8.1452 18.8693
L8.7643 18.8693
" />
</g><text x="8.0500" y="20.7479"
textLength="10.0119" font-size="1.3333" lengthAdjust="spacingAndGlyphs"
text-anchor="middle" opacity="0">LEFT_BUTTON</text>
<g class="stroked-text"><desc>LEFT_BUTTON</desc>
<path d="M3.8833 20.7027
L3.4071 20.7027
" />
<path d="M3.4071 20.7027
L3.4071 19.7027
" />
<path d="M4.2167 20.1789
L4.5500 20.1789
" />
<path d="M4.6929 20.7027
L4.2167 20.7027
" />
<path d="M4.2167 20.7027
L4.2167 19.7027
" />
<path d="M4.2167 19.7027
L4.6929 19.7027
" />
<path d="M5.4548 20.1789
L5.1214 20.1789
" />
<path d="M5.1214 20.7027
L5.1214 19.7027
" />
<path d="M5.1214 19.7027
L5.5976 19.7027
" />
<path d="M5.8357 19.7027
L6.4071 19.7027
" />
<path d="M6.1214 20.7027
L6.1214 19.7027
" />
<path d="M6.5024 20.7979
L7.2643 20.7979
" />
<path d="M7.8357 20.1789
L7.9786 20.2265
" />
<path d="M7.9786 20.2265
L8.0262 20.2741
" />
<path d="M8.0262 20.2741
L8.0738 20.3693
" />
<path d="M8.0738 20.3693
L8.0738 20.5122
" />
<path d="M8.0738 20.5122
L8.0262 20.6074
" />
<path d="M8.0262 20.6074
L7.9786 20.6551
" />
<path d="M7.9786 20.6551
L7.8833 20.7027
" />
<path d="M7.8833 20.7027
L7.5024 20.7027
" />
<path d="M7.5024 20.7027
L7.5024 19.7027
" />
<path d="M7.5024 19.7027
L7.8357 19.7027
" />
<path d="M7.8357 19.7027
L7.9310 19.7503
" />
<path d="M7.9310 19.7503
L7.9786 19.7979
" />
<path d="M7.9786 19.7979
L8.0262 19.8932
" />
<path d="M8.0262 19.8932
L8.0262 19.9884
" />
<path d="M8.0262 19.9884
L7.9786 20.0836
" />
<path d="M7.9786 20.0836
L7.9310 20.1312
" />
<path d="M7.9310 20.1312
L7.8357 20.1789
" />
<path d="M7.8357 20.1789
L7.5024 20.1789
" />
<path d="M8.5024 19.7027
L8.5024 20.5122
" />
<path d="M8.5024 20.5122
L8.5500 20.6074
" />
<path d="M8.5500 20.6074
L8.5976 20.6551
" />
<path d="M8.5976 20.6551
L8.6929 20.7027
" />
<path d="M8.6929 20.7027
L8.8833 20.7027
" />
<path d="M8.8833 20.7027
L8.9786 20.6551
" />
<path d="M8.9786 20.6551
L9.0262 20.6074
" />
<path d="M9.0262 20.6074
L9.0738 20.5122
" />
<path d="M9.0738 20.5122
L9.0738 19.7027
" />
<path d="M9.4071 19.7027
L9.9786 19.7027
" />
<path d="M9.6929 20.7027
L9.6929 19.7027
" />
<path d="M10.1690 19.7027
L10.7405 19.7027
" />
<path d="M10.4548 20.7027
L10.4548 19.7027
" />
<path d="M11.2643 19.7027
L11.4548 19.7027
" />
<path d="M11.4548 19.7027
L11.5500 19.7503
" />
<path d="M11.5500 19.7503
L11.6452 19.8455
" />
<path d="M11.6452 19.8455
L11.6929 20.0360
" />
<path d="M11.6929 20.0360
L11.6929 20.3693
" />
<path d="M11.6929 20.3693
L11.6452 20.5598
" />
<path d="M11.6452 20.5598
L11.5500 20.6551
" />
<path d="M11.5500 20.6551
L11.4548 20.7027
" />
<path d="M11.4548 20.7027
L11.2643 20.7027
" />
<path d="M11.2643 20.7027
L11.1690 20.6551
" />
<path d="M11.1690 20.6551
L11.0738 20.5598
" />
<path d="M11.0738 20.5598
L11.0262 20.3693
" />
<path d="M11.0262 20.3693
L11.0262 20.0360
" />
<path d="M11.0262 20.0360
L11.0738 19.8455
" />
<path d="M11.0738 19.8455
L11.1690 19.7503
" />
<path d="M11.1690 19.7503
L11.2643 19.7027
" />
<path d="M12.1214 20.7027
L12.1214 19.7027
" />
<path d="M12.1214 19.7027
L12.6929 20.7027
" />
<path d="M12.6929 20.7027
L12.6929 19.7027
" />
</g><text x="34.6500" y="19.2479"
textLength="1.9643" font-size="1.3333" lengthAdjust="spacingAndGlyphs"
text-anchor="middle" opacity="0">J2</text>
<g class="stroked-text"><desc>J2</desc>
<path d="M34.3167 18.2027
L34.3167 18.9170
" />
<path d="M34.3167 18.9170
L34.2690 19.0598
" />
<path d="M34.2690 19.0598
L34.1738 19.1551
" />
<path d="M34.1738 19.1551
L34.0310 19.2027
" />
<path d="M34.0310 19.2027
L33.9357 19.2027
" />
<path d="M34.7452 18.2979
L34.7929 18.2503
" />
<path d="M34.7929 18.2503
L34.8881 18.2027
" />
<path d="M34.8881 18.2027
L35.1262 18.2027
" />
<path d="M35.1262 18.2027
L35.2214 18.2503
" />
<path d="M35.2214 18.2503
L35.2690 18.2979
" />
<path d="M35.2690 18.2979
L35.3167 18.3932
" />
<path d="M35.3167 18.3932
L35.3167 18.4884
" />
<path d="M35.3167 18.4884
L35.2690 18.6312
" />
<path d="M35.2690 18.6312
L34.6976 19.2027
" />
<path d="M34.6976 19.2027
L35.3167 19.2027
" />
</g><text x="34.6500" y="20.7479"
textLength="10.9643" font-size="1.3333" lengthAdjust="spacingAndGlyphs"
text-anchor="middle" opacity="0">RIGHT_BUTTON</text>
<g class="stroked-text"><desc>RIGHT_BUTTON</desc>
<path d="M30.1024 20.7027
L29.7690 20.2265
" />
<path d="M29.5310 20.7027
L29.5310 19.7027
" />
<path d="M29.5310 19.7027
L29.9119 19.7027
" />
<path d="M29.9119 19.7027
L30.0071 19.7503
" />
<path d="M30.0071 19.7503
L30.0548 19.7979
" />
<path d="M30.0548 19.7979
L30.1024 19.8932
" />
<path d="M30.1024 19.8932
L30.1024 20.0360
" />
<path d="M30.1024 20.0360
L30.0548 20.1312
" />
<path d="M30.0548 20.1312
L30.0071 20.1789
" />
<path d="M30.0071 20.1789
L29.9119 20.2265
" />
<path d="M29.9119 20.2265
L29.5310 20.2265
" />
<path d="M30.5310 20.7027
L30.5310 19.7027
" />
<path d="M31.5310 19.7503
L31.4357 19.7027
" />
<path d="M31.4357 19.7027
L31.2929 19.7027
" />
<path d="M31.2929 19.7027
L31.1500 19.7503
" />
<path d="M31.1500 19.7503
L31.0548 19.8455
" />
<path d="M31.0548 19.8455
L31.0071 19.9408
" />
<path d="M31.0071 19.9408
L30.9595 20.1312
" />
<path d="M30.9595 20.1312
L30.9595 20.2741
" />
<path d="M30.9595 20.2741
L31.0071 20.4646
" />
<path d="M31.0071 20.4646
L31.0548 20.5598
" />
<path d="M31.0548 20.5598
L31.1500 20.6551
" />
<path d="M31.1500 20.6551
L31.2929 20.7027
" />
<path d="M31.2929 20.7027
L31.3881 20.7027
" />
<path d="M31.3881 20.7027
L31.5310 20.6551
" />
<path d="M31.5310 20.6551
L31.5786 20.6074
" />
<path d="M31.5786 20.6074
L31.5786 20.2741
" />
<path d="M31.5786 20.2741
L31.3881 20.2741
" />
<path d="M32.0071 20.7027
L32.0071 19.7027
" />
<path d="M32.0071 20.1789
L32.5786 20.1789
" />
<path d="M32.5786 20.7027
L32.5786 19.7027
" />
<path d="M32.9119 19.7027
L33.4833 19.7027
" />
<path d="M33.1976 20.7027
L33.1976 19.7027
" />
<path d="M33.5786 20.7979
L34.3405 20.7979
" />
<path d="M34.9119 20.1789
L35.0548 20.2265
" />
<path d="M35.0548 20.2265
L35.1024 20.2741
" />
<path d="M35.1024 20.2741
L35.1500 20.3693
" />
<path d="M35.1500 20.3693
L35.1500 20.5122
" />
<path d="M35.1500 20.5122
L35.1024 20.6074
" />
<path d="M35.1024 20.6074
L35.0548 20.6551
" />
<path d="M35.0548 20.6551
L34.9595 20.7027
" />
<path d="M34.9595 20.7027
L34.5786 20.7027
" />
<path d="M34.5786 20.7027
L34.5786 19.7027
" />
<path d="M34.5786 19.7027
L34.9119 19.7027
" />
<path d="M34.9119 19.7027
L35.0071 19.7503
" />
<path d="M35.0071 19.7503
L35.0548 19.7979
" />
<path d="M35.0548 19.7979
L35.1024 19.8932
" />
<path d="M35.1024 19.8932
L35.1024 19.9884
" />
<path d="M35.1024 19.9884
L35.0548 20.0836
" />
<path d="M35.0548 20.0836
L35.0071 20.1312
" />
<path d="M35.0071 20.1312
L34.9119 20.1789
" />
<path d="M34.9119 20.1789
L34.5786 20.1789
" />
<path d="M35.5786 19.7027
L35.5786 20.5122
" />
<path d="M35.5786 20.5122
L35.6262 20.6074
" />
<path d="M35.6262 20.6074
L35.6738 20.6551
" />
<path d="M35.6738 20.6551
L35.7690 20.7027
" />
<path d="M35.7690 20.7027
L35.9595 20.7027
" />
<path d="M35.9595 20.7027
L36.0548 20.6551
" />
<path d="M36.0548 20.6551
L36.1024 20.6074
" />
<path d="M36.1024 20.6074
L36.1500 20.5122
" />
<path d="M36.1500 20.5122
L36.1500 19.7027
" />
<path d="M36.4833 19.7027
L37.0548 19.7027
" />
<path d="M36.7690 20.7027
L36.7690 19.7027
" />
<path d="M37.2452 19.7027
L37.8167 19.7027
" />
<path d="M37.5310 20.7027
L37.5310 19.7027
" />
<path d="M38.3405 19.7027
L38.5310 19.7027
" />
<path d="M38.5310 19.7027
L38.6262 19.7503
" />
<path d="M38.6262 19.7503
L38.7214 19.8455
" />
<path d="M38.7214 19.8455
L38.7690 20.0360
" />
<path d="M38.7690 20.0360
L38.7690 20.3693
" />
<path d="M38.7690 20.3693
L38.7214 20.5598
" />
<path d="M38.7214 20.5598
L38.6262 20.6551
" />
<path d="M38.6262 20.6551
L38.5310 20.7027
" />
<path d="M38.5310 20.7027
L38.3405 20.7027
" />
<path d="M38.3405 20.7027
L38.2452 20.6551
" />
<path d="M38.2452 20.6551
L38.1500 20.5598
" />
<path d="M38.1500 20.5598
L38.1024 20.3693
" />
<path d="M38.1024 20.3693
L38.1024 20.0360
" />
<path d="M38.1024 20.0360
L38.1500 19.8455
" />
<path d="M38.1500 19.8455
L38.2452 19.7503
" />
<path d="M38.2452 19.7503
L38.3405 19.7027
" />
<path d="M39.1976 20.7027
L39.1976 19.7027
" />
<path d="M39.1976 19.7027
L39.7690 20.7027
" />
<path d="M39.7690 20.7027
L39.7690 19.7027
" />
</g><text x="21.3500" y="19.2479"
textLength="1.9643" font-size="1.3333" lengthAdjust="spacingAndGlyphs"
text-anchor="middle" opacity="0">J3</text>
<g class="stroked-text"><desc>J3</desc>
<path d="M21.0167 18.2027
L21.0167 18.9170
" />
<path d="M21.0167 18.9170
L20.9690 19.0598
" />
<path d="M20.9690 19.0598
L20.8738 19.1551
" />
<path d="M20.8738 19.1551
L20.7310 19.2027
" />
<path d="M20.7310 19.2027
L20.6357 19.2027
" />
<path d="M21.3976 18.2027
L22.0167 18.2027
" />
<path d="M22.0167 18.2027
L21.6833 18.5836
" />
<path d="M21.6833 18.5836
L21.8262 18.5836
" />
<path d="M21.8262 18.5836
L21.9214 18.6312
" />
<path d="M21.9214 18.6312
L21.9690 18.6789
" />
<path d="M21.9690 18.6789
L22.0167 18.7741
" />
<path d="M22.0167 18.7741
L22.0167 19.0122
" />
<path d="M22.0167 19.0122
L21.9690 19.1074
" />
<path d="M21.9690 19.1074
L21.9214 19.1551
" />
<path d="M21.9214 19.1551
L21.8262 19.2027
" />
<path d="M21.8262 19.2027
L21.5405 19.2027
" />
<path d="M21.5405 19.2027
L21.4452 19.1551
" />
<path d="M21.4452 19.1551
L21.3976 19.1074
" />
</g><text x="21.3500" y="20.7479"
textLength="10.8557" font-size="1.2000" lengthAdjust="spacingAndGlyphs"
text-anchor="middle" opacity="0">MIDDLE_BUTTON</text>
<g class="stroked-text"><desc>MIDDLE_BUTTON</desc>
<path d="M16.2714 20.7027
L16.2714 19.7027
" />
<path d="M16.2714 19.7027
L16.5714 20.4170
" />
<path d="M16.5714 20.4170
L16.8714 19.7027
" />
<path d="M16.8714 19.7027
L16.8714 20.7027
" />
<path d="M17.3000 20.7027
L17.3000 19.7027
" />
<path d="M17.7286 20.7027
L17.7286 19.7027
" />
<path d="M17.7286 19.7027
L17.9429 19.7027
" />
<path d="M17.9429 19.7027
L18.0714 19.7503
" />
<path d="M18.0714 19.7503
L18.1571 19.8455
" />
<path d="M18.1571 19.8455
L18.2000 19.9408
" />
<path d="M18.2000 19.9408
L18.2429 20.1312
" />
<path d="M18.2429 20.1312
L18.2429 20.2741
" />
<path d="M18.2429 20.2741
L18.2000 20.4646
" />
<path d="M18.2000 20.4646
L18.1571 20.5598
" />
<path d="M18.1571 20.5598
L18.0714 20.6551
" />
<path d="M18.0714 20.6551
L17.9429 20.7027
" />
<path d="M17.9429 20.7027
L17.7286 20.7027
" />
<path d="M18.6286 20.7027
L18.6286 19.7027
" />
<path d="M18.6286 19.7027
L18.8429 19.7027
" />
<path d="M18.8429 19.7027
L18.9714 19.7503
" />
<path d="M18.9714 19.7503
L19.0571 19.8455
" />
<path d="M19.0571 19.8455
L19.1000 19.9408
" />
<path d="M19.1000 19.9408
L19.1429 20.1312
" />
<path d="M19.1429 20.1312
L19.1429 20.2741
" />
<path d="M19.1429 20.2741
L19.1000 20.4646
" />
<path d="M19.1000 20.4646
L19.0571 20.5598
" />
<path d="M19.0571 20.5598
L18.9714 20.6551
" />
<path d="M18.9714 20.6551
L18.8429 20.7027
" />
<path d="M18.8429 20.7027
L18.6286 20.7027
" />
<path d="M19.9571 20.7027
L19.5286 20.7027
" />
<path d="M19.5286 20.7027
L19.5286 19.7027
" />
<path d="M20.2571 20.1789
L20.5571 20.1789
" />
<path d="M20.6857 20.7027
L20.2571 20.7027
" />
<path d="M20.2571 20.7027
L20.2571 19.7027
" />
<path d="M20.2571 19.7027
L20.6857 19.7027
" />
<path d="M20.8571 20.7979
L21.5429 20.7979
" />
<path d="M22.0571 20.1789
L22.1857 20.2265
" />
<path d="M22.1857 20.2265
L22.2286 20.2741
" />
<path d="M22.2286 20.2741
L22.2714 20.3693
" />
<path d="M22.2714 20.3693
L22.2714 20.5122
" />
<path d="M22.2714 20.5122
L22.2286 20.6074
" />
<path d="M22.2286 20.6074
L22.1857 20.6551
" />
<path d="M22.1857 20.6551
L22.1000 20.7027
" />
<path d="M22.1000 20.7027
L21.7571 20.7027
" />
<path d="M21.7571 20.7027
L21.7571 19.7027
" />
<path d="M21.7571 19.7027
L22.0571 19.7027
" />
<path d="M22.0571 19.7027
L22.1429 19.7503
" />
<path d="M22.1429 19.7503
L22.1857 19.7979
" />
<path d="M22.1857 19.7979
L22.2286 19.8932
" />
<path d="M22.2286 19.8932
L22.2286 19.9884
" />
<path d="M22.2286 19.9884
L22.1857 20.0836
" />
<path d="M22.1857 20.0836
L22.1429 20.1312
" />
<path d="M22.1429 20.1312
L22.0571 20.1789
" />
<path d="M22.0571 20.1789
L21.7571 20.1789
" />
<path d="M22.6571 19.7027
L22.6571 20.5122
" />
<path d="M22.6571 20.5122
L22.7000 20.6074
" />
<path d="M22.7000 20.6074
L22.7429 20.6551
" />
<path d="M22.7429 20.6551
L22.8286 20.7027
" />
<path d="M22.8286 20.7027
L23.0000 20.7027
" />
<path d="M23.0000 20.7027
L23.0857 20.6551
" />
<path d="M23.0857 20.6551
L23.1286 20.6074
" />
<path d="M23.1286 20.6074
L23.1714 20.5122
" />
<path d="M23.1714 20.5122
L23.1714 19.7027
" />
<path d="M23.4714 19.7027
L23.9857 19.7027
" />
<path d="M23.7286 20.7027
L23.7286 19.7027
" />
<path d="M24.1571 19.7027
L24.6714 19.7027
" />
<path d="M24.4143 20.7027
L24.4143 19.7027
" />
<path d="M25.1429 19.7027
L25.3143 19.7027
" />
<path d="M25.3143 19.7027
L25.4000 19.7503
" />
<path d="M25.4000 19.7503
L25.4857 19.8455
" />
<path d="M25.4857 19.8455
L25.5286 20.0360
" />
<path d="M25.5286 20.0360
L25.5286 20.3693
" />
<path d="M25.5286 20.3693
L25.4857 20.5598
" />
<path d="M25.4857 20.5598
L25.4000 20.6551
" />
<path d="M25.4000 20.6551
L25.3143 20.7027
" />
<path d="M25.3143 20.7027
L25.1429 20.7027
" />
<path d="M25.1429 20.7027
L25.0571 20.6551
" />
<path d="M25.0571 20.6551
L24.9714 20.5598
" />
<path d="M24.9714 20.5598
L24.9286 20.3693
" />
<path d="M24.9286 20.3693
L24.9286 20.0360
" />
<path d="M24.9286 20.0360
L24.9714 19.8455
" />
<path d="M24.9714 19.8455
L25.0571 19.7503
" />
<path d="M25.0571 19.7503
L25.1429 19.7027
" />
<path d="M25.9143 20.7027
L25.9143 19.7027
" />
<path d="M25.9143 19.7027
L26.4286 20.7027
" />
<path d="M26.4286 20.7027
L26.4286 19.7027
" />
</g></g>
<g style="fill:#000000; fill-opacity:0.0; 
stroke:#000000; stroke-width:0.1200; stroke-opacity:1; 
stroke-linecap:round; stroke-linejoin:round;">
<path d="M8.0000 10.9379
L13.6000 10.9379
" />
<path d="M8.0000 12.1679
L8.0000 10.9379
" />
<path d="M13.6000 10.9379
L2.4000 10.9379
" />
<path d="M2.4000 10.9379
L2.4000 25.1379
" />
<path d="M2.4000 25.1379
L13.6000 25.1379
" />
<path d="M13.6000 25.1379
L13.6000 10.9379
" />
<path d="M34.6000 10.9379
L40.2000 10.9379
" />
<path d="M34.6000 12.1679
L34.6000 10.9379
" />
<path d="M40.2000 10.9379
L29.0000 10.9379
" />
<path d="M29.0000 10.9379
L29.0000 25.1379
" />
<path d="M29.0000 25.1379
L40.2000 25.1379
" />
<path d="M40.2000 25.1379
L40.2000 10.9379
" />
<path d="M21.3000 10.9379
L26.9000 10.9379
" />
<path d="M21.3000 12.1679
L21.3000 10.9379
" />
<path d="M26.9000 10.9379
L15.7000 10.9379
" />
<path d="M15.7000 10.9379
L15.7000 25.1379
" />
<path d="M15.7000 25.1379
L26.9000 25.1379
" />
<path d="M26.9000 25.1379
L26.9000 10.9379
" />
<g >
</g>
<g >
</g>
<g >
</g>
<g >
</g>
<g >
</g>
<g >
</g>
<g >
</g>
</g>
<g style="fill:#000000; fill-opacity:0.0; 
stroke:#000000; stroke-width:0.1200; stroke-opacity:1; 
stroke-linecap:round; stroke-linejoin:round;">
</g>
<g style="fill:#000000; fill-opacity:0.0; 
stroke:#000000; stroke-width:0.1000; stroke-opacity:1; 
stroke-linecap:round; stroke-linejoin:round;">
<path d="M21.3000 4.6179
L39.8500 4.6179
" />
<path d="M0.0500 28.7679
L0.0500 7.3179
" />
<path d="M0.0500 28.7679 A2.7000 2.7000 0.0 0 0 2.7500 31.4679" />
<path d="M42.5500 7.3179
L42.5500 28.7679
" />
<path d="M2.7500 4.6179
L21.3000 4.6179
" />
<path d="M2.7500 4.6179 A2.7000 2.7000 0.0 0 0 0.0500 7.3179" />
<path d="M39.8500 31.4679 A2.7000 2.7000 0.0 0 0 42.5500 28.7679" />
<circle cx="2.7500" cy="7.3179" r="1.7000" /> 
<circle cx="2.7500" cy="28.7679" r="1.7000" /> 
<path d="M39.8500 31.4679
L2.7500 31.4679
" />
<path d="M42.5500 7.3179 A2.7000 2.7000 0.0 0 0 39.8500 4.6179" />
<circle cx="39.8500" cy="7.3179" r="1.7000" /> 
<circle cx="39.8500" cy="28.7679" r="1.7000" /> 
<g >
</g>
<g >
</g>
<g >
</g>
<g >
</g>
<g >
</g>
<g >
</g>
<g >
</g>
</g> 
</svg>
