G04 #@! TF.GenerationSoftware,KiCad,Pcbnew,7.0.7-2.fc38*
G04 #@! TF.CreationDate,2023-10-09T12:01:19+01:00*
G04 #@! TF.ProjectId,Main_PCB,4d61696e-5f50-4434-922e-6b696361645f,rev?*
G04 #@! TF.SameCoordinates,Original*
G04 #@! TF.FileFunction,Copper,L2,Bot*
G04 #@! TF.FilePolarity,Positive*
%FSLAX46Y46*%
G04 Gerber Fmt 4.6, Leading zero omitted, Abs format (unit mm)*
G04 Created by KiCad (PCBNEW 7.0.7-2.fc38) date 2023-10-09 12:01:19*
%MOMM*%
%LPD*%
G01*
G04 APERTURE LIST*
G04 #@! TA.AperFunction,ComponentPad*
%ADD10R,1.524000X1.524000*%
G04 #@! TD*
G04 #@! TA.AperFunction,ComponentPad*
%ADD11C,1.524000*%
G04 #@! TD*
G04 #@! TA.AperFunction,ComponentPad*
%ADD12C,3.500000*%
G04 #@! TD*
G04 #@! TA.AperFunction,ComponentPad*
%ADD13C,1.000000*%
G04 #@! TD*
G04 #@! TA.AperFunction,ComponentPad*
%ADD14R,1.600000X1.600000*%
G04 #@! TD*
G04 #@! TA.AperFunction,ComponentPad*
%ADD15C,1.600000*%
G04 #@! TD*
G04 #@! TA.AperFunction,ComponentPad*
%ADD16O,1.600000X1.600000*%
G04 #@! TD*
G04 #@! TA.AperFunction,ComponentPad*
%ADD17R,1.700000X1.700000*%
G04 #@! TD*
G04 #@! TA.AperFunction,ComponentPad*
%ADD18O,1.700000X1.700000*%
G04 #@! TD*
G04 #@! TA.AperFunction,ComponentPad*
%ADD19C,2.000000*%
G04 #@! TD*
G04 #@! TA.AperFunction,ComponentPad*
%ADD20R,1.500000X1.050000*%
G04 #@! TD*
G04 #@! TA.AperFunction,ComponentPad*
%ADD21O,1.500000X1.050000*%
G04 #@! TD*
G04 #@! TA.AperFunction,Conductor*
%ADD22C,1.500000*%
G04 #@! TD*
G04 APERTURE END LIST*
D10*
G04 #@! TO.P,J4,1,VBUS*
G04 #@! TO.N,+3.3V*
X123500000Y-57362500D03*
D11*
G04 #@! TO.P,J4,2,D-*
G04 #@! TO.N,unconnected-(J4-Pad2)*
X121000000Y-57362500D03*
G04 #@! TO.P,J4,3,D+*
G04 #@! TO.N,unconnected-(J4-Pad3)*
X119000000Y-57362500D03*
G04 #@! TO.P,J4,4,GND*
G04 #@! TO.N,Net-(J4-Pad4)*
X116500000Y-57362500D03*
D12*
G04 #@! TO.P,J4,5,Shield*
G04 #@! TO.N,unconnected-(J4-Pad5)*
X126570000Y-54652500D03*
X113430000Y-54652500D03*
G04 #@! TD*
D13*
G04 #@! TO.P,Y1,1,1*
G04 #@! TO.N,Net-(U2-Pad2)*
X112050000Y-69817742D03*
G04 #@! TO.P,Y1,2,2*
G04 #@! TO.N,Net-(U2-Pad3)*
X113950000Y-69817742D03*
G04 #@! TD*
D14*
G04 #@! TO.P,BZ1,1,-*
G04 #@! TO.N,PWM*
X161200000Y-71000000D03*
D15*
G04 #@! TO.P,BZ1,2,+*
G04 #@! TO.N,GND*
X167700000Y-71000000D03*
G04 #@! TD*
D14*
G04 #@! TO.P,U2,1,VCC2*
G04 #@! TO.N,+3.3V*
X118200000Y-63200000D03*
D16*
G04 #@! TO.P,U2,2,X1*
G04 #@! TO.N,Net-(U2-Pad2)*
X118200000Y-65740000D03*
G04 #@! TO.P,U2,3,X2*
G04 #@! TO.N,Net-(U2-Pad3)*
X118200000Y-68280000D03*
G04 #@! TO.P,U2,4,GND*
G04 #@! TO.N,GND*
X118200000Y-70820000D03*
G04 #@! TO.P,U2,5,CE*
G04 #@! TO.N,RTC_RST*
X125820000Y-70820000D03*
G04 #@! TO.P,U2,6,I/O*
G04 #@! TO.N,RTC_DAT*
X125820000Y-68280000D03*
G04 #@! TO.P,U2,7,SCLK*
G04 #@! TO.N,RTC_CLK*
X125820000Y-65740000D03*
G04 #@! TO.P,U2,8,VCC1*
G04 #@! TO.N,Net-(BT1-Pad1)*
X125820000Y-63200000D03*
G04 #@! TD*
D17*
G04 #@! TO.P,J3,1,Pin_1*
G04 #@! TO.N,+3.3V*
X125730000Y-84175000D03*
D18*
G04 #@! TO.P,J3,2,Pin_2*
G04 #@! TO.N,GND*
X125730000Y-86715000D03*
G04 #@! TO.P,J3,3,Pin_3*
G04 #@! TO.N,RIGHT_BUT*
X125730000Y-89255000D03*
G04 #@! TO.P,J3,4,Pin_4*
G04 #@! TO.N,MIDDLE_BUT*
X125730000Y-91795000D03*
G04 #@! TO.P,J3,5,Pin_5*
G04 #@! TO.N,LEFT_BUT*
X125730000Y-94335000D03*
G04 #@! TD*
G04 #@! TO.P,U1,1,GPIO0*
G04 #@! TO.N,unconnected-(U1-Pad1)*
X134110000Y-45870000D03*
G04 #@! TO.P,U1,2,GPIO1*
G04 #@! TO.N,unconnected-(U1-Pad2)*
X134110000Y-48410000D03*
D17*
G04 #@! TO.P,U1,3,GND*
G04 #@! TO.N,GND*
X134110000Y-50950000D03*
D18*
G04 #@! TO.P,U1,4,GPIO2*
G04 #@! TO.N,unconnected-(U1-Pad4)*
X134110000Y-53490000D03*
G04 #@! TO.P,U1,5,GPIO3*
G04 #@! TO.N,unconnected-(U1-Pad5)*
X134110000Y-56030000D03*
G04 #@! TO.P,U1,6,GPIO4*
G04 #@! TO.N,unconnected-(U1-Pad6)*
X134110000Y-58570000D03*
G04 #@! TO.P,U1,7,GPIO5*
G04 #@! TO.N,USB1*
X134110000Y-61110000D03*
D17*
G04 #@! TO.P,U1,8,GND*
G04 #@! TO.N,GND*
X134110000Y-63650000D03*
D18*
G04 #@! TO.P,U1,9,GPIO6*
G04 #@! TO.N,RTC_CLK*
X134110000Y-66190000D03*
G04 #@! TO.P,U1,10,GPIO7*
G04 #@! TO.N,RTC_DAT*
X134110000Y-68730000D03*
G04 #@! TO.P,U1,11,GPIO8*
G04 #@! TO.N,RTC_RST*
X134110000Y-71270000D03*
G04 #@! TO.P,U1,12,GPIO9*
G04 #@! TO.N,unconnected-(U1-Pad12)*
X134110000Y-73810000D03*
D17*
G04 #@! TO.P,U1,13,GND*
G04 #@! TO.N,GND*
X134110000Y-76350000D03*
D18*
G04 #@! TO.P,U1,14,GPIO10*
G04 #@! TO.N,unconnected-(U1-Pad14)*
X134110000Y-78890000D03*
G04 #@! TO.P,U1,15,GPIO11*
G04 #@! TO.N,LIGHT*
X134110000Y-81430000D03*
G04 #@! TO.P,U1,16,GPIO12*
G04 #@! TO.N,unconnected-(U1-Pad16)*
X134110000Y-83970000D03*
G04 #@! TO.P,U1,17,GPIO13*
G04 #@! TO.N,RIGHT_BUT*
X134110000Y-86510000D03*
D17*
G04 #@! TO.P,U1,18,GND*
G04 #@! TO.N,GND*
X134110000Y-89050000D03*
D18*
G04 #@! TO.P,U1,19,GPIO14*
G04 #@! TO.N,MIDDLE_BUT*
X134110000Y-91590000D03*
G04 #@! TO.P,U1,20,GPIO15*
G04 #@! TO.N,LEFT_BUT*
X134110000Y-94130000D03*
G04 #@! TO.P,U1,21,GPIO16*
G04 #@! TO.N,OLED_CS*
X151890000Y-94130000D03*
G04 #@! TO.P,U1,22,GPIO17*
G04 #@! TO.N,OLED_DC*
X151890000Y-91590000D03*
D17*
G04 #@! TO.P,U1,23,GND*
G04 #@! TO.N,GND*
X151890000Y-89050000D03*
D18*
G04 #@! TO.P,U1,24,GPIO18*
G04 #@! TO.N,OLED_CLK*
X151890000Y-86510000D03*
G04 #@! TO.P,U1,25,GPIO19*
G04 #@! TO.N,OLED_DIN*
X151890000Y-83970000D03*
G04 #@! TO.P,U1,26,GPIO20*
G04 #@! TO.N,OLED_RST*
X151890000Y-81430000D03*
G04 #@! TO.P,U1,27,GPIO21*
G04 #@! TO.N,unconnected-(U1-Pad27)*
X151890000Y-78890000D03*
D17*
G04 #@! TO.P,U1,28,GND*
G04 #@! TO.N,GND*
X151890000Y-76350000D03*
D18*
G04 #@! TO.P,U1,29,GPIO22*
G04 #@! TO.N,PWM*
X151890000Y-73810000D03*
G04 #@! TO.P,U1,30,RUN*
G04 #@! TO.N,unconnected-(U1-Pad30)*
X151890000Y-71270000D03*
G04 #@! TO.P,U1,31,GPIO26_ADC0*
G04 #@! TO.N,unconnected-(U1-Pad31)*
X151890000Y-68730000D03*
G04 #@! TO.P,U1,32,GPIO27_ADC1*
G04 #@! TO.N,unconnected-(U1-Pad32)*
X151890000Y-66190000D03*
D17*
G04 #@! TO.P,U1,33,AGND*
G04 #@! TO.N,GND*
X151890000Y-63650000D03*
D18*
G04 #@! TO.P,U1,34,GPIO28_ADC2*
G04 #@! TO.N,USB2*
X151890000Y-61110000D03*
G04 #@! TO.P,U1,35,ADC_VREF*
G04 #@! TO.N,unconnected-(U1-Pad35)*
X151890000Y-58570000D03*
G04 #@! TO.P,U1,36,3V3*
G04 #@! TO.N,+3.3V*
X151890000Y-56030000D03*
G04 #@! TO.P,U1,37,3V3_EN*
G04 #@! TO.N,unconnected-(U1-Pad37)*
X151890000Y-53490000D03*
D17*
G04 #@! TO.P,U1,38,GND*
G04 #@! TO.N,GND*
X151890000Y-50950000D03*
D18*
G04 #@! TO.P,U1,39,VSYS*
G04 #@! TO.N,unconnected-(U1-Pad39)*
X151890000Y-48410000D03*
G04 #@! TO.P,U1,40,VBUS*
G04 #@! TO.N,unconnected-(U1-Pad40)*
X151890000Y-45870000D03*
G04 #@! TO.P,U1,41,SWCLK*
G04 #@! TO.N,unconnected-(U1-Pad41)*
X140460000Y-93900000D03*
D17*
G04 #@! TO.P,U1,42,GND*
G04 #@! TO.N,unconnected-(U1-Pad42)*
X143000000Y-93900000D03*
D18*
G04 #@! TO.P,U1,43,SWDIO*
G04 #@! TO.N,unconnected-(U1-Pad43)*
X145540000Y-93900000D03*
G04 #@! TD*
D19*
G04 #@! TO.P,BT1,1,+*
G04 #@! TO.N,Net-(BT1-Pad1)*
X120000000Y-92000000D03*
X120000000Y-82000000D03*
G04 #@! TO.P,BT1,2,-*
G04 #@! TO.N,GND*
X116300000Y-87000000D03*
G04 #@! TD*
D10*
G04 #@! TO.P,J5,1,VBUS*
G04 #@! TO.N,+3.3V*
X169500000Y-57362500D03*
D11*
G04 #@! TO.P,J5,2,D-*
G04 #@! TO.N,unconnected-(J5-Pad2)*
X167000000Y-57362500D03*
G04 #@! TO.P,J5,3,D+*
G04 #@! TO.N,unconnected-(J5-Pad3)*
X165000000Y-57362500D03*
G04 #@! TO.P,J5,4,GND*
G04 #@! TO.N,Net-(J5-Pad4)*
X162500000Y-57362500D03*
D12*
G04 #@! TO.P,J5,5,Shield*
G04 #@! TO.N,unconnected-(J5-Pad5)*
X159430000Y-54652500D03*
X172570000Y-54652500D03*
G04 #@! TD*
D20*
G04 #@! TO.P,Q1,1,E*
G04 #@! TO.N,GND*
X114000000Y-63000000D03*
D21*
G04 #@! TO.P,Q1,2,B*
G04 #@! TO.N,USB1*
X114000000Y-61730000D03*
G04 #@! TO.P,Q1,3,C*
G04 #@! TO.N,Net-(J4-Pad4)*
X114000000Y-60460000D03*
G04 #@! TD*
D17*
G04 #@! TO.P,J1,1,Pin_1*
G04 #@! TO.N,+3.3V*
X125730000Y-75475000D03*
D18*
G04 #@! TO.P,J1,2,Pin_2*
G04 #@! TO.N,GND*
X125730000Y-78015000D03*
G04 #@! TO.P,J1,3,Pin_3*
G04 #@! TO.N,LIGHT*
X125730000Y-80555000D03*
G04 #@! TD*
D17*
G04 #@! TO.P,J2,1,Pin_1*
G04 #@! TO.N,+3.3V*
X160020000Y-79047500D03*
D18*
G04 #@! TO.P,J2,2,Pin_2*
G04 #@! TO.N,GND*
X160020000Y-81587500D03*
G04 #@! TO.P,J2,3,Pin_3*
G04 #@! TO.N,OLED_DIN*
X160020000Y-84127500D03*
G04 #@! TO.P,J2,4,Pin_4*
G04 #@! TO.N,OLED_CLK*
X160020000Y-86667500D03*
G04 #@! TO.P,J2,5,Pin_5*
G04 #@! TO.N,OLED_CS*
X160020000Y-89207500D03*
G04 #@! TO.P,J2,6,Pin_6*
G04 #@! TO.N,OLED_DC*
X160020000Y-91747500D03*
G04 #@! TO.P,J2,7,Pin_7*
G04 #@! TO.N,OLED_RST*
X160020000Y-94287500D03*
G04 #@! TD*
D20*
G04 #@! TO.P,Q2,1,E*
G04 #@! TO.N,GND*
X161000000Y-63000000D03*
D21*
G04 #@! TO.P,Q2,2,B*
G04 #@! TO.N,USB2*
X161000000Y-61730000D03*
G04 #@! TO.P,Q2,3,C*
G04 #@! TO.N,Net-(J5-Pad4)*
X161000000Y-60460000D03*
G04 #@! TD*
D22*
G04 #@! TO.N,+3.3V*
X123500000Y-61500000D02*
X123500000Y-57362500D01*
X122000000Y-74000000D02*
X123475000Y-75475000D01*
X118200000Y-63200000D02*
X121800000Y-63200000D01*
X122000000Y-74000000D02*
X122000000Y-63400000D01*
X122000000Y-63400000D02*
X121800000Y-63200000D01*
X123475000Y-75475000D02*
X125730000Y-75475000D01*
X121800000Y-63200000D02*
X123500000Y-61500000D01*
G04 #@! TO.N,OLED_RST*
X156210000Y-82550000D02*
X156210000Y-92710000D01*
X155090000Y-81430000D02*
X156210000Y-82550000D01*
X157787500Y-94287500D02*
X160020000Y-94287500D01*
X156210000Y-92710000D02*
X157787500Y-94287500D01*
X151890000Y-81430000D02*
X155090000Y-81430000D01*
G04 #@! TD*
G04 #@! TA.AperFunction,Conductor*
G04 #@! TO.N,GND*
G36*
X173217318Y-44009488D02*
G01*
X173415917Y-44018159D01*
X173420889Y-44018577D01*
X173636792Y-44045489D01*
X173792060Y-44065931D01*
X173837233Y-44071879D01*
X173841936Y-44072680D01*
X174054183Y-44117183D01*
X174252516Y-44161153D01*
X174256799Y-44162263D01*
X174464544Y-44224112D01*
X174658634Y-44285309D01*
X174662565Y-44286695D01*
X174723716Y-44310555D01*
X174864457Y-44365472D01*
X175052741Y-44443463D01*
X175056288Y-44445063D01*
X175176345Y-44503755D01*
X175250992Y-44540248D01*
X175266950Y-44548555D01*
X175431977Y-44634462D01*
X175435121Y-44636214D01*
X175522149Y-44688072D01*
X175621382Y-44747202D01*
X175793631Y-44856937D01*
X175796390Y-44858798D01*
X175972918Y-44984837D01*
X176135085Y-45109272D01*
X176137450Y-45111179D01*
X176303055Y-45251439D01*
X176408928Y-45348453D01*
X176454895Y-45390574D01*
X176609425Y-45545104D01*
X176701534Y-45645624D01*
X176748555Y-45696938D01*
X176752992Y-45702177D01*
X176888819Y-45862548D01*
X176890726Y-45864913D01*
X177015162Y-46027081D01*
X177141200Y-46203608D01*
X177143061Y-46206367D01*
X177252797Y-46378617D01*
X177363779Y-46564870D01*
X177365540Y-46568029D01*
X177459751Y-46749007D01*
X177554929Y-46943696D01*
X177556535Y-46947257D01*
X177634536Y-47135566D01*
X177713303Y-47337433D01*
X177714697Y-47341390D01*
X177775899Y-47535496D01*
X177837729Y-47743179D01*
X177838855Y-47747521D01*
X177882818Y-47945826D01*
X177927317Y-48158058D01*
X177928119Y-48162764D01*
X177954524Y-48363319D01*
X177981417Y-48579067D01*
X177981841Y-48584114D01*
X177990513Y-48782728D01*
X177999500Y-49000000D01*
X177999500Y-95000000D01*
X177990513Y-95217271D01*
X177981841Y-95415884D01*
X177981417Y-95420931D01*
X177954524Y-95636680D01*
X177928119Y-95837234D01*
X177927317Y-95841940D01*
X177882818Y-96054173D01*
X177838855Y-96252477D01*
X177837729Y-96256819D01*
X177775899Y-96464503D01*
X177714697Y-96658608D01*
X177713303Y-96662565D01*
X177634536Y-96864433D01*
X177556535Y-97052741D01*
X177554929Y-97056302D01*
X177459751Y-97250992D01*
X177365540Y-97431969D01*
X177363779Y-97435128D01*
X177252797Y-97621382D01*
X177143061Y-97793631D01*
X177141200Y-97796389D01*
X177015162Y-97972918D01*
X176890726Y-98135085D01*
X176888819Y-98137450D01*
X176748557Y-98303058D01*
X176609425Y-98454895D01*
X176454895Y-98609425D01*
X176303058Y-98748557D01*
X176137450Y-98888819D01*
X176135085Y-98890726D01*
X175972918Y-99015162D01*
X175796389Y-99141200D01*
X175793631Y-99143061D01*
X175621382Y-99252797D01*
X175435128Y-99363779D01*
X175431969Y-99365540D01*
X175250992Y-99459751D01*
X175056302Y-99554929D01*
X175052741Y-99556535D01*
X174864433Y-99634536D01*
X174662565Y-99713303D01*
X174658608Y-99714697D01*
X174464503Y-99775899D01*
X174256819Y-99837729D01*
X174252477Y-99838855D01*
X174054173Y-99882818D01*
X173841940Y-99927317D01*
X173837234Y-99928119D01*
X173636680Y-99954524D01*
X173420931Y-99981417D01*
X173415884Y-99981841D01*
X173217271Y-99990513D01*
X173000000Y-99999500D01*
X113000000Y-99999500D01*
X112782728Y-99990513D01*
X112584114Y-99981841D01*
X112579067Y-99981417D01*
X112363319Y-99954524D01*
X112162764Y-99928119D01*
X112158058Y-99927317D01*
X111945826Y-99882818D01*
X111747521Y-99838855D01*
X111743179Y-99837729D01*
X111535496Y-99775899D01*
X111341390Y-99714697D01*
X111337433Y-99713303D01*
X111135566Y-99634536D01*
X110947257Y-99556535D01*
X110943696Y-99554929D01*
X110749007Y-99459751D01*
X110568029Y-99365540D01*
X110564870Y-99363779D01*
X110378617Y-99252797D01*
X110206367Y-99143061D01*
X110203608Y-99141200D01*
X110027081Y-99015162D01*
X109864913Y-98890726D01*
X109862548Y-98888819D01*
X109696940Y-98748557D01*
X109545104Y-98609425D01*
X109390574Y-98454895D01*
X109251442Y-98303059D01*
X109111179Y-98137450D01*
X109109272Y-98135085D01*
X108984837Y-97972918D01*
X108917469Y-97878564D01*
X108858794Y-97796384D01*
X108856937Y-97793631D01*
X108747202Y-97621382D01*
X108696562Y-97536397D01*
X108636214Y-97435121D01*
X108634458Y-97431969D01*
X108540248Y-97250992D01*
X108505185Y-97179272D01*
X108445063Y-97056288D01*
X108443463Y-97052741D01*
X108386822Y-96915998D01*
X108365463Y-96864433D01*
X108288530Y-96667269D01*
X108286695Y-96662565D01*
X108285309Y-96658634D01*
X108224100Y-96464503D01*
X108162263Y-96256799D01*
X108161153Y-96252516D01*
X108160595Y-96249999D01*
X109994592Y-96249999D01*
X110002271Y-96352472D01*
X110002447Y-96357182D01*
X110002447Y-96373930D01*
X110001462Y-96377282D01*
X110001878Y-96382834D01*
X110003492Y-96387910D01*
X110005990Y-96404477D01*
X110006517Y-96409160D01*
X110010666Y-96464503D01*
X110014198Y-96511630D01*
X110014198Y-96511634D01*
X110014199Y-96511635D01*
X110037060Y-96611797D01*
X110037934Y-96616415D01*
X110038981Y-96623350D01*
X110040437Y-96633012D01*
X110039963Y-96636473D01*
X110041201Y-96641897D01*
X110043553Y-96646675D01*
X110048500Y-96662711D01*
X110049719Y-96667262D01*
X110069169Y-96752472D01*
X110072580Y-96767416D01*
X110110120Y-96863066D01*
X110111677Y-96867516D01*
X110116616Y-96883529D01*
X110116663Y-96887016D01*
X110118698Y-96892200D01*
X110121736Y-96896575D01*
X110129007Y-96911674D01*
X110130892Y-96915994D01*
X110168428Y-97011636D01*
X110168431Y-97011642D01*
X110168432Y-97011643D01*
X110219808Y-97100629D01*
X110222007Y-97104791D01*
X110229280Y-97119892D01*
X110229847Y-97123336D01*
X110232630Y-97128156D01*
X110236290Y-97132033D01*
X110241831Y-97140161D01*
X110245731Y-97145882D01*
X110248237Y-97149871D01*
X110299611Y-97238853D01*
X110299615Y-97238859D01*
X110363667Y-97319177D01*
X110366464Y-97322968D01*
X110375917Y-97336832D01*
X110376991Y-97340153D01*
X110380457Y-97344499D01*
X110384649Y-97347783D01*
X110396066Y-97360087D01*
X110399140Y-97363659D01*
X110463195Y-97443981D01*
X110538517Y-97513869D01*
X110541850Y-97517202D01*
X110553250Y-97529489D01*
X110554803Y-97532606D01*
X110558889Y-97536397D01*
X110563517Y-97539016D01*
X110567588Y-97542262D01*
X110576645Y-97549484D01*
X110580185Y-97552532D01*
X110655521Y-97622433D01*
X110740410Y-97680309D01*
X110744195Y-97683103D01*
X110757313Y-97693564D01*
X110759317Y-97696420D01*
X110763906Y-97699549D01*
X110768880Y-97701451D01*
X110768894Y-97701459D01*
X110783408Y-97709838D01*
X110787395Y-97712343D01*
X110872296Y-97770228D01*
X110964894Y-97814820D01*
X110969028Y-97817006D01*
X110972628Y-97819084D01*
X110983559Y-97825397D01*
X110985965Y-97827921D01*
X110990968Y-97830330D01*
X110996174Y-97831472D01*
X111011796Y-97837603D01*
X111016106Y-97839483D01*
X111108677Y-97884063D01*
X111206879Y-97914354D01*
X111211291Y-97915898D01*
X111226919Y-97922031D01*
X111229672Y-97924167D01*
X111234996Y-97925809D01*
X111240307Y-97926160D01*
X111256665Y-97929894D01*
X111261184Y-97931105D01*
X111359385Y-97961396D01*
X111460999Y-97976712D01*
X111465589Y-97977580D01*
X111481969Y-97981318D01*
X111485011Y-97983020D01*
X111490505Y-97983848D01*
X111495815Y-97983405D01*
X111512556Y-97984660D01*
X111517183Y-97985180D01*
X111618818Y-98000500D01*
X111721561Y-98000500D01*
X111726264Y-98000676D01*
X111731124Y-98001039D01*
X111743009Y-98001930D01*
X111746272Y-98003160D01*
X111751817Y-98003160D01*
X111757001Y-98001929D01*
X111764720Y-98001350D01*
X111773728Y-98000676D01*
X111778436Y-98000500D01*
X111881182Y-98000500D01*
X111982840Y-97985177D01*
X111987414Y-97984661D01*
X112004196Y-97983404D01*
X112007603Y-97984133D01*
X112013091Y-97983306D01*
X112018033Y-97981318D01*
X112034425Y-97977576D01*
X112038969Y-97976716D01*
X112140615Y-97961396D01*
X112238840Y-97931097D01*
X112243315Y-97929898D01*
X112259695Y-97926160D01*
X112263172Y-97926373D01*
X112268489Y-97924733D01*
X112273070Y-97922035D01*
X112288717Y-97915895D01*
X112293111Y-97914357D01*
X112391323Y-97884063D01*
X112483915Y-97839472D01*
X112488200Y-97837603D01*
X112491087Y-97836470D01*
X112503828Y-97831471D01*
X112507299Y-97831163D01*
X112512305Y-97828752D01*
X112516443Y-97825394D01*
X112530991Y-97816995D01*
X112535093Y-97814826D01*
X112627704Y-97770228D01*
X112712626Y-97712328D01*
X112716560Y-97709856D01*
X112731108Y-97701457D01*
X112734498Y-97700634D01*
X112739092Y-97697502D01*
X112742681Y-97693568D01*
X112747410Y-97689796D01*
X112755810Y-97683097D01*
X112759558Y-97680330D01*
X112844479Y-97622433D01*
X112919826Y-97552520D01*
X112923341Y-97549495D01*
X112936483Y-97539015D01*
X112939703Y-97537700D01*
X112943786Y-97533911D01*
X112946740Y-97529498D01*
X112958178Y-97517171D01*
X112961449Y-97513900D01*
X113036805Y-97443981D01*
X113100888Y-97363623D01*
X113103921Y-97360098D01*
X113110043Y-97353500D01*
X113115347Y-97347785D01*
X113118343Y-97346000D01*
X113121807Y-97341656D01*
X113124083Y-97336827D01*
X113133527Y-97322976D01*
X113136312Y-97319202D01*
X113200386Y-97238857D01*
X113251768Y-97149860D01*
X113254253Y-97145903D01*
X113263710Y-97132032D01*
X113266406Y-97129822D01*
X113269189Y-97125001D01*
X113270716Y-97119898D01*
X113278000Y-97104772D01*
X113280186Y-97100638D01*
X113331568Y-97011643D01*
X113369122Y-96915954D01*
X113370973Y-96911713D01*
X113378233Y-96896638D01*
X113380579Y-96894036D01*
X113382634Y-96888802D01*
X113383384Y-96883529D01*
X113388331Y-96867488D01*
X113389868Y-96863095D01*
X113427420Y-96767416D01*
X113450290Y-96667216D01*
X113451497Y-96662713D01*
X113456446Y-96646671D01*
X113458370Y-96643763D01*
X113459606Y-96638350D01*
X113459562Y-96633015D01*
X113462063Y-96616424D01*
X113462929Y-96611840D01*
X113485802Y-96511630D01*
X113493482Y-96409142D01*
X113494006Y-96404492D01*
X113497271Y-96382834D01*
X113498169Y-96376879D01*
X113498169Y-96376874D01*
X113498344Y-96375711D01*
X113497727Y-96371600D01*
X113498171Y-96347859D01*
X113498331Y-96344430D01*
X113505408Y-96250000D01*
X113505408Y-96249999D01*
X172744592Y-96249999D01*
X172752271Y-96352472D01*
X172752447Y-96357182D01*
X172752447Y-96373930D01*
X172751462Y-96377282D01*
X172751878Y-96382835D01*
X172753492Y-96387910D01*
X172755990Y-96404477D01*
X172756517Y-96409160D01*
X172760666Y-96464503D01*
X172764198Y-96511630D01*
X172764198Y-96511634D01*
X172764199Y-96511635D01*
X172787060Y-96611797D01*
X172787934Y-96616415D01*
X172788981Y-96623350D01*
X172790437Y-96633012D01*
X172789963Y-96636473D01*
X172791201Y-96641897D01*
X172793553Y-96646675D01*
X172798500Y-96662711D01*
X172799719Y-96667262D01*
X172819169Y-96752472D01*
X172822580Y-96767416D01*
X172860120Y-96863066D01*
X172861677Y-96867516D01*
X172866616Y-96883529D01*
X172866663Y-96887016D01*
X172868698Y-96892200D01*
X172871736Y-96896575D01*
X172879007Y-96911674D01*
X172880892Y-96915994D01*
X172918428Y-97011636D01*
X172918431Y-97011642D01*
X172918432Y-97011643D01*
X172969808Y-97100629D01*
X172972007Y-97104791D01*
X172979280Y-97119892D01*
X172979847Y-97123336D01*
X172982630Y-97128156D01*
X172986290Y-97132033D01*
X172991831Y-97140161D01*
X172995731Y-97145882D01*
X172998237Y-97149871D01*
X173049611Y-97238853D01*
X173049615Y-97238859D01*
X173113667Y-97319177D01*
X173116464Y-97322968D01*
X173125917Y-97336832D01*
X173126991Y-97340153D01*
X173130457Y-97344499D01*
X173134649Y-97347783D01*
X173146066Y-97360087D01*
X173149140Y-97363659D01*
X173213195Y-97443981D01*
X173288517Y-97513869D01*
X173291850Y-97517202D01*
X173303250Y-97529489D01*
X173304803Y-97532606D01*
X173308889Y-97536397D01*
X173313517Y-97539016D01*
X173317588Y-97542262D01*
X173326645Y-97549484D01*
X173330185Y-97552532D01*
X173405521Y-97622433D01*
X173490410Y-97680309D01*
X173494195Y-97683103D01*
X173507313Y-97693564D01*
X173509317Y-97696420D01*
X173513906Y-97699549D01*
X173518880Y-97701451D01*
X173518894Y-97701459D01*
X173533408Y-97709838D01*
X173537395Y-97712343D01*
X173622296Y-97770228D01*
X173714894Y-97814820D01*
X173719028Y-97817006D01*
X173722628Y-97819084D01*
X173733559Y-97825397D01*
X173735965Y-97827921D01*
X173740968Y-97830330D01*
X173746174Y-97831472D01*
X173761796Y-97837603D01*
X173766106Y-97839483D01*
X173858677Y-97884063D01*
X173956879Y-97914354D01*
X173961291Y-97915898D01*
X173976919Y-97922031D01*
X173979672Y-97924167D01*
X173984996Y-97925809D01*
X173990307Y-97926160D01*
X174006665Y-97929894D01*
X174011184Y-97931105D01*
X174109385Y-97961396D01*
X174210999Y-97976712D01*
X174215589Y-97977580D01*
X174231969Y-97981318D01*
X174235011Y-97983020D01*
X174240505Y-97983848D01*
X174245815Y-97983405D01*
X174262556Y-97984660D01*
X174267183Y-97985180D01*
X174368818Y-98000500D01*
X174471561Y-98000500D01*
X174476264Y-98000676D01*
X174481124Y-98001039D01*
X174493009Y-98001930D01*
X174496272Y-98003160D01*
X174501817Y-98003160D01*
X174507001Y-98001929D01*
X174514720Y-98001350D01*
X174523728Y-98000676D01*
X174528436Y-98000500D01*
X174631182Y-98000500D01*
X174732840Y-97985177D01*
X174737414Y-97984661D01*
X174754196Y-97983404D01*
X174757603Y-97984133D01*
X174763091Y-97983306D01*
X174768033Y-97981318D01*
X174784425Y-97977576D01*
X174788969Y-97976716D01*
X174890615Y-97961396D01*
X174988840Y-97931097D01*
X174993315Y-97929898D01*
X175009695Y-97926160D01*
X175013172Y-97926373D01*
X175018489Y-97924733D01*
X175023070Y-97922035D01*
X175038717Y-97915895D01*
X175043111Y-97914357D01*
X175141323Y-97884063D01*
X175233915Y-97839472D01*
X175238200Y-97837603D01*
X175241087Y-97836470D01*
X175253828Y-97831471D01*
X175257299Y-97831163D01*
X175262305Y-97828752D01*
X175266443Y-97825394D01*
X175280991Y-97816995D01*
X175285093Y-97814826D01*
X175377704Y-97770228D01*
X175462626Y-97712328D01*
X175466560Y-97709856D01*
X175481108Y-97701457D01*
X175484498Y-97700634D01*
X175489092Y-97697502D01*
X175492681Y-97693568D01*
X175497410Y-97689796D01*
X175505810Y-97683097D01*
X175509558Y-97680330D01*
X175594479Y-97622433D01*
X175669826Y-97552520D01*
X175673341Y-97549495D01*
X175686483Y-97539015D01*
X175689703Y-97537700D01*
X175693786Y-97533911D01*
X175696740Y-97529498D01*
X175708178Y-97517171D01*
X175711449Y-97513900D01*
X175786805Y-97443981D01*
X175850888Y-97363623D01*
X175853921Y-97360098D01*
X175860043Y-97353500D01*
X175865347Y-97347785D01*
X175868343Y-97346000D01*
X175871807Y-97341656D01*
X175874083Y-97336827D01*
X175883527Y-97322976D01*
X175886312Y-97319202D01*
X175950386Y-97238857D01*
X176001768Y-97149860D01*
X176004253Y-97145903D01*
X176013710Y-97132032D01*
X176016406Y-97129822D01*
X176019189Y-97125001D01*
X176020716Y-97119898D01*
X176028000Y-97104772D01*
X176030186Y-97100638D01*
X176081568Y-97011643D01*
X176119122Y-96915954D01*
X176120973Y-96911713D01*
X176128233Y-96896638D01*
X176130579Y-96894036D01*
X176132634Y-96888802D01*
X176133384Y-96883529D01*
X176138331Y-96867488D01*
X176139868Y-96863095D01*
X176177420Y-96767416D01*
X176200290Y-96667216D01*
X176201497Y-96662713D01*
X176206446Y-96646671D01*
X176208370Y-96643763D01*
X176209606Y-96638350D01*
X176209562Y-96633015D01*
X176212063Y-96616424D01*
X176212929Y-96611840D01*
X176235802Y-96511630D01*
X176243482Y-96409142D01*
X176244006Y-96404492D01*
X176247271Y-96382834D01*
X176248169Y-96376879D01*
X176248169Y-96376874D01*
X176248344Y-96375711D01*
X176247727Y-96371600D01*
X176248171Y-96347859D01*
X176248331Y-96344430D01*
X176255408Y-96250000D01*
X176248331Y-96155574D01*
X176248171Y-96152137D01*
X176247727Y-96128400D01*
X176248524Y-96125486D01*
X176247553Y-96119044D01*
X176247553Y-96119039D01*
X176244005Y-96095501D01*
X176243482Y-96090863D01*
X176235802Y-95988370D01*
X176212928Y-95888155D01*
X176212065Y-95883591D01*
X176209562Y-95866985D01*
X176210035Y-95863527D01*
X176208798Y-95858105D01*
X176206444Y-95853320D01*
X176201496Y-95837277D01*
X176200280Y-95832743D01*
X176177420Y-95732584D01*
X176139869Y-95636907D01*
X176138335Y-95632523D01*
X176133381Y-95616464D01*
X176133334Y-95612981D01*
X176131299Y-95607796D01*
X176128258Y-95603414D01*
X176120987Y-95588314D01*
X176119104Y-95583997D01*
X176081573Y-95488367D01*
X176081569Y-95488360D01*
X176081568Y-95488357D01*
X176030180Y-95399351D01*
X176027996Y-95395217D01*
X176020717Y-95380102D01*
X176020151Y-95376663D01*
X176017366Y-95371840D01*
X176013707Y-95367962D01*
X176004269Y-95354118D01*
X176001762Y-95350128D01*
X175950388Y-95261146D01*
X175950383Y-95261139D01*
X175937146Y-95244541D01*
X175886313Y-95180798D01*
X175883532Y-95177029D01*
X175874079Y-95163165D01*
X175873004Y-95159843D01*
X175869544Y-95155503D01*
X175865348Y-95152215D01*
X175853931Y-95139911D01*
X175850864Y-95136347D01*
X175786805Y-95056019D01*
X175786804Y-95056018D01*
X175786803Y-95056016D01*
X175725892Y-94999500D01*
X175711477Y-94986125D01*
X175708148Y-94982796D01*
X175696748Y-94970509D01*
X175695194Y-94967392D01*
X175691111Y-94963603D01*
X175686475Y-94960978D01*
X175673369Y-94950526D01*
X175669807Y-94947461D01*
X175594479Y-94877567D01*
X175594475Y-94877564D01*
X175594469Y-94877559D01*
X175509588Y-94819688D01*
X175505797Y-94816890D01*
X175492683Y-94806432D01*
X175490679Y-94803577D01*
X175486095Y-94800452D01*
X175481111Y-94798544D01*
X175466580Y-94790155D01*
X175462601Y-94787654D01*
X175377704Y-94729772D01*
X175377700Y-94729770D01*
X175285127Y-94685188D01*
X175280964Y-94682988D01*
X175266451Y-94674609D01*
X175264040Y-94672080D01*
X175259030Y-94669667D01*
X175253822Y-94668525D01*
X175238193Y-94662390D01*
X175233875Y-94660507D01*
X175141319Y-94615935D01*
X175141314Y-94615933D01*
X175048244Y-94587226D01*
X175043139Y-94585651D01*
X175038689Y-94584094D01*
X175023071Y-94577964D01*
X175020316Y-94575828D01*
X175015011Y-94574191D01*
X175009692Y-94573838D01*
X174996054Y-94570725D01*
X174993288Y-94570092D01*
X174988774Y-94568881D01*
X174890620Y-94538605D01*
X174890616Y-94538604D01*
X174890615Y-94538604D01*
X174865690Y-94534847D01*
X174789007Y-94523288D01*
X174784384Y-94522413D01*
X174777952Y-94520945D01*
X174768032Y-94518681D01*
X174764985Y-94516976D01*
X174759503Y-94516150D01*
X174754191Y-94516593D01*
X174737453Y-94515339D01*
X174732769Y-94514811D01*
X174661221Y-94504027D01*
X174631182Y-94499500D01*
X174528423Y-94499500D01*
X174523714Y-94499324D01*
X174522632Y-94499243D01*
X174507007Y-94498071D01*
X174503749Y-94496843D01*
X174498170Y-94496843D01*
X174492992Y-94498071D01*
X174478197Y-94499180D01*
X174476285Y-94499324D01*
X174471577Y-94499500D01*
X174368818Y-94499500D01*
X174354455Y-94501664D01*
X174267226Y-94514811D01*
X174262543Y-94515339D01*
X174245807Y-94516593D01*
X174242397Y-94515863D01*
X174236913Y-94516689D01*
X174231962Y-94518682D01*
X174215619Y-94522412D01*
X174210989Y-94523288D01*
X174109390Y-94538602D01*
X174109383Y-94538604D01*
X174011195Y-94568889D01*
X174006646Y-94570108D01*
X173994717Y-94572831D01*
X173990310Y-94573837D01*
X173986828Y-94573623D01*
X173981512Y-94575263D01*
X173976918Y-94577968D01*
X173961297Y-94584098D01*
X173956850Y-94585654D01*
X173858679Y-94615935D01*
X173858674Y-94615937D01*
X173766111Y-94660512D01*
X173761794Y-94662396D01*
X173746174Y-94668526D01*
X173742699Y-94668833D01*
X173737696Y-94671243D01*
X173733552Y-94674606D01*
X173719034Y-94682988D01*
X173714869Y-94685189D01*
X173622297Y-94729771D01*
X173537398Y-94787654D01*
X173533405Y-94790162D01*
X173525792Y-94794557D01*
X173518892Y-94798541D01*
X173515497Y-94799364D01*
X173510906Y-94802494D01*
X173507315Y-94806432D01*
X173494187Y-94816901D01*
X173490397Y-94819698D01*
X173405530Y-94877559D01*
X173405521Y-94877566D01*
X173330198Y-94947454D01*
X173326629Y-94950526D01*
X173313526Y-94960976D01*
X173310297Y-94962294D01*
X173306210Y-94966086D01*
X173303247Y-94970514D01*
X173291842Y-94982804D01*
X173288512Y-94986133D01*
X173213199Y-95056014D01*
X173149148Y-95136331D01*
X173146071Y-95139906D01*
X173134645Y-95152218D01*
X173131653Y-95153999D01*
X173128195Y-95158335D01*
X173125922Y-95163160D01*
X173116471Y-95177023D01*
X173113672Y-95180816D01*
X173049614Y-95261142D01*
X173049612Y-95261144D01*
X172998231Y-95350139D01*
X172995722Y-95354131D01*
X172986286Y-95367970D01*
X172983590Y-95370179D01*
X172980806Y-95375002D01*
X172979279Y-95380108D01*
X172972010Y-95395201D01*
X172969810Y-95399365D01*
X172918433Y-95488354D01*
X172880892Y-95584005D01*
X172879007Y-95588324D01*
X172871736Y-95603423D01*
X172869399Y-95606011D01*
X172867363Y-95611197D01*
X172866615Y-95616472D01*
X172861673Y-95632491D01*
X172860117Y-95636939D01*
X172839785Y-95688744D01*
X172822580Y-95732584D01*
X172822578Y-95732588D01*
X172822578Y-95732591D01*
X172799720Y-95832733D01*
X172798500Y-95837286D01*
X172793551Y-95853328D01*
X172791626Y-95856234D01*
X172790390Y-95861650D01*
X172790436Y-95866985D01*
X172787937Y-95883568D01*
X172787061Y-95888200D01*
X172764198Y-95988368D01*
X172764197Y-95988375D01*
X172756517Y-96090837D01*
X172755990Y-96095520D01*
X172753493Y-96112086D01*
X172752022Y-96115248D01*
X172751606Y-96120799D01*
X172752447Y-96126068D01*
X172752447Y-96142816D01*
X172752271Y-96147526D01*
X172744592Y-96249999D01*
X113505408Y-96249999D01*
X113498331Y-96155574D01*
X113498171Y-96152137D01*
X113497727Y-96128400D01*
X113498524Y-96125486D01*
X113497553Y-96119044D01*
X113497553Y-96119039D01*
X113494005Y-96095501D01*
X113493482Y-96090863D01*
X113485802Y-95988370D01*
X113462928Y-95888155D01*
X113462065Y-95883591D01*
X113459562Y-95866985D01*
X113460035Y-95863527D01*
X113458798Y-95858105D01*
X113456444Y-95853320D01*
X113451496Y-95837277D01*
X113450280Y-95832743D01*
X113427420Y-95732584D01*
X113389869Y-95636907D01*
X113388335Y-95632523D01*
X113383381Y-95616464D01*
X113383334Y-95612981D01*
X113381299Y-95607796D01*
X113378258Y-95603414D01*
X113370987Y-95588314D01*
X113369104Y-95583997D01*
X113331573Y-95488367D01*
X113331569Y-95488360D01*
X113331568Y-95488357D01*
X113280180Y-95399351D01*
X113277996Y-95395217D01*
X113270717Y-95380102D01*
X113270151Y-95376663D01*
X113267366Y-95371840D01*
X113263707Y-95367962D01*
X113254269Y-95354118D01*
X113251762Y-95350128D01*
X113200388Y-95261146D01*
X113200383Y-95261139D01*
X113187146Y-95244541D01*
X113136313Y-95180798D01*
X113133532Y-95177029D01*
X113124079Y-95163165D01*
X113123004Y-95159843D01*
X113119544Y-95155503D01*
X113115348Y-95152215D01*
X113103931Y-95139911D01*
X113100864Y-95136347D01*
X113036805Y-95056019D01*
X113036804Y-95056018D01*
X113036803Y-95056016D01*
X112975892Y-94999500D01*
X112961477Y-94986125D01*
X112958148Y-94982796D01*
X112946748Y-94970509D01*
X112945194Y-94967392D01*
X112941111Y-94963603D01*
X112936475Y-94960978D01*
X112923369Y-94950526D01*
X112919807Y-94947461D01*
X112844479Y-94877567D01*
X112844475Y-94877564D01*
X112844469Y-94877559D01*
X112759588Y-94819688D01*
X112755797Y-94816890D01*
X112742683Y-94806432D01*
X112740679Y-94803577D01*
X112736095Y-94800452D01*
X112731111Y-94798544D01*
X112716580Y-94790155D01*
X112712601Y-94787654D01*
X112627704Y-94729772D01*
X112627700Y-94729770D01*
X112535127Y-94685188D01*
X112530964Y-94682988D01*
X112516451Y-94674609D01*
X112514040Y-94672080D01*
X112509030Y-94669667D01*
X112503822Y-94668525D01*
X112488193Y-94662390D01*
X112483875Y-94660507D01*
X112391319Y-94615935D01*
X112391314Y-94615933D01*
X112298244Y-94587226D01*
X112293139Y-94585651D01*
X112288689Y-94584094D01*
X112273071Y-94577964D01*
X112270316Y-94575828D01*
X112265011Y-94574191D01*
X112259692Y-94573838D01*
X112246054Y-94570725D01*
X112243288Y-94570092D01*
X112238774Y-94568881D01*
X112140620Y-94538605D01*
X112140616Y-94538604D01*
X112140615Y-94538604D01*
X112115690Y-94534847D01*
X112039007Y-94523288D01*
X112034384Y-94522413D01*
X112027952Y-94520945D01*
X112018032Y-94518681D01*
X112014985Y-94516976D01*
X112009503Y-94516150D01*
X112004191Y-94516593D01*
X111987453Y-94515339D01*
X111982769Y-94514811D01*
X111911221Y-94504027D01*
X111881182Y-94499500D01*
X111778423Y-94499500D01*
X111773714Y-94499324D01*
X111772632Y-94499243D01*
X111757007Y-94498071D01*
X111753749Y-94496843D01*
X111748170Y-94496843D01*
X111742992Y-94498071D01*
X111728197Y-94499180D01*
X111726285Y-94499324D01*
X111721577Y-94499500D01*
X111618818Y-94499500D01*
X111604455Y-94501664D01*
X111517226Y-94514811D01*
X111512543Y-94515339D01*
X111495807Y-94516593D01*
X111492397Y-94515863D01*
X111486913Y-94516689D01*
X111481962Y-94518682D01*
X111465619Y-94522412D01*
X111460989Y-94523288D01*
X111359390Y-94538602D01*
X111359383Y-94538604D01*
X111261195Y-94568889D01*
X111256646Y-94570108D01*
X111244717Y-94572831D01*
X111240310Y-94573837D01*
X111236828Y-94573623D01*
X111231512Y-94575263D01*
X111226918Y-94577968D01*
X111211297Y-94584098D01*
X111206850Y-94585654D01*
X111108679Y-94615935D01*
X111108674Y-94615937D01*
X111016111Y-94660512D01*
X111011794Y-94662396D01*
X110996174Y-94668526D01*
X110992699Y-94668833D01*
X110987696Y-94671243D01*
X110983552Y-94674606D01*
X110969034Y-94682988D01*
X110964869Y-94685189D01*
X110872297Y-94729771D01*
X110787398Y-94787654D01*
X110783405Y-94790162D01*
X110775792Y-94794557D01*
X110768892Y-94798541D01*
X110765497Y-94799364D01*
X110760906Y-94802494D01*
X110757315Y-94806432D01*
X110744187Y-94816901D01*
X110740397Y-94819698D01*
X110655530Y-94877559D01*
X110655521Y-94877566D01*
X110580198Y-94947454D01*
X110576629Y-94950526D01*
X110563526Y-94960976D01*
X110560297Y-94962294D01*
X110556210Y-94966086D01*
X110553247Y-94970514D01*
X110541842Y-94982804D01*
X110538512Y-94986133D01*
X110463199Y-95056014D01*
X110399148Y-95136331D01*
X110396071Y-95139906D01*
X110384645Y-95152218D01*
X110381653Y-95153999D01*
X110378195Y-95158335D01*
X110375922Y-95163160D01*
X110366471Y-95177023D01*
X110363672Y-95180816D01*
X110299614Y-95261142D01*
X110299612Y-95261144D01*
X110248231Y-95350139D01*
X110245722Y-95354131D01*
X110236286Y-95367970D01*
X110233590Y-95370179D01*
X110230806Y-95375002D01*
X110229279Y-95380108D01*
X110222010Y-95395201D01*
X110219810Y-95399365D01*
X110168433Y-95488354D01*
X110130892Y-95584005D01*
X110129007Y-95588324D01*
X110121736Y-95603423D01*
X110119399Y-95606011D01*
X110117363Y-95611197D01*
X110116615Y-95616472D01*
X110111673Y-95632491D01*
X110110117Y-95636939D01*
X110089785Y-95688744D01*
X110072580Y-95732584D01*
X110072578Y-95732588D01*
X110072578Y-95732591D01*
X110049720Y-95832733D01*
X110048500Y-95837286D01*
X110043551Y-95853328D01*
X110041626Y-95856234D01*
X110040390Y-95861650D01*
X110040436Y-95866985D01*
X110037937Y-95883568D01*
X110037061Y-95888200D01*
X110014198Y-95988368D01*
X110014197Y-95988375D01*
X110006517Y-96090837D01*
X110005990Y-96095520D01*
X110003493Y-96112086D01*
X110002022Y-96115249D01*
X110001606Y-96120797D01*
X110002447Y-96126068D01*
X110002447Y-96142816D01*
X110002271Y-96147526D01*
X109994592Y-96249999D01*
X108160595Y-96249999D01*
X108117175Y-96054145D01*
X108111495Y-96027057D01*
X108072680Y-95841936D01*
X108071879Y-95837233D01*
X108065931Y-95792060D01*
X108045489Y-95636792D01*
X108018577Y-95420889D01*
X108018159Y-95415917D01*
X108009486Y-95217271D01*
X108000500Y-95000000D01*
X108000500Y-94999500D01*
X108000500Y-94335000D01*
X124366844Y-94335000D01*
X124383715Y-94538605D01*
X124385437Y-94559375D01*
X124440702Y-94777612D01*
X124440703Y-94777613D01*
X124440704Y-94777616D01*
X124523893Y-94967270D01*
X124531141Y-94983793D01*
X124654275Y-95172265D01*
X124654279Y-95172270D01*
X124806762Y-95337908D01*
X124845386Y-95367970D01*
X124984424Y-95476189D01*
X125182426Y-95583342D01*
X125182427Y-95583342D01*
X125182428Y-95583343D01*
X125278907Y-95616464D01*
X125395365Y-95656444D01*
X125617431Y-95693500D01*
X125617435Y-95693500D01*
X125842565Y-95693500D01*
X125842569Y-95693500D01*
X126064635Y-95656444D01*
X126277574Y-95583342D01*
X126475576Y-95476189D01*
X126653240Y-95337906D01*
X126805722Y-95172268D01*
X126928860Y-94983791D01*
X127019296Y-94777616D01*
X127074564Y-94559368D01*
X127093156Y-94335000D01*
X127076169Y-94129999D01*
X132746844Y-94129999D01*
X132765437Y-94354375D01*
X132820702Y-94572612D01*
X132820703Y-94572613D01*
X132820704Y-94572616D01*
X132891883Y-94734889D01*
X132911141Y-94778793D01*
X133034275Y-94967265D01*
X133034279Y-94967270D01*
X133186762Y-95132908D01*
X133213860Y-95153999D01*
X133364424Y-95271189D01*
X133562426Y-95378342D01*
X133562427Y-95378342D01*
X133562428Y-95378343D01*
X133611581Y-95395217D01*
X133775365Y-95451444D01*
X133997431Y-95488500D01*
X133997435Y-95488500D01*
X134222565Y-95488500D01*
X134222569Y-95488500D01*
X134444635Y-95451444D01*
X134657574Y-95378342D01*
X134855576Y-95271189D01*
X135033240Y-95132906D01*
X135185722Y-94967268D01*
X135186494Y-94966086D01*
X135268517Y-94840541D01*
X135322520Y-94794452D01*
X135392868Y-94784877D01*
X135457226Y-94814854D01*
X135495159Y-94874867D01*
X135500000Y-94909456D01*
X135500000Y-95500000D01*
X150500000Y-95500000D01*
X150500000Y-94909456D01*
X150520002Y-94841335D01*
X150573658Y-94794842D01*
X150643932Y-94784738D01*
X150708512Y-94814232D01*
X150731483Y-94840541D01*
X150814275Y-94967265D01*
X150814279Y-94967270D01*
X150966762Y-95132908D01*
X150993860Y-95153999D01*
X151144424Y-95271189D01*
X151342426Y-95378342D01*
X151342427Y-95378342D01*
X151342428Y-95378343D01*
X151391581Y-95395217D01*
X151555365Y-95451444D01*
X151777431Y-95488500D01*
X151777435Y-95488500D01*
X152002565Y-95488500D01*
X152002569Y-95488500D01*
X152224635Y-95451444D01*
X152437574Y-95378342D01*
X152635576Y-95271189D01*
X152813240Y-95132906D01*
X152965722Y-94967268D01*
X153088860Y-94778791D01*
X153179296Y-94572616D01*
X153234564Y-94354368D01*
X153253156Y-94130000D01*
X153234564Y-93905632D01*
X153219181Y-93844886D01*
X153179297Y-93687387D01*
X153179296Y-93687386D01*
X153179296Y-93687384D01*
X153088860Y-93481209D01*
X153048517Y-93419459D01*
X152965724Y-93292734D01*
X152965720Y-93292729D01*
X152838003Y-93153994D01*
X152813240Y-93127094D01*
X152813239Y-93127093D01*
X152813237Y-93127091D01*
X152722517Y-93056481D01*
X152635576Y-92988811D01*
X152602319Y-92970813D01*
X152551929Y-92920802D01*
X152536576Y-92851485D01*
X152561136Y-92784872D01*
X152602320Y-92749186D01*
X152635576Y-92731189D01*
X152813240Y-92592906D01*
X152965722Y-92427268D01*
X153088860Y-92238791D01*
X153179296Y-92032616D01*
X153234564Y-91814368D01*
X153253156Y-91590000D01*
X153234564Y-91365632D01*
X153219181Y-91304886D01*
X153179297Y-91147387D01*
X153179296Y-91147386D01*
X153179296Y-91147384D01*
X153088860Y-90941209D01*
X153048517Y-90879459D01*
X152965724Y-90752734D01*
X152965714Y-90752722D01*
X152822159Y-90596782D01*
X152790737Y-90533117D01*
X152798723Y-90462571D01*
X152843582Y-90407542D01*
X152870827Y-90393388D01*
X152985965Y-90350444D01*
X153102904Y-90262904D01*
X153190444Y-90145965D01*
X153190444Y-90145964D01*
X153241494Y-90009093D01*
X153247999Y-89948597D01*
X153248000Y-89948585D01*
X153248000Y-89304000D01*
X152515266Y-89304000D01*
X152447145Y-89283998D01*
X152400652Y-89230342D01*
X152390548Y-89160068D01*
X152394370Y-89142502D01*
X152396838Y-89134094D01*
X152400000Y-89123327D01*
X152400000Y-88976673D01*
X152394370Y-88957498D01*
X152394370Y-88886502D01*
X152432753Y-88826776D01*
X152497334Y-88797283D01*
X152515266Y-88796000D01*
X153248000Y-88796000D01*
X153248000Y-88151414D01*
X153247999Y-88151402D01*
X153241494Y-88090906D01*
X153190444Y-87954035D01*
X153190444Y-87954034D01*
X153102904Y-87837095D01*
X152985966Y-87749556D01*
X152870826Y-87706611D01*
X152813991Y-87664064D01*
X152789180Y-87597543D01*
X152804272Y-87528169D01*
X152822154Y-87503222D01*
X152965722Y-87347268D01*
X152967659Y-87344304D01*
X153017362Y-87268227D01*
X153088860Y-87158791D01*
X153179296Y-86952616D01*
X153234564Y-86734368D01*
X153253156Y-86510000D01*
X153234564Y-86285632D01*
X153219181Y-86224886D01*
X153179297Y-86067387D01*
X153179296Y-86067386D01*
X153179296Y-86067384D01*
X153088860Y-85861209D01*
X153048517Y-85799459D01*
X152965724Y-85672734D01*
X152965720Y-85672729D01*
X152813237Y-85507091D01*
X152672435Y-85397500D01*
X152635576Y-85368811D01*
X152602319Y-85350813D01*
X152551929Y-85300802D01*
X152536576Y-85231485D01*
X152561136Y-85164872D01*
X152602320Y-85129186D01*
X152635576Y-85111189D01*
X152813240Y-84972906D01*
X152965722Y-84807268D01*
X153088860Y-84618791D01*
X153179296Y-84412616D01*
X153234564Y-84194368D01*
X153253156Y-83970000D01*
X153234564Y-83745632D01*
X153219181Y-83684886D01*
X153179297Y-83527387D01*
X153179296Y-83527386D01*
X153179296Y-83527384D01*
X153088860Y-83321209D01*
X153048517Y-83259459D01*
X152965724Y-83132734D01*
X152965720Y-83132729D01*
X152813237Y-82967091D01*
X152744938Y-82913932D01*
X152703467Y-82856306D01*
X152699733Y-82785408D01*
X152734923Y-82723746D01*
X152797864Y-82690898D01*
X152822329Y-82688500D01*
X154516522Y-82688500D01*
X154584643Y-82708502D01*
X154605617Y-82725405D01*
X154914595Y-83034383D01*
X154948621Y-83096695D01*
X154951500Y-83123478D01*
X154951500Y-92635779D01*
X154951104Y-92642837D01*
X154946731Y-92681647D01*
X154951357Y-92750269D01*
X154951500Y-92754507D01*
X154951500Y-92766528D01*
X154955300Y-92808755D01*
X154961969Y-92907661D01*
X154961969Y-92907663D01*
X154961970Y-92907668D01*
X154963023Y-92911849D01*
X154966331Y-92931318D01*
X154966718Y-92935620D01*
X154993095Y-93031194D01*
X155017321Y-93127337D01*
X155017321Y-93127338D01*
X155019103Y-93131260D01*
X155025842Y-93149848D01*
X155026985Y-93153990D01*
X155026986Y-93153994D01*
X155046161Y-93193811D01*
X155069999Y-93243311D01*
X155111006Y-93333590D01*
X155113455Y-93337124D01*
X155123405Y-93354211D01*
X155125271Y-93358087D01*
X155183554Y-93438306D01*
X155240011Y-93519798D01*
X155240023Y-93519812D01*
X155243055Y-93522844D01*
X155255891Y-93537871D01*
X155258426Y-93541360D01*
X155258429Y-93541363D01*
X155330092Y-93609880D01*
X156845129Y-95124917D01*
X156849831Y-95130179D01*
X156874181Y-95160713D01*
X156874184Y-95160715D01*
X156874186Y-95160718D01*
X156892849Y-95177023D01*
X156925975Y-95205965D01*
X156929073Y-95208861D01*
X156937569Y-95217358D01*
X156937572Y-95217361D01*
X156970129Y-95244541D01*
X157036408Y-95302447D01*
X157044782Y-95309763D01*
X157048477Y-95311970D01*
X157064595Y-95323407D01*
X157067906Y-95326171D01*
X157067911Y-95326174D01*
X157067916Y-95326177D01*
X157154142Y-95375103D01*
X157239241Y-95425948D01*
X157239246Y-95425951D01*
X157239247Y-95425951D01*
X157239250Y-95425953D01*
X157243280Y-95427465D01*
X157261192Y-95435845D01*
X157264935Y-95437969D01*
X157286539Y-95445528D01*
X157358507Y-95470710D01*
X157451339Y-95505551D01*
X157455567Y-95506318D01*
X157474693Y-95511365D01*
X157478755Y-95512787D01*
X157531929Y-95521209D01*
X157576682Y-95528298D01*
X157674230Y-95546000D01*
X157674233Y-95546000D01*
X157678534Y-95546000D01*
X157698243Y-95547551D01*
X157700551Y-95547916D01*
X157702500Y-95548225D01*
X157801637Y-95546000D01*
X159480989Y-95546000D01*
X159521901Y-95552827D01*
X159685365Y-95608944D01*
X159907431Y-95646000D01*
X159907435Y-95646000D01*
X160132565Y-95646000D01*
X160132569Y-95646000D01*
X160354635Y-95608944D01*
X160567574Y-95535842D01*
X160765576Y-95428689D01*
X160943240Y-95290406D01*
X161095722Y-95124768D01*
X161218860Y-94936291D01*
X161309296Y-94730116D01*
X161364564Y-94511868D01*
X161383156Y-94287500D01*
X161364564Y-94063132D01*
X161324680Y-93905632D01*
X161309297Y-93844887D01*
X161309296Y-93844886D01*
X161309296Y-93844884D01*
X161218860Y-93638709D01*
X161200025Y-93609880D01*
X161095724Y-93450234D01*
X161095720Y-93450229D01*
X160950733Y-93292734D01*
X160943240Y-93284594D01*
X160943239Y-93284593D01*
X160943237Y-93284591D01*
X160826598Y-93193807D01*
X160765576Y-93146311D01*
X160732319Y-93128313D01*
X160681929Y-93078302D01*
X160666576Y-93008985D01*
X160691136Y-92942372D01*
X160732320Y-92906686D01*
X160765576Y-92888689D01*
X160943240Y-92750406D01*
X161095722Y-92584768D01*
X161218860Y-92396291D01*
X161309296Y-92190116D01*
X161364564Y-91971868D01*
X161383156Y-91747500D01*
X161364564Y-91523132D01*
X161324680Y-91365632D01*
X161309297Y-91304887D01*
X161309296Y-91304886D01*
X161309296Y-91304884D01*
X161218860Y-91098709D01*
X161126757Y-90957734D01*
X161095724Y-90910234D01*
X161095720Y-90910229D01*
X160971990Y-90775825D01*
X160943240Y-90744594D01*
X160943239Y-90744593D01*
X160943237Y-90744591D01*
X160823967Y-90651759D01*
X160765576Y-90606311D01*
X160732319Y-90588313D01*
X160681929Y-90538302D01*
X160666576Y-90468985D01*
X160691136Y-90402372D01*
X160732320Y-90366686D01*
X160765576Y-90348689D01*
X160943240Y-90210406D01*
X161095722Y-90044768D01*
X161218860Y-89856291D01*
X161309296Y-89650116D01*
X161364564Y-89431868D01*
X161383156Y-89207500D01*
X161364564Y-88983132D01*
X161340094Y-88886502D01*
X161309297Y-88764887D01*
X161309296Y-88764886D01*
X161309296Y-88764884D01*
X161218860Y-88558709D01*
X161176609Y-88494039D01*
X161095724Y-88370234D01*
X161095720Y-88370229D01*
X160943237Y-88204591D01*
X160826598Y-88113807D01*
X160765576Y-88066311D01*
X160732319Y-88048313D01*
X160681929Y-87998302D01*
X160666576Y-87928985D01*
X160691136Y-87862372D01*
X160732320Y-87826686D01*
X160746855Y-87818820D01*
X160765576Y-87808689D01*
X160943240Y-87670406D01*
X161095722Y-87504768D01*
X161218860Y-87316291D01*
X161309296Y-87110116D01*
X161364564Y-86891868D01*
X161383156Y-86667500D01*
X161364564Y-86443132D01*
X161343357Y-86359386D01*
X161309297Y-86224887D01*
X161309296Y-86224886D01*
X161309296Y-86224884D01*
X161218860Y-86018709D01*
X161212140Y-86008424D01*
X161095724Y-85830234D01*
X161095720Y-85830229D01*
X160950733Y-85672734D01*
X160943240Y-85664594D01*
X160943239Y-85664593D01*
X160943237Y-85664591D01*
X160861382Y-85600881D01*
X160765576Y-85526311D01*
X160732319Y-85508313D01*
X160681929Y-85458302D01*
X160666576Y-85388985D01*
X160691136Y-85322372D01*
X160732320Y-85286686D01*
X160765576Y-85268689D01*
X160943240Y-85130406D01*
X161095722Y-84964768D01*
X161218860Y-84776291D01*
X161309296Y-84570116D01*
X161364564Y-84351868D01*
X161383156Y-84127500D01*
X161364564Y-83903132D01*
X161324680Y-83745632D01*
X161309297Y-83684887D01*
X161309296Y-83684886D01*
X161309296Y-83684884D01*
X161218860Y-83478709D01*
X161212140Y-83468424D01*
X161095724Y-83290234D01*
X161095720Y-83290229D01*
X160950733Y-83132734D01*
X160943240Y-83124594D01*
X160943239Y-83124593D01*
X160943237Y-83124591D01*
X160827338Y-83034383D01*
X160765576Y-82986311D01*
X160731792Y-82968028D01*
X160681402Y-82918016D01*
X160666050Y-82848699D01*
X160690610Y-82782086D01*
X160731793Y-82746401D01*
X160765300Y-82728267D01*
X160765301Y-82728267D01*
X160942902Y-82590034D01*
X161095325Y-82424458D01*
X161218419Y-82236048D01*
X161308820Y-82029956D01*
X161308823Y-82029949D01*
X161356544Y-81841500D01*
X160634844Y-81841500D01*
X160566723Y-81821498D01*
X160520230Y-81767842D01*
X160510126Y-81697568D01*
X160513947Y-81680004D01*
X160520000Y-81659388D01*
X160520000Y-81515611D01*
X160513947Y-81494996D01*
X160513948Y-81424000D01*
X160552333Y-81364274D01*
X160616914Y-81334782D01*
X160634844Y-81333500D01*
X161356544Y-81333500D01*
X161356544Y-81333499D01*
X161308823Y-81145050D01*
X161308820Y-81145043D01*
X161218419Y-80938951D01*
X161095325Y-80750541D01*
X160952018Y-80594867D01*
X160920598Y-80531202D01*
X160928585Y-80460656D01*
X160973444Y-80405627D01*
X161000679Y-80391477D01*
X161116204Y-80348389D01*
X161233261Y-80260761D01*
X161308690Y-80160000D01*
X161320887Y-80143707D01*
X161320887Y-80143706D01*
X161320889Y-80143704D01*
X161371989Y-80006701D01*
X161376689Y-79962988D01*
X161378499Y-79946149D01*
X161378500Y-79946132D01*
X161378500Y-78148867D01*
X161378499Y-78148850D01*
X161371990Y-78088303D01*
X161371988Y-78088295D01*
X161320889Y-77951297D01*
X161320887Y-77951292D01*
X161233261Y-77834238D01*
X161116207Y-77746612D01*
X161116202Y-77746610D01*
X160979204Y-77695511D01*
X160979196Y-77695509D01*
X160918649Y-77689000D01*
X160918638Y-77689000D01*
X159121362Y-77689000D01*
X159121350Y-77689000D01*
X159060803Y-77695509D01*
X159060795Y-77695511D01*
X158923797Y-77746610D01*
X158923792Y-77746612D01*
X158806738Y-77834238D01*
X158719112Y-77951292D01*
X158719110Y-77951297D01*
X158668011Y-78088295D01*
X158668009Y-78088303D01*
X158661500Y-78148850D01*
X158661500Y-79946149D01*
X158668009Y-80006696D01*
X158668011Y-80006704D01*
X158719110Y-80143702D01*
X158719112Y-80143707D01*
X158806738Y-80260761D01*
X158923792Y-80348387D01*
X158923796Y-80348389D01*
X159039312Y-80391475D01*
X159096148Y-80434022D01*
X159120958Y-80500542D01*
X159105866Y-80569916D01*
X159087981Y-80594867D01*
X158944674Y-80750541D01*
X158821580Y-80938951D01*
X158731179Y-81145043D01*
X158731176Y-81145050D01*
X158683455Y-81333499D01*
X158683456Y-81333500D01*
X159405156Y-81333500D01*
X159473277Y-81353502D01*
X159519770Y-81407158D01*
X159529874Y-81477432D01*
X159526053Y-81494996D01*
X159520000Y-81515611D01*
X159520000Y-81659388D01*
X159526053Y-81680004D01*
X159526052Y-81751000D01*
X159487667Y-81810726D01*
X159423086Y-81840218D01*
X159405156Y-81841500D01*
X158683455Y-81841500D01*
X158731176Y-82029949D01*
X158731179Y-82029956D01*
X158821580Y-82236048D01*
X158944674Y-82424458D01*
X159097097Y-82590034D01*
X159274698Y-82728267D01*
X159274704Y-82728271D01*
X159308207Y-82746402D01*
X159358597Y-82796415D01*
X159373949Y-82865732D01*
X159349388Y-82932345D01*
X159308207Y-82968028D01*
X159274430Y-82986307D01*
X159274424Y-82986311D01*
X159096762Y-83124591D01*
X158944279Y-83290229D01*
X158944275Y-83290234D01*
X158821141Y-83478706D01*
X158730703Y-83684886D01*
X158730702Y-83684887D01*
X158675437Y-83903124D01*
X158656844Y-84127500D01*
X158675437Y-84351875D01*
X158730702Y-84570112D01*
X158730703Y-84570113D01*
X158730704Y-84570116D01*
X158779489Y-84681335D01*
X158821141Y-84776293D01*
X158944275Y-84964765D01*
X158944279Y-84964770D01*
X159096762Y-85130408D01*
X159141041Y-85164872D01*
X159274424Y-85268689D01*
X159307680Y-85286686D01*
X159358071Y-85336700D01*
X159373423Y-85406016D01*
X159348862Y-85472629D01*
X159307680Y-85508313D01*
X159274426Y-85526310D01*
X159274424Y-85526311D01*
X159096762Y-85664591D01*
X158944279Y-85830229D01*
X158944275Y-85830234D01*
X158821141Y-86018706D01*
X158730703Y-86224886D01*
X158730702Y-86224887D01*
X158675437Y-86443124D01*
X158675436Y-86443130D01*
X158675436Y-86443132D01*
X158656844Y-86667500D01*
X158674328Y-86878500D01*
X158675437Y-86891875D01*
X158730702Y-87110112D01*
X158730703Y-87110113D01*
X158730704Y-87110116D01*
X158809369Y-87289456D01*
X158821141Y-87316293D01*
X158944275Y-87504765D01*
X158944279Y-87504770D01*
X159096762Y-87670408D01*
X159117743Y-87686738D01*
X159274424Y-87808689D01*
X159307680Y-87826686D01*
X159358071Y-87876700D01*
X159373423Y-87946016D01*
X159348862Y-88012629D01*
X159307680Y-88048313D01*
X159274426Y-88066310D01*
X159274424Y-88066311D01*
X159096762Y-88204591D01*
X158944279Y-88370229D01*
X158944275Y-88370234D01*
X158821141Y-88558706D01*
X158730703Y-88764886D01*
X158730702Y-88764887D01*
X158675437Y-88983124D01*
X158675436Y-88983130D01*
X158675436Y-88983132D01*
X158656844Y-89207500D01*
X158671752Y-89387413D01*
X158675437Y-89431875D01*
X158730702Y-89650112D01*
X158730703Y-89650113D01*
X158730704Y-89650116D01*
X158821140Y-89856291D01*
X158821141Y-89856293D01*
X158944275Y-90044765D01*
X158944279Y-90044770D01*
X159096762Y-90210408D01*
X159123861Y-90231500D01*
X159274424Y-90348689D01*
X159307680Y-90366686D01*
X159358071Y-90416700D01*
X159373423Y-90486016D01*
X159348862Y-90552629D01*
X159307680Y-90588313D01*
X159274426Y-90606310D01*
X159274424Y-90606311D01*
X159096762Y-90744591D01*
X158944279Y-90910229D01*
X158944275Y-90910234D01*
X158821141Y-91098706D01*
X158730703Y-91304886D01*
X158730702Y-91304887D01*
X158675437Y-91523124D01*
X158675436Y-91523130D01*
X158675436Y-91523132D01*
X158671501Y-91570624D01*
X158656844Y-91747500D01*
X158675437Y-91971875D01*
X158730702Y-92190112D01*
X158730703Y-92190113D01*
X158730704Y-92190116D01*
X158779489Y-92301335D01*
X158821141Y-92396293D01*
X158944275Y-92584765D01*
X158944279Y-92584770D01*
X159096762Y-92750408D01*
X159165062Y-92803568D01*
X159206533Y-92861194D01*
X159210267Y-92932092D01*
X159175077Y-92993754D01*
X159112136Y-93026602D01*
X159087671Y-93029000D01*
X158360978Y-93029000D01*
X158292857Y-93008998D01*
X158271883Y-92992095D01*
X157505405Y-92225617D01*
X157471379Y-92163305D01*
X157468500Y-92136522D01*
X157468500Y-82624220D01*
X157468896Y-82617161D01*
X157473269Y-82578352D01*
X157470607Y-82538877D01*
X157468643Y-82509729D01*
X157468500Y-82505491D01*
X157468500Y-82493484D01*
X157468500Y-82493478D01*
X157464699Y-82451245D01*
X157458030Y-82352332D01*
X157458029Y-82352328D01*
X157458029Y-82352326D01*
X157456980Y-82348162D01*
X157453667Y-82328664D01*
X157453281Y-82324378D01*
X157426904Y-82228805D01*
X157402677Y-82132657D01*
X157400899Y-82128743D01*
X157394155Y-82110143D01*
X157393014Y-82106007D01*
X157350004Y-82016697D01*
X157308994Y-81926409D01*
X157306544Y-81922874D01*
X157296590Y-81905780D01*
X157294726Y-81901910D01*
X157294725Y-81901907D01*
X157236452Y-81821702D01*
X157179986Y-81740198D01*
X157176943Y-81737155D01*
X157164098Y-81722115D01*
X157161574Y-81718641D01*
X157161573Y-81718640D01*
X157161571Y-81718637D01*
X157089907Y-81650119D01*
X156032369Y-80592581D01*
X156027666Y-80587318D01*
X156003317Y-80556785D01*
X155951522Y-80511533D01*
X155948436Y-80508648D01*
X155939927Y-80500139D01*
X155907370Y-80472959D01*
X155854870Y-80427091D01*
X155832721Y-80407739D01*
X155832718Y-80407737D01*
X155829016Y-80405525D01*
X155812898Y-80394087D01*
X155809594Y-80391329D01*
X155723358Y-80342396D01*
X155638253Y-80291549D01*
X155638250Y-80291547D01*
X155638245Y-80291545D01*
X155638237Y-80291541D01*
X155634208Y-80290029D01*
X155616312Y-80281657D01*
X155612567Y-80279532D01*
X155612563Y-80279530D01*
X155518992Y-80246789D01*
X155426170Y-80211951D01*
X155426150Y-80211946D01*
X155421908Y-80211176D01*
X155402814Y-80206136D01*
X155398747Y-80204713D01*
X155300817Y-80189201D01*
X155203271Y-80171500D01*
X155203267Y-80171500D01*
X155198966Y-80171500D01*
X155179257Y-80169949D01*
X155175004Y-80169275D01*
X155174997Y-80169275D01*
X155075863Y-80171500D01*
X152822329Y-80171500D01*
X152754208Y-80151498D01*
X152707715Y-80097842D01*
X152697611Y-80027568D01*
X152727105Y-79962988D01*
X152744938Y-79946068D01*
X152813237Y-79892908D01*
X152813240Y-79892906D01*
X152965722Y-79727268D01*
X153088860Y-79538791D01*
X153179296Y-79332616D01*
X153234564Y-79114368D01*
X153253156Y-78890000D01*
X153234564Y-78665632D01*
X153179296Y-78447384D01*
X153088860Y-78241209D01*
X153048517Y-78179459D01*
X152965724Y-78052734D01*
X152965714Y-78052722D01*
X152822159Y-77896782D01*
X152790737Y-77833117D01*
X152798723Y-77762571D01*
X152843582Y-77707542D01*
X152870827Y-77693388D01*
X152985965Y-77650444D01*
X153102904Y-77562904D01*
X153190444Y-77445965D01*
X153190444Y-77445964D01*
X153241494Y-77309093D01*
X153247999Y-77248597D01*
X153248000Y-77248585D01*
X153248000Y-76604000D01*
X152515266Y-76604000D01*
X152447145Y-76583998D01*
X152400652Y-76530342D01*
X152390548Y-76460068D01*
X152394370Y-76442502D01*
X152397441Y-76432041D01*
X152400000Y-76423327D01*
X152400000Y-76276673D01*
X152394370Y-76257498D01*
X152394370Y-76186502D01*
X152432753Y-76126776D01*
X152497334Y-76097283D01*
X152515266Y-76096000D01*
X153248000Y-76096000D01*
X153248000Y-75451414D01*
X153247999Y-75451402D01*
X153241494Y-75390906D01*
X153190444Y-75254035D01*
X153190444Y-75254034D01*
X153102904Y-75137095D01*
X152985966Y-75049556D01*
X152870826Y-75006611D01*
X152813991Y-74964064D01*
X152789180Y-74897543D01*
X152804272Y-74828169D01*
X152822154Y-74803222D01*
X152965722Y-74647268D01*
X153088860Y-74458791D01*
X153179296Y-74252616D01*
X153234564Y-74034368D01*
X153253156Y-73810000D01*
X153234564Y-73585632D01*
X153179296Y-73367384D01*
X153088860Y-73161209D01*
X153082140Y-73150924D01*
X152965724Y-72972734D01*
X152965720Y-72972729D01*
X152813237Y-72807091D01*
X152731382Y-72743381D01*
X152635576Y-72668811D01*
X152602319Y-72650813D01*
X152551929Y-72600802D01*
X152536576Y-72531485D01*
X152561136Y-72464872D01*
X152602320Y-72429186D01*
X152635576Y-72411189D01*
X152813240Y-72272906D01*
X152965722Y-72107268D01*
X153088860Y-71918791D01*
X153119627Y-71848649D01*
X159891500Y-71848649D01*
X159898009Y-71909196D01*
X159898011Y-71909204D01*
X159949110Y-72046202D01*
X159949112Y-72046207D01*
X160036738Y-72163261D01*
X160153792Y-72250887D01*
X160153794Y-72250888D01*
X160153796Y-72250889D01*
X160212825Y-72272906D01*
X160290795Y-72301988D01*
X160290803Y-72301990D01*
X160351350Y-72308499D01*
X160351355Y-72308499D01*
X160351362Y-72308500D01*
X160351368Y-72308500D01*
X162048632Y-72308500D01*
X162048638Y-72308500D01*
X162048645Y-72308499D01*
X162048649Y-72308499D01*
X162109196Y-72301990D01*
X162109199Y-72301989D01*
X162109201Y-72301989D01*
X162246204Y-72250889D01*
X162269018Y-72233811D01*
X162363261Y-72163261D01*
X162450887Y-72046207D01*
X162450887Y-72046206D01*
X162450889Y-72046204D01*
X162501989Y-71909201D01*
X162508500Y-71848638D01*
X162508500Y-71000000D01*
X166387004Y-71000000D01*
X166406951Y-71228002D01*
X166466186Y-71449068D01*
X166466188Y-71449073D01*
X166562913Y-71656501D01*
X166612899Y-71727888D01*
X167087081Y-71253706D01*
X167149394Y-71219681D01*
X167220209Y-71224745D01*
X167277045Y-71267292D01*
X167282162Y-71274661D01*
X167318239Y-71330798D01*
X167426900Y-71424952D01*
X167426901Y-71424952D01*
X167433711Y-71430853D01*
X167431686Y-71433189D01*
X167468084Y-71475187D01*
X167478195Y-71545460D01*
X167448709Y-71610043D01*
X167442572Y-71616636D01*
X166972110Y-72087098D01*
X166972110Y-72087100D01*
X167043498Y-72137086D01*
X167250926Y-72233811D01*
X167250931Y-72233813D01*
X167471999Y-72293048D01*
X167471995Y-72293048D01*
X167700000Y-72312995D01*
X167928002Y-72293048D01*
X168149068Y-72233813D01*
X168149073Y-72233811D01*
X168356497Y-72137088D01*
X168427888Y-72087099D01*
X168427888Y-72087098D01*
X167957427Y-71616638D01*
X167923402Y-71554325D01*
X167928466Y-71483510D01*
X167967145Y-71431840D01*
X167966289Y-71430853D01*
X167970830Y-71426917D01*
X167971013Y-71426674D01*
X167971510Y-71426328D01*
X167973095Y-71424953D01*
X167973100Y-71424952D01*
X168081761Y-71330798D01*
X168117824Y-71274681D01*
X168171478Y-71228189D01*
X168241752Y-71218084D01*
X168306333Y-71247576D01*
X168312918Y-71253707D01*
X168787098Y-71727888D01*
X168787099Y-71727888D01*
X168837088Y-71656497D01*
X168933811Y-71449073D01*
X168933813Y-71449068D01*
X168993048Y-71228002D01*
X169012995Y-71000000D01*
X168993048Y-70771997D01*
X168933813Y-70550931D01*
X168933811Y-70550926D01*
X168837086Y-70343498D01*
X168787100Y-70272110D01*
X168787098Y-70272110D01*
X168312916Y-70746292D01*
X168250604Y-70780317D01*
X168179788Y-70775252D01*
X168122953Y-70732705D01*
X168117836Y-70725336D01*
X168081761Y-70669202D01*
X167973100Y-70575048D01*
X167973098Y-70575047D01*
X167966289Y-70569147D01*
X167968312Y-70566811D01*
X167931912Y-70524809D01*
X167921802Y-70454536D01*
X167951290Y-70389952D01*
X167957426Y-70383361D01*
X168427888Y-69912899D01*
X168427888Y-69912898D01*
X168356501Y-69862913D01*
X168149073Y-69766188D01*
X168149068Y-69766186D01*
X167928000Y-69706951D01*
X167928004Y-69706951D01*
X167700000Y-69687004D01*
X167471997Y-69706951D01*
X167250931Y-69766186D01*
X167250926Y-69766188D01*
X167043500Y-69862913D01*
X166972110Y-69912899D01*
X167442572Y-70383361D01*
X167476597Y-70445674D01*
X167471533Y-70516489D01*
X167432854Y-70568157D01*
X167433711Y-70569147D01*
X167429164Y-70573086D01*
X167428986Y-70573325D01*
X167428498Y-70573663D01*
X167318238Y-70669202D01*
X167282175Y-70725318D01*
X167228519Y-70771811D01*
X167158245Y-70781914D01*
X167093664Y-70752421D01*
X167087081Y-70746292D01*
X166612899Y-70272110D01*
X166562913Y-70343500D01*
X166466188Y-70550926D01*
X166466186Y-70550931D01*
X166406951Y-70771997D01*
X166387004Y-71000000D01*
X162508500Y-71000000D01*
X162508500Y-70151362D01*
X162506076Y-70128811D01*
X162501990Y-70090803D01*
X162501988Y-70090795D01*
X162459059Y-69975700D01*
X162450889Y-69953796D01*
X162450888Y-69953794D01*
X162450887Y-69953792D01*
X162363261Y-69836738D01*
X162246207Y-69749112D01*
X162246202Y-69749110D01*
X162109204Y-69698011D01*
X162109196Y-69698009D01*
X162048649Y-69691500D01*
X162048638Y-69691500D01*
X160351362Y-69691500D01*
X160351350Y-69691500D01*
X160290803Y-69698009D01*
X160290795Y-69698011D01*
X160153797Y-69749110D01*
X160153792Y-69749112D01*
X160036738Y-69836738D01*
X159949112Y-69953792D01*
X159949110Y-69953797D01*
X159898011Y-70090795D01*
X159898009Y-70090803D01*
X159891500Y-70151350D01*
X159891500Y-71848649D01*
X153119627Y-71848649D01*
X153179296Y-71712616D01*
X153234564Y-71494368D01*
X153253156Y-71270000D01*
X153234564Y-71045632D01*
X153223008Y-71000000D01*
X153179297Y-70827387D01*
X153179296Y-70827386D01*
X153179296Y-70827384D01*
X153088860Y-70621209D01*
X153054846Y-70569147D01*
X152965724Y-70432734D01*
X152965720Y-70432729D01*
X152849570Y-70306559D01*
X152813240Y-70267094D01*
X152813239Y-70267093D01*
X152813237Y-70267091D01*
X152680145Y-70163501D01*
X152635576Y-70128811D01*
X152602319Y-70110813D01*
X152551929Y-70060802D01*
X152536576Y-69991485D01*
X152561136Y-69924872D01*
X152602320Y-69889186D01*
X152635576Y-69871189D01*
X152813240Y-69732906D01*
X152965722Y-69567268D01*
X153088860Y-69378791D01*
X153179296Y-69172616D01*
X153234564Y-68954368D01*
X153253156Y-68730000D01*
X153234564Y-68505632D01*
X153179296Y-68287384D01*
X153088860Y-68081209D01*
X153069720Y-68051913D01*
X152965724Y-67892734D01*
X152965720Y-67892729D01*
X152819720Y-67734133D01*
X152813240Y-67727094D01*
X152813239Y-67727093D01*
X152813237Y-67727091D01*
X152686650Y-67628564D01*
X152635576Y-67588811D01*
X152602319Y-67570813D01*
X152551929Y-67520802D01*
X152536576Y-67451485D01*
X152561136Y-67384872D01*
X152602320Y-67349186D01*
X152635576Y-67331189D01*
X152813240Y-67192906D01*
X152965722Y-67027268D01*
X153088860Y-66838791D01*
X153179296Y-66632616D01*
X153234564Y-66414368D01*
X153253156Y-66190000D01*
X153234564Y-65965632D01*
X153217317Y-65897526D01*
X153179297Y-65747387D01*
X153179296Y-65747386D01*
X153179296Y-65747384D01*
X153088860Y-65541209D01*
X153050561Y-65482588D01*
X152965724Y-65352734D01*
X152965714Y-65352722D01*
X152822159Y-65196782D01*
X152790737Y-65133117D01*
X152798723Y-65062571D01*
X152843582Y-65007542D01*
X152870827Y-64993388D01*
X152985965Y-64950444D01*
X153102904Y-64862904D01*
X153190444Y-64745965D01*
X153190444Y-64745964D01*
X153241494Y-64609093D01*
X153247999Y-64548597D01*
X153248000Y-64548585D01*
X153248000Y-63904000D01*
X152515266Y-63904000D01*
X152447145Y-63883998D01*
X152400652Y-63830342D01*
X152390548Y-63760068D01*
X152394370Y-63742502D01*
X152396838Y-63734094D01*
X152400000Y-63723327D01*
X152400000Y-63576673D01*
X152394370Y-63557498D01*
X152394370Y-63486502D01*
X152432753Y-63426776D01*
X152497334Y-63397283D01*
X152515266Y-63396000D01*
X153248000Y-63396000D01*
X153248000Y-62751414D01*
X153247999Y-62751402D01*
X153241494Y-62690906D01*
X153190444Y-62554035D01*
X153190444Y-62554034D01*
X153102904Y-62437095D01*
X152985966Y-62349556D01*
X152870826Y-62306611D01*
X152813991Y-62264064D01*
X152789180Y-62197543D01*
X152804272Y-62128169D01*
X152822154Y-62103222D01*
X152965722Y-61947268D01*
X153088860Y-61758791D01*
X153101488Y-61730002D01*
X159736499Y-61730002D01*
X159756452Y-61932594D01*
X159756453Y-61932600D01*
X159756454Y-61932601D01*
X159767850Y-61970169D01*
X159814361Y-62123499D01*
X159814994Y-62194493D01*
X159802252Y-62220249D01*
X159803870Y-62221133D01*
X159799554Y-62229035D01*
X159748505Y-62365905D01*
X159742000Y-62426402D01*
X159742000Y-62746000D01*
X160510252Y-62746000D01*
X160578373Y-62766002D01*
X160624866Y-62819658D01*
X160634970Y-62889932D01*
X160632396Y-62902933D01*
X160631449Y-62906668D01*
X160621114Y-63031395D01*
X160621114Y-63031399D01*
X160637744Y-63097069D01*
X160635077Y-63168015D01*
X160594477Y-63226257D01*
X160528834Y-63253303D01*
X160515600Y-63254000D01*
X159742000Y-63254000D01*
X159742000Y-63573597D01*
X159748505Y-63634093D01*
X159799555Y-63770964D01*
X159799555Y-63770965D01*
X159887095Y-63887904D01*
X160004034Y-63975444D01*
X160140906Y-64026494D01*
X160201402Y-64032999D01*
X160201415Y-64033000D01*
X160746000Y-64033000D01*
X160746000Y-63485758D01*
X160766002Y-63417637D01*
X160819658Y-63371144D01*
X160889932Y-63361040D01*
X160912911Y-63366584D01*
X160937424Y-63375000D01*
X161031069Y-63375000D01*
X161031073Y-63375000D01*
X161107263Y-63362286D01*
X161177746Y-63370804D01*
X161232436Y-63416075D01*
X161253968Y-63483728D01*
X161254000Y-63486568D01*
X161254000Y-64033000D01*
X161798585Y-64033000D01*
X161798597Y-64032999D01*
X161859093Y-64026494D01*
X161995964Y-63975444D01*
X161995965Y-63975444D01*
X162112904Y-63887904D01*
X162200444Y-63770965D01*
X162200444Y-63770964D01*
X162251494Y-63634093D01*
X162257999Y-63573597D01*
X162258000Y-63573585D01*
X162258000Y-63254000D01*
X161489748Y-63254000D01*
X161421627Y-63233998D01*
X161375134Y-63180342D01*
X161365030Y-63110068D01*
X161367604Y-63097067D01*
X161368549Y-63093334D01*
X161368551Y-63093330D01*
X161378886Y-62968605D01*
X161378885Y-62968600D01*
X161362256Y-62902931D01*
X161364923Y-62831985D01*
X161405523Y-62773743D01*
X161471166Y-62746697D01*
X161484400Y-62746000D01*
X162258000Y-62746000D01*
X162258000Y-62499999D01*
X172744592Y-62499999D01*
X172752271Y-62602472D01*
X172752447Y-62607182D01*
X172752447Y-62623930D01*
X172751462Y-62627282D01*
X172751878Y-62632835D01*
X172753492Y-62637910D01*
X172755990Y-62654477D01*
X172756517Y-62659160D01*
X172764198Y-62761634D01*
X172787062Y-62861805D01*
X172787938Y-62866435D01*
X172790436Y-62883008D01*
X172789962Y-62886469D01*
X172791201Y-62891897D01*
X172793553Y-62896675D01*
X172798500Y-62912711D01*
X172799719Y-62917262D01*
X172811438Y-62968602D01*
X172822580Y-63017416D01*
X172860120Y-63113066D01*
X172861677Y-63117516D01*
X172866616Y-63133529D01*
X172866663Y-63137016D01*
X172868698Y-63142200D01*
X172871736Y-63146575D01*
X172879007Y-63161674D01*
X172880892Y-63165994D01*
X172918428Y-63261636D01*
X172918431Y-63261642D01*
X172918432Y-63261643D01*
X172969808Y-63350629D01*
X172972007Y-63354791D01*
X172979280Y-63369892D01*
X172979847Y-63373336D01*
X172982630Y-63378156D01*
X172986290Y-63382033D01*
X172991831Y-63390161D01*
X172995731Y-63395882D01*
X172998237Y-63399871D01*
X173049611Y-63488853D01*
X173049615Y-63488859D01*
X173113667Y-63569177D01*
X173116464Y-63572968D01*
X173125917Y-63586832D01*
X173126991Y-63590153D01*
X173130457Y-63594499D01*
X173134649Y-63597783D01*
X173146066Y-63610087D01*
X173149140Y-63613659D01*
X173213195Y-63693981D01*
X173288517Y-63763869D01*
X173291850Y-63767202D01*
X173303250Y-63779489D01*
X173304803Y-63782606D01*
X173308889Y-63786397D01*
X173313517Y-63789016D01*
X173317588Y-63792262D01*
X173326645Y-63799484D01*
X173330185Y-63802532D01*
X173405521Y-63872433D01*
X173490410Y-63930309D01*
X173494195Y-63933103D01*
X173507313Y-63943564D01*
X173509317Y-63946420D01*
X173513906Y-63949549D01*
X173518880Y-63951451D01*
X173518894Y-63951459D01*
X173533408Y-63959838D01*
X173537395Y-63962343D01*
X173622296Y-64020228D01*
X173714894Y-64064820D01*
X173719028Y-64067006D01*
X173722628Y-64069084D01*
X173733559Y-64075397D01*
X173735965Y-64077921D01*
X173740968Y-64080330D01*
X173746174Y-64081472D01*
X173761796Y-64087603D01*
X173766106Y-64089483D01*
X173858677Y-64134063D01*
X173956879Y-64164354D01*
X173961291Y-64165898D01*
X173976919Y-64172031D01*
X173979672Y-64174167D01*
X173984996Y-64175809D01*
X173990307Y-64176160D01*
X174006665Y-64179894D01*
X174011184Y-64181105D01*
X174109385Y-64211396D01*
X174210999Y-64226712D01*
X174215589Y-64227580D01*
X174231969Y-64231318D01*
X174235011Y-64233020D01*
X174240505Y-64233848D01*
X174245815Y-64233405D01*
X174262556Y-64234660D01*
X174267183Y-64235180D01*
X174368818Y-64250500D01*
X174471561Y-64250500D01*
X174476264Y-64250676D01*
X174481124Y-64251039D01*
X174493009Y-64251930D01*
X174496272Y-64253160D01*
X174501817Y-64253160D01*
X174507001Y-64251929D01*
X174514720Y-64251350D01*
X174523728Y-64250676D01*
X174528436Y-64250500D01*
X174631182Y-64250500D01*
X174732840Y-64235177D01*
X174737414Y-64234661D01*
X174754196Y-64233404D01*
X174757603Y-64234133D01*
X174763091Y-64233306D01*
X174768033Y-64231318D01*
X174784425Y-64227576D01*
X174788969Y-64226716D01*
X174890615Y-64211396D01*
X174988840Y-64181097D01*
X174993315Y-64179898D01*
X175009695Y-64176160D01*
X175013172Y-64176373D01*
X175018489Y-64174733D01*
X175023070Y-64172035D01*
X175038717Y-64165895D01*
X175043111Y-64164357D01*
X175141323Y-64134063D01*
X175233915Y-64089472D01*
X175238200Y-64087603D01*
X175241087Y-64086470D01*
X175253828Y-64081471D01*
X175257299Y-64081163D01*
X175262305Y-64078752D01*
X175266443Y-64075394D01*
X175280991Y-64066995D01*
X175285093Y-64064826D01*
X175377704Y-64020228D01*
X175462626Y-63962328D01*
X175466560Y-63959856D01*
X175481108Y-63951457D01*
X175484498Y-63950634D01*
X175489092Y-63947502D01*
X175492681Y-63943568D01*
X175497410Y-63939796D01*
X175505810Y-63933097D01*
X175509558Y-63930330D01*
X175594479Y-63872433D01*
X175669826Y-63802520D01*
X175673341Y-63799495D01*
X175686483Y-63789015D01*
X175689703Y-63787700D01*
X175693786Y-63783911D01*
X175696740Y-63779498D01*
X175708178Y-63767171D01*
X175711449Y-63763900D01*
X175786805Y-63693981D01*
X175850888Y-63613623D01*
X175853921Y-63610098D01*
X175860043Y-63603500D01*
X175865347Y-63597785D01*
X175868343Y-63596000D01*
X175871807Y-63591656D01*
X175874083Y-63586827D01*
X175883527Y-63572976D01*
X175886312Y-63569202D01*
X175950386Y-63488857D01*
X176001768Y-63399860D01*
X176004253Y-63395903D01*
X176013710Y-63382032D01*
X176016406Y-63379822D01*
X176019190Y-63375000D01*
X176020716Y-63369898D01*
X176028000Y-63354772D01*
X176030186Y-63350638D01*
X176081568Y-63261643D01*
X176119128Y-63165941D01*
X176120979Y-63161701D01*
X176128257Y-63146587D01*
X176130594Y-63143998D01*
X176132634Y-63138802D01*
X176133384Y-63133529D01*
X176138331Y-63117488D01*
X176139868Y-63113095D01*
X176177420Y-63017416D01*
X176200290Y-62917216D01*
X176201497Y-62912713D01*
X176206446Y-62896671D01*
X176208370Y-62893763D01*
X176209605Y-62888353D01*
X176209561Y-62883024D01*
X176212065Y-62866405D01*
X176212930Y-62861834D01*
X176235802Y-62761630D01*
X176243482Y-62659142D01*
X176244006Y-62654492D01*
X176247271Y-62632835D01*
X176248169Y-62626879D01*
X176248169Y-62626874D01*
X176248344Y-62625711D01*
X176247727Y-62621600D01*
X176248171Y-62597859D01*
X176248331Y-62594430D01*
X176255408Y-62500000D01*
X176248331Y-62405574D01*
X176248171Y-62402137D01*
X176247727Y-62378400D01*
X176248524Y-62375486D01*
X176247553Y-62369044D01*
X176247553Y-62369039D01*
X176244005Y-62345501D01*
X176243482Y-62340863D01*
X176235802Y-62238370D01*
X176212928Y-62138155D01*
X176212063Y-62133580D01*
X176209564Y-62116996D01*
X176210037Y-62113535D01*
X176208798Y-62108105D01*
X176206444Y-62103320D01*
X176201496Y-62087277D01*
X176200280Y-62082743D01*
X176177420Y-61982584D01*
X176139869Y-61886907D01*
X176138335Y-61882523D01*
X176133381Y-61866464D01*
X176133334Y-61862981D01*
X176131299Y-61857796D01*
X176128258Y-61853414D01*
X176120987Y-61838314D01*
X176119104Y-61833997D01*
X176081573Y-61738367D01*
X176081569Y-61738360D01*
X176081568Y-61738357D01*
X176030180Y-61649351D01*
X176027996Y-61645217D01*
X176020717Y-61630102D01*
X176020151Y-61626663D01*
X176017366Y-61621840D01*
X176013707Y-61617962D01*
X176004269Y-61604118D01*
X176001762Y-61600128D01*
X175950388Y-61511146D01*
X175950383Y-61511139D01*
X175930226Y-61485863D01*
X175886313Y-61430798D01*
X175883532Y-61427029D01*
X175874079Y-61413165D01*
X175873004Y-61409843D01*
X175869544Y-61405503D01*
X175865348Y-61402215D01*
X175853931Y-61389911D01*
X175850864Y-61386347D01*
X175786805Y-61306019D01*
X175786804Y-61306018D01*
X175786803Y-61306016D01*
X175729297Y-61252660D01*
X175711477Y-61236125D01*
X175708148Y-61232796D01*
X175696748Y-61220509D01*
X175695194Y-61217392D01*
X175691111Y-61213603D01*
X175686475Y-61210978D01*
X175673369Y-61200526D01*
X175669807Y-61197461D01*
X175594479Y-61127567D01*
X175594475Y-61127564D01*
X175594469Y-61127559D01*
X175509588Y-61069688D01*
X175505797Y-61066890D01*
X175492683Y-61056432D01*
X175490679Y-61053577D01*
X175486095Y-61050452D01*
X175481111Y-61048544D01*
X175466580Y-61040155D01*
X175462601Y-61037654D01*
X175377704Y-60979772D01*
X175375503Y-60978712D01*
X175285127Y-60935188D01*
X175280964Y-60932988D01*
X175266451Y-60924609D01*
X175264040Y-60922080D01*
X175259030Y-60919667D01*
X175253822Y-60918525D01*
X175238193Y-60912390D01*
X175233875Y-60910507D01*
X175141319Y-60865935D01*
X175141314Y-60865933D01*
X175048244Y-60837226D01*
X175043139Y-60835651D01*
X175038689Y-60834094D01*
X175023071Y-60827964D01*
X175020316Y-60825828D01*
X175015011Y-60824191D01*
X175009692Y-60823838D01*
X174996054Y-60820725D01*
X174993288Y-60820092D01*
X174988774Y-60818881D01*
X174890620Y-60788605D01*
X174890616Y-60788604D01*
X174890615Y-60788604D01*
X174865690Y-60784847D01*
X174789007Y-60773288D01*
X174784384Y-60772413D01*
X174777952Y-60770945D01*
X174768032Y-60768681D01*
X174764985Y-60766976D01*
X174759503Y-60766150D01*
X174754191Y-60766593D01*
X174737453Y-60765339D01*
X174732769Y-60764811D01*
X174661221Y-60754027D01*
X174631182Y-60749500D01*
X174528423Y-60749500D01*
X174523714Y-60749324D01*
X174522632Y-60749243D01*
X174507007Y-60748071D01*
X174503749Y-60746843D01*
X174498170Y-60746843D01*
X174492992Y-60748071D01*
X174478197Y-60749180D01*
X174476285Y-60749324D01*
X174471577Y-60749500D01*
X174368818Y-60749500D01*
X174354455Y-60751664D01*
X174267226Y-60764811D01*
X174262543Y-60765339D01*
X174245807Y-60766593D01*
X174242397Y-60765863D01*
X174236913Y-60766689D01*
X174231962Y-60768682D01*
X174215619Y-60772412D01*
X174210989Y-60773288D01*
X174109390Y-60788602D01*
X174109383Y-60788604D01*
X174011195Y-60818889D01*
X174006646Y-60820108D01*
X173994717Y-60822831D01*
X173990310Y-60823837D01*
X173986828Y-60823623D01*
X173981512Y-60825263D01*
X173976918Y-60827968D01*
X173961297Y-60834098D01*
X173956850Y-60835654D01*
X173858679Y-60865935D01*
X173858674Y-60865937D01*
X173766111Y-60910512D01*
X173761794Y-60912396D01*
X173746174Y-60918526D01*
X173742699Y-60918833D01*
X173737696Y-60921243D01*
X173733552Y-60924606D01*
X173719034Y-60932988D01*
X173714869Y-60935189D01*
X173622297Y-60979771D01*
X173537398Y-61037654D01*
X173533405Y-61040162D01*
X173525792Y-61044557D01*
X173518892Y-61048541D01*
X173515497Y-61049364D01*
X173510906Y-61052494D01*
X173507315Y-61056432D01*
X173494187Y-61066901D01*
X173490397Y-61069698D01*
X173405530Y-61127559D01*
X173405521Y-61127566D01*
X173330198Y-61197454D01*
X173326629Y-61200526D01*
X173313526Y-61210976D01*
X173310297Y-61212294D01*
X173306210Y-61216086D01*
X173303247Y-61220514D01*
X173291842Y-61232804D01*
X173288512Y-61236133D01*
X173213199Y-61306014D01*
X173149148Y-61386331D01*
X173146071Y-61389906D01*
X173134645Y-61402218D01*
X173131653Y-61403999D01*
X173128195Y-61408335D01*
X173125922Y-61413160D01*
X173116471Y-61427023D01*
X173113672Y-61430816D01*
X173049614Y-61511142D01*
X173049612Y-61511144D01*
X172998231Y-61600139D01*
X172995722Y-61604131D01*
X172986286Y-61617970D01*
X172983590Y-61620179D01*
X172980806Y-61625002D01*
X172979279Y-61630108D01*
X172972010Y-61645201D01*
X172969810Y-61649365D01*
X172918433Y-61738354D01*
X172880892Y-61834005D01*
X172879007Y-61838324D01*
X172871736Y-61853423D01*
X172869399Y-61856011D01*
X172867363Y-61861197D01*
X172866615Y-61866472D01*
X172861673Y-61882491D01*
X172860117Y-61886939D01*
X172843613Y-61928992D01*
X172822580Y-61982584D01*
X172822578Y-61982588D01*
X172822578Y-61982591D01*
X172799720Y-62082733D01*
X172798500Y-62087286D01*
X172793551Y-62103328D01*
X172791626Y-62106234D01*
X172790390Y-62111650D01*
X172790436Y-62116985D01*
X172787937Y-62133568D01*
X172787061Y-62138200D01*
X172764198Y-62238368D01*
X172764197Y-62238375D01*
X172756517Y-62340837D01*
X172755990Y-62345520D01*
X172753493Y-62362086D01*
X172752022Y-62365248D01*
X172751606Y-62370799D01*
X172752447Y-62376068D01*
X172752447Y-62392816D01*
X172752271Y-62397526D01*
X172744592Y-62499999D01*
X162258000Y-62499999D01*
X162258000Y-62426414D01*
X162257999Y-62426402D01*
X162251494Y-62365906D01*
X162200444Y-62229035D01*
X162196125Y-62221124D01*
X162199311Y-62219384D01*
X162180538Y-62169115D01*
X162185638Y-62123499D01*
X162243546Y-61932601D01*
X162243902Y-61928992D01*
X162263501Y-61730002D01*
X162263501Y-61729997D01*
X162243547Y-61527405D01*
X162243546Y-61527403D01*
X162243546Y-61527399D01*
X162184450Y-61332583D01*
X162089205Y-61154394D01*
X162074734Y-61084889D01*
X162089203Y-61035609D01*
X162184450Y-60857417D01*
X162243546Y-60662601D01*
X162263501Y-60460000D01*
X162263501Y-60459997D01*
X162243547Y-60257405D01*
X162243546Y-60257403D01*
X162243546Y-60257399D01*
X162184450Y-60062583D01*
X162088482Y-59883040D01*
X161959331Y-59725669D01*
X161801960Y-59596518D01*
X161622417Y-59500550D01*
X161427601Y-59441454D01*
X161427600Y-59441453D01*
X161427594Y-59441452D01*
X161275781Y-59426500D01*
X161275775Y-59426500D01*
X160724225Y-59426500D01*
X160724218Y-59426500D01*
X160572405Y-59441452D01*
X160377582Y-59500550D01*
X160198039Y-59596518D01*
X160040669Y-59725669D01*
X159911518Y-59883039D01*
X159815550Y-60062582D01*
X159756452Y-60257405D01*
X159736499Y-60459997D01*
X159736499Y-60460002D01*
X159756452Y-60662594D01*
X159756453Y-60662600D01*
X159756454Y-60662601D01*
X159815550Y-60857417D01*
X159900109Y-61015616D01*
X159910793Y-61035603D01*
X159925265Y-61105109D01*
X159910793Y-61154395D01*
X159815550Y-61332582D01*
X159756452Y-61527405D01*
X159736499Y-61729997D01*
X159736499Y-61730002D01*
X153101488Y-61730002D01*
X153179296Y-61552616D01*
X153234564Y-61334368D01*
X153253156Y-61110000D01*
X153234564Y-60885632D01*
X153221513Y-60834094D01*
X153179297Y-60667387D01*
X153179296Y-60667386D01*
X153179296Y-60667384D01*
X153088860Y-60461209D01*
X153082140Y-60450924D01*
X152965724Y-60272734D01*
X152965720Y-60272729D01*
X152813237Y-60107091D01*
X152731382Y-60043381D01*
X152635576Y-59968811D01*
X152602319Y-59950813D01*
X152551929Y-59900802D01*
X152536576Y-59831485D01*
X152561136Y-59764872D01*
X152602320Y-59729186D01*
X152608819Y-59725669D01*
X152635576Y-59711189D01*
X152813240Y-59572906D01*
X152965722Y-59407268D01*
X153088860Y-59218791D01*
X153179296Y-59012616D01*
X153234564Y-58794368D01*
X153253156Y-58570000D01*
X153234564Y-58345632D01*
X153193906Y-58185077D01*
X153179297Y-58127387D01*
X153179296Y-58127386D01*
X153179296Y-58127384D01*
X153088860Y-57921209D01*
X153049047Y-57860271D01*
X152965724Y-57732734D01*
X152965720Y-57732729D01*
X152813237Y-57567091D01*
X152731382Y-57503381D01*
X152635576Y-57428811D01*
X152602319Y-57410813D01*
X152553640Y-57362500D01*
X161224647Y-57362500D01*
X161244022Y-57583963D01*
X161290273Y-57756573D01*
X161301559Y-57798693D01*
X161301561Y-57798699D01*
X161395511Y-58000175D01*
X161395512Y-58000177D01*
X161523016Y-58182272D01*
X161523020Y-58182277D01*
X161523023Y-58182281D01*
X161680219Y-58339477D01*
X161680223Y-58339480D01*
X161680227Y-58339483D01*
X161724820Y-58370707D01*
X161862323Y-58466988D01*
X162063804Y-58560940D01*
X162278537Y-58618478D01*
X162500000Y-58637853D01*
X162721463Y-58618478D01*
X162936196Y-58560940D01*
X163137677Y-58466988D01*
X163319781Y-58339477D01*
X163476977Y-58182281D01*
X163604488Y-58000177D01*
X163635805Y-57933016D01*
X163682722Y-57879732D01*
X163750999Y-57860271D01*
X163818959Y-57880813D01*
X163864195Y-57933017D01*
X163895511Y-58000175D01*
X163895512Y-58000177D01*
X164023016Y-58182272D01*
X164023020Y-58182277D01*
X164023023Y-58182281D01*
X164180219Y-58339477D01*
X164180223Y-58339480D01*
X164180227Y-58339483D01*
X164224820Y-58370707D01*
X164362323Y-58466988D01*
X164563804Y-58560940D01*
X164778537Y-58618478D01*
X165000000Y-58637853D01*
X165221463Y-58618478D01*
X165436196Y-58560940D01*
X165637677Y-58466988D01*
X165819781Y-58339477D01*
X165910905Y-58248353D01*
X165973217Y-58214327D01*
X166044032Y-58219392D01*
X166089095Y-58248353D01*
X166180219Y-58339477D01*
X166180223Y-58339480D01*
X166180227Y-58339483D01*
X166224820Y-58370707D01*
X166362323Y-58466988D01*
X166563804Y-58560940D01*
X166778537Y-58618478D01*
X167000000Y-58637853D01*
X167221463Y-58618478D01*
X167436196Y-58560940D01*
X167637677Y-58466988D01*
X167819781Y-58339477D01*
X167976977Y-58182281D01*
X168004142Y-58143484D01*
X168059597Y-58099157D01*
X168130216Y-58091846D01*
X168193577Y-58123876D01*
X168229563Y-58185077D01*
X168232633Y-58202286D01*
X168236010Y-58233697D01*
X168236011Y-58233704D01*
X168287110Y-58370702D01*
X168287112Y-58370707D01*
X168374738Y-58487761D01*
X168491792Y-58575387D01*
X168491794Y-58575388D01*
X168491796Y-58575389D01*
X168550875Y-58597424D01*
X168628795Y-58626488D01*
X168628803Y-58626490D01*
X168689350Y-58632999D01*
X168689355Y-58632999D01*
X168689362Y-58633000D01*
X168689368Y-58633000D01*
X170310632Y-58633000D01*
X170310638Y-58633000D01*
X170310645Y-58632999D01*
X170310649Y-58632999D01*
X170371196Y-58626490D01*
X170371199Y-58626489D01*
X170371201Y-58626489D01*
X170508204Y-58575389D01*
X170527509Y-58560938D01*
X170625261Y-58487761D01*
X170712887Y-58370707D01*
X170712887Y-58370706D01*
X170712889Y-58370704D01*
X170763989Y-58233701D01*
X170763989Y-58233699D01*
X170763990Y-58233696D01*
X170770499Y-58173149D01*
X170770500Y-58173132D01*
X170770500Y-56551867D01*
X170770499Y-56551850D01*
X170763990Y-56491303D01*
X170763988Y-56491295D01*
X170724535Y-56385520D01*
X170712889Y-56354296D01*
X170712888Y-56354294D01*
X170712887Y-56354292D01*
X170649301Y-56269352D01*
X170639556Y-56243226D01*
X170630363Y-56240586D01*
X170622341Y-56235052D01*
X170508207Y-56149612D01*
X170508202Y-56149610D01*
X170371204Y-56098511D01*
X170371196Y-56098509D01*
X170310649Y-56092000D01*
X170310638Y-56092000D01*
X168689362Y-56092000D01*
X168689350Y-56092000D01*
X168628803Y-56098509D01*
X168628795Y-56098511D01*
X168491797Y-56149610D01*
X168491792Y-56149612D01*
X168374738Y-56237238D01*
X168287112Y-56354292D01*
X168287110Y-56354297D01*
X168236011Y-56491295D01*
X168236009Y-56491303D01*
X168232633Y-56522713D01*
X168205464Y-56588305D01*
X168147146Y-56628796D01*
X168076194Y-56631330D01*
X168015136Y-56595102D01*
X168004141Y-56581514D01*
X167976977Y-56542719D01*
X167819781Y-56385523D01*
X167819777Y-56385520D01*
X167819772Y-56385516D01*
X167637677Y-56258012D01*
X167637675Y-56258011D01*
X167436199Y-56164061D01*
X167436193Y-56164059D01*
X167382268Y-56149610D01*
X167221463Y-56106522D01*
X167000000Y-56087147D01*
X166778537Y-56106522D01*
X166663462Y-56137356D01*
X166563806Y-56164059D01*
X166563801Y-56164061D01*
X166362323Y-56258012D01*
X166180222Y-56385520D01*
X166089095Y-56476647D01*
X166026783Y-56510672D01*
X165955967Y-56505606D01*
X165910905Y-56476647D01*
X165882391Y-56448133D01*
X165819781Y-56385523D01*
X165819777Y-56385520D01*
X165819772Y-56385516D01*
X165637677Y-56258012D01*
X165637675Y-56258011D01*
X165436199Y-56164061D01*
X165436193Y-56164059D01*
X165382268Y-56149610D01*
X165221463Y-56106522D01*
X165000000Y-56087147D01*
X164778537Y-56106522D01*
X164663463Y-56137356D01*
X164563806Y-56164059D01*
X164563801Y-56164061D01*
X164362323Y-56258012D01*
X164180222Y-56385520D01*
X164180216Y-56385525D01*
X164023025Y-56542716D01*
X164023020Y-56542722D01*
X163895512Y-56724823D01*
X163864195Y-56791983D01*
X163817277Y-56845268D01*
X163749000Y-56864729D01*
X163681040Y-56844187D01*
X163635805Y-56791983D01*
X163613222Y-56743555D01*
X163604488Y-56724824D01*
X163476977Y-56542719D01*
X163319781Y-56385523D01*
X163319777Y-56385520D01*
X163319772Y-56385516D01*
X163137677Y-56258012D01*
X163137675Y-56258011D01*
X162936199Y-56164061D01*
X162936193Y-56164059D01*
X162882268Y-56149610D01*
X162721463Y-56106522D01*
X162500000Y-56087147D01*
X162278537Y-56106522D01*
X162163463Y-56137356D01*
X162063806Y-56164059D01*
X162063801Y-56164061D01*
X161862323Y-56258012D01*
X161680222Y-56385520D01*
X161680216Y-56385525D01*
X161523025Y-56542716D01*
X161523020Y-56542722D01*
X161395512Y-56724823D01*
X161301561Y-56926301D01*
X161301560Y-56926304D01*
X161244022Y-57141037D01*
X161244021Y-57141039D01*
X161244022Y-57141039D01*
X161224796Y-57360802D01*
X161224647Y-57362500D01*
X152553640Y-57362500D01*
X152551929Y-57360802D01*
X152536576Y-57291485D01*
X152561136Y-57224872D01*
X152602320Y-57189186D01*
X152635576Y-57171189D01*
X152813240Y-57032906D01*
X152965722Y-56867268D01*
X153088860Y-56678791D01*
X153179296Y-56472616D01*
X153234564Y-56254368D01*
X153253156Y-56030000D01*
X153234564Y-55805632D01*
X153179296Y-55587384D01*
X153088860Y-55381209D01*
X153082140Y-55370924D01*
X152965724Y-55192734D01*
X152965720Y-55192729D01*
X152813237Y-55027091D01*
X152731382Y-54963381D01*
X152635576Y-54888811D01*
X152602319Y-54870813D01*
X152551929Y-54820802D01*
X152536576Y-54751485D01*
X152561136Y-54684872D01*
X152598492Y-54652503D01*
X157166654Y-54652503D01*
X157186016Y-54947921D01*
X157186018Y-54947935D01*
X157224435Y-55141066D01*
X157234712Y-55192732D01*
X157243776Y-55238295D01*
X157243778Y-55238305D01*
X157338938Y-55518637D01*
X157338944Y-55518651D01*
X157469883Y-55784170D01*
X157634359Y-56030327D01*
X157634361Y-56030330D01*
X157634367Y-56030338D01*
X157829573Y-56252927D01*
X158052162Y-56448133D01*
X158052170Y-56448138D01*
X158052172Y-56448140D01*
X158145758Y-56510672D01*
X158298327Y-56612615D01*
X158563855Y-56743559D01*
X158844203Y-56838724D01*
X159134574Y-56896483D01*
X159303388Y-56907547D01*
X159429997Y-56915846D01*
X159430000Y-56915846D01*
X159430003Y-56915846D01*
X159540784Y-56908584D01*
X159725426Y-56896483D01*
X160015797Y-56838724D01*
X160296145Y-56743559D01*
X160561673Y-56612615D01*
X160807838Y-56448133D01*
X161030427Y-56252927D01*
X161225633Y-56030338D01*
X161390115Y-55784173D01*
X161521059Y-55518645D01*
X161616224Y-55238297D01*
X161673983Y-54947926D01*
X161690285Y-54699200D01*
X161693346Y-54652503D01*
X170306654Y-54652503D01*
X170326016Y-54947921D01*
X170326018Y-54947935D01*
X170364435Y-55141066D01*
X170374712Y-55192732D01*
X170383776Y-55238295D01*
X170383778Y-55238305D01*
X170478938Y-55518637D01*
X170478944Y-55518651D01*
X170609883Y-55784170D01*
X170774359Y-56030327D01*
X170774361Y-56030330D01*
X170774367Y-56030338D01*
X170792582Y-56051109D01*
X170809143Y-56086808D01*
X170825678Y-56092975D01*
X170844899Y-56110764D01*
X170969573Y-56252927D01*
X171192162Y-56448133D01*
X171192170Y-56448138D01*
X171192172Y-56448140D01*
X171285758Y-56510672D01*
X171438327Y-56612615D01*
X171703855Y-56743559D01*
X171984203Y-56838724D01*
X172274574Y-56896483D01*
X172443388Y-56907547D01*
X172569997Y-56915846D01*
X172570000Y-56915846D01*
X172570003Y-56915846D01*
X172680784Y-56908584D01*
X172865426Y-56896483D01*
X173155797Y-56838724D01*
X173436145Y-56743559D01*
X173701673Y-56612615D01*
X173947838Y-56448133D01*
X174170427Y-56252927D01*
X174365633Y-56030338D01*
X174530115Y-55784173D01*
X174661059Y-55518645D01*
X174756224Y-55238297D01*
X174813983Y-54947926D01*
X174830285Y-54699200D01*
X174833346Y-54652503D01*
X174833346Y-54652496D01*
X174813983Y-54357078D01*
X174813983Y-54357074D01*
X174756224Y-54066703D01*
X174661059Y-53786355D01*
X174530115Y-53520827D01*
X174365633Y-53274662D01*
X174170427Y-53052073D01*
X173947838Y-52856867D01*
X173947830Y-52856861D01*
X173947827Y-52856859D01*
X173701670Y-52692383D01*
X173436151Y-52561444D01*
X173436145Y-52561441D01*
X173436140Y-52561439D01*
X173436137Y-52561438D01*
X173155805Y-52466278D01*
X173155799Y-52466276D01*
X173155797Y-52466276D01*
X173058566Y-52446935D01*
X172865435Y-52408518D01*
X172865421Y-52408516D01*
X172570003Y-52389154D01*
X172569997Y-52389154D01*
X172274578Y-52408516D01*
X172274564Y-52408518D01*
X172032818Y-52456605D01*
X171984203Y-52466276D01*
X171984201Y-52466276D01*
X171984194Y-52466278D01*
X171703862Y-52561438D01*
X171703848Y-52561444D01*
X171438329Y-52692383D01*
X171192172Y-52856859D01*
X171192165Y-52856864D01*
X171192162Y-52856867D01*
X170969573Y-53052073D01*
X170774367Y-53274662D01*
X170774364Y-53274665D01*
X170774359Y-53274672D01*
X170609883Y-53520829D01*
X170478944Y-53786348D01*
X170478938Y-53786362D01*
X170383778Y-54066694D01*
X170383776Y-54066704D01*
X170326018Y-54357064D01*
X170326016Y-54357078D01*
X170306654Y-54652496D01*
X170306654Y-54652503D01*
X161693346Y-54652503D01*
X161693346Y-54652496D01*
X161673983Y-54357078D01*
X161673983Y-54357074D01*
X161616224Y-54066703D01*
X161521059Y-53786355D01*
X161390115Y-53520827D01*
X161225633Y-53274662D01*
X161030427Y-53052073D01*
X160807838Y-52856867D01*
X160807830Y-52856861D01*
X160807827Y-52856859D01*
X160561670Y-52692383D01*
X160296151Y-52561444D01*
X160296145Y-52561441D01*
X160296140Y-52561439D01*
X160296137Y-52561438D01*
X160015805Y-52466278D01*
X160015799Y-52466276D01*
X160015797Y-52466276D01*
X159918566Y-52446935D01*
X159725435Y-52408518D01*
X159725421Y-52408516D01*
X159430003Y-52389154D01*
X159429997Y-52389154D01*
X159134578Y-52408516D01*
X159134564Y-52408518D01*
X158892818Y-52456605D01*
X158844203Y-52466276D01*
X158844201Y-52466276D01*
X158844194Y-52466278D01*
X158563862Y-52561438D01*
X158563848Y-52561444D01*
X158298329Y-52692383D01*
X158052172Y-52856859D01*
X158052165Y-52856864D01*
X158052162Y-52856867D01*
X157829573Y-53052073D01*
X157634367Y-53274662D01*
X157634364Y-53274665D01*
X157634359Y-53274672D01*
X157469883Y-53520829D01*
X157338944Y-53786348D01*
X157338938Y-53786362D01*
X157243778Y-54066694D01*
X157243776Y-54066704D01*
X157186018Y-54357064D01*
X157186016Y-54357078D01*
X157166654Y-54652496D01*
X157166654Y-54652503D01*
X152598492Y-54652503D01*
X152602320Y-54649186D01*
X152602324Y-54649184D01*
X152635576Y-54631189D01*
X152813240Y-54492906D01*
X152965722Y-54327268D01*
X153088860Y-54138791D01*
X153179296Y-53932616D01*
X153234564Y-53714368D01*
X153253156Y-53490000D01*
X153234564Y-53265632D01*
X153234562Y-53265624D01*
X153179297Y-53047387D01*
X153179296Y-53047386D01*
X153179296Y-53047384D01*
X153088860Y-52841209D01*
X152991629Y-52692385D01*
X152965724Y-52652734D01*
X152965714Y-52652722D01*
X152822159Y-52496782D01*
X152790737Y-52433117D01*
X152798723Y-52362571D01*
X152843582Y-52307542D01*
X152870827Y-52293388D01*
X152985965Y-52250444D01*
X153102904Y-52162904D01*
X153190444Y-52045965D01*
X153190444Y-52045964D01*
X153241494Y-51909093D01*
X153247999Y-51848597D01*
X153248000Y-51848585D01*
X153248000Y-51204000D01*
X152515266Y-51204000D01*
X152447145Y-51183998D01*
X152400652Y-51130342D01*
X152390548Y-51060068D01*
X152394370Y-51042502D01*
X152396838Y-51034094D01*
X152400000Y-51023327D01*
X152400000Y-50876673D01*
X152394370Y-50857498D01*
X152394370Y-50786502D01*
X152432753Y-50726776D01*
X152497334Y-50697283D01*
X152515266Y-50696000D01*
X153248000Y-50696000D01*
X153248000Y-50051414D01*
X153247999Y-50051402D01*
X153241494Y-49990906D01*
X153190444Y-49854035D01*
X153190444Y-49854034D01*
X153102904Y-49737095D01*
X152985966Y-49649556D01*
X152870826Y-49606611D01*
X152813991Y-49564064D01*
X152789180Y-49497543D01*
X152804272Y-49428169D01*
X152822154Y-49403222D01*
X152965722Y-49247268D01*
X153088860Y-49058791D01*
X153179296Y-48852616D01*
X153234564Y-48634368D01*
X153253156Y-48410000D01*
X153234564Y-48185632D01*
X153179296Y-47967384D01*
X153088860Y-47761209D01*
X153077080Y-47743179D01*
X152965724Y-47572734D01*
X152965720Y-47572729D01*
X152813237Y-47407091D01*
X152728768Y-47341346D01*
X152635576Y-47268811D01*
X152602319Y-47250813D01*
X152551929Y-47200802D01*
X152536576Y-47131485D01*
X152561136Y-47064872D01*
X152602320Y-47029186D01*
X152635576Y-47011189D01*
X152813240Y-46872906D01*
X152965722Y-46707268D01*
X153088860Y-46518791D01*
X153179296Y-46312616D01*
X153234564Y-46094368D01*
X153253156Y-45870000D01*
X153234564Y-45645632D01*
X153199134Y-45505721D01*
X153179297Y-45427387D01*
X153179296Y-45427386D01*
X153179296Y-45427384D01*
X153088860Y-45221209D01*
X153048500Y-45159433D01*
X152965724Y-45032734D01*
X152965720Y-45032729D01*
X152843694Y-44900176D01*
X152813240Y-44867094D01*
X152813239Y-44867093D01*
X152813237Y-44867091D01*
X152721538Y-44795719D01*
X152635576Y-44728811D01*
X152437574Y-44621658D01*
X152437572Y-44621657D01*
X152437571Y-44621656D01*
X152224639Y-44548557D01*
X152224630Y-44548555D01*
X152180476Y-44541187D01*
X152002569Y-44511500D01*
X151777431Y-44511500D01*
X151629210Y-44536233D01*
X151555369Y-44548555D01*
X151555360Y-44548557D01*
X151342428Y-44621656D01*
X151342426Y-44621658D01*
X151175679Y-44711897D01*
X151144426Y-44728810D01*
X151144424Y-44728811D01*
X150966762Y-44867091D01*
X150814279Y-45032729D01*
X150814275Y-45032734D01*
X150691141Y-45221206D01*
X150600703Y-45427386D01*
X150600702Y-45427387D01*
X150545437Y-45645624D01*
X150545436Y-45645630D01*
X150545436Y-45645632D01*
X150526844Y-45870000D01*
X150544915Y-46088083D01*
X150545437Y-46094375D01*
X150600702Y-46312612D01*
X150600703Y-46312613D01*
X150600704Y-46312616D01*
X150655452Y-46437429D01*
X150691141Y-46518793D01*
X150814275Y-46707265D01*
X150814279Y-46707270D01*
X150901412Y-46801920D01*
X150962327Y-46868091D01*
X150966762Y-46872908D01*
X151002915Y-46901047D01*
X151144424Y-47011189D01*
X151177680Y-47029186D01*
X151228071Y-47079200D01*
X151243423Y-47148516D01*
X151218862Y-47215129D01*
X151177680Y-47250813D01*
X151144426Y-47268810D01*
X151144424Y-47268811D01*
X150966762Y-47407091D01*
X150814279Y-47572729D01*
X150814275Y-47572734D01*
X150691141Y-47761206D01*
X150600703Y-47967386D01*
X150600702Y-47967387D01*
X150545437Y-48185624D01*
X150526844Y-48409999D01*
X150545437Y-48634375D01*
X150600702Y-48852612D01*
X150600703Y-48852613D01*
X150600704Y-48852616D01*
X150691140Y-49058791D01*
X150691141Y-49058793D01*
X150814275Y-49247265D01*
X150814279Y-49247270D01*
X150957841Y-49403217D01*
X150989262Y-49466882D01*
X150981276Y-49537428D01*
X150936417Y-49592457D01*
X150909173Y-49606610D01*
X150794039Y-49649553D01*
X150794034Y-49649555D01*
X150677095Y-49737095D01*
X150589555Y-49854034D01*
X150589555Y-49854035D01*
X150538505Y-49990906D01*
X150532000Y-50051402D01*
X150532000Y-50696000D01*
X151264734Y-50696000D01*
X151332855Y-50716002D01*
X151379348Y-50769658D01*
X151389452Y-50839932D01*
X151385630Y-50857498D01*
X151380001Y-50876667D01*
X151380000Y-50876676D01*
X151380000Y-51023323D01*
X151380001Y-51023332D01*
X151385630Y-51042502D01*
X151385630Y-51113498D01*
X151347247Y-51173224D01*
X151282666Y-51202717D01*
X151264734Y-51204000D01*
X150532000Y-51204000D01*
X150532000Y-51848597D01*
X150538505Y-51909093D01*
X150589555Y-52045964D01*
X150589555Y-52045965D01*
X150677095Y-52162904D01*
X150794034Y-52250444D01*
X150909172Y-52293388D01*
X150966008Y-52335935D01*
X150990819Y-52402455D01*
X150975728Y-52471829D01*
X150957841Y-52496782D01*
X150814280Y-52652729D01*
X150814275Y-52652734D01*
X150691141Y-52841206D01*
X150600703Y-53047386D01*
X150600702Y-53047387D01*
X150545437Y-53265624D01*
X150545436Y-53265630D01*
X150545436Y-53265632D01*
X150526844Y-53490000D01*
X150529398Y-53520827D01*
X150545437Y-53714375D01*
X150600702Y-53932612D01*
X150600703Y-53932613D01*
X150691141Y-54138793D01*
X150814275Y-54327265D01*
X150814279Y-54327270D01*
X150966762Y-54492908D01*
X151021331Y-54535381D01*
X151144424Y-54631189D01*
X151177680Y-54649186D01*
X151228070Y-54699196D01*
X151243423Y-54768513D01*
X151218864Y-54835126D01*
X151177683Y-54870811D01*
X151144430Y-54888807D01*
X151144424Y-54888811D01*
X150966762Y-55027091D01*
X150814279Y-55192729D01*
X150814275Y-55192734D01*
X150691141Y-55381206D01*
X150600703Y-55587386D01*
X150600702Y-55587387D01*
X150545437Y-55805624D01*
X150545436Y-55805630D01*
X150545436Y-55805632D01*
X150526844Y-56030000D01*
X150545316Y-56252923D01*
X150545437Y-56254375D01*
X150600702Y-56472612D01*
X150600703Y-56472613D01*
X150600704Y-56472616D01*
X150670322Y-56631330D01*
X150691141Y-56678793D01*
X150814275Y-56867265D01*
X150814279Y-56867270D01*
X150966762Y-57032908D01*
X150978726Y-57042220D01*
X151144424Y-57171189D01*
X151177680Y-57189186D01*
X151228071Y-57239200D01*
X151243423Y-57308516D01*
X151218862Y-57375129D01*
X151177680Y-57410813D01*
X151144426Y-57428810D01*
X151144424Y-57428811D01*
X150966762Y-57567091D01*
X150814279Y-57732729D01*
X150814275Y-57732734D01*
X150691141Y-57921206D01*
X150600703Y-58127386D01*
X150600702Y-58127387D01*
X150545437Y-58345624D01*
X150545436Y-58345630D01*
X150545436Y-58345632D01*
X150526844Y-58570000D01*
X150541759Y-58750000D01*
X150545437Y-58794375D01*
X150600702Y-59012612D01*
X150600703Y-59012613D01*
X150691141Y-59218793D01*
X150814275Y-59407265D01*
X150814279Y-59407270D01*
X150966762Y-59572908D01*
X150997096Y-59596518D01*
X151144424Y-59711189D01*
X151171181Y-59725669D01*
X151177680Y-59729186D01*
X151228071Y-59779200D01*
X151243423Y-59848516D01*
X151218862Y-59915129D01*
X151177680Y-59950813D01*
X151144426Y-59968810D01*
X151144424Y-59968811D01*
X150966762Y-60107091D01*
X150814279Y-60272729D01*
X150814275Y-60272734D01*
X150691141Y-60461206D01*
X150600703Y-60667386D01*
X150600702Y-60667387D01*
X150545437Y-60885624D01*
X150545436Y-60885630D01*
X150545436Y-60885632D01*
X150526844Y-61110000D01*
X150545288Y-61332583D01*
X150545437Y-61334375D01*
X150600702Y-61552612D01*
X150600703Y-61552613D01*
X150600704Y-61552616D01*
X150670097Y-61710817D01*
X150691141Y-61758793D01*
X150814275Y-61947265D01*
X150814279Y-61947270D01*
X150957841Y-62103217D01*
X150989262Y-62166882D01*
X150981276Y-62237428D01*
X150936417Y-62292457D01*
X150909173Y-62306610D01*
X150794039Y-62349553D01*
X150794034Y-62349555D01*
X150677095Y-62437095D01*
X150589555Y-62554034D01*
X150589555Y-62554035D01*
X150538505Y-62690906D01*
X150532000Y-62751402D01*
X150532000Y-63396000D01*
X151264734Y-63396000D01*
X151332855Y-63416002D01*
X151379348Y-63469658D01*
X151389452Y-63539932D01*
X151385630Y-63557498D01*
X151380001Y-63576667D01*
X151380000Y-63576676D01*
X151380000Y-63723323D01*
X151380001Y-63723332D01*
X151385630Y-63742502D01*
X151385630Y-63813498D01*
X151347247Y-63873224D01*
X151282666Y-63902717D01*
X151264734Y-63904000D01*
X150532000Y-63904000D01*
X150532000Y-64548597D01*
X150538505Y-64609093D01*
X150589555Y-64745964D01*
X150589555Y-64745965D01*
X150677095Y-64862904D01*
X150794034Y-64950444D01*
X150909172Y-64993388D01*
X150966008Y-65035935D01*
X150990819Y-65102455D01*
X150975728Y-65171829D01*
X150957841Y-65196782D01*
X150814280Y-65352729D01*
X150814275Y-65352734D01*
X150691141Y-65541206D01*
X150600703Y-65747386D01*
X150600702Y-65747387D01*
X150545437Y-65965624D01*
X150545436Y-65965630D01*
X150545436Y-65965632D01*
X150526844Y-66190000D01*
X150541463Y-66366424D01*
X150545437Y-66414375D01*
X150600702Y-66632612D01*
X150600703Y-66632613D01*
X150600704Y-66632616D01*
X150606827Y-66646575D01*
X150691141Y-66838793D01*
X150814275Y-67027265D01*
X150814279Y-67027270D01*
X150966762Y-67192908D01*
X150968137Y-67193978D01*
X151144424Y-67331189D01*
X151177680Y-67349186D01*
X151228071Y-67399200D01*
X151243423Y-67468516D01*
X151218862Y-67535129D01*
X151177680Y-67570813D01*
X151144426Y-67588810D01*
X151144424Y-67588811D01*
X150966762Y-67727091D01*
X150814279Y-67892729D01*
X150814275Y-67892734D01*
X150691141Y-68081206D01*
X150600703Y-68287386D01*
X150600702Y-68287387D01*
X150545437Y-68505624D01*
X150545436Y-68505630D01*
X150545436Y-68505632D01*
X150526844Y-68730000D01*
X150534619Y-68823834D01*
X150545437Y-68954375D01*
X150600702Y-69172612D01*
X150600703Y-69172613D01*
X150600704Y-69172616D01*
X150648870Y-69282424D01*
X150691141Y-69378793D01*
X150814275Y-69567265D01*
X150814279Y-69567270D01*
X150966762Y-69732908D01*
X150987580Y-69749111D01*
X151144424Y-69871189D01*
X151177680Y-69889186D01*
X151228071Y-69939200D01*
X151243423Y-70008516D01*
X151218862Y-70075129D01*
X151177680Y-70110813D01*
X151144426Y-70128810D01*
X151144424Y-70128811D01*
X150966762Y-70267091D01*
X150814279Y-70432729D01*
X150814275Y-70432734D01*
X150691141Y-70621206D01*
X150600703Y-70827386D01*
X150600702Y-70827387D01*
X150545437Y-71045624D01*
X150545436Y-71045630D01*
X150545436Y-71045632D01*
X150526844Y-71270000D01*
X150544633Y-71484680D01*
X150545437Y-71494375D01*
X150600702Y-71712612D01*
X150600703Y-71712613D01*
X150600704Y-71712616D01*
X150686935Y-71909204D01*
X150691141Y-71918793D01*
X150814275Y-72107265D01*
X150814279Y-72107270D01*
X150966762Y-72272908D01*
X150992638Y-72293048D01*
X151144424Y-72411189D01*
X151177680Y-72429186D01*
X151228071Y-72479200D01*
X151243423Y-72548516D01*
X151218862Y-72615129D01*
X151177680Y-72650813D01*
X151144426Y-72668810D01*
X151144424Y-72668811D01*
X150966762Y-72807091D01*
X150814279Y-72972729D01*
X150814275Y-72972734D01*
X150691141Y-73161206D01*
X150600703Y-73367386D01*
X150600702Y-73367387D01*
X150545437Y-73585624D01*
X150545436Y-73585630D01*
X150545436Y-73585632D01*
X150526844Y-73810000D01*
X150536731Y-73929322D01*
X150545437Y-74034375D01*
X150600702Y-74252612D01*
X150600703Y-74252613D01*
X150600704Y-74252616D01*
X150691140Y-74458791D01*
X150691141Y-74458793D01*
X150814275Y-74647265D01*
X150814279Y-74647270D01*
X150957841Y-74803217D01*
X150989262Y-74866882D01*
X150981276Y-74937428D01*
X150936417Y-74992457D01*
X150909173Y-75006610D01*
X150794039Y-75049553D01*
X150794034Y-75049555D01*
X150701509Y-75118820D01*
X150634989Y-75143631D01*
X150565615Y-75128540D01*
X150515413Y-75078338D01*
X150500000Y-75017952D01*
X150500000Y-75000000D01*
X135500000Y-75000000D01*
X135500000Y-75017952D01*
X135479998Y-75086073D01*
X135426342Y-75132566D01*
X135356068Y-75142670D01*
X135298491Y-75118820D01*
X135205966Y-75049556D01*
X135090826Y-75006611D01*
X135033991Y-74964064D01*
X135009180Y-74897543D01*
X135024272Y-74828169D01*
X135042154Y-74803222D01*
X135185722Y-74647268D01*
X135308860Y-74458791D01*
X135399296Y-74252616D01*
X135454564Y-74034368D01*
X135473156Y-73810000D01*
X135454564Y-73585632D01*
X135399296Y-73367384D01*
X135308860Y-73161209D01*
X135302140Y-73150924D01*
X135185724Y-72972734D01*
X135185720Y-72972729D01*
X135033237Y-72807091D01*
X134951382Y-72743381D01*
X134855576Y-72668811D01*
X134822319Y-72650813D01*
X134771929Y-72600802D01*
X134756576Y-72531485D01*
X134781136Y-72464872D01*
X134822320Y-72429186D01*
X134855576Y-72411189D01*
X135033240Y-72272906D01*
X135185722Y-72107268D01*
X135308860Y-71918791D01*
X135399296Y-71712616D01*
X135454564Y-71494368D01*
X135473156Y-71270000D01*
X135454564Y-71045632D01*
X135443008Y-71000000D01*
X135399297Y-70827387D01*
X135399296Y-70827386D01*
X135399296Y-70827384D01*
X135308860Y-70621209D01*
X135274846Y-70569147D01*
X135185724Y-70432734D01*
X135185720Y-70432729D01*
X135069570Y-70306559D01*
X135033240Y-70267094D01*
X135033239Y-70267093D01*
X135033237Y-70267091D01*
X134900145Y-70163501D01*
X134855576Y-70128811D01*
X134822319Y-70110813D01*
X134771929Y-70060802D01*
X134756576Y-69991485D01*
X134781136Y-69924872D01*
X134822320Y-69889186D01*
X134855576Y-69871189D01*
X135033240Y-69732906D01*
X135185722Y-69567268D01*
X135308860Y-69378791D01*
X135399296Y-69172616D01*
X135454564Y-68954368D01*
X135473156Y-68730000D01*
X135454564Y-68505632D01*
X135399296Y-68287384D01*
X135308860Y-68081209D01*
X135289720Y-68051913D01*
X135185724Y-67892734D01*
X135185720Y-67892729D01*
X135039720Y-67734133D01*
X135033240Y-67727094D01*
X135033239Y-67727093D01*
X135033237Y-67727091D01*
X134906650Y-67628564D01*
X134855576Y-67588811D01*
X134822319Y-67570813D01*
X134771929Y-67520802D01*
X134756576Y-67451485D01*
X134781136Y-67384872D01*
X134822320Y-67349186D01*
X134855576Y-67331189D01*
X135033240Y-67192906D01*
X135185722Y-67027268D01*
X135308860Y-66838791D01*
X135399296Y-66632616D01*
X135454564Y-66414368D01*
X135473156Y-66190000D01*
X135454564Y-65965632D01*
X135437317Y-65897526D01*
X135399297Y-65747387D01*
X135399296Y-65747386D01*
X135399296Y-65747384D01*
X135308860Y-65541209D01*
X135270561Y-65482588D01*
X135185724Y-65352734D01*
X135185714Y-65352722D01*
X135042159Y-65196782D01*
X135010737Y-65133117D01*
X135018723Y-65062571D01*
X135063582Y-65007542D01*
X135090827Y-64993388D01*
X135205965Y-64950444D01*
X135322904Y-64862904D01*
X135410444Y-64745965D01*
X135410444Y-64745964D01*
X135461494Y-64609093D01*
X135467999Y-64548597D01*
X135468000Y-64548585D01*
X135468000Y-63904000D01*
X134735266Y-63904000D01*
X134667145Y-63883998D01*
X134620652Y-63830342D01*
X134610548Y-63760068D01*
X134614370Y-63742502D01*
X134616838Y-63734094D01*
X134620000Y-63723327D01*
X134620000Y-63576673D01*
X134614370Y-63557498D01*
X134614370Y-63486502D01*
X134652753Y-63426776D01*
X134717334Y-63397283D01*
X134735266Y-63396000D01*
X135468000Y-63396000D01*
X135468000Y-62751414D01*
X135467999Y-62751402D01*
X135461494Y-62690906D01*
X135410444Y-62554035D01*
X135410444Y-62554034D01*
X135322904Y-62437095D01*
X135205966Y-62349556D01*
X135090826Y-62306611D01*
X135033991Y-62264064D01*
X135009180Y-62197543D01*
X135024272Y-62128169D01*
X135042154Y-62103222D01*
X135185722Y-61947268D01*
X135308860Y-61758791D01*
X135399296Y-61552616D01*
X135454564Y-61334368D01*
X135473156Y-61110000D01*
X135454564Y-60885632D01*
X135441513Y-60834094D01*
X135399297Y-60667387D01*
X135399296Y-60667386D01*
X135399296Y-60667384D01*
X135308860Y-60461209D01*
X135302140Y-60450924D01*
X135185724Y-60272734D01*
X135185720Y-60272729D01*
X135033237Y-60107091D01*
X134951382Y-60043381D01*
X134855576Y-59968811D01*
X134822319Y-59950813D01*
X134771929Y-59900802D01*
X134756576Y-59831485D01*
X134781136Y-59764872D01*
X134822320Y-59729186D01*
X134828819Y-59725669D01*
X134855576Y-59711189D01*
X135033240Y-59572906D01*
X135185722Y-59407268D01*
X135308860Y-59218791D01*
X135399296Y-59012616D01*
X135454564Y-58794368D01*
X135473156Y-58570000D01*
X135454564Y-58345632D01*
X135413906Y-58185077D01*
X135399297Y-58127387D01*
X135399296Y-58127386D01*
X135399296Y-58127384D01*
X135308860Y-57921209D01*
X135269047Y-57860271D01*
X135185724Y-57732734D01*
X135185720Y-57732729D01*
X135033237Y-57567091D01*
X134951382Y-57503381D01*
X134855576Y-57428811D01*
X134822319Y-57410813D01*
X134771929Y-57360802D01*
X134756576Y-57291485D01*
X134781136Y-57224872D01*
X134822320Y-57189186D01*
X134855576Y-57171189D01*
X135033240Y-57032906D01*
X135185722Y-56867268D01*
X135308860Y-56678791D01*
X135399296Y-56472616D01*
X135454564Y-56254368D01*
X135473156Y-56030000D01*
X135454564Y-55805632D01*
X135399296Y-55587384D01*
X135308860Y-55381209D01*
X135302140Y-55370924D01*
X135185724Y-55192734D01*
X135185720Y-55192729D01*
X135033237Y-55027091D01*
X134951382Y-54963381D01*
X134855576Y-54888811D01*
X134822319Y-54870813D01*
X134771929Y-54820802D01*
X134756576Y-54751485D01*
X134781136Y-54684872D01*
X134822320Y-54649186D01*
X134822324Y-54649184D01*
X134855576Y-54631189D01*
X135033240Y-54492906D01*
X135185722Y-54327268D01*
X135308860Y-54138791D01*
X135399296Y-53932616D01*
X135454564Y-53714368D01*
X135473156Y-53490000D01*
X135454564Y-53265632D01*
X135454562Y-53265624D01*
X135399297Y-53047387D01*
X135399296Y-53047386D01*
X135399296Y-53047384D01*
X135308860Y-52841209D01*
X135211629Y-52692385D01*
X135185724Y-52652734D01*
X135185714Y-52652722D01*
X135042159Y-52496782D01*
X135010737Y-52433117D01*
X135018723Y-52362571D01*
X135063582Y-52307542D01*
X135090827Y-52293388D01*
X135205965Y-52250444D01*
X135322904Y-52162904D01*
X135410444Y-52045965D01*
X135410444Y-52045964D01*
X135461494Y-51909093D01*
X135467999Y-51848597D01*
X135468000Y-51848585D01*
X135468000Y-51250000D01*
X139250000Y-51250000D01*
X139250000Y-58750000D01*
X141750000Y-58750000D01*
X141750000Y-51250000D01*
X139250000Y-51250000D01*
X135468000Y-51250000D01*
X135468000Y-51204000D01*
X134735266Y-51204000D01*
X134667145Y-51183998D01*
X134620652Y-51130342D01*
X134610548Y-51060068D01*
X134614370Y-51042502D01*
X134616838Y-51034094D01*
X134620000Y-51023327D01*
X134620000Y-50876673D01*
X134614370Y-50857498D01*
X134614370Y-50786502D01*
X134652753Y-50726776D01*
X134717334Y-50697283D01*
X134735266Y-50696000D01*
X135468000Y-50696000D01*
X135468000Y-50051414D01*
X135467999Y-50051402D01*
X135461494Y-49990906D01*
X135410444Y-49854035D01*
X135410444Y-49854034D01*
X135322904Y-49737095D01*
X135205966Y-49649556D01*
X135090826Y-49606611D01*
X135033991Y-49564064D01*
X135009180Y-49497543D01*
X135024272Y-49428169D01*
X135042154Y-49403222D01*
X135185722Y-49247268D01*
X135308860Y-49058791D01*
X135399296Y-48852616D01*
X135454564Y-48634368D01*
X135473156Y-48410000D01*
X135454564Y-48185632D01*
X135399296Y-47967384D01*
X135308860Y-47761209D01*
X135297080Y-47743179D01*
X135185724Y-47572734D01*
X135185720Y-47572729D01*
X135033237Y-47407091D01*
X134948768Y-47341346D01*
X134855576Y-47268811D01*
X134822319Y-47250813D01*
X134771929Y-47200802D01*
X134756576Y-47131485D01*
X134781136Y-47064872D01*
X134822320Y-47029186D01*
X134855576Y-47011189D01*
X135033240Y-46872906D01*
X135185722Y-46707268D01*
X135308860Y-46518791D01*
X135399296Y-46312616D01*
X135454564Y-46094368D01*
X135462384Y-46000000D01*
X138861673Y-46000000D01*
X138864352Y-46032337D01*
X138868971Y-46088083D01*
X138872856Y-46179551D01*
X138877996Y-46203398D01*
X138879196Y-46211476D01*
X138880948Y-46232622D01*
X138880949Y-46232624D01*
X138880949Y-46232626D01*
X138903417Y-46321353D01*
X138916236Y-46380833D01*
X138923370Y-46413931D01*
X138923371Y-46413935D01*
X138931234Y-46433505D01*
X138933851Y-46441534D01*
X138938250Y-46458905D01*
X138938252Y-46458910D01*
X138976285Y-46545616D01*
X139012764Y-46636397D01*
X139012771Y-46636411D01*
X139022092Y-46651550D01*
X139026140Y-46659276D01*
X139032015Y-46672667D01*
X139032018Y-46672673D01*
X139085524Y-46754570D01*
X139138475Y-46840568D01*
X139145067Y-46848058D01*
X139155957Y-46862376D01*
X139159685Y-46868082D01*
X139159693Y-46868091D01*
X139216700Y-46930016D01*
X139248122Y-46993680D01*
X139250000Y-47015354D01*
X139250000Y-50000000D01*
X139725175Y-50000000D01*
X139793296Y-50020002D01*
X139808077Y-50031115D01*
X139832279Y-50052261D01*
X139832282Y-50052263D01*
X139888488Y-50085845D01*
X139892312Y-50088321D01*
X139936876Y-50119526D01*
X139943346Y-50124056D01*
X139981863Y-50142016D01*
X139987547Y-50145030D01*
X140024738Y-50167251D01*
X140026752Y-50168454D01*
X140042055Y-50174196D01*
X140084977Y-50190305D01*
X140089454Y-50192186D01*
X140142919Y-50217118D01*
X140142924Y-50217120D01*
X140187163Y-50228973D01*
X140192978Y-50230838D01*
X140238839Y-50248051D01*
X140296780Y-50258565D01*
X140301807Y-50259693D01*
X140355629Y-50274115D01*
X140397615Y-50277788D01*
X140404550Y-50278395D01*
X140410299Y-50279166D01*
X140450464Y-50286455D01*
X140461732Y-50288500D01*
X140461733Y-50288500D01*
X140517298Y-50288500D01*
X140522791Y-50288740D01*
X140542449Y-50290459D01*
X140575000Y-50293307D01*
X140608390Y-50290385D01*
X140628296Y-50288645D01*
X140631508Y-50288500D01*
X140631522Y-50288500D01*
X140686390Y-50283561D01*
X140794371Y-50274115D01*
X140794386Y-50274110D01*
X140794860Y-50274028D01*
X140800181Y-50273321D01*
X140800393Y-50273301D01*
X140800622Y-50273281D01*
X140892038Y-50248051D01*
X140905336Y-50244381D01*
X140929172Y-50237993D01*
X141007076Y-50217120D01*
X141007091Y-50217112D01*
X141013994Y-50214601D01*
X141018772Y-50213074D01*
X141018993Y-50213014D01*
X141114019Y-50167251D01*
X141206654Y-50124056D01*
X141206656Y-50124054D01*
X141211419Y-50121305D01*
X141211497Y-50121440D01*
X141222346Y-50115084D01*
X141223093Y-50114725D01*
X141262843Y-50085845D01*
X141305869Y-50054585D01*
X141351280Y-50022787D01*
X141418554Y-50000099D01*
X141423551Y-50000000D01*
X144575175Y-50000000D01*
X144643296Y-50020002D01*
X144658077Y-50031115D01*
X144682279Y-50052261D01*
X144682282Y-50052263D01*
X144738488Y-50085845D01*
X144742312Y-50088321D01*
X144786876Y-50119526D01*
X144793346Y-50124056D01*
X144831863Y-50142016D01*
X144837547Y-50145030D01*
X144874738Y-50167251D01*
X144876752Y-50168454D01*
X144892055Y-50174196D01*
X144934977Y-50190305D01*
X144939454Y-50192186D01*
X144992919Y-50217118D01*
X144992924Y-50217120D01*
X145037163Y-50228973D01*
X145042978Y-50230838D01*
X145088839Y-50248051D01*
X145146780Y-50258565D01*
X145151807Y-50259693D01*
X145205629Y-50274115D01*
X145247615Y-50277788D01*
X145254550Y-50278395D01*
X145260299Y-50279166D01*
X145300464Y-50286455D01*
X145311732Y-50288500D01*
X145311733Y-50288500D01*
X145367298Y-50288500D01*
X145372791Y-50288740D01*
X145392449Y-50290459D01*
X145425000Y-50293307D01*
X145458390Y-50290385D01*
X145478296Y-50288645D01*
X145481508Y-50288500D01*
X145481522Y-50288500D01*
X145536390Y-50283561D01*
X145644371Y-50274115D01*
X145644386Y-50274110D01*
X145644860Y-50274028D01*
X145650181Y-50273321D01*
X145650393Y-50273301D01*
X145650622Y-50273281D01*
X145742038Y-50248051D01*
X145755336Y-50244381D01*
X145779172Y-50237993D01*
X145857076Y-50217120D01*
X145857091Y-50217112D01*
X145863994Y-50214601D01*
X145868772Y-50213074D01*
X145868993Y-50213014D01*
X145964019Y-50167251D01*
X146056654Y-50124056D01*
X146056656Y-50124054D01*
X146061419Y-50121305D01*
X146061497Y-50121440D01*
X146072346Y-50115084D01*
X146073093Y-50114725D01*
X146112843Y-50085845D01*
X146155869Y-50054585D01*
X146201280Y-50022787D01*
X146268554Y-50000099D01*
X146273551Y-50000000D01*
X146750000Y-50000000D01*
X146750000Y-47022330D01*
X146770002Y-46954209D01*
X146783069Y-46938344D01*
X146782610Y-46937940D01*
X146786133Y-46933935D01*
X146786144Y-46933925D01*
X146810462Y-46901043D01*
X146814766Y-46895835D01*
X146835874Y-46872906D01*
X146840314Y-46868083D01*
X146880763Y-46806168D01*
X146882852Y-46803166D01*
X146918794Y-46754570D01*
X146928715Y-46741157D01*
X146945641Y-46707582D01*
X146949157Y-46701485D01*
X146967981Y-46672673D01*
X146967984Y-46672669D01*
X146999013Y-46601929D01*
X147000453Y-46598871D01*
X147036657Y-46527067D01*
X147046702Y-46494262D01*
X147049245Y-46487412D01*
X147061749Y-46458907D01*
X147081530Y-46380789D01*
X147082347Y-46377869D01*
X147106864Y-46297815D01*
X147110801Y-46267062D01*
X147112220Y-46259598D01*
X147119051Y-46232626D01*
X147126090Y-46147672D01*
X147137318Y-46059995D01*
X147136142Y-46032320D01*
X147136301Y-46024449D01*
X147136541Y-46021545D01*
X147138327Y-46000000D01*
X147131028Y-45911916D01*
X147127143Y-45820449D01*
X147122003Y-45796600D01*
X147120804Y-45788533D01*
X147119051Y-45767374D01*
X147096582Y-45678646D01*
X147076630Y-45586068D01*
X147068762Y-45566491D01*
X147066148Y-45558469D01*
X147061749Y-45541093D01*
X147023714Y-45454383D01*
X146987233Y-45363596D01*
X146977909Y-45348453D01*
X146973855Y-45340716D01*
X146967984Y-45327331D01*
X146914475Y-45245429D01*
X146899560Y-45221206D01*
X146861524Y-45159431D01*
X146854933Y-45151942D01*
X146844038Y-45137617D01*
X146840317Y-45131922D01*
X146840314Y-45131917D01*
X146783298Y-45069982D01*
X146751878Y-45006318D01*
X146751456Y-45001455D01*
X146739965Y-44989964D01*
X146706023Y-44979998D01*
X146686315Y-44963430D01*
X146686056Y-44963713D01*
X146682222Y-44960183D01*
X146600051Y-44896227D01*
X146516580Y-44828827D01*
X146516573Y-44828823D01*
X146513888Y-44827323D01*
X146498933Y-44817409D01*
X146498024Y-44816815D01*
X146498017Y-44816810D01*
X146403653Y-44765743D01*
X146370447Y-44747193D01*
X146307264Y-44711897D01*
X146303468Y-44710181D01*
X146297600Y-44707576D01*
X146297500Y-44707806D01*
X146292735Y-44705716D01*
X146292728Y-44705713D01*
X146292727Y-44705713D01*
X146188259Y-44669848D01*
X146180640Y-44667156D01*
X146081187Y-44632017D01*
X146081183Y-44632016D01*
X146080654Y-44631926D01*
X146075860Y-44630909D01*
X146071955Y-44629920D01*
X145959904Y-44611222D01*
X145844881Y-44591500D01*
X145841712Y-44591500D01*
X145608288Y-44591500D01*
X145551567Y-44600963D01*
X145546543Y-44601595D01*
X145486104Y-44606740D01*
X145486100Y-44606741D01*
X145433773Y-44620366D01*
X145428265Y-44621540D01*
X145378061Y-44629917D01*
X145378048Y-44629920D01*
X145320551Y-44649658D01*
X145315972Y-44651038D01*
X145254072Y-44667157D01*
X145254070Y-44667157D01*
X145207800Y-44688072D01*
X145202307Y-44690251D01*
X145157270Y-44705714D01*
X145100905Y-44736215D01*
X145096872Y-44738214D01*
X145035597Y-44765914D01*
X144996249Y-44792507D01*
X144990954Y-44795719D01*
X144951984Y-44816809D01*
X144951975Y-44816815D01*
X144898813Y-44858193D01*
X144895396Y-44860673D01*
X144836951Y-44900176D01*
X144836948Y-44900178D01*
X144805043Y-44930755D01*
X144800148Y-44934986D01*
X144767780Y-44960181D01*
X144763946Y-44963712D01*
X144762997Y-44962681D01*
X144707695Y-44995911D01*
X144675856Y-45000000D01*
X141324144Y-45000000D01*
X141256023Y-44979998D01*
X141236315Y-44963430D01*
X141236056Y-44963713D01*
X141232222Y-44960183D01*
X141150051Y-44896227D01*
X141066580Y-44828827D01*
X141066573Y-44828823D01*
X141063888Y-44827323D01*
X141048933Y-44817409D01*
X141048024Y-44816815D01*
X141048017Y-44816810D01*
X140953653Y-44765743D01*
X140920447Y-44747193D01*
X140857264Y-44711897D01*
X140853468Y-44710181D01*
X140847600Y-44707576D01*
X140847500Y-44707806D01*
X140842735Y-44705716D01*
X140842728Y-44705713D01*
X140842727Y-44705713D01*
X140738259Y-44669848D01*
X140730640Y-44667156D01*
X140631187Y-44632017D01*
X140631183Y-44632016D01*
X140630654Y-44631926D01*
X140625860Y-44630909D01*
X140621955Y-44629920D01*
X140509904Y-44611222D01*
X140394881Y-44591500D01*
X140391712Y-44591500D01*
X140158288Y-44591500D01*
X140101567Y-44600963D01*
X140096543Y-44601595D01*
X140036104Y-44606740D01*
X140036100Y-44606741D01*
X139983773Y-44620366D01*
X139978265Y-44621540D01*
X139928061Y-44629917D01*
X139928048Y-44629920D01*
X139870551Y-44649658D01*
X139865972Y-44651038D01*
X139804072Y-44667157D01*
X139804070Y-44667157D01*
X139757800Y-44688072D01*
X139752307Y-44690251D01*
X139707270Y-44705714D01*
X139650905Y-44736215D01*
X139646872Y-44738214D01*
X139585597Y-44765914D01*
X139546249Y-44792507D01*
X139540954Y-44795719D01*
X139501984Y-44816809D01*
X139501975Y-44816815D01*
X139448813Y-44858193D01*
X139445396Y-44860673D01*
X139386951Y-44900176D01*
X139386948Y-44900178D01*
X139355043Y-44930755D01*
X139350148Y-44934986D01*
X139317780Y-44960181D01*
X139313946Y-44963712D01*
X139312997Y-44962681D01*
X139257695Y-44995911D01*
X139253556Y-44996442D01*
X139240717Y-45009281D01*
X139229998Y-45045789D01*
X139216939Y-45061650D01*
X139217396Y-45062052D01*
X139213859Y-45066070D01*
X139189536Y-45098954D01*
X139185236Y-45104159D01*
X139159686Y-45131916D01*
X139159682Y-45131922D01*
X139119230Y-45193836D01*
X139117141Y-45196840D01*
X139071286Y-45258840D01*
X139054356Y-45292416D01*
X139050843Y-45298511D01*
X139032021Y-45327321D01*
X139032012Y-45327338D01*
X139000985Y-45398070D01*
X138999547Y-45401124D01*
X138963341Y-45472936D01*
X138953300Y-45505721D01*
X138950755Y-45512580D01*
X138938253Y-45541085D01*
X138938251Y-45541091D01*
X138918479Y-45619169D01*
X138917646Y-45622150D01*
X138893137Y-45702177D01*
X138893136Y-45702185D01*
X138889198Y-45732927D01*
X138887780Y-45740391D01*
X138880950Y-45767365D01*
X138880949Y-45767372D01*
X138873909Y-45852327D01*
X138862681Y-45940010D01*
X138863856Y-45967676D01*
X138863697Y-45975554D01*
X138861673Y-45999997D01*
X138861673Y-46000000D01*
X135462384Y-46000000D01*
X135473156Y-45870000D01*
X135454564Y-45645632D01*
X135419134Y-45505721D01*
X135399297Y-45427387D01*
X135399296Y-45427386D01*
X135399296Y-45427384D01*
X135308860Y-45221209D01*
X135268500Y-45159433D01*
X135185724Y-45032734D01*
X135185720Y-45032729D01*
X135063694Y-44900176D01*
X135033240Y-44867094D01*
X135033239Y-44867093D01*
X135033237Y-44867091D01*
X134941538Y-44795719D01*
X134855576Y-44728811D01*
X134657574Y-44621658D01*
X134657572Y-44621657D01*
X134657571Y-44621656D01*
X134444639Y-44548557D01*
X134444630Y-44548555D01*
X134400476Y-44541187D01*
X134222569Y-44511500D01*
X133997431Y-44511500D01*
X133849211Y-44536233D01*
X133775369Y-44548555D01*
X133775360Y-44548557D01*
X133562428Y-44621656D01*
X133562426Y-44621658D01*
X133395679Y-44711897D01*
X133364426Y-44728810D01*
X133364424Y-44728811D01*
X133186762Y-44867091D01*
X133034279Y-45032729D01*
X133034275Y-45032734D01*
X132911141Y-45221206D01*
X132820703Y-45427386D01*
X132820702Y-45427387D01*
X132765437Y-45645624D01*
X132765436Y-45645630D01*
X132765436Y-45645632D01*
X132746844Y-45870000D01*
X132764915Y-46088083D01*
X132765437Y-46094375D01*
X132820702Y-46312612D01*
X132820703Y-46312613D01*
X132820704Y-46312616D01*
X132875452Y-46437429D01*
X132911141Y-46518793D01*
X133034275Y-46707265D01*
X133034279Y-46707270D01*
X133121412Y-46801920D01*
X133182327Y-46868091D01*
X133186762Y-46872908D01*
X133222915Y-46901047D01*
X133364424Y-47011189D01*
X133397680Y-47029186D01*
X133448071Y-47079200D01*
X133463423Y-47148516D01*
X133438862Y-47215129D01*
X133397680Y-47250813D01*
X133364426Y-47268810D01*
X133364424Y-47268811D01*
X133186762Y-47407091D01*
X133034279Y-47572729D01*
X133034275Y-47572734D01*
X132911141Y-47761206D01*
X132820703Y-47967386D01*
X132820702Y-47967387D01*
X132765437Y-48185624D01*
X132746844Y-48410000D01*
X132765437Y-48634375D01*
X132820702Y-48852612D01*
X132820703Y-48852613D01*
X132820704Y-48852616D01*
X132911140Y-49058791D01*
X132911141Y-49058793D01*
X133034275Y-49247265D01*
X133034279Y-49247270D01*
X133177841Y-49403217D01*
X133209262Y-49466882D01*
X133201276Y-49537428D01*
X133156417Y-49592457D01*
X133129173Y-49606610D01*
X133014039Y-49649553D01*
X133014034Y-49649555D01*
X132897095Y-49737095D01*
X132809555Y-49854034D01*
X132809555Y-49854035D01*
X132758505Y-49990906D01*
X132752000Y-50051402D01*
X132752000Y-50696000D01*
X133484734Y-50696000D01*
X133552855Y-50716002D01*
X133599348Y-50769658D01*
X133609452Y-50839932D01*
X133605630Y-50857498D01*
X133600001Y-50876667D01*
X133600000Y-50876676D01*
X133600000Y-51023323D01*
X133600001Y-51023332D01*
X133605630Y-51042502D01*
X133605630Y-51113498D01*
X133567247Y-51173224D01*
X133502666Y-51202717D01*
X133484734Y-51204000D01*
X132752000Y-51204000D01*
X132752000Y-51848597D01*
X132758505Y-51909093D01*
X132809555Y-52045964D01*
X132809555Y-52045965D01*
X132897095Y-52162904D01*
X133014034Y-52250444D01*
X133129172Y-52293388D01*
X133186008Y-52335935D01*
X133210819Y-52402455D01*
X133195728Y-52471829D01*
X133177841Y-52496782D01*
X133034280Y-52652729D01*
X133034275Y-52652734D01*
X132911141Y-52841206D01*
X132820703Y-53047386D01*
X132820702Y-53047387D01*
X132765437Y-53265624D01*
X132765436Y-53265630D01*
X132765436Y-53265632D01*
X132746844Y-53490000D01*
X132749398Y-53520827D01*
X132765437Y-53714375D01*
X132820702Y-53932612D01*
X132820703Y-53932613D01*
X132911141Y-54138793D01*
X133034275Y-54327265D01*
X133034279Y-54327270D01*
X133186762Y-54492908D01*
X133241331Y-54535381D01*
X133364424Y-54631189D01*
X133397676Y-54649184D01*
X133397680Y-54649186D01*
X133448071Y-54699200D01*
X133463423Y-54768516D01*
X133438862Y-54835129D01*
X133397680Y-54870813D01*
X133364426Y-54888810D01*
X133364424Y-54888811D01*
X133186762Y-55027091D01*
X133034279Y-55192729D01*
X133034275Y-55192734D01*
X132911141Y-55381206D01*
X132820703Y-55587386D01*
X132820702Y-55587387D01*
X132765437Y-55805624D01*
X132765436Y-55805630D01*
X132765436Y-55805632D01*
X132746844Y-56030000D01*
X132765316Y-56252923D01*
X132765437Y-56254375D01*
X132820702Y-56472612D01*
X132820703Y-56472613D01*
X132820704Y-56472616D01*
X132890322Y-56631330D01*
X132911141Y-56678793D01*
X133034275Y-56867265D01*
X133034279Y-56867270D01*
X133186762Y-57032908D01*
X133198726Y-57042220D01*
X133364424Y-57171189D01*
X133397680Y-57189186D01*
X133448071Y-57239200D01*
X133463423Y-57308516D01*
X133438862Y-57375129D01*
X133397680Y-57410813D01*
X133364426Y-57428810D01*
X133364424Y-57428811D01*
X133186762Y-57567091D01*
X133034279Y-57732729D01*
X133034275Y-57732734D01*
X132911141Y-57921206D01*
X132820703Y-58127386D01*
X132820702Y-58127387D01*
X132765437Y-58345624D01*
X132765436Y-58345630D01*
X132765436Y-58345632D01*
X132746844Y-58570000D01*
X132761759Y-58750000D01*
X132765437Y-58794375D01*
X132820702Y-59012612D01*
X132820703Y-59012613D01*
X132911141Y-59218793D01*
X133034275Y-59407265D01*
X133034279Y-59407270D01*
X133186762Y-59572908D01*
X133217096Y-59596518D01*
X133364424Y-59711189D01*
X133391181Y-59725669D01*
X133397680Y-59729186D01*
X133448071Y-59779200D01*
X133463423Y-59848516D01*
X133438862Y-59915129D01*
X133397680Y-59950813D01*
X133364426Y-59968810D01*
X133364424Y-59968811D01*
X133186762Y-60107091D01*
X133034279Y-60272729D01*
X133034275Y-60272734D01*
X132911141Y-60461206D01*
X132820703Y-60667386D01*
X132820702Y-60667387D01*
X132765437Y-60885624D01*
X132765436Y-60885630D01*
X132765436Y-60885632D01*
X132746844Y-61110000D01*
X132765288Y-61332583D01*
X132765437Y-61334375D01*
X132820702Y-61552612D01*
X132820703Y-61552613D01*
X132820704Y-61552616D01*
X132890097Y-61710817D01*
X132911141Y-61758793D01*
X133034275Y-61947265D01*
X133034279Y-61947270D01*
X133177841Y-62103217D01*
X133209262Y-62166882D01*
X133201276Y-62237428D01*
X133156417Y-62292457D01*
X133129173Y-62306610D01*
X133014039Y-62349553D01*
X133014034Y-62349555D01*
X132897095Y-62437095D01*
X132809555Y-62554034D01*
X132809555Y-62554035D01*
X132758505Y-62690906D01*
X132752000Y-62751402D01*
X132752000Y-63396000D01*
X133484734Y-63396000D01*
X133552855Y-63416002D01*
X133599348Y-63469658D01*
X133609452Y-63539932D01*
X133605630Y-63557498D01*
X133600001Y-63576667D01*
X133600000Y-63576676D01*
X133600000Y-63723323D01*
X133600001Y-63723332D01*
X133605630Y-63742502D01*
X133605630Y-63813498D01*
X133567247Y-63873224D01*
X133502666Y-63902717D01*
X133484734Y-63904000D01*
X132752000Y-63904000D01*
X132752000Y-64548597D01*
X132758505Y-64609093D01*
X132809555Y-64745964D01*
X132809555Y-64745965D01*
X132897095Y-64862904D01*
X133014034Y-64950444D01*
X133129172Y-64993388D01*
X133186008Y-65035935D01*
X133210819Y-65102455D01*
X133195728Y-65171829D01*
X133177841Y-65196782D01*
X133034280Y-65352729D01*
X133034275Y-65352734D01*
X132911141Y-65541206D01*
X132820703Y-65747386D01*
X132820702Y-65747387D01*
X132765437Y-65965624D01*
X132765436Y-65965630D01*
X132765436Y-65965632D01*
X132746844Y-66190000D01*
X132761463Y-66366424D01*
X132765437Y-66414375D01*
X132820702Y-66632612D01*
X132820703Y-66632613D01*
X132820704Y-66632616D01*
X132826827Y-66646575D01*
X132911141Y-66838793D01*
X133034275Y-67027265D01*
X133034279Y-67027270D01*
X133186762Y-67192908D01*
X133188137Y-67193978D01*
X133364424Y-67331189D01*
X133397680Y-67349186D01*
X133448071Y-67399200D01*
X133463423Y-67468516D01*
X133438862Y-67535129D01*
X133397680Y-67570813D01*
X133364426Y-67588810D01*
X133364424Y-67588811D01*
X133186762Y-67727091D01*
X133034279Y-67892729D01*
X133034275Y-67892734D01*
X132911141Y-68081206D01*
X132820703Y-68287386D01*
X132820702Y-68287387D01*
X132765437Y-68505624D01*
X132765436Y-68505630D01*
X132765436Y-68505632D01*
X132746844Y-68730000D01*
X132754619Y-68823834D01*
X132765437Y-68954375D01*
X132820702Y-69172612D01*
X132820703Y-69172613D01*
X132820704Y-69172616D01*
X132868870Y-69282424D01*
X132911141Y-69378793D01*
X133034275Y-69567265D01*
X133034279Y-69567270D01*
X133186762Y-69732908D01*
X133207580Y-69749111D01*
X133364424Y-69871189D01*
X133397680Y-69889186D01*
X133448071Y-69939200D01*
X133463423Y-70008516D01*
X133438862Y-70075129D01*
X133397680Y-70110813D01*
X133364426Y-70128810D01*
X133364424Y-70128811D01*
X133186762Y-70267091D01*
X133034279Y-70432729D01*
X133034275Y-70432734D01*
X132911141Y-70621206D01*
X132820703Y-70827386D01*
X132820702Y-70827387D01*
X132765437Y-71045624D01*
X132765436Y-71045630D01*
X132765436Y-71045632D01*
X132746844Y-71270000D01*
X132764633Y-71484680D01*
X132765437Y-71494375D01*
X132820702Y-71712612D01*
X132820703Y-71712613D01*
X132820704Y-71712616D01*
X132906935Y-71909204D01*
X132911141Y-71918793D01*
X133034275Y-72107265D01*
X133034279Y-72107270D01*
X133186762Y-72272908D01*
X133212638Y-72293048D01*
X133364424Y-72411189D01*
X133397680Y-72429186D01*
X133448071Y-72479200D01*
X133463423Y-72548516D01*
X133438862Y-72615129D01*
X133397680Y-72650813D01*
X133364426Y-72668810D01*
X133364424Y-72668811D01*
X133186762Y-72807091D01*
X133034279Y-72972729D01*
X133034275Y-72972734D01*
X132911141Y-73161206D01*
X132820703Y-73367386D01*
X132820702Y-73367387D01*
X132765437Y-73585624D01*
X132765436Y-73585630D01*
X132765436Y-73585632D01*
X132746844Y-73810000D01*
X132756731Y-73929322D01*
X132765437Y-74034375D01*
X132820702Y-74252612D01*
X132820703Y-74252613D01*
X132820704Y-74252616D01*
X132911140Y-74458791D01*
X132911141Y-74458793D01*
X133034275Y-74647265D01*
X133034279Y-74647270D01*
X133177841Y-74803217D01*
X133209262Y-74866882D01*
X133201276Y-74937428D01*
X133156417Y-74992457D01*
X133129173Y-75006610D01*
X133014039Y-75049553D01*
X133014034Y-75049555D01*
X132897095Y-75137095D01*
X132809555Y-75254034D01*
X132809555Y-75254035D01*
X132758505Y-75390906D01*
X132752000Y-75451402D01*
X132752000Y-76096000D01*
X133484734Y-76096000D01*
X133552855Y-76116002D01*
X133599348Y-76169658D01*
X133609452Y-76239932D01*
X133605630Y-76257498D01*
X133600001Y-76276667D01*
X133600000Y-76276676D01*
X133600000Y-76423323D01*
X133600001Y-76423332D01*
X133605630Y-76442502D01*
X133605630Y-76513498D01*
X133567247Y-76573224D01*
X133502666Y-76602717D01*
X133484734Y-76604000D01*
X132752000Y-76604000D01*
X132752000Y-77248597D01*
X132758505Y-77309093D01*
X132809555Y-77445964D01*
X132809555Y-77445965D01*
X132897095Y-77562904D01*
X133014034Y-77650444D01*
X133129172Y-77693388D01*
X133186008Y-77735935D01*
X133210819Y-77802455D01*
X133195728Y-77871829D01*
X133177841Y-77896782D01*
X133034280Y-78052729D01*
X133034275Y-78052734D01*
X132911141Y-78241206D01*
X132820703Y-78447386D01*
X132820702Y-78447387D01*
X132765437Y-78665624D01*
X132746844Y-78889999D01*
X132765437Y-79114375D01*
X132820702Y-79332612D01*
X132820703Y-79332613D01*
X132820704Y-79332616D01*
X132856319Y-79413810D01*
X132911141Y-79538793D01*
X133034275Y-79727265D01*
X133034279Y-79727270D01*
X133186762Y-79892908D01*
X133241331Y-79935381D01*
X133364424Y-80031189D01*
X133397680Y-80049186D01*
X133448071Y-80099200D01*
X133463423Y-80168516D01*
X133438862Y-80235129D01*
X133397680Y-80270813D01*
X133364426Y-80288810D01*
X133364424Y-80288811D01*
X133186762Y-80427091D01*
X133034279Y-80592729D01*
X133034275Y-80592734D01*
X132911141Y-80781206D01*
X132820703Y-80987386D01*
X132820702Y-80987387D01*
X132765437Y-81205624D01*
X132765436Y-81205630D01*
X132765436Y-81205632D01*
X132748737Y-81407158D01*
X132746844Y-81430000D01*
X132765437Y-81654375D01*
X132820702Y-81872612D01*
X132820703Y-81872613D01*
X132820704Y-81872616D01*
X132882041Y-82012452D01*
X132911141Y-82078793D01*
X133034275Y-82267265D01*
X133034279Y-82267270D01*
X133186762Y-82432908D01*
X133210323Y-82451246D01*
X133364424Y-82571189D01*
X133397680Y-82589186D01*
X133448070Y-82639196D01*
X133463423Y-82708513D01*
X133438864Y-82775126D01*
X133397683Y-82810811D01*
X133364430Y-82828807D01*
X133364424Y-82828811D01*
X133186762Y-82967091D01*
X133034279Y-83132729D01*
X133034275Y-83132734D01*
X132911141Y-83321206D01*
X132820703Y-83527386D01*
X132820702Y-83527387D01*
X132765437Y-83745624D01*
X132746844Y-83969999D01*
X132765437Y-84194375D01*
X132820702Y-84412612D01*
X132820703Y-84412613D01*
X132820704Y-84412616D01*
X132911140Y-84618791D01*
X132911141Y-84618793D01*
X133034275Y-84807265D01*
X133034279Y-84807270D01*
X133186762Y-84972908D01*
X133241331Y-85015381D01*
X133364424Y-85111189D01*
X133397680Y-85129186D01*
X133448071Y-85179200D01*
X133463423Y-85248516D01*
X133438862Y-85315129D01*
X133397680Y-85350813D01*
X133364426Y-85368810D01*
X133364424Y-85368811D01*
X133186762Y-85507091D01*
X133034279Y-85672729D01*
X133034275Y-85672734D01*
X132911141Y-85861206D01*
X132820703Y-86067386D01*
X132820702Y-86067387D01*
X132765437Y-86285624D01*
X132765436Y-86285630D01*
X132765436Y-86285632D01*
X132746844Y-86510000D01*
X132761736Y-86689720D01*
X132765437Y-86734375D01*
X132820702Y-86952612D01*
X132820703Y-86952613D01*
X132820704Y-86952616D01*
X132911140Y-87158791D01*
X132911141Y-87158793D01*
X133034275Y-87347265D01*
X133034279Y-87347270D01*
X133128582Y-87449708D01*
X133144902Y-87467437D01*
X133177841Y-87503217D01*
X133209262Y-87566882D01*
X133201276Y-87637428D01*
X133156417Y-87692457D01*
X133129173Y-87706610D01*
X133014039Y-87749553D01*
X133014034Y-87749555D01*
X132897095Y-87837095D01*
X132809555Y-87954034D01*
X132809555Y-87954035D01*
X132758505Y-88090906D01*
X132752000Y-88151402D01*
X132752000Y-88796000D01*
X133484734Y-88796000D01*
X133552855Y-88816002D01*
X133599348Y-88869658D01*
X133609452Y-88939932D01*
X133605630Y-88957498D01*
X133600001Y-88976667D01*
X133600000Y-88976676D01*
X133600000Y-89123323D01*
X133600001Y-89123332D01*
X133605630Y-89142502D01*
X133605630Y-89213498D01*
X133567247Y-89273224D01*
X133502666Y-89302717D01*
X133484734Y-89304000D01*
X132752000Y-89304000D01*
X132752000Y-89948597D01*
X132758505Y-90009093D01*
X132809555Y-90145964D01*
X132809555Y-90145965D01*
X132897095Y-90262904D01*
X133014034Y-90350444D01*
X133129172Y-90393388D01*
X133186008Y-90435935D01*
X133210819Y-90502455D01*
X133195728Y-90571829D01*
X133177841Y-90596782D01*
X133034280Y-90752729D01*
X133034275Y-90752734D01*
X132911141Y-90941206D01*
X132820703Y-91147386D01*
X132820702Y-91147387D01*
X132765437Y-91365624D01*
X132765436Y-91365630D01*
X132765436Y-91365632D01*
X132746844Y-91590000D01*
X132761203Y-91763289D01*
X132765437Y-91814375D01*
X132820702Y-92032612D01*
X132820703Y-92032613D01*
X132820704Y-92032616D01*
X132910227Y-92236710D01*
X132911141Y-92238793D01*
X133034275Y-92427265D01*
X133034279Y-92427270D01*
X133186762Y-92592908D01*
X133237328Y-92632265D01*
X133364424Y-92731189D01*
X133397680Y-92749186D01*
X133448071Y-92799200D01*
X133463423Y-92868516D01*
X133438862Y-92935129D01*
X133397680Y-92970813D01*
X133364426Y-92988810D01*
X133364424Y-92988811D01*
X133186762Y-93127091D01*
X133034279Y-93292729D01*
X133034275Y-93292734D01*
X132911141Y-93481206D01*
X132820703Y-93687386D01*
X132820702Y-93687387D01*
X132765437Y-93905624D01*
X132746844Y-94129999D01*
X127076169Y-94129999D01*
X127074564Y-94110632D01*
X127019296Y-93892384D01*
X126928860Y-93686209D01*
X126878992Y-93609880D01*
X126805724Y-93497734D01*
X126805720Y-93497729D01*
X126670224Y-93350543D01*
X126653240Y-93332094D01*
X126653239Y-93332093D01*
X126653237Y-93332091D01*
X126539173Y-93243311D01*
X126475576Y-93193811D01*
X126475569Y-93193807D01*
X126442318Y-93175812D01*
X126391928Y-93125798D01*
X126376576Y-93056481D01*
X126401137Y-92989869D01*
X126442315Y-92954188D01*
X126475576Y-92936189D01*
X126653240Y-92797906D01*
X126805722Y-92632268D01*
X126928860Y-92443791D01*
X127019296Y-92237616D01*
X127074564Y-92019368D01*
X127093156Y-91795000D01*
X127074564Y-91570632D01*
X127019296Y-91352384D01*
X126928860Y-91146209D01*
X126905584Y-91110582D01*
X126805724Y-90957734D01*
X126805720Y-90957729D01*
X126653237Y-90792091D01*
X126571382Y-90728381D01*
X126475576Y-90653811D01*
X126471784Y-90651759D01*
X126442320Y-90635814D01*
X126391929Y-90585802D01*
X126376576Y-90516485D01*
X126401136Y-90449872D01*
X126442320Y-90414186D01*
X126454597Y-90407542D01*
X126475576Y-90396189D01*
X126653240Y-90257906D01*
X126805722Y-90092268D01*
X126928860Y-89903791D01*
X127019296Y-89697616D01*
X127074564Y-89479368D01*
X127093156Y-89255000D01*
X127074564Y-89030632D01*
X127062533Y-88983124D01*
X127019297Y-88812387D01*
X127019296Y-88812386D01*
X127019296Y-88812384D01*
X126928860Y-88606209D01*
X126855576Y-88494039D01*
X126805724Y-88417734D01*
X126805720Y-88417729D01*
X126653237Y-88252091D01*
X126571382Y-88188381D01*
X126475576Y-88113811D01*
X126441792Y-88095528D01*
X126391402Y-88045516D01*
X126376050Y-87976199D01*
X126400610Y-87909586D01*
X126441793Y-87873901D01*
X126475300Y-87855767D01*
X126475301Y-87855767D01*
X126652902Y-87717534D01*
X126805325Y-87551958D01*
X126928419Y-87363548D01*
X127018820Y-87157456D01*
X127018823Y-87157449D01*
X127066544Y-86969000D01*
X126344844Y-86969000D01*
X126276723Y-86948998D01*
X126230230Y-86895342D01*
X126220126Y-86825068D01*
X126223947Y-86807504D01*
X126230000Y-86786888D01*
X126230000Y-86643111D01*
X126223947Y-86622496D01*
X126223948Y-86551500D01*
X126262333Y-86491774D01*
X126326914Y-86462282D01*
X126344844Y-86461000D01*
X127066544Y-86461000D01*
X127066544Y-86460999D01*
X127018823Y-86272550D01*
X127018820Y-86272543D01*
X126928419Y-86066451D01*
X126805325Y-85878041D01*
X126662018Y-85722367D01*
X126630598Y-85658702D01*
X126638585Y-85588156D01*
X126683444Y-85533127D01*
X126710679Y-85518977D01*
X126826204Y-85475889D01*
X126943261Y-85388261D01*
X127008732Y-85300802D01*
X127030887Y-85271207D01*
X127030887Y-85271206D01*
X127030889Y-85271204D01*
X127081989Y-85134201D01*
X127082529Y-85129186D01*
X127088499Y-85073649D01*
X127088500Y-85073632D01*
X127088500Y-83276367D01*
X127088499Y-83276350D01*
X127081990Y-83215803D01*
X127081988Y-83215795D01*
X127030889Y-83078797D01*
X127030887Y-83078792D01*
X126943261Y-82961738D01*
X126826207Y-82874112D01*
X126826202Y-82874110D01*
X126689204Y-82823011D01*
X126689196Y-82823009D01*
X126628649Y-82816500D01*
X126628638Y-82816500D01*
X124831362Y-82816500D01*
X124831350Y-82816500D01*
X124770803Y-82823009D01*
X124770795Y-82823011D01*
X124633797Y-82874110D01*
X124633792Y-82874112D01*
X124516738Y-82961738D01*
X124429112Y-83078792D01*
X124429110Y-83078797D01*
X124378011Y-83215795D01*
X124378009Y-83215803D01*
X124371500Y-83276350D01*
X124371500Y-85073649D01*
X124378009Y-85134196D01*
X124378011Y-85134204D01*
X124429110Y-85271202D01*
X124429112Y-85271207D01*
X124516738Y-85388261D01*
X124633792Y-85475887D01*
X124633796Y-85475889D01*
X124749312Y-85518975D01*
X124806148Y-85561522D01*
X124830958Y-85628042D01*
X124815866Y-85697416D01*
X124797981Y-85722367D01*
X124654674Y-85878041D01*
X124531580Y-86066451D01*
X124441179Y-86272543D01*
X124441176Y-86272550D01*
X124393455Y-86460999D01*
X124393456Y-86461000D01*
X125115156Y-86461000D01*
X125183277Y-86481002D01*
X125229770Y-86534658D01*
X125239874Y-86604932D01*
X125236053Y-86622496D01*
X125230000Y-86643111D01*
X125230000Y-86786888D01*
X125236053Y-86807504D01*
X125236052Y-86878500D01*
X125197667Y-86938226D01*
X125133086Y-86967718D01*
X125115156Y-86969000D01*
X124393455Y-86969000D01*
X124441176Y-87157449D01*
X124441179Y-87157456D01*
X124531580Y-87363548D01*
X124654674Y-87551958D01*
X124807097Y-87717534D01*
X124984698Y-87855767D01*
X124984704Y-87855771D01*
X125018207Y-87873902D01*
X125068597Y-87923915D01*
X125083949Y-87993232D01*
X125059388Y-88059845D01*
X125018207Y-88095528D01*
X124984430Y-88113807D01*
X124984424Y-88113811D01*
X124806762Y-88252091D01*
X124654279Y-88417729D01*
X124654275Y-88417734D01*
X124531141Y-88606206D01*
X124440703Y-88812386D01*
X124440702Y-88812387D01*
X124385437Y-89030624D01*
X124385436Y-89030630D01*
X124385436Y-89030632D01*
X124366844Y-89255000D01*
X124377816Y-89387413D01*
X124385437Y-89479375D01*
X124440702Y-89697612D01*
X124440703Y-89697613D01*
X124531141Y-89903793D01*
X124654275Y-90092265D01*
X124654279Y-90092270D01*
X124806762Y-90257908D01*
X124836661Y-90281179D01*
X124984424Y-90396189D01*
X125017680Y-90414186D01*
X125068071Y-90464200D01*
X125083423Y-90533516D01*
X125058862Y-90600129D01*
X125017680Y-90635813D01*
X124984426Y-90653810D01*
X124984424Y-90653811D01*
X124806762Y-90792091D01*
X124654279Y-90957729D01*
X124654275Y-90957734D01*
X124531141Y-91146206D01*
X124440703Y-91352386D01*
X124440702Y-91352387D01*
X124385437Y-91570624D01*
X124385436Y-91570630D01*
X124385436Y-91570632D01*
X124366844Y-91795000D01*
X124368449Y-91814375D01*
X124385437Y-92019375D01*
X124440702Y-92237612D01*
X124440703Y-92237613D01*
X124440704Y-92237616D01*
X124523893Y-92427270D01*
X124531141Y-92443793D01*
X124654275Y-92632265D01*
X124654279Y-92632270D01*
X124806762Y-92797908D01*
X124858712Y-92838342D01*
X124984424Y-92936189D01*
X125017674Y-92954183D01*
X125017680Y-92954186D01*
X125068071Y-93004200D01*
X125083423Y-93073516D01*
X125058862Y-93140129D01*
X125017680Y-93175813D01*
X124984426Y-93193810D01*
X124984424Y-93193811D01*
X124806762Y-93332091D01*
X124654279Y-93497729D01*
X124654275Y-93497734D01*
X124531141Y-93686206D01*
X124440703Y-93892386D01*
X124440702Y-93892387D01*
X124385437Y-94110624D01*
X124385436Y-94110630D01*
X124385436Y-94110632D01*
X124366844Y-94335000D01*
X108000500Y-94335000D01*
X108000500Y-92000000D01*
X118486835Y-92000000D01*
X118505465Y-92236711D01*
X118509724Y-92254452D01*
X118560894Y-92467592D01*
X118633483Y-92642837D01*
X118651760Y-92686963D01*
X118775380Y-92888692D01*
X118775825Y-92889417D01*
X118775826Y-92889419D01*
X118930030Y-93069969D01*
X119075031Y-93193811D01*
X119110584Y-93224176D01*
X119313037Y-93348240D01*
X119532406Y-93439105D01*
X119763289Y-93494535D01*
X120000000Y-93513165D01*
X120236711Y-93494535D01*
X120467594Y-93439105D01*
X120686963Y-93348240D01*
X120889416Y-93224176D01*
X121069969Y-93069969D01*
X121224176Y-92889416D01*
X121348240Y-92686963D01*
X121439105Y-92467594D01*
X121494535Y-92236711D01*
X121513165Y-92000000D01*
X121494535Y-91763289D01*
X121439105Y-91532406D01*
X121348240Y-91313037D01*
X121224176Y-91110584D01*
X121214034Y-91098709D01*
X121069969Y-90930030D01*
X120889419Y-90775826D01*
X120889417Y-90775825D01*
X120889416Y-90775824D01*
X120686963Y-90651760D01*
X120577237Y-90606310D01*
X120467592Y-90560894D01*
X120309651Y-90522976D01*
X120236711Y-90505465D01*
X120000000Y-90486835D01*
X119763289Y-90505465D01*
X119532407Y-90560894D01*
X119313038Y-90651759D01*
X119110582Y-90775825D01*
X119110580Y-90775826D01*
X118930030Y-90930030D01*
X118775826Y-91110580D01*
X118775825Y-91110582D01*
X118651759Y-91313038D01*
X118560894Y-91532407D01*
X118509256Y-91747500D01*
X118505465Y-91763289D01*
X118486835Y-92000000D01*
X108000500Y-92000000D01*
X108000500Y-87000000D01*
X114787337Y-87000000D01*
X114805960Y-87236632D01*
X114861371Y-87467437D01*
X114952206Y-87686733D01*
X115066897Y-87873891D01*
X115596483Y-87344304D01*
X115658796Y-87310279D01*
X115729611Y-87315343D01*
X115786447Y-87357890D01*
X115791964Y-87365885D01*
X115814599Y-87401552D01*
X115814605Y-87401560D01*
X115929714Y-87509653D01*
X115936130Y-87514315D01*
X115934380Y-87516722D01*
X115974564Y-87557128D01*
X115989464Y-87626543D01*
X115964470Y-87692995D01*
X115952905Y-87706303D01*
X115426107Y-88233100D01*
X115426107Y-88233102D01*
X115613261Y-88347791D01*
X115832562Y-88438628D01*
X116063367Y-88494039D01*
X116300000Y-88512662D01*
X116536632Y-88494039D01*
X116767437Y-88438628D01*
X116986738Y-88347791D01*
X117173891Y-88233102D01*
X117173892Y-88233101D01*
X116643716Y-87702925D01*
X116609690Y-87640613D01*
X116614755Y-87569798D01*
X116657302Y-87512962D01*
X116658679Y-87511945D01*
X116731242Y-87459226D01*
X116818274Y-87354021D01*
X116877106Y-87314285D01*
X116948084Y-87312662D01*
X117004454Y-87345243D01*
X117533102Y-87873892D01*
X117533102Y-87873891D01*
X117647791Y-87686738D01*
X117738628Y-87467437D01*
X117794039Y-87236632D01*
X117812662Y-87000000D01*
X117794039Y-86763367D01*
X117738628Y-86532562D01*
X117647791Y-86313261D01*
X117533102Y-86126107D01*
X117533100Y-86126107D01*
X117003514Y-86655694D01*
X116941202Y-86689720D01*
X116870387Y-86684655D01*
X116813551Y-86642108D01*
X116808039Y-86634122D01*
X116785398Y-86598444D01*
X116785394Y-86598439D01*
X116670285Y-86490346D01*
X116663870Y-86485685D01*
X116665614Y-86483284D01*
X116625411Y-86442826D01*
X116610538Y-86373405D01*
X116635558Y-86306963D01*
X116647093Y-86293694D01*
X117173891Y-85766897D01*
X116986733Y-85652206D01*
X116767437Y-85561371D01*
X116536632Y-85505960D01*
X116300000Y-85487337D01*
X116063367Y-85505960D01*
X115832562Y-85561371D01*
X115613262Y-85652208D01*
X115426107Y-85766896D01*
X115426107Y-85766897D01*
X115956284Y-86297073D01*
X115990309Y-86359386D01*
X115985245Y-86430201D01*
X115942698Y-86487037D01*
X115941250Y-86488105D01*
X115868758Y-86540773D01*
X115868754Y-86540776D01*
X115781725Y-86645977D01*
X115722892Y-86685715D01*
X115651914Y-86687336D01*
X115595545Y-86654756D01*
X115066897Y-86126107D01*
X115066896Y-86126107D01*
X114952208Y-86313262D01*
X114861371Y-86532562D01*
X114805960Y-86763367D01*
X114787337Y-87000000D01*
X108000500Y-87000000D01*
X108000500Y-82000000D01*
X118486835Y-82000000D01*
X118495825Y-82114232D01*
X118505465Y-82236710D01*
X118560894Y-82467592D01*
X118624304Y-82620677D01*
X118651760Y-82686963D01*
X118766444Y-82874110D01*
X118775825Y-82889417D01*
X118775826Y-82889419D01*
X118930030Y-83069969D01*
X119100780Y-83215803D01*
X119110584Y-83224176D01*
X119313037Y-83348240D01*
X119532406Y-83439105D01*
X119763289Y-83494535D01*
X120000000Y-83513165D01*
X120236711Y-83494535D01*
X120467594Y-83439105D01*
X120686963Y-83348240D01*
X120889416Y-83224176D01*
X121069969Y-83069969D01*
X121224176Y-82889416D01*
X121348240Y-82686963D01*
X121439105Y-82467594D01*
X121494535Y-82236711D01*
X121513165Y-82000000D01*
X121494535Y-81763289D01*
X121439105Y-81532406D01*
X121348240Y-81313037D01*
X121224176Y-81110584D01*
X121217545Y-81102820D01*
X121069969Y-80930030D01*
X120889419Y-80775826D01*
X120889417Y-80775825D01*
X120889416Y-80775824D01*
X120686963Y-80651760D01*
X120549611Y-80594867D01*
X120467592Y-80560894D01*
X120309651Y-80522976D01*
X120236711Y-80505465D01*
X120000000Y-80486835D01*
X119763289Y-80505465D01*
X119532407Y-80560894D01*
X119313038Y-80651759D01*
X119110582Y-80775825D01*
X119110580Y-80775826D01*
X118930030Y-80930030D01*
X118775826Y-81110580D01*
X118775825Y-81110582D01*
X118651759Y-81313038D01*
X118560894Y-81532407D01*
X118511009Y-81740197D01*
X118505465Y-81763289D01*
X118486835Y-82000000D01*
X108000500Y-82000000D01*
X108000500Y-69817745D01*
X111036620Y-69817745D01*
X111056090Y-70015436D01*
X111056091Y-70015442D01*
X111056092Y-70015443D01*
X111113759Y-70205546D01*
X111207405Y-70380746D01*
X111333432Y-70534310D01*
X111486996Y-70660337D01*
X111662196Y-70753983D01*
X111852299Y-70811650D01*
X111852303Y-70811650D01*
X111852305Y-70811651D01*
X112049997Y-70831122D01*
X112050000Y-70831122D01*
X112050003Y-70831122D01*
X112247694Y-70811651D01*
X112247695Y-70811650D01*
X112247701Y-70811650D01*
X112437804Y-70753983D01*
X112613004Y-70660337D01*
X112766568Y-70534310D01*
X112892595Y-70380746D01*
X112892597Y-70380741D01*
X112895231Y-70376800D01*
X112949705Y-70331269D01*
X113020148Y-70322417D01*
X113084194Y-70353055D01*
X113104769Y-70376800D01*
X113107406Y-70380748D01*
X113151795Y-70434835D01*
X113233432Y-70534310D01*
X113386996Y-70660337D01*
X113562196Y-70753983D01*
X113752299Y-70811650D01*
X113752303Y-70811650D01*
X113752305Y-70811651D01*
X113949997Y-70831122D01*
X113950000Y-70831122D01*
X113950003Y-70831122D01*
X114147694Y-70811651D01*
X114147695Y-70811650D01*
X114147701Y-70811650D01*
X114337804Y-70753983D01*
X114513004Y-70660337D01*
X114666568Y-70534310D01*
X114792595Y-70380746D01*
X114886241Y-70205546D01*
X114943908Y-70015443D01*
X114944591Y-70008516D01*
X114963380Y-69817745D01*
X114963380Y-69817738D01*
X114943909Y-69620047D01*
X114943908Y-69620045D01*
X114943908Y-69620041D01*
X114886241Y-69429938D01*
X114792595Y-69254738D01*
X114666568Y-69101174D01*
X114513004Y-68975147D01*
X114337804Y-68881501D01*
X114147701Y-68823834D01*
X114147700Y-68823833D01*
X114147694Y-68823832D01*
X113950003Y-68804362D01*
X113949997Y-68804362D01*
X113752305Y-68823832D01*
X113562195Y-68881501D01*
X113386995Y-68975147D01*
X113233432Y-69101174D01*
X113107406Y-69254735D01*
X113104766Y-69258688D01*
X113050289Y-69304216D01*
X112979846Y-69313065D01*
X112915802Y-69282424D01*
X112895234Y-69258688D01*
X112892593Y-69254735D01*
X112825199Y-69172616D01*
X112766568Y-69101174D01*
X112613004Y-68975147D01*
X112437804Y-68881501D01*
X112247701Y-68823834D01*
X112247700Y-68823833D01*
X112247694Y-68823832D01*
X112050003Y-68804362D01*
X112049997Y-68804362D01*
X111852305Y-68823832D01*
X111662195Y-68881501D01*
X111486995Y-68975147D01*
X111333432Y-69101174D01*
X111207405Y-69254737D01*
X111113759Y-69429937D01*
X111056090Y-69620047D01*
X111036620Y-69817738D01*
X111036620Y-69817745D01*
X108000500Y-69817745D01*
X108000500Y-65999999D01*
X109244592Y-65999999D01*
X109252271Y-66102472D01*
X109252447Y-66107182D01*
X109252447Y-66123930D01*
X109251462Y-66127282D01*
X109251878Y-66132834D01*
X109253492Y-66137910D01*
X109255990Y-66154477D01*
X109256517Y-66159160D01*
X109262445Y-66238246D01*
X109264198Y-66261630D01*
X109264198Y-66261634D01*
X109264199Y-66261635D01*
X109287060Y-66361797D01*
X109287934Y-66366415D01*
X109288981Y-66373350D01*
X109290437Y-66383012D01*
X109289963Y-66386473D01*
X109291201Y-66391897D01*
X109293553Y-66396675D01*
X109298500Y-66412711D01*
X109299719Y-66417262D01*
X109319169Y-66502472D01*
X109322580Y-66517416D01*
X109360120Y-66613066D01*
X109361677Y-66617516D01*
X109366616Y-66633529D01*
X109366663Y-66637016D01*
X109368698Y-66642200D01*
X109371736Y-66646575D01*
X109379007Y-66661674D01*
X109380892Y-66665994D01*
X109418428Y-66761636D01*
X109418431Y-66761642D01*
X109418432Y-66761643D01*
X109469808Y-66850629D01*
X109472007Y-66854791D01*
X109479280Y-66869892D01*
X109479847Y-66873336D01*
X109482630Y-66878156D01*
X109486290Y-66882033D01*
X109491831Y-66890161D01*
X109495731Y-66895882D01*
X109498237Y-66899871D01*
X109549611Y-66988853D01*
X109549615Y-66988859D01*
X109613667Y-67069177D01*
X109616464Y-67072968D01*
X109625917Y-67086832D01*
X109626991Y-67090153D01*
X109630457Y-67094499D01*
X109634649Y-67097783D01*
X109646066Y-67110087D01*
X109649140Y-67113659D01*
X109713195Y-67193981D01*
X109788517Y-67263869D01*
X109791850Y-67267202D01*
X109803250Y-67279489D01*
X109804803Y-67282606D01*
X109808889Y-67286397D01*
X109813517Y-67289016D01*
X109817588Y-67292262D01*
X109826645Y-67299484D01*
X109830185Y-67302532D01*
X109905521Y-67372433D01*
X109990410Y-67430309D01*
X109994195Y-67433103D01*
X110007313Y-67443564D01*
X110009317Y-67446420D01*
X110013906Y-67449549D01*
X110018880Y-67451451D01*
X110018894Y-67451459D01*
X110033408Y-67459838D01*
X110037395Y-67462343D01*
X110122296Y-67520228D01*
X110214894Y-67564820D01*
X110219028Y-67567006D01*
X110222628Y-67569084D01*
X110233559Y-67575397D01*
X110235965Y-67577921D01*
X110240968Y-67580330D01*
X110246174Y-67581472D01*
X110261796Y-67587603D01*
X110266106Y-67589483D01*
X110358677Y-67634063D01*
X110456879Y-67664354D01*
X110461291Y-67665898D01*
X110476919Y-67672031D01*
X110479672Y-67674167D01*
X110484996Y-67675809D01*
X110490307Y-67676160D01*
X110506665Y-67679894D01*
X110511184Y-67681105D01*
X110609385Y-67711396D01*
X110710999Y-67726712D01*
X110715589Y-67727580D01*
X110731969Y-67731318D01*
X110735011Y-67733020D01*
X110740505Y-67733848D01*
X110745815Y-67733405D01*
X110762556Y-67734660D01*
X110767183Y-67735180D01*
X110868818Y-67750500D01*
X110971561Y-67750500D01*
X110976264Y-67750676D01*
X110981124Y-67751039D01*
X110993009Y-67751930D01*
X110996272Y-67753160D01*
X111001817Y-67753160D01*
X111007001Y-67751929D01*
X111014720Y-67751350D01*
X111023728Y-67750676D01*
X111028436Y-67750500D01*
X111131182Y-67750500D01*
X111232840Y-67735177D01*
X111237414Y-67734661D01*
X111254196Y-67733404D01*
X111257603Y-67734133D01*
X111263091Y-67733306D01*
X111268033Y-67731318D01*
X111284425Y-67727576D01*
X111288969Y-67726716D01*
X111390615Y-67711396D01*
X111488840Y-67681097D01*
X111493315Y-67679898D01*
X111509695Y-67676160D01*
X111513172Y-67676373D01*
X111518489Y-67674733D01*
X111523070Y-67672035D01*
X111538717Y-67665895D01*
X111543111Y-67664357D01*
X111641323Y-67634063D01*
X111733915Y-67589472D01*
X111738200Y-67587603D01*
X111741087Y-67586470D01*
X111753828Y-67581471D01*
X111757299Y-67581163D01*
X111762305Y-67578752D01*
X111766443Y-67575394D01*
X111780991Y-67566995D01*
X111785093Y-67564826D01*
X111877704Y-67520228D01*
X111962626Y-67462328D01*
X111966560Y-67459856D01*
X111981108Y-67451457D01*
X111984498Y-67450634D01*
X111989092Y-67447502D01*
X111992681Y-67443568D01*
X112002550Y-67435697D01*
X112005810Y-67433097D01*
X112009558Y-67430330D01*
X112094479Y-67372433D01*
X112169826Y-67302520D01*
X112173341Y-67299495D01*
X112186483Y-67289015D01*
X112189703Y-67287700D01*
X112193786Y-67283911D01*
X112196740Y-67279498D01*
X112208178Y-67267171D01*
X112211449Y-67263900D01*
X112286805Y-67193981D01*
X112350888Y-67113623D01*
X112353921Y-67110098D01*
X112360043Y-67103500D01*
X112365347Y-67097785D01*
X112368343Y-67096000D01*
X112371807Y-67091656D01*
X112374083Y-67086827D01*
X112383527Y-67072976D01*
X112386312Y-67069202D01*
X112450386Y-66988857D01*
X112501768Y-66899860D01*
X112504253Y-66895903D01*
X112513710Y-66882032D01*
X112516406Y-66879822D01*
X112519189Y-66875001D01*
X112520716Y-66869898D01*
X112528000Y-66854772D01*
X112530186Y-66850638D01*
X112581568Y-66761643D01*
X112619122Y-66665954D01*
X112620973Y-66661713D01*
X112628233Y-66646638D01*
X112630579Y-66644036D01*
X112632634Y-66638802D01*
X112633384Y-66633529D01*
X112638331Y-66617488D01*
X112639868Y-66613095D01*
X112677420Y-66517416D01*
X112700290Y-66417216D01*
X112701497Y-66412713D01*
X112706446Y-66396671D01*
X112708370Y-66393763D01*
X112709606Y-66388350D01*
X112709562Y-66383015D01*
X112712063Y-66366424D01*
X112712929Y-66361840D01*
X112735802Y-66261630D01*
X112743482Y-66159142D01*
X112744006Y-66154492D01*
X112747271Y-66132834D01*
X112748169Y-66126879D01*
X112748169Y-66126874D01*
X112748344Y-66125711D01*
X112747727Y-66121600D01*
X112748171Y-66097859D01*
X112748331Y-66094430D01*
X112755408Y-66000000D01*
X112748331Y-65905574D01*
X112748171Y-65902137D01*
X112747727Y-65878400D01*
X112748524Y-65875486D01*
X112747553Y-65869044D01*
X112747553Y-65869039D01*
X112744005Y-65845501D01*
X112743482Y-65840863D01*
X112735802Y-65738370D01*
X112712928Y-65638155D01*
X112712065Y-65633591D01*
X112709562Y-65616985D01*
X112710035Y-65613527D01*
X112708798Y-65608105D01*
X112706444Y-65603320D01*
X112701496Y-65587277D01*
X112700280Y-65582743D01*
X112677420Y-65482584D01*
X112639869Y-65386907D01*
X112638335Y-65382523D01*
X112633381Y-65366464D01*
X112633334Y-65362981D01*
X112631299Y-65357796D01*
X112628258Y-65353414D01*
X112620987Y-65338314D01*
X112619104Y-65333997D01*
X112581573Y-65238367D01*
X112581569Y-65238360D01*
X112581568Y-65238357D01*
X112530180Y-65149351D01*
X112527996Y-65145217D01*
X112520717Y-65130102D01*
X112520151Y-65126663D01*
X112517366Y-65121840D01*
X112513707Y-65117962D01*
X112504269Y-65104118D01*
X112501762Y-65100128D01*
X112450388Y-65011146D01*
X112450383Y-65011139D01*
X112436227Y-64993388D01*
X112386313Y-64930798D01*
X112383532Y-64927029D01*
X112374079Y-64913165D01*
X112373004Y-64909843D01*
X112369544Y-64905503D01*
X112365348Y-64902215D01*
X112353931Y-64889911D01*
X112350864Y-64886347D01*
X112286805Y-64806019D01*
X112286804Y-64806018D01*
X112286803Y-64806016D01*
X112222081Y-64745964D01*
X112211477Y-64736125D01*
X112208148Y-64732796D01*
X112206933Y-64731487D01*
X112202591Y-64726807D01*
X112196748Y-64720509D01*
X112195194Y-64717392D01*
X112191111Y-64713603D01*
X112186475Y-64710978D01*
X112173369Y-64700526D01*
X112169807Y-64697461D01*
X112094479Y-64627567D01*
X112094475Y-64627564D01*
X112094469Y-64627559D01*
X112009588Y-64569688D01*
X112005797Y-64566890D01*
X111992683Y-64556432D01*
X111990679Y-64553577D01*
X111986095Y-64550452D01*
X111981111Y-64548544D01*
X111966580Y-64540155D01*
X111962601Y-64537654D01*
X111877704Y-64479772D01*
X111875067Y-64478502D01*
X111785127Y-64435188D01*
X111780964Y-64432988D01*
X111766451Y-64424609D01*
X111764040Y-64422080D01*
X111759030Y-64419667D01*
X111753822Y-64418525D01*
X111738193Y-64412390D01*
X111733875Y-64410507D01*
X111641319Y-64365935D01*
X111641314Y-64365933D01*
X111548244Y-64337226D01*
X111543139Y-64335651D01*
X111538689Y-64334094D01*
X111523071Y-64327964D01*
X111520316Y-64325828D01*
X111515011Y-64324191D01*
X111509692Y-64323838D01*
X111496054Y-64320725D01*
X111493288Y-64320092D01*
X111488774Y-64318881D01*
X111390620Y-64288605D01*
X111390616Y-64288604D01*
X111390615Y-64288604D01*
X111365690Y-64284847D01*
X111289007Y-64273288D01*
X111284384Y-64272413D01*
X111277952Y-64270945D01*
X111268032Y-64268681D01*
X111264985Y-64266976D01*
X111259503Y-64266150D01*
X111254191Y-64266593D01*
X111237453Y-64265339D01*
X111232769Y-64264811D01*
X111161221Y-64254027D01*
X111131182Y-64249500D01*
X111028423Y-64249500D01*
X111023714Y-64249324D01*
X111022632Y-64249243D01*
X111007007Y-64248071D01*
X111003749Y-64246843D01*
X110998170Y-64246843D01*
X110992992Y-64248071D01*
X110978197Y-64249180D01*
X110976285Y-64249324D01*
X110971577Y-64249500D01*
X110868818Y-64249500D01*
X110854455Y-64251664D01*
X110767226Y-64264811D01*
X110762543Y-64265339D01*
X110745807Y-64266593D01*
X110742397Y-64265863D01*
X110736913Y-64266689D01*
X110731962Y-64268682D01*
X110715619Y-64272412D01*
X110710989Y-64273288D01*
X110609390Y-64288602D01*
X110609383Y-64288604D01*
X110511195Y-64318889D01*
X110506646Y-64320108D01*
X110494717Y-64322831D01*
X110490310Y-64323837D01*
X110486828Y-64323623D01*
X110481512Y-64325263D01*
X110476918Y-64327968D01*
X110461297Y-64334098D01*
X110456850Y-64335654D01*
X110358679Y-64365935D01*
X110358674Y-64365937D01*
X110266111Y-64410512D01*
X110261794Y-64412396D01*
X110246174Y-64418526D01*
X110242699Y-64418833D01*
X110237696Y-64421243D01*
X110233552Y-64424606D01*
X110219034Y-64432988D01*
X110214869Y-64435189D01*
X110122297Y-64479771D01*
X110037398Y-64537654D01*
X110033405Y-64540162D01*
X110025792Y-64544557D01*
X110018892Y-64548541D01*
X110015497Y-64549364D01*
X110010906Y-64552494D01*
X110007315Y-64556432D01*
X109994187Y-64566901D01*
X109990397Y-64569698D01*
X109905530Y-64627559D01*
X109905521Y-64627566D01*
X109830198Y-64697454D01*
X109826629Y-64700526D01*
X109813526Y-64710976D01*
X109810297Y-64712294D01*
X109806210Y-64716086D01*
X109803247Y-64720514D01*
X109791842Y-64732804D01*
X109788512Y-64736133D01*
X109713199Y-64806014D01*
X109649148Y-64886331D01*
X109646071Y-64889906D01*
X109634645Y-64902218D01*
X109631653Y-64903999D01*
X109628195Y-64908335D01*
X109625922Y-64913160D01*
X109616471Y-64927023D01*
X109613672Y-64930816D01*
X109549614Y-65011142D01*
X109549612Y-65011144D01*
X109498231Y-65100139D01*
X109495722Y-65104131D01*
X109486286Y-65117970D01*
X109483590Y-65120179D01*
X109480806Y-65125002D01*
X109479279Y-65130108D01*
X109472010Y-65145201D01*
X109469810Y-65149365D01*
X109418433Y-65238354D01*
X109380892Y-65334005D01*
X109379007Y-65338324D01*
X109371736Y-65353423D01*
X109369399Y-65356011D01*
X109367363Y-65361197D01*
X109366615Y-65366472D01*
X109361673Y-65382491D01*
X109360117Y-65386939D01*
X109339785Y-65438744D01*
X109322580Y-65482584D01*
X109322578Y-65482588D01*
X109322578Y-65482591D01*
X109299720Y-65582733D01*
X109298500Y-65587286D01*
X109293551Y-65603328D01*
X109291626Y-65606234D01*
X109290390Y-65611650D01*
X109290436Y-65616985D01*
X109287937Y-65633568D01*
X109287061Y-65638200D01*
X109264198Y-65738368D01*
X109264197Y-65738375D01*
X109256517Y-65840837D01*
X109255990Y-65845520D01*
X109253493Y-65862086D01*
X109252022Y-65865248D01*
X109251606Y-65870799D01*
X109252447Y-65876068D01*
X109252447Y-65892816D01*
X109252271Y-65897526D01*
X109244592Y-65999999D01*
X108000500Y-65999999D01*
X108000500Y-61730002D01*
X112736499Y-61730002D01*
X112756452Y-61932594D01*
X112756453Y-61932600D01*
X112756454Y-61932601D01*
X112767850Y-61970169D01*
X112814361Y-62123499D01*
X112814994Y-62194493D01*
X112802252Y-62220249D01*
X112803870Y-62221133D01*
X112799554Y-62229035D01*
X112748505Y-62365905D01*
X112742000Y-62426402D01*
X112742000Y-62746000D01*
X113510252Y-62746000D01*
X113578373Y-62766002D01*
X113624866Y-62819658D01*
X113634970Y-62889932D01*
X113632396Y-62902933D01*
X113631449Y-62906668D01*
X113621114Y-63031395D01*
X113621114Y-63031399D01*
X113637744Y-63097069D01*
X113635077Y-63168015D01*
X113594477Y-63226257D01*
X113528834Y-63253303D01*
X113515600Y-63254000D01*
X112742000Y-63254000D01*
X112742000Y-63573597D01*
X112748505Y-63634093D01*
X112799555Y-63770964D01*
X112799555Y-63770965D01*
X112887095Y-63887904D01*
X113004034Y-63975444D01*
X113140906Y-64026494D01*
X113201402Y-64032999D01*
X113201415Y-64033000D01*
X113746000Y-64033000D01*
X113746000Y-63485758D01*
X113766002Y-63417637D01*
X113819658Y-63371144D01*
X113889932Y-63361040D01*
X113912911Y-63366584D01*
X113937424Y-63375000D01*
X114031068Y-63375000D01*
X114031073Y-63375000D01*
X114107263Y-63362286D01*
X114177744Y-63370804D01*
X114232434Y-63416075D01*
X114253967Y-63483728D01*
X114253999Y-63486568D01*
X114254000Y-64033000D01*
X114798585Y-64033000D01*
X114798597Y-64032999D01*
X114859093Y-64026494D01*
X114995964Y-63975444D01*
X114995965Y-63975444D01*
X115112904Y-63887904D01*
X115200444Y-63770965D01*
X115200444Y-63770964D01*
X115251494Y-63634093D01*
X115257999Y-63573597D01*
X115258000Y-63573585D01*
X115258000Y-63254000D01*
X114489748Y-63254000D01*
X114421627Y-63233998D01*
X114375134Y-63180342D01*
X114365030Y-63110068D01*
X114367604Y-63097067D01*
X114368549Y-63093334D01*
X114368551Y-63093330D01*
X114378886Y-62968605D01*
X114378885Y-62968600D01*
X114362256Y-62902931D01*
X114364923Y-62831985D01*
X114405523Y-62773743D01*
X114471166Y-62746697D01*
X114484400Y-62746000D01*
X115258000Y-62746000D01*
X115258000Y-62426414D01*
X115257999Y-62426402D01*
X115251494Y-62365906D01*
X115200444Y-62229035D01*
X115196125Y-62221124D01*
X115199311Y-62219384D01*
X115180538Y-62169115D01*
X115185638Y-62123499D01*
X115243546Y-61932601D01*
X115243902Y-61928992D01*
X115263501Y-61730002D01*
X115263501Y-61729997D01*
X115243547Y-61527405D01*
X115243546Y-61527403D01*
X115243546Y-61527399D01*
X115184450Y-61332583D01*
X115089205Y-61154394D01*
X115074734Y-61084889D01*
X115089203Y-61035609D01*
X115184450Y-60857417D01*
X115243546Y-60662601D01*
X115263501Y-60460000D01*
X115263501Y-60459997D01*
X115243547Y-60257405D01*
X115243546Y-60257403D01*
X115243546Y-60257399D01*
X115184450Y-60062583D01*
X115088482Y-59883040D01*
X114959331Y-59725669D01*
X114801960Y-59596518D01*
X114622417Y-59500550D01*
X114427601Y-59441454D01*
X114427600Y-59441453D01*
X114427594Y-59441452D01*
X114275781Y-59426500D01*
X114275775Y-59426500D01*
X113724225Y-59426500D01*
X113724218Y-59426500D01*
X113572405Y-59441452D01*
X113377582Y-59500550D01*
X113198039Y-59596518D01*
X113040669Y-59725669D01*
X112911518Y-59883039D01*
X112815550Y-60062582D01*
X112756452Y-60257405D01*
X112736499Y-60459997D01*
X112736499Y-60460002D01*
X112756452Y-60662594D01*
X112756453Y-60662600D01*
X112756454Y-60662601D01*
X112815550Y-60857417D01*
X112900109Y-61015616D01*
X112910793Y-61035603D01*
X112925265Y-61105109D01*
X112910793Y-61154395D01*
X112815550Y-61332582D01*
X112756452Y-61527405D01*
X112736499Y-61729997D01*
X112736499Y-61730002D01*
X108000500Y-61730002D01*
X108000500Y-57362500D01*
X115224647Y-57362500D01*
X115244022Y-57583963D01*
X115290273Y-57756573D01*
X115301559Y-57798693D01*
X115301561Y-57798699D01*
X115395511Y-58000175D01*
X115395512Y-58000177D01*
X115523016Y-58182272D01*
X115523020Y-58182277D01*
X115523023Y-58182281D01*
X115680219Y-58339477D01*
X115680223Y-58339480D01*
X115680227Y-58339483D01*
X115724820Y-58370707D01*
X115862323Y-58466988D01*
X116063804Y-58560940D01*
X116278537Y-58618478D01*
X116500000Y-58637853D01*
X116721463Y-58618478D01*
X116936196Y-58560940D01*
X117137677Y-58466988D01*
X117319781Y-58339477D01*
X117476977Y-58182281D01*
X117604488Y-58000177D01*
X117635805Y-57933016D01*
X117682722Y-57879732D01*
X117750999Y-57860271D01*
X117818959Y-57880813D01*
X117864195Y-57933017D01*
X117895511Y-58000175D01*
X117895512Y-58000177D01*
X118023016Y-58182272D01*
X118023020Y-58182277D01*
X118023023Y-58182281D01*
X118180219Y-58339477D01*
X118180223Y-58339480D01*
X118180227Y-58339483D01*
X118224820Y-58370707D01*
X118362323Y-58466988D01*
X118563804Y-58560940D01*
X118778537Y-58618478D01*
X119000000Y-58637853D01*
X119221463Y-58618478D01*
X119436196Y-58560940D01*
X119637677Y-58466988D01*
X119819781Y-58339477D01*
X119910905Y-58248353D01*
X119973217Y-58214327D01*
X120044032Y-58219392D01*
X120089095Y-58248353D01*
X120180219Y-58339477D01*
X120180223Y-58339480D01*
X120180227Y-58339483D01*
X120224820Y-58370707D01*
X120362323Y-58466988D01*
X120563804Y-58560940D01*
X120778537Y-58618478D01*
X121000000Y-58637853D01*
X121221463Y-58618478D01*
X121436196Y-58560940D01*
X121637677Y-58466988D01*
X121819781Y-58339477D01*
X121976977Y-58182281D01*
X122004142Y-58143484D01*
X122059597Y-58099157D01*
X122130216Y-58091846D01*
X122193577Y-58123876D01*
X122229563Y-58185077D01*
X122232633Y-58202286D01*
X122236010Y-58233697D01*
X122237823Y-58241368D01*
X122236192Y-58241753D01*
X122241500Y-58271150D01*
X122241500Y-60926521D01*
X122221498Y-60994642D01*
X122204595Y-61015616D01*
X121315615Y-61904596D01*
X121253305Y-61938620D01*
X121226522Y-61941500D01*
X119248530Y-61941500D01*
X119204497Y-61933555D01*
X119109204Y-61898011D01*
X119109196Y-61898009D01*
X119048649Y-61891500D01*
X119048638Y-61891500D01*
X117351362Y-61891500D01*
X117351350Y-61891500D01*
X117290803Y-61898009D01*
X117290795Y-61898011D01*
X117153797Y-61949110D01*
X117153792Y-61949112D01*
X117036738Y-62036738D01*
X116949112Y-62153792D01*
X116949110Y-62153797D01*
X116898011Y-62290795D01*
X116898009Y-62290803D01*
X116891500Y-62351350D01*
X116891500Y-64048649D01*
X116898009Y-64109196D01*
X116898011Y-64109204D01*
X116949110Y-64246202D01*
X116949112Y-64246207D01*
X117036738Y-64363261D01*
X117153792Y-64450887D01*
X117153794Y-64450888D01*
X117153796Y-64450889D01*
X117290799Y-64501989D01*
X117300191Y-64502998D01*
X117365784Y-64530163D01*
X117406279Y-64588479D01*
X117408817Y-64659430D01*
X117372593Y-64720490D01*
X117359010Y-64731483D01*
X117355708Y-64733795D01*
X117355697Y-64733804D01*
X117193804Y-64895697D01*
X117193799Y-64895703D01*
X117062477Y-65083250D01*
X116965717Y-65290753D01*
X116965715Y-65290759D01*
X116941127Y-65382523D01*
X116906457Y-65511913D01*
X116886502Y-65740000D01*
X116898355Y-65875486D01*
X116906457Y-65968086D01*
X116965715Y-66189240D01*
X116965717Y-66189246D01*
X117060214Y-66391897D01*
X117062477Y-66396749D01*
X117193802Y-66584300D01*
X117355700Y-66746198D01*
X117543251Y-66877523D01*
X117578359Y-66893894D01*
X117582457Y-66895805D01*
X117635742Y-66942722D01*
X117655203Y-67010999D01*
X117634661Y-67078959D01*
X117582457Y-67124195D01*
X117543250Y-67142477D01*
X117355703Y-67273799D01*
X117355697Y-67273804D01*
X117193804Y-67435697D01*
X117193799Y-67435703D01*
X117062477Y-67623250D01*
X116965717Y-67830753D01*
X116965715Y-67830759D01*
X116906457Y-68051913D01*
X116886502Y-68280000D01*
X116906457Y-68508086D01*
X116965715Y-68729240D01*
X116965717Y-68729246D01*
X117062477Y-68936748D01*
X117062477Y-68936749D01*
X117193802Y-69124300D01*
X117355700Y-69286198D01*
X117543251Y-69417523D01*
X117582457Y-69435805D01*
X117583047Y-69436080D01*
X117636332Y-69482996D01*
X117655794Y-69551273D01*
X117635253Y-69619233D01*
X117583051Y-69664468D01*
X117543504Y-69682910D01*
X117356025Y-69814184D01*
X117356019Y-69814189D01*
X117194189Y-69976019D01*
X117194184Y-69976025D01*
X117062912Y-70163501D01*
X116966188Y-70370926D01*
X116966186Y-70370931D01*
X116913917Y-70566000D01*
X117687716Y-70566000D01*
X117755837Y-70586002D01*
X117802330Y-70639658D01*
X117812434Y-70709932D01*
X117812165Y-70711710D01*
X117795014Y-70820000D01*
X117812165Y-70928290D01*
X117803065Y-70998701D01*
X117757343Y-71053015D01*
X117689515Y-71073987D01*
X117687716Y-71074000D01*
X116913918Y-71074000D01*
X116966186Y-71269068D01*
X116966188Y-71269073D01*
X117062912Y-71476498D01*
X117194184Y-71663974D01*
X117194189Y-71663980D01*
X117356019Y-71825810D01*
X117356025Y-71825815D01*
X117543501Y-71957087D01*
X117750926Y-72053811D01*
X117750931Y-72053813D01*
X117945999Y-72106081D01*
X117945999Y-71332284D01*
X117966001Y-71264163D01*
X118019657Y-71217670D01*
X118089931Y-71207566D01*
X118091708Y-71207835D01*
X118144257Y-71216157D01*
X118168519Y-71220000D01*
X118168520Y-71220000D01*
X118231479Y-71220000D01*
X118231481Y-71220000D01*
X118308290Y-71207835D01*
X118378701Y-71216935D01*
X118433015Y-71262657D01*
X118453987Y-71330486D01*
X118454000Y-71332284D01*
X118453999Y-72106081D01*
X118649068Y-72053813D01*
X118649073Y-72053811D01*
X118856498Y-71957087D01*
X119043974Y-71825815D01*
X119043980Y-71825810D01*
X119205810Y-71663980D01*
X119205815Y-71663974D01*
X119337087Y-71476498D01*
X119433811Y-71269073D01*
X119433813Y-71269068D01*
X119486082Y-71074000D01*
X118712284Y-71074000D01*
X118644163Y-71053998D01*
X118597670Y-71000342D01*
X118587566Y-70930068D01*
X118587835Y-70928290D01*
X118603224Y-70831122D01*
X118604986Y-70820000D01*
X118587834Y-70711710D01*
X118596935Y-70641299D01*
X118642657Y-70586985D01*
X118710485Y-70566013D01*
X118712284Y-70566000D01*
X119486082Y-70566000D01*
X119433813Y-70370931D01*
X119433811Y-70370926D01*
X119337087Y-70163501D01*
X119205815Y-69976025D01*
X119205810Y-69976019D01*
X119043980Y-69814189D01*
X119043974Y-69814184D01*
X118856497Y-69682911D01*
X118816949Y-69664469D01*
X118763665Y-69617551D01*
X118744205Y-69549273D01*
X118764748Y-69481314D01*
X118816950Y-69436081D01*
X118856749Y-69417523D01*
X119044300Y-69286198D01*
X119206198Y-69124300D01*
X119337523Y-68936749D01*
X119434284Y-68729243D01*
X119493543Y-68508087D01*
X119513498Y-68280000D01*
X119493543Y-68051913D01*
X119434284Y-67830757D01*
X119337523Y-67623251D01*
X119206198Y-67435700D01*
X119044300Y-67273802D01*
X119044296Y-67273799D01*
X118856747Y-67142475D01*
X118817541Y-67124193D01*
X118764256Y-67077276D01*
X118744796Y-67008998D01*
X118765338Y-66941039D01*
X118817542Y-66895805D01*
X118856749Y-66877523D01*
X119044300Y-66746198D01*
X119206198Y-66584300D01*
X119337523Y-66396749D01*
X119434284Y-66189243D01*
X119493543Y-65968087D01*
X119513498Y-65740000D01*
X119493543Y-65511913D01*
X119434284Y-65290757D01*
X119337523Y-65083251D01*
X119206198Y-64895700D01*
X119044300Y-64733802D01*
X119044295Y-64733799D01*
X119044292Y-64733796D01*
X119040995Y-64731487D01*
X118996669Y-64676028D01*
X118989363Y-64605409D01*
X119021396Y-64542049D01*
X119082599Y-64506067D01*
X119099801Y-64502999D01*
X119109201Y-64501989D01*
X119194969Y-64469999D01*
X119204497Y-64466445D01*
X119248530Y-64458500D01*
X120615500Y-64458500D01*
X120683621Y-64478502D01*
X120730114Y-64532158D01*
X120741500Y-64584500D01*
X120741500Y-73925779D01*
X120741104Y-73932837D01*
X120736731Y-73971647D01*
X120741357Y-74040269D01*
X120741500Y-74044507D01*
X120741500Y-74056528D01*
X120745300Y-74098755D01*
X120751969Y-74197661D01*
X120751969Y-74197663D01*
X120751970Y-74197668D01*
X120753023Y-74201849D01*
X120756331Y-74221318D01*
X120756718Y-74225620D01*
X120783095Y-74321194D01*
X120807321Y-74417337D01*
X120807321Y-74417338D01*
X120809103Y-74421260D01*
X120815841Y-74439847D01*
X120816986Y-74443993D01*
X120859999Y-74533311D01*
X120901006Y-74623590D01*
X120903455Y-74627124D01*
X120913405Y-74644211D01*
X120915271Y-74648087D01*
X120973554Y-74728306D01*
X121030011Y-74809798D01*
X121030023Y-74809812D01*
X121033055Y-74812844D01*
X121045891Y-74827871D01*
X121048426Y-74831360D01*
X121048429Y-74831363D01*
X121120092Y-74899880D01*
X122532629Y-76312417D01*
X122537331Y-76317679D01*
X122561681Y-76348213D01*
X122561684Y-76348215D01*
X122561686Y-76348218D01*
X122590775Y-76373632D01*
X122613475Y-76393465D01*
X122616573Y-76396361D01*
X122625069Y-76404858D01*
X122625072Y-76404861D01*
X122657629Y-76432041D01*
X122689709Y-76460068D01*
X122732282Y-76497263D01*
X122735977Y-76499470D01*
X122752095Y-76510907D01*
X122755198Y-76513498D01*
X122755406Y-76513671D01*
X122755411Y-76513674D01*
X122755416Y-76513677D01*
X122841642Y-76562603D01*
X122926741Y-76613448D01*
X122926746Y-76613451D01*
X122926747Y-76613451D01*
X122926750Y-76613453D01*
X122930780Y-76614965D01*
X122948692Y-76623345D01*
X122952435Y-76625469D01*
X122974039Y-76633028D01*
X123046007Y-76658210D01*
X123138839Y-76693051D01*
X123143067Y-76693818D01*
X123162193Y-76698865D01*
X123166255Y-76700287D01*
X123219429Y-76708709D01*
X123264182Y-76715798D01*
X123361730Y-76733500D01*
X123361733Y-76733500D01*
X123366034Y-76733500D01*
X123385743Y-76735051D01*
X123388051Y-76735416D01*
X123390000Y-76735725D01*
X123489137Y-76733500D01*
X124535234Y-76733500D01*
X124603355Y-76753502D01*
X124610735Y-76758626D01*
X124633792Y-76775886D01*
X124633796Y-76775889D01*
X124749312Y-76818975D01*
X124806148Y-76861522D01*
X124830958Y-76928042D01*
X124815866Y-76997416D01*
X124797981Y-77022367D01*
X124654674Y-77178041D01*
X124531580Y-77366451D01*
X124441179Y-77572543D01*
X124441176Y-77572550D01*
X124393455Y-77760999D01*
X124393456Y-77761000D01*
X125115156Y-77761000D01*
X125183277Y-77781002D01*
X125229770Y-77834658D01*
X125239874Y-77904932D01*
X125236053Y-77922496D01*
X125230000Y-77943111D01*
X125230000Y-78086888D01*
X125236053Y-78107504D01*
X125236052Y-78178500D01*
X125197667Y-78238226D01*
X125133086Y-78267718D01*
X125115156Y-78269000D01*
X124393455Y-78269000D01*
X124441176Y-78457449D01*
X124441179Y-78457456D01*
X124531580Y-78663548D01*
X124654674Y-78851958D01*
X124807097Y-79017534D01*
X124984698Y-79155767D01*
X124984704Y-79155771D01*
X125018207Y-79173902D01*
X125068597Y-79223915D01*
X125083949Y-79293232D01*
X125059388Y-79359845D01*
X125018207Y-79395528D01*
X124984430Y-79413807D01*
X124984424Y-79413811D01*
X124806762Y-79552091D01*
X124654279Y-79717729D01*
X124654275Y-79717734D01*
X124531141Y-79906206D01*
X124440703Y-80112386D01*
X124440702Y-80112387D01*
X124385437Y-80330624D01*
X124385436Y-80330630D01*
X124385436Y-80330632D01*
X124366844Y-80555000D01*
X124385142Y-80775826D01*
X124385437Y-80779375D01*
X124440702Y-80997612D01*
X124440703Y-80997613D01*
X124440704Y-80997616D01*
X124490254Y-81110580D01*
X124531141Y-81203793D01*
X124654275Y-81392265D01*
X124654279Y-81392270D01*
X124806762Y-81557908D01*
X124861331Y-81600381D01*
X124984424Y-81696189D01*
X125182426Y-81803342D01*
X125182427Y-81803342D01*
X125182428Y-81803343D01*
X125289842Y-81840218D01*
X125395365Y-81876444D01*
X125617431Y-81913500D01*
X125617435Y-81913500D01*
X125842565Y-81913500D01*
X125842569Y-81913500D01*
X126064635Y-81876444D01*
X126277574Y-81803342D01*
X126475576Y-81696189D01*
X126653240Y-81557906D01*
X126805722Y-81392268D01*
X126928860Y-81203791D01*
X127019296Y-80997616D01*
X127074564Y-80779368D01*
X127093156Y-80555000D01*
X127074564Y-80330632D01*
X127064282Y-80290029D01*
X127019297Y-80112387D01*
X127019296Y-80112386D01*
X127019296Y-80112384D01*
X126928860Y-79906209D01*
X126920169Y-79892906D01*
X126805724Y-79717734D01*
X126805720Y-79717729D01*
X126655770Y-79554842D01*
X126653240Y-79552094D01*
X126653239Y-79552093D01*
X126653237Y-79552091D01*
X126571382Y-79488381D01*
X126475576Y-79413811D01*
X126441792Y-79395528D01*
X126391402Y-79345516D01*
X126376050Y-79276199D01*
X126400610Y-79209586D01*
X126441793Y-79173901D01*
X126475300Y-79155767D01*
X126475301Y-79155767D01*
X126652902Y-79017534D01*
X126805325Y-78851958D01*
X126928419Y-78663548D01*
X127018820Y-78457456D01*
X127018823Y-78457449D01*
X127066544Y-78269000D01*
X126344844Y-78269000D01*
X126276723Y-78248998D01*
X126230230Y-78195342D01*
X126220126Y-78125068D01*
X126223947Y-78107504D01*
X126230000Y-78086888D01*
X126230000Y-77943111D01*
X126223947Y-77922496D01*
X126223948Y-77851500D01*
X126262333Y-77791774D01*
X126326914Y-77762282D01*
X126344844Y-77761000D01*
X127066544Y-77761000D01*
X127066544Y-77760999D01*
X127018823Y-77572550D01*
X127018820Y-77572543D01*
X126928419Y-77366451D01*
X126805325Y-77178041D01*
X126662018Y-77022367D01*
X126630598Y-76958702D01*
X126638585Y-76888156D01*
X126683444Y-76833127D01*
X126710679Y-76818977D01*
X126826204Y-76775889D01*
X126943261Y-76688261D01*
X126990267Y-76625469D01*
X127030887Y-76571207D01*
X127030887Y-76571206D01*
X127030889Y-76571204D01*
X127081989Y-76434201D01*
X127082222Y-76432041D01*
X127088499Y-76373649D01*
X127088500Y-76373632D01*
X127088500Y-74576367D01*
X127088499Y-74576350D01*
X127081990Y-74515803D01*
X127081988Y-74515795D01*
X127046727Y-74421260D01*
X127030889Y-74378796D01*
X127030888Y-74378794D01*
X127030887Y-74378792D01*
X126943261Y-74261738D01*
X126826207Y-74174112D01*
X126826202Y-74174110D01*
X126689204Y-74123011D01*
X126689196Y-74123009D01*
X126628649Y-74116500D01*
X126628638Y-74116500D01*
X124831362Y-74116500D01*
X124831350Y-74116500D01*
X124770803Y-74123009D01*
X124770795Y-74123011D01*
X124633797Y-74174110D01*
X124633796Y-74174110D01*
X124626470Y-74179595D01*
X124610742Y-74191368D01*
X124544224Y-74216179D01*
X124535234Y-74216500D01*
X124048478Y-74216500D01*
X123980357Y-74196498D01*
X123959383Y-74179595D01*
X123295404Y-73515616D01*
X123261378Y-73453304D01*
X123258499Y-73426530D01*
X123258499Y-70820000D01*
X124506502Y-70820000D01*
X124526457Y-71048087D01*
X124553133Y-71147641D01*
X124585715Y-71269240D01*
X124585717Y-71269246D01*
X124682477Y-71476749D01*
X124780428Y-71616638D01*
X124813802Y-71664300D01*
X124975700Y-71826198D01*
X125163251Y-71957523D01*
X125370757Y-72054284D01*
X125591913Y-72113543D01*
X125820000Y-72133498D01*
X126048087Y-72113543D01*
X126269243Y-72054284D01*
X126476749Y-71957523D01*
X126664300Y-71826198D01*
X126826198Y-71664300D01*
X126957523Y-71476749D01*
X127054284Y-71269243D01*
X127113543Y-71048087D01*
X127133498Y-70820000D01*
X127113543Y-70591913D01*
X127054284Y-70370757D01*
X126957523Y-70163251D01*
X126826198Y-69975700D01*
X126664300Y-69813802D01*
X126476749Y-69682477D01*
X126438130Y-69664469D01*
X126437543Y-69664195D01*
X126384258Y-69617279D01*
X126364796Y-69549002D01*
X126385337Y-69481042D01*
X126437543Y-69435805D01*
X126439997Y-69434660D01*
X126476749Y-69417523D01*
X126664300Y-69286198D01*
X126826198Y-69124300D01*
X126957523Y-68936749D01*
X127054284Y-68729243D01*
X127113543Y-68508087D01*
X127133498Y-68280000D01*
X127113543Y-68051913D01*
X127054284Y-67830757D01*
X126957523Y-67623251D01*
X126826198Y-67435700D01*
X126664300Y-67273802D01*
X126650121Y-67263874D01*
X126601998Y-67230177D01*
X126476749Y-67142477D01*
X126437543Y-67124195D01*
X126384258Y-67077279D01*
X126364796Y-67009002D01*
X126385337Y-66941042D01*
X126437543Y-66895805D01*
X126439997Y-66894660D01*
X126476749Y-66877523D01*
X126664300Y-66746198D01*
X126826198Y-66584300D01*
X126957523Y-66396749D01*
X127054284Y-66189243D01*
X127113543Y-65968087D01*
X127133498Y-65740000D01*
X127113543Y-65511913D01*
X127054284Y-65290757D01*
X126957523Y-65083251D01*
X126826198Y-64895700D01*
X126664300Y-64733802D01*
X126664291Y-64733796D01*
X126558086Y-64659430D01*
X126476749Y-64602477D01*
X126437543Y-64584195D01*
X126384258Y-64537279D01*
X126364796Y-64469002D01*
X126385337Y-64401042D01*
X126437543Y-64355805D01*
X126439997Y-64354660D01*
X126476749Y-64337523D01*
X126664300Y-64206198D01*
X126826198Y-64044300D01*
X126957523Y-63856749D01*
X127054284Y-63649243D01*
X127113543Y-63428087D01*
X127133498Y-63200000D01*
X127113543Y-62971913D01*
X127054284Y-62750757D01*
X126957523Y-62543251D01*
X126826198Y-62355700D01*
X126664300Y-62193802D01*
X126629043Y-62169115D01*
X126476749Y-62062477D01*
X126269246Y-61965717D01*
X126269240Y-61965715D01*
X126132188Y-61928992D01*
X126048087Y-61906457D01*
X125820000Y-61886502D01*
X125591913Y-61906457D01*
X125370759Y-61965715D01*
X125370753Y-61965717D01*
X125163250Y-62062477D01*
X124975703Y-62193799D01*
X124975697Y-62193804D01*
X124813804Y-62355697D01*
X124813799Y-62355703D01*
X124682477Y-62543250D01*
X124585717Y-62750753D01*
X124585715Y-62750759D01*
X124555960Y-62861807D01*
X124526457Y-62971913D01*
X124506502Y-63200000D01*
X124526457Y-63428087D01*
X124542741Y-63488859D01*
X124585715Y-63649240D01*
X124585717Y-63649246D01*
X124682477Y-63856749D01*
X124805889Y-64033000D01*
X124813802Y-64044300D01*
X124975700Y-64206198D01*
X125004994Y-64226710D01*
X125163249Y-64337522D01*
X125163250Y-64337522D01*
X125163251Y-64337523D01*
X125202457Y-64355805D01*
X125255741Y-64402719D01*
X125275203Y-64470996D01*
X125254663Y-64538956D01*
X125202459Y-64584193D01*
X125163251Y-64602476D01*
X124975703Y-64733799D01*
X124975697Y-64733804D01*
X124813804Y-64895697D01*
X124813799Y-64895703D01*
X124682477Y-65083250D01*
X124585717Y-65290753D01*
X124585715Y-65290759D01*
X124561127Y-65382523D01*
X124526457Y-65511913D01*
X124506502Y-65740000D01*
X124518355Y-65875486D01*
X124526457Y-65968086D01*
X124585715Y-66189240D01*
X124585717Y-66189246D01*
X124680214Y-66391897D01*
X124682477Y-66396749D01*
X124813802Y-66584300D01*
X124975700Y-66746198D01*
X124975703Y-66746200D01*
X125163249Y-66877522D01*
X125163250Y-66877522D01*
X125163251Y-66877523D01*
X125202457Y-66895805D01*
X125255741Y-66942719D01*
X125275203Y-67010996D01*
X125254663Y-67078956D01*
X125202459Y-67124193D01*
X125163251Y-67142476D01*
X124975703Y-67273799D01*
X124975697Y-67273804D01*
X124813804Y-67435697D01*
X124813799Y-67435703D01*
X124682477Y-67623250D01*
X124585717Y-67830753D01*
X124585715Y-67830759D01*
X124526457Y-68051913D01*
X124506502Y-68280000D01*
X124526457Y-68508086D01*
X124585715Y-68729240D01*
X124585717Y-68729246D01*
X124682477Y-68936748D01*
X124682477Y-68936749D01*
X124813802Y-69124300D01*
X124975700Y-69286198D01*
X125163251Y-69417523D01*
X125198359Y-69433894D01*
X125202457Y-69435805D01*
X125255742Y-69482722D01*
X125275203Y-69550999D01*
X125254661Y-69618959D01*
X125202457Y-69664195D01*
X125163250Y-69682477D01*
X124975703Y-69813799D01*
X124975697Y-69813804D01*
X124813804Y-69975697D01*
X124813799Y-69975703D01*
X124682477Y-70163250D01*
X124585717Y-70370753D01*
X124585715Y-70370759D01*
X124537438Y-70550931D01*
X124526457Y-70591913D01*
X124506502Y-70820000D01*
X123258499Y-70820000D01*
X123258499Y-63573476D01*
X123278501Y-63505356D01*
X123295399Y-63484387D01*
X124337428Y-62442358D01*
X124342671Y-62437672D01*
X124373218Y-62413314D01*
X124418489Y-62361495D01*
X124421345Y-62358441D01*
X124429861Y-62349927D01*
X124457040Y-62317370D01*
X124522263Y-62242718D01*
X124524463Y-62239034D01*
X124535911Y-62222899D01*
X124538671Y-62219594D01*
X124587603Y-62133357D01*
X124638453Y-62048250D01*
X124639964Y-62044222D01*
X124648346Y-62026305D01*
X124650468Y-62022567D01*
X124683210Y-61928992D01*
X124718051Y-61836161D01*
X124718817Y-61831934D01*
X124723868Y-61812797D01*
X124725287Y-61808745D01*
X124733709Y-61755569D01*
X124740798Y-61710817D01*
X124758500Y-61613271D01*
X124758500Y-61608963D01*
X124760052Y-61589246D01*
X124760725Y-61585000D01*
X124758500Y-61485863D01*
X124758500Y-58271150D01*
X124763807Y-58241753D01*
X124762177Y-58241368D01*
X124763990Y-58233696D01*
X124770499Y-58173149D01*
X124770500Y-58173132D01*
X124770500Y-56551867D01*
X124770499Y-56551850D01*
X124763990Y-56491303D01*
X124763988Y-56491295D01*
X124724535Y-56385520D01*
X124712889Y-56354296D01*
X124712888Y-56354294D01*
X124712887Y-56354292D01*
X124649301Y-56269352D01*
X124639556Y-56243226D01*
X124630363Y-56240586D01*
X124622341Y-56235052D01*
X124508207Y-56149612D01*
X124508202Y-56149610D01*
X124371204Y-56098511D01*
X124371196Y-56098509D01*
X124310649Y-56092000D01*
X124310638Y-56092000D01*
X122689362Y-56092000D01*
X122689350Y-56092000D01*
X122628803Y-56098509D01*
X122628795Y-56098511D01*
X122491797Y-56149610D01*
X122491792Y-56149612D01*
X122374738Y-56237238D01*
X122287112Y-56354292D01*
X122287110Y-56354297D01*
X122236011Y-56491295D01*
X122236009Y-56491303D01*
X122232633Y-56522713D01*
X122205464Y-56588305D01*
X122147146Y-56628796D01*
X122076194Y-56631330D01*
X122015136Y-56595102D01*
X122004141Y-56581514D01*
X121976977Y-56542719D01*
X121819781Y-56385523D01*
X121819777Y-56385520D01*
X121819772Y-56385516D01*
X121637677Y-56258012D01*
X121637675Y-56258011D01*
X121436199Y-56164061D01*
X121436193Y-56164059D01*
X121382268Y-56149610D01*
X121221463Y-56106522D01*
X121000000Y-56087147D01*
X120778537Y-56106522D01*
X120663463Y-56137356D01*
X120563806Y-56164059D01*
X120563801Y-56164061D01*
X120362323Y-56258012D01*
X120180222Y-56385520D01*
X120089095Y-56476647D01*
X120026783Y-56510672D01*
X119955967Y-56505606D01*
X119910905Y-56476647D01*
X119882391Y-56448133D01*
X119819781Y-56385523D01*
X119819777Y-56385520D01*
X119819772Y-56385516D01*
X119637677Y-56258012D01*
X119637675Y-56258011D01*
X119436199Y-56164061D01*
X119436193Y-56164059D01*
X119382268Y-56149610D01*
X119221463Y-56106522D01*
X119000000Y-56087147D01*
X118778537Y-56106522D01*
X118663462Y-56137356D01*
X118563806Y-56164059D01*
X118563801Y-56164061D01*
X118362323Y-56258012D01*
X118180222Y-56385520D01*
X118180216Y-56385525D01*
X118023025Y-56542716D01*
X118023020Y-56542722D01*
X117895512Y-56724823D01*
X117864195Y-56791983D01*
X117817277Y-56845268D01*
X117749000Y-56864729D01*
X117681040Y-56844187D01*
X117635805Y-56791983D01*
X117613222Y-56743555D01*
X117604488Y-56724824D01*
X117476977Y-56542719D01*
X117319781Y-56385523D01*
X117319777Y-56385520D01*
X117319772Y-56385516D01*
X117137677Y-56258012D01*
X117137675Y-56258011D01*
X116936199Y-56164061D01*
X116936193Y-56164059D01*
X116882268Y-56149610D01*
X116721463Y-56106522D01*
X116500000Y-56087147D01*
X116278537Y-56106522D01*
X116163462Y-56137356D01*
X116063806Y-56164059D01*
X116063801Y-56164061D01*
X115862323Y-56258012D01*
X115680222Y-56385520D01*
X115680216Y-56385525D01*
X115523025Y-56542716D01*
X115523020Y-56542722D01*
X115395512Y-56724823D01*
X115301561Y-56926301D01*
X115301560Y-56926304D01*
X115244022Y-57141037D01*
X115244021Y-57141039D01*
X115244022Y-57141039D01*
X115224796Y-57360802D01*
X115224647Y-57362500D01*
X108000500Y-57362500D01*
X108000500Y-54652503D01*
X111166654Y-54652503D01*
X111186016Y-54947921D01*
X111186018Y-54947935D01*
X111224435Y-55141066D01*
X111234712Y-55192732D01*
X111243776Y-55238295D01*
X111243778Y-55238305D01*
X111338938Y-55518637D01*
X111338944Y-55518651D01*
X111469883Y-55784170D01*
X111634359Y-56030327D01*
X111634361Y-56030330D01*
X111634367Y-56030338D01*
X111829573Y-56252927D01*
X112052162Y-56448133D01*
X112052170Y-56448138D01*
X112052172Y-56448140D01*
X112145758Y-56510672D01*
X112298327Y-56612615D01*
X112563855Y-56743559D01*
X112844203Y-56838724D01*
X113134574Y-56896483D01*
X113303388Y-56907547D01*
X113429997Y-56915846D01*
X113430000Y-56915846D01*
X113430003Y-56915846D01*
X113540784Y-56908584D01*
X113725426Y-56896483D01*
X114015797Y-56838724D01*
X114296145Y-56743559D01*
X114561673Y-56612615D01*
X114807838Y-56448133D01*
X115030427Y-56252927D01*
X115225633Y-56030338D01*
X115390115Y-55784173D01*
X115521059Y-55518645D01*
X115616224Y-55238297D01*
X115673983Y-54947926D01*
X115690285Y-54699200D01*
X115693346Y-54652503D01*
X124306654Y-54652503D01*
X124326016Y-54947921D01*
X124326018Y-54947935D01*
X124364435Y-55141066D01*
X124374712Y-55192732D01*
X124383776Y-55238295D01*
X124383778Y-55238305D01*
X124478938Y-55518637D01*
X124478944Y-55518651D01*
X124609883Y-55784170D01*
X124774359Y-56030327D01*
X124774361Y-56030330D01*
X124774367Y-56030338D01*
X124792582Y-56051109D01*
X124809143Y-56086808D01*
X124825678Y-56092975D01*
X124844899Y-56110764D01*
X124969573Y-56252927D01*
X125192162Y-56448133D01*
X125192170Y-56448138D01*
X125192172Y-56448140D01*
X125285758Y-56510672D01*
X125438327Y-56612615D01*
X125703855Y-56743559D01*
X125984203Y-56838724D01*
X126274574Y-56896483D01*
X126443388Y-56907547D01*
X126569997Y-56915846D01*
X126570000Y-56915846D01*
X126570003Y-56915846D01*
X126680784Y-56908584D01*
X126865426Y-56896483D01*
X127155797Y-56838724D01*
X127436145Y-56743559D01*
X127701673Y-56612615D01*
X127947838Y-56448133D01*
X128170427Y-56252927D01*
X128365633Y-56030338D01*
X128530115Y-55784173D01*
X128661059Y-55518645D01*
X128756224Y-55238297D01*
X128813983Y-54947926D01*
X128830285Y-54699200D01*
X128833346Y-54652503D01*
X128833346Y-54652496D01*
X128813983Y-54357078D01*
X128813983Y-54357074D01*
X128756224Y-54066703D01*
X128661059Y-53786355D01*
X128530115Y-53520827D01*
X128365633Y-53274662D01*
X128170427Y-53052073D01*
X127947838Y-52856867D01*
X127947830Y-52856861D01*
X127947827Y-52856859D01*
X127701670Y-52692383D01*
X127436151Y-52561444D01*
X127436145Y-52561441D01*
X127436140Y-52561439D01*
X127436137Y-52561438D01*
X127155805Y-52466278D01*
X127155799Y-52466276D01*
X127155797Y-52466276D01*
X127058566Y-52446935D01*
X126865435Y-52408518D01*
X126865421Y-52408516D01*
X126570003Y-52389154D01*
X126569997Y-52389154D01*
X126274578Y-52408516D01*
X126274564Y-52408518D01*
X126032818Y-52456605D01*
X125984203Y-52466276D01*
X125984201Y-52466276D01*
X125984194Y-52466278D01*
X125703862Y-52561438D01*
X125703848Y-52561444D01*
X125438329Y-52692383D01*
X125192172Y-52856859D01*
X125192165Y-52856864D01*
X125192162Y-52856867D01*
X124969573Y-53052073D01*
X124774367Y-53274662D01*
X124774364Y-53274665D01*
X124774359Y-53274672D01*
X124609883Y-53520829D01*
X124478944Y-53786348D01*
X124478938Y-53786362D01*
X124383778Y-54066694D01*
X124383776Y-54066704D01*
X124326018Y-54357064D01*
X124326016Y-54357078D01*
X124306654Y-54652496D01*
X124306654Y-54652503D01*
X115693346Y-54652503D01*
X115693346Y-54652496D01*
X115673983Y-54357078D01*
X115673983Y-54357074D01*
X115616224Y-54066703D01*
X115521059Y-53786355D01*
X115390115Y-53520827D01*
X115225633Y-53274662D01*
X115030427Y-53052073D01*
X114807838Y-52856867D01*
X114807830Y-52856861D01*
X114807827Y-52856859D01*
X114561670Y-52692383D01*
X114296151Y-52561444D01*
X114296145Y-52561441D01*
X114296140Y-52561439D01*
X114296137Y-52561438D01*
X114015805Y-52466278D01*
X114015799Y-52466276D01*
X114015797Y-52466276D01*
X113918566Y-52446935D01*
X113725435Y-52408518D01*
X113725421Y-52408516D01*
X113430003Y-52389154D01*
X113429997Y-52389154D01*
X113134578Y-52408516D01*
X113134564Y-52408518D01*
X112892818Y-52456605D01*
X112844203Y-52466276D01*
X112844201Y-52466276D01*
X112844194Y-52466278D01*
X112563862Y-52561438D01*
X112563848Y-52561444D01*
X112298329Y-52692383D01*
X112052172Y-52856859D01*
X112052165Y-52856864D01*
X112052162Y-52856867D01*
X111829573Y-53052073D01*
X111634367Y-53274662D01*
X111634364Y-53274665D01*
X111634359Y-53274672D01*
X111469883Y-53520829D01*
X111338944Y-53786348D01*
X111338938Y-53786362D01*
X111243778Y-54066694D01*
X111243776Y-54066704D01*
X111186018Y-54357064D01*
X111186016Y-54357078D01*
X111166654Y-54652496D01*
X111166654Y-54652503D01*
X108000500Y-54652503D01*
X108000500Y-49000000D01*
X108009493Y-48782569D01*
X108018159Y-48584078D01*
X108018576Y-48579114D01*
X108045485Y-48363241D01*
X108071879Y-48162764D01*
X108072678Y-48158071D01*
X108117191Y-47945778D01*
X108161156Y-47747470D01*
X108162259Y-47743214D01*
X108224112Y-47535457D01*
X108285315Y-47341346D01*
X108286695Y-47337433D01*
X108365469Y-47135551D01*
X108443475Y-46947229D01*
X108445051Y-46943735D01*
X108540251Y-46749000D01*
X108634492Y-46567965D01*
X108636197Y-46564907D01*
X108747211Y-46378601D01*
X108856956Y-46206337D01*
X108858769Y-46203650D01*
X108984856Y-46027054D01*
X109109303Y-45864874D01*
X109111169Y-45862561D01*
X109251448Y-45696933D01*
X109390563Y-45545115D01*
X109545115Y-45390563D01*
X109696933Y-45251448D01*
X109862561Y-45111169D01*
X109864874Y-45109303D01*
X110027054Y-44984856D01*
X110203650Y-44858769D01*
X110206337Y-44856956D01*
X110378601Y-44747211D01*
X110564907Y-44636197D01*
X110567965Y-44634492D01*
X110748973Y-44540264D01*
X110943735Y-44445051D01*
X110947229Y-44443475D01*
X111135551Y-44365469D01*
X111337441Y-44286691D01*
X111341346Y-44285315D01*
X111535457Y-44224112D01*
X111743214Y-44162259D01*
X111747470Y-44161156D01*
X111945778Y-44117191D01*
X112158071Y-44072678D01*
X112162765Y-44071879D01*
X112363241Y-44045485D01*
X112579114Y-44018576D01*
X112584078Y-44018159D01*
X112782569Y-44009493D01*
X113000000Y-44000500D01*
X113000500Y-44000500D01*
X142999901Y-44000500D01*
X172999500Y-44000500D01*
X173000000Y-44000500D01*
X173217318Y-44009488D01*
G37*
G04 #@! TD.AperFunction*
G04 #@! TD*
M02*
