G04 #@! TF.GenerationSoftware,KiCad,Pcbnew,7.0.7-2.fc38*
G04 #@! TF.CreationDate,2023-10-09T12:01:20+01:00*
G04 #@! TF.ProjectId,Main_PCB,4d61696e-5f50-4434-922e-6b696361645f,rev?*
G04 #@! TF.SameCoordinates,Original*
G04 #@! TF.FileFunction,Legend,Top*
G04 #@! TF.FilePolarity,Positive*
%FSLAX46Y46*%
G04 Gerber Fmt 4.6, Leading zero omitted, Abs format (unit mm)*
G04 Created by KiCad (PCBNEW 7.0.7-2.fc38) date 2023-10-09 12:01:20*
%MOMM*%
%LPD*%
G01*
G04 APERTURE LIST*
%ADD10C,0.300000*%
%ADD11C,0.150000*%
%ADD12C,0.120000*%
G04 APERTURE END LIST*
D10*
X128211653Y-85704876D02*
X128097368Y-85609638D01*
X128097368Y-85609638D02*
X127925939Y-85609638D01*
X127925939Y-85609638D02*
X127754510Y-85704876D01*
X127754510Y-85704876D02*
X127640225Y-85895352D01*
X127640225Y-85895352D02*
X127583082Y-86085828D01*
X127583082Y-86085828D02*
X127525939Y-86466780D01*
X127525939Y-86466780D02*
X127525939Y-86752495D01*
X127525939Y-86752495D02*
X127583082Y-87133447D01*
X127583082Y-87133447D02*
X127640225Y-87323923D01*
X127640225Y-87323923D02*
X127754510Y-87514400D01*
X127754510Y-87514400D02*
X127925939Y-87609638D01*
X127925939Y-87609638D02*
X128040225Y-87609638D01*
X128040225Y-87609638D02*
X128211653Y-87514400D01*
X128211653Y-87514400D02*
X128268796Y-87419161D01*
X128268796Y-87419161D02*
X128268796Y-86752495D01*
X128268796Y-86752495D02*
X128040225Y-86752495D01*
X128783082Y-87609638D02*
X128783082Y-85609638D01*
X128783082Y-85609638D02*
X129468796Y-87609638D01*
X129468796Y-87609638D02*
X129468796Y-85609638D01*
X130040225Y-87609638D02*
X130040225Y-85609638D01*
X130040225Y-85609638D02*
X130325939Y-85609638D01*
X130325939Y-85609638D02*
X130497368Y-85704876D01*
X130497368Y-85704876D02*
X130611653Y-85895352D01*
X130611653Y-85895352D02*
X130668796Y-86085828D01*
X130668796Y-86085828D02*
X130725939Y-86466780D01*
X130725939Y-86466780D02*
X130725939Y-86752495D01*
X130725939Y-86752495D02*
X130668796Y-87133447D01*
X130668796Y-87133447D02*
X130611653Y-87323923D01*
X130611653Y-87323923D02*
X130497368Y-87514400D01*
X130497368Y-87514400D02*
X130325939Y-87609638D01*
X130325939Y-87609638D02*
X130040225Y-87609638D01*
D11*
X174907200Y-91607143D02*
X174954819Y-91464286D01*
X174954819Y-91464286D02*
X174954819Y-91226191D01*
X174954819Y-91226191D02*
X174907200Y-91130953D01*
X174907200Y-91130953D02*
X174859580Y-91083334D01*
X174859580Y-91083334D02*
X174764342Y-91035715D01*
X174764342Y-91035715D02*
X174669104Y-91035715D01*
X174669104Y-91035715D02*
X174573866Y-91083334D01*
X174573866Y-91083334D02*
X174526247Y-91130953D01*
X174526247Y-91130953D02*
X174478628Y-91226191D01*
X174478628Y-91226191D02*
X174431009Y-91416667D01*
X174431009Y-91416667D02*
X174383390Y-91511905D01*
X174383390Y-91511905D02*
X174335771Y-91559524D01*
X174335771Y-91559524D02*
X174240533Y-91607143D01*
X174240533Y-91607143D02*
X174145295Y-91607143D01*
X174145295Y-91607143D02*
X174050057Y-91559524D01*
X174050057Y-91559524D02*
X174002438Y-91511905D01*
X174002438Y-91511905D02*
X173954819Y-91416667D01*
X173954819Y-91416667D02*
X173954819Y-91178572D01*
X173954819Y-91178572D02*
X174002438Y-91035715D01*
X174288152Y-90178572D02*
X174954819Y-90178572D01*
X174288152Y-90607143D02*
X174811961Y-90607143D01*
X174811961Y-90607143D02*
X174907200Y-90559524D01*
X174907200Y-90559524D02*
X174954819Y-90464286D01*
X174954819Y-90464286D02*
X174954819Y-90321429D01*
X174954819Y-90321429D02*
X174907200Y-90226191D01*
X174907200Y-90226191D02*
X174859580Y-90178572D01*
X174288152Y-89702381D02*
X174954819Y-89702381D01*
X174383390Y-89702381D02*
X174335771Y-89654762D01*
X174335771Y-89654762D02*
X174288152Y-89559524D01*
X174288152Y-89559524D02*
X174288152Y-89416667D01*
X174288152Y-89416667D02*
X174335771Y-89321429D01*
X174335771Y-89321429D02*
X174431009Y-89273810D01*
X174431009Y-89273810D02*
X174954819Y-89273810D01*
X174954819Y-88797619D02*
X174288152Y-88797619D01*
X174478628Y-88797619D02*
X174383390Y-88750000D01*
X174383390Y-88750000D02*
X174335771Y-88702381D01*
X174335771Y-88702381D02*
X174288152Y-88607143D01*
X174288152Y-88607143D02*
X174288152Y-88511905D01*
X174954819Y-88178571D02*
X174288152Y-88178571D01*
X173954819Y-88178571D02*
X174002438Y-88226190D01*
X174002438Y-88226190D02*
X174050057Y-88178571D01*
X174050057Y-88178571D02*
X174002438Y-88130952D01*
X174002438Y-88130952D02*
X173954819Y-88178571D01*
X173954819Y-88178571D02*
X174050057Y-88178571D01*
X174907200Y-87750000D02*
X174954819Y-87654762D01*
X174954819Y-87654762D02*
X174954819Y-87464286D01*
X174954819Y-87464286D02*
X174907200Y-87369048D01*
X174907200Y-87369048D02*
X174811961Y-87321429D01*
X174811961Y-87321429D02*
X174764342Y-87321429D01*
X174764342Y-87321429D02*
X174669104Y-87369048D01*
X174669104Y-87369048D02*
X174621485Y-87464286D01*
X174621485Y-87464286D02*
X174621485Y-87607143D01*
X174621485Y-87607143D02*
X174573866Y-87702381D01*
X174573866Y-87702381D02*
X174478628Y-87750000D01*
X174478628Y-87750000D02*
X174431009Y-87750000D01*
X174431009Y-87750000D02*
X174335771Y-87702381D01*
X174335771Y-87702381D02*
X174288152Y-87607143D01*
X174288152Y-87607143D02*
X174288152Y-87464286D01*
X174288152Y-87464286D02*
X174335771Y-87369048D01*
X174907200Y-86511905D02*
X174954819Y-86607143D01*
X174954819Y-86607143D02*
X174954819Y-86797619D01*
X174954819Y-86797619D02*
X174907200Y-86892857D01*
X174907200Y-86892857D02*
X174811961Y-86940476D01*
X174811961Y-86940476D02*
X174431009Y-86940476D01*
X174431009Y-86940476D02*
X174335771Y-86892857D01*
X174335771Y-86892857D02*
X174288152Y-86797619D01*
X174288152Y-86797619D02*
X174288152Y-86607143D01*
X174288152Y-86607143D02*
X174335771Y-86511905D01*
X174335771Y-86511905D02*
X174431009Y-86464286D01*
X174431009Y-86464286D02*
X174526247Y-86464286D01*
X174526247Y-86464286D02*
X174621485Y-86940476D01*
X174669104Y-85321428D02*
X174669104Y-84845238D01*
X174954819Y-85416666D02*
X173954819Y-85083333D01*
X173954819Y-85083333D02*
X174954819Y-84750000D01*
X174954819Y-84273809D02*
X174907200Y-84369047D01*
X174907200Y-84369047D02*
X174811961Y-84416666D01*
X174811961Y-84416666D02*
X173954819Y-84416666D01*
X174954819Y-83464285D02*
X174431009Y-83464285D01*
X174431009Y-83464285D02*
X174335771Y-83511904D01*
X174335771Y-83511904D02*
X174288152Y-83607142D01*
X174288152Y-83607142D02*
X174288152Y-83797618D01*
X174288152Y-83797618D02*
X174335771Y-83892856D01*
X174907200Y-83464285D02*
X174954819Y-83559523D01*
X174954819Y-83559523D02*
X174954819Y-83797618D01*
X174954819Y-83797618D02*
X174907200Y-83892856D01*
X174907200Y-83892856D02*
X174811961Y-83940475D01*
X174811961Y-83940475D02*
X174716723Y-83940475D01*
X174716723Y-83940475D02*
X174621485Y-83892856D01*
X174621485Y-83892856D02*
X174573866Y-83797618D01*
X174573866Y-83797618D02*
X174573866Y-83559523D01*
X174573866Y-83559523D02*
X174526247Y-83464285D01*
X174954819Y-82988094D02*
X174288152Y-82988094D01*
X174478628Y-82988094D02*
X174383390Y-82940475D01*
X174383390Y-82940475D02*
X174335771Y-82892856D01*
X174335771Y-82892856D02*
X174288152Y-82797618D01*
X174288152Y-82797618D02*
X174288152Y-82702380D01*
X174954819Y-82369046D02*
X174288152Y-82369046D01*
X174383390Y-82369046D02*
X174335771Y-82321427D01*
X174335771Y-82321427D02*
X174288152Y-82226189D01*
X174288152Y-82226189D02*
X174288152Y-82083332D01*
X174288152Y-82083332D02*
X174335771Y-81988094D01*
X174335771Y-81988094D02*
X174431009Y-81940475D01*
X174431009Y-81940475D02*
X174954819Y-81940475D01*
X174431009Y-81940475D02*
X174335771Y-81892856D01*
X174335771Y-81892856D02*
X174288152Y-81797618D01*
X174288152Y-81797618D02*
X174288152Y-81654761D01*
X174288152Y-81654761D02*
X174335771Y-81559522D01*
X174335771Y-81559522D02*
X174431009Y-81511903D01*
X174431009Y-81511903D02*
X174954819Y-81511903D01*
X173954819Y-80416665D02*
X174954819Y-80083332D01*
X174954819Y-80083332D02*
X173954819Y-79749999D01*
X173954819Y-79511903D02*
X173954819Y-78892856D01*
X173954819Y-78892856D02*
X174335771Y-79226189D01*
X174335771Y-79226189D02*
X174335771Y-79083332D01*
X174335771Y-79083332D02*
X174383390Y-78988094D01*
X174383390Y-78988094D02*
X174431009Y-78940475D01*
X174431009Y-78940475D02*
X174526247Y-78892856D01*
X174526247Y-78892856D02*
X174764342Y-78892856D01*
X174764342Y-78892856D02*
X174859580Y-78940475D01*
X174859580Y-78940475D02*
X174907200Y-78988094D01*
X174907200Y-78988094D02*
X174954819Y-79083332D01*
X174954819Y-79083332D02*
X174954819Y-79369046D01*
X174954819Y-79369046D02*
X174907200Y-79464284D01*
X174907200Y-79464284D02*
X174859580Y-79511903D01*
X174859580Y-78464284D02*
X174907200Y-78416665D01*
X174907200Y-78416665D02*
X174954819Y-78464284D01*
X174954819Y-78464284D02*
X174907200Y-78511903D01*
X174907200Y-78511903D02*
X174859580Y-78464284D01*
X174859580Y-78464284D02*
X174954819Y-78464284D01*
X174335771Y-78464284D02*
X174383390Y-78416665D01*
X174383390Y-78416665D02*
X174431009Y-78464284D01*
X174431009Y-78464284D02*
X174383390Y-78511903D01*
X174383390Y-78511903D02*
X174335771Y-78464284D01*
X174335771Y-78464284D02*
X174431009Y-78464284D01*
X174954819Y-77226189D02*
X173954819Y-77226189D01*
X173954819Y-77226189D02*
X174669104Y-76892856D01*
X174669104Y-76892856D02*
X173954819Y-76559523D01*
X173954819Y-76559523D02*
X174954819Y-76559523D01*
X174954819Y-75654761D02*
X174431009Y-75654761D01*
X174431009Y-75654761D02*
X174335771Y-75702380D01*
X174335771Y-75702380D02*
X174288152Y-75797618D01*
X174288152Y-75797618D02*
X174288152Y-75988094D01*
X174288152Y-75988094D02*
X174335771Y-76083332D01*
X174907200Y-75654761D02*
X174954819Y-75749999D01*
X174954819Y-75749999D02*
X174954819Y-75988094D01*
X174954819Y-75988094D02*
X174907200Y-76083332D01*
X174907200Y-76083332D02*
X174811961Y-76130951D01*
X174811961Y-76130951D02*
X174716723Y-76130951D01*
X174716723Y-76130951D02*
X174621485Y-76083332D01*
X174621485Y-76083332D02*
X174573866Y-75988094D01*
X174573866Y-75988094D02*
X174573866Y-75749999D01*
X174573866Y-75749999D02*
X174526247Y-75654761D01*
X174954819Y-75178570D02*
X174288152Y-75178570D01*
X173954819Y-75178570D02*
X174002438Y-75226189D01*
X174002438Y-75226189D02*
X174050057Y-75178570D01*
X174050057Y-75178570D02*
X174002438Y-75130951D01*
X174002438Y-75130951D02*
X173954819Y-75178570D01*
X173954819Y-75178570D02*
X174050057Y-75178570D01*
X174288152Y-74702380D02*
X174954819Y-74702380D01*
X174383390Y-74702380D02*
X174335771Y-74654761D01*
X174335771Y-74654761D02*
X174288152Y-74559523D01*
X174288152Y-74559523D02*
X174288152Y-74416666D01*
X174288152Y-74416666D02*
X174335771Y-74321428D01*
X174335771Y-74321428D02*
X174431009Y-74273809D01*
X174431009Y-74273809D02*
X174954819Y-74273809D01*
X174954819Y-73035713D02*
X173954819Y-73035713D01*
X173954819Y-73035713D02*
X173954819Y-72654761D01*
X173954819Y-72654761D02*
X174002438Y-72559523D01*
X174002438Y-72559523D02*
X174050057Y-72511904D01*
X174050057Y-72511904D02*
X174145295Y-72464285D01*
X174145295Y-72464285D02*
X174288152Y-72464285D01*
X174288152Y-72464285D02*
X174383390Y-72511904D01*
X174383390Y-72511904D02*
X174431009Y-72559523D01*
X174431009Y-72559523D02*
X174478628Y-72654761D01*
X174478628Y-72654761D02*
X174478628Y-73035713D01*
X174859580Y-71464285D02*
X174907200Y-71511904D01*
X174907200Y-71511904D02*
X174954819Y-71654761D01*
X174954819Y-71654761D02*
X174954819Y-71749999D01*
X174954819Y-71749999D02*
X174907200Y-71892856D01*
X174907200Y-71892856D02*
X174811961Y-71988094D01*
X174811961Y-71988094D02*
X174716723Y-72035713D01*
X174716723Y-72035713D02*
X174526247Y-72083332D01*
X174526247Y-72083332D02*
X174383390Y-72083332D01*
X174383390Y-72083332D02*
X174192914Y-72035713D01*
X174192914Y-72035713D02*
X174097676Y-71988094D01*
X174097676Y-71988094D02*
X174002438Y-71892856D01*
X174002438Y-71892856D02*
X173954819Y-71749999D01*
X173954819Y-71749999D02*
X173954819Y-71654761D01*
X173954819Y-71654761D02*
X174002438Y-71511904D01*
X174002438Y-71511904D02*
X174050057Y-71464285D01*
X174431009Y-70702380D02*
X174478628Y-70559523D01*
X174478628Y-70559523D02*
X174526247Y-70511904D01*
X174526247Y-70511904D02*
X174621485Y-70464285D01*
X174621485Y-70464285D02*
X174764342Y-70464285D01*
X174764342Y-70464285D02*
X174859580Y-70511904D01*
X174859580Y-70511904D02*
X174907200Y-70559523D01*
X174907200Y-70559523D02*
X174954819Y-70654761D01*
X174954819Y-70654761D02*
X174954819Y-71035713D01*
X174954819Y-71035713D02*
X173954819Y-71035713D01*
X173954819Y-71035713D02*
X173954819Y-70702380D01*
X173954819Y-70702380D02*
X174002438Y-70607142D01*
X174002438Y-70607142D02*
X174050057Y-70559523D01*
X174050057Y-70559523D02*
X174145295Y-70511904D01*
X174145295Y-70511904D02*
X174240533Y-70511904D01*
X174240533Y-70511904D02*
X174335771Y-70559523D01*
X174335771Y-70559523D02*
X174383390Y-70607142D01*
X174383390Y-70607142D02*
X174431009Y-70702380D01*
X174431009Y-70702380D02*
X174431009Y-71035713D01*
X173954819Y-69416665D02*
X174954819Y-69083332D01*
X174954819Y-69083332D02*
X173954819Y-68749999D01*
X174954819Y-67892856D02*
X174954819Y-68464284D01*
X174954819Y-68178570D02*
X173954819Y-68178570D01*
X173954819Y-68178570D02*
X174097676Y-68273808D01*
X174097676Y-68273808D02*
X174192914Y-68369046D01*
X174192914Y-68369046D02*
X174240533Y-68464284D01*
D10*
X127811653Y-79409638D02*
X128040225Y-79409638D01*
X128040225Y-79409638D02*
X128154510Y-79504876D01*
X128154510Y-79504876D02*
X128268796Y-79695352D01*
X128268796Y-79695352D02*
X128325939Y-80076304D01*
X128325939Y-80076304D02*
X128325939Y-80742971D01*
X128325939Y-80742971D02*
X128268796Y-81123923D01*
X128268796Y-81123923D02*
X128154510Y-81314400D01*
X128154510Y-81314400D02*
X128040225Y-81409638D01*
X128040225Y-81409638D02*
X127811653Y-81409638D01*
X127811653Y-81409638D02*
X127697368Y-81314400D01*
X127697368Y-81314400D02*
X127583082Y-81123923D01*
X127583082Y-81123923D02*
X127525939Y-80742971D01*
X127525939Y-80742971D02*
X127525939Y-80076304D01*
X127525939Y-80076304D02*
X127583082Y-79695352D01*
X127583082Y-79695352D02*
X127697368Y-79504876D01*
X127697368Y-79504876D02*
X127811653Y-79409638D01*
X128840225Y-79409638D02*
X128840225Y-81028685D01*
X128840225Y-81028685D02*
X128897368Y-81219161D01*
X128897368Y-81219161D02*
X128954511Y-81314400D01*
X128954511Y-81314400D02*
X129068796Y-81409638D01*
X129068796Y-81409638D02*
X129297368Y-81409638D01*
X129297368Y-81409638D02*
X129411653Y-81314400D01*
X129411653Y-81314400D02*
X129468796Y-81219161D01*
X129468796Y-81219161D02*
X129525939Y-81028685D01*
X129525939Y-81028685D02*
X129525939Y-79409638D01*
X129925939Y-79409638D02*
X130611654Y-79409638D01*
X130268796Y-81409638D02*
X130268796Y-79409638D01*
X128268796Y-90109638D02*
X127868796Y-89157257D01*
X127583082Y-90109638D02*
X127583082Y-88109638D01*
X127583082Y-88109638D02*
X128040225Y-88109638D01*
X128040225Y-88109638D02*
X128154510Y-88204876D01*
X128154510Y-88204876D02*
X128211653Y-88300114D01*
X128211653Y-88300114D02*
X128268796Y-88490590D01*
X128268796Y-88490590D02*
X128268796Y-88776304D01*
X128268796Y-88776304D02*
X128211653Y-88966780D01*
X128211653Y-88966780D02*
X128154510Y-89062019D01*
X128154510Y-89062019D02*
X128040225Y-89157257D01*
X128040225Y-89157257D02*
X127583082Y-89157257D01*
X128783082Y-90109638D02*
X128783082Y-88109638D01*
X129983082Y-88204876D02*
X129868797Y-88109638D01*
X129868797Y-88109638D02*
X129697368Y-88109638D01*
X129697368Y-88109638D02*
X129525939Y-88204876D01*
X129525939Y-88204876D02*
X129411654Y-88395352D01*
X129411654Y-88395352D02*
X129354511Y-88585828D01*
X129354511Y-88585828D02*
X129297368Y-88966780D01*
X129297368Y-88966780D02*
X129297368Y-89252495D01*
X129297368Y-89252495D02*
X129354511Y-89633447D01*
X129354511Y-89633447D02*
X129411654Y-89823923D01*
X129411654Y-89823923D02*
X129525939Y-90014400D01*
X129525939Y-90014400D02*
X129697368Y-90109638D01*
X129697368Y-90109638D02*
X129811654Y-90109638D01*
X129811654Y-90109638D02*
X129983082Y-90014400D01*
X129983082Y-90014400D02*
X130040225Y-89919161D01*
X130040225Y-89919161D02*
X130040225Y-89252495D01*
X130040225Y-89252495D02*
X129811654Y-89252495D01*
X156102631Y-87319161D02*
X156045488Y-87414400D01*
X156045488Y-87414400D02*
X155874060Y-87509638D01*
X155874060Y-87509638D02*
X155759774Y-87509638D01*
X155759774Y-87509638D02*
X155588345Y-87414400D01*
X155588345Y-87414400D02*
X155474060Y-87223923D01*
X155474060Y-87223923D02*
X155416917Y-87033447D01*
X155416917Y-87033447D02*
X155359774Y-86652495D01*
X155359774Y-86652495D02*
X155359774Y-86366780D01*
X155359774Y-86366780D02*
X155416917Y-85985828D01*
X155416917Y-85985828D02*
X155474060Y-85795352D01*
X155474060Y-85795352D02*
X155588345Y-85604876D01*
X155588345Y-85604876D02*
X155759774Y-85509638D01*
X155759774Y-85509638D02*
X155874060Y-85509638D01*
X155874060Y-85509638D02*
X156045488Y-85604876D01*
X156045488Y-85604876D02*
X156102631Y-85700114D01*
X157188345Y-87509638D02*
X156616917Y-87509638D01*
X156616917Y-87509638D02*
X156616917Y-85509638D01*
X157588346Y-87509638D02*
X157588346Y-85509638D01*
X158274060Y-87509638D02*
X157759774Y-86366780D01*
X158274060Y-85509638D02*
X157588346Y-86652495D01*
X156388346Y-92609638D02*
X156388346Y-90609638D01*
X156388346Y-90609638D02*
X156674060Y-90609638D01*
X156674060Y-90609638D02*
X156845489Y-90704876D01*
X156845489Y-90704876D02*
X156959774Y-90895352D01*
X156959774Y-90895352D02*
X157016917Y-91085828D01*
X157016917Y-91085828D02*
X157074060Y-91466780D01*
X157074060Y-91466780D02*
X157074060Y-91752495D01*
X157074060Y-91752495D02*
X157016917Y-92133447D01*
X157016917Y-92133447D02*
X156959774Y-92323923D01*
X156959774Y-92323923D02*
X156845489Y-92514400D01*
X156845489Y-92514400D02*
X156674060Y-92609638D01*
X156674060Y-92609638D02*
X156388346Y-92609638D01*
X158274060Y-92419161D02*
X158216917Y-92514400D01*
X158216917Y-92514400D02*
X158045489Y-92609638D01*
X158045489Y-92609638D02*
X157931203Y-92609638D01*
X157931203Y-92609638D02*
X157759774Y-92514400D01*
X157759774Y-92514400D02*
X157645489Y-92323923D01*
X157645489Y-92323923D02*
X157588346Y-92133447D01*
X157588346Y-92133447D02*
X157531203Y-91752495D01*
X157531203Y-91752495D02*
X157531203Y-91466780D01*
X157531203Y-91466780D02*
X157588346Y-91085828D01*
X157588346Y-91085828D02*
X157645489Y-90895352D01*
X157645489Y-90895352D02*
X157759774Y-90704876D01*
X157759774Y-90704876D02*
X157931203Y-90609638D01*
X157931203Y-90609638D02*
X158045489Y-90609638D01*
X158045489Y-90609638D02*
X158216917Y-90704876D01*
X158216917Y-90704876D02*
X158274060Y-90800114D01*
X156216917Y-95209638D02*
X155816917Y-94257257D01*
X155531203Y-95209638D02*
X155531203Y-93209638D01*
X155531203Y-93209638D02*
X155988346Y-93209638D01*
X155988346Y-93209638D02*
X156102631Y-93304876D01*
X156102631Y-93304876D02*
X156159774Y-93400114D01*
X156159774Y-93400114D02*
X156216917Y-93590590D01*
X156216917Y-93590590D02*
X156216917Y-93876304D01*
X156216917Y-93876304D02*
X156159774Y-94066780D01*
X156159774Y-94066780D02*
X156102631Y-94162019D01*
X156102631Y-94162019D02*
X155988346Y-94257257D01*
X155988346Y-94257257D02*
X155531203Y-94257257D01*
X156674060Y-95114400D02*
X156845489Y-95209638D01*
X156845489Y-95209638D02*
X157131203Y-95209638D01*
X157131203Y-95209638D02*
X157245489Y-95114400D01*
X157245489Y-95114400D02*
X157302631Y-95019161D01*
X157302631Y-95019161D02*
X157359774Y-94828685D01*
X157359774Y-94828685D02*
X157359774Y-94638209D01*
X157359774Y-94638209D02*
X157302631Y-94447733D01*
X157302631Y-94447733D02*
X157245489Y-94352495D01*
X157245489Y-94352495D02*
X157131203Y-94257257D01*
X157131203Y-94257257D02*
X156902631Y-94162019D01*
X156902631Y-94162019D02*
X156788346Y-94066780D01*
X156788346Y-94066780D02*
X156731203Y-93971542D01*
X156731203Y-93971542D02*
X156674060Y-93781066D01*
X156674060Y-93781066D02*
X156674060Y-93590590D01*
X156674060Y-93590590D02*
X156731203Y-93400114D01*
X156731203Y-93400114D02*
X156788346Y-93304876D01*
X156788346Y-93304876D02*
X156902631Y-93209638D01*
X156902631Y-93209638D02*
X157188346Y-93209638D01*
X157188346Y-93209638D02*
X157359774Y-93304876D01*
X157702631Y-93209638D02*
X158388346Y-93209638D01*
X158045488Y-95209638D02*
X158045488Y-93209638D01*
X128154510Y-95309638D02*
X127583082Y-95309638D01*
X127583082Y-95309638D02*
X127583082Y-93309638D01*
X128554511Y-94262019D02*
X128954511Y-94262019D01*
X129125939Y-95309638D02*
X128554511Y-95309638D01*
X128554511Y-95309638D02*
X128554511Y-93309638D01*
X128554511Y-93309638D02*
X129125939Y-93309638D01*
X130040225Y-94262019D02*
X129640225Y-94262019D01*
X129640225Y-95309638D02*
X129640225Y-93309638D01*
X129640225Y-93309638D02*
X130211653Y-93309638D01*
X157131203Y-89919161D02*
X157074060Y-90014400D01*
X157074060Y-90014400D02*
X156902632Y-90109638D01*
X156902632Y-90109638D02*
X156788346Y-90109638D01*
X156788346Y-90109638D02*
X156616917Y-90014400D01*
X156616917Y-90014400D02*
X156502632Y-89823923D01*
X156502632Y-89823923D02*
X156445489Y-89633447D01*
X156445489Y-89633447D02*
X156388346Y-89252495D01*
X156388346Y-89252495D02*
X156388346Y-88966780D01*
X156388346Y-88966780D02*
X156445489Y-88585828D01*
X156445489Y-88585828D02*
X156502632Y-88395352D01*
X156502632Y-88395352D02*
X156616917Y-88204876D01*
X156616917Y-88204876D02*
X156788346Y-88109638D01*
X156788346Y-88109638D02*
X156902632Y-88109638D01*
X156902632Y-88109638D02*
X157074060Y-88204876D01*
X157074060Y-88204876D02*
X157131203Y-88300114D01*
X157588346Y-90014400D02*
X157759775Y-90109638D01*
X157759775Y-90109638D02*
X158045489Y-90109638D01*
X158045489Y-90109638D02*
X158159775Y-90014400D01*
X158159775Y-90014400D02*
X158216917Y-89919161D01*
X158216917Y-89919161D02*
X158274060Y-89728685D01*
X158274060Y-89728685D02*
X158274060Y-89538209D01*
X158274060Y-89538209D02*
X158216917Y-89347733D01*
X158216917Y-89347733D02*
X158159775Y-89252495D01*
X158159775Y-89252495D02*
X158045489Y-89157257D01*
X158045489Y-89157257D02*
X157816917Y-89062019D01*
X157816917Y-89062019D02*
X157702632Y-88966780D01*
X157702632Y-88966780D02*
X157645489Y-88871542D01*
X157645489Y-88871542D02*
X157588346Y-88681066D01*
X157588346Y-88681066D02*
X157588346Y-88490590D01*
X157588346Y-88490590D02*
X157645489Y-88300114D01*
X157645489Y-88300114D02*
X157702632Y-88204876D01*
X157702632Y-88204876D02*
X157816917Y-88109638D01*
X157816917Y-88109638D02*
X158102632Y-88109638D01*
X158102632Y-88109638D02*
X158274060Y-88204876D01*
X128211653Y-77004876D02*
X128097368Y-76909638D01*
X128097368Y-76909638D02*
X127925939Y-76909638D01*
X127925939Y-76909638D02*
X127754510Y-77004876D01*
X127754510Y-77004876D02*
X127640225Y-77195352D01*
X127640225Y-77195352D02*
X127583082Y-77385828D01*
X127583082Y-77385828D02*
X127525939Y-77766780D01*
X127525939Y-77766780D02*
X127525939Y-78052495D01*
X127525939Y-78052495D02*
X127583082Y-78433447D01*
X127583082Y-78433447D02*
X127640225Y-78623923D01*
X127640225Y-78623923D02*
X127754510Y-78814400D01*
X127754510Y-78814400D02*
X127925939Y-78909638D01*
X127925939Y-78909638D02*
X128040225Y-78909638D01*
X128040225Y-78909638D02*
X128211653Y-78814400D01*
X128211653Y-78814400D02*
X128268796Y-78719161D01*
X128268796Y-78719161D02*
X128268796Y-78052495D01*
X128268796Y-78052495D02*
X128040225Y-78052495D01*
X128783082Y-78909638D02*
X128783082Y-76909638D01*
X128783082Y-76909638D02*
X129468796Y-78909638D01*
X129468796Y-78909638D02*
X129468796Y-76909638D01*
X130040225Y-78909638D02*
X130040225Y-76909638D01*
X130040225Y-76909638D02*
X130325939Y-76909638D01*
X130325939Y-76909638D02*
X130497368Y-77004876D01*
X130497368Y-77004876D02*
X130611653Y-77195352D01*
X130611653Y-77195352D02*
X130668796Y-77385828D01*
X130668796Y-77385828D02*
X130725939Y-77766780D01*
X130725939Y-77766780D02*
X130725939Y-78052495D01*
X130725939Y-78052495D02*
X130668796Y-78433447D01*
X130668796Y-78433447D02*
X130611653Y-78623923D01*
X130611653Y-78623923D02*
X130497368Y-78814400D01*
X130497368Y-78814400D02*
X130325939Y-78909638D01*
X130325939Y-78909638D02*
X130040225Y-78909638D01*
X155759774Y-85009638D02*
X155759774Y-83009638D01*
X155759774Y-83009638D02*
X156045488Y-83009638D01*
X156045488Y-83009638D02*
X156216917Y-83104876D01*
X156216917Y-83104876D02*
X156331202Y-83295352D01*
X156331202Y-83295352D02*
X156388345Y-83485828D01*
X156388345Y-83485828D02*
X156445488Y-83866780D01*
X156445488Y-83866780D02*
X156445488Y-84152495D01*
X156445488Y-84152495D02*
X156388345Y-84533447D01*
X156388345Y-84533447D02*
X156331202Y-84723923D01*
X156331202Y-84723923D02*
X156216917Y-84914400D01*
X156216917Y-84914400D02*
X156045488Y-85009638D01*
X156045488Y-85009638D02*
X155759774Y-85009638D01*
X156959774Y-85009638D02*
X156959774Y-83009638D01*
X157531203Y-85009638D02*
X157531203Y-83009638D01*
X157531203Y-83009638D02*
X158216917Y-85009638D01*
X158216917Y-85009638D02*
X158216917Y-83009638D01*
X127351653Y-74409638D02*
X127751653Y-76409638D01*
X127751653Y-76409638D02*
X128151653Y-74409638D01*
X129237367Y-76219161D02*
X129180224Y-76314400D01*
X129180224Y-76314400D02*
X129008796Y-76409638D01*
X129008796Y-76409638D02*
X128894510Y-76409638D01*
X128894510Y-76409638D02*
X128723081Y-76314400D01*
X128723081Y-76314400D02*
X128608796Y-76123923D01*
X128608796Y-76123923D02*
X128551653Y-75933447D01*
X128551653Y-75933447D02*
X128494510Y-75552495D01*
X128494510Y-75552495D02*
X128494510Y-75266780D01*
X128494510Y-75266780D02*
X128551653Y-74885828D01*
X128551653Y-74885828D02*
X128608796Y-74695352D01*
X128608796Y-74695352D02*
X128723081Y-74504876D01*
X128723081Y-74504876D02*
X128894510Y-74409638D01*
X128894510Y-74409638D02*
X129008796Y-74409638D01*
X129008796Y-74409638D02*
X129180224Y-74504876D01*
X129180224Y-74504876D02*
X129237367Y-74600114D01*
X130437367Y-76219161D02*
X130380224Y-76314400D01*
X130380224Y-76314400D02*
X130208796Y-76409638D01*
X130208796Y-76409638D02*
X130094510Y-76409638D01*
X130094510Y-76409638D02*
X129923081Y-76314400D01*
X129923081Y-76314400D02*
X129808796Y-76123923D01*
X129808796Y-76123923D02*
X129751653Y-75933447D01*
X129751653Y-75933447D02*
X129694510Y-75552495D01*
X129694510Y-75552495D02*
X129694510Y-75266780D01*
X129694510Y-75266780D02*
X129751653Y-74885828D01*
X129751653Y-74885828D02*
X129808796Y-74695352D01*
X129808796Y-74695352D02*
X129923081Y-74504876D01*
X129923081Y-74504876D02*
X130094510Y-74409638D01*
X130094510Y-74409638D02*
X130208796Y-74409638D01*
X130208796Y-74409638D02*
X130380224Y-74504876D01*
X130380224Y-74504876D02*
X130437367Y-74600114D01*
X155749774Y-80604876D02*
X155635489Y-80509638D01*
X155635489Y-80509638D02*
X155464060Y-80509638D01*
X155464060Y-80509638D02*
X155292631Y-80604876D01*
X155292631Y-80604876D02*
X155178346Y-80795352D01*
X155178346Y-80795352D02*
X155121203Y-80985828D01*
X155121203Y-80985828D02*
X155064060Y-81366780D01*
X155064060Y-81366780D02*
X155064060Y-81652495D01*
X155064060Y-81652495D02*
X155121203Y-82033447D01*
X155121203Y-82033447D02*
X155178346Y-82223923D01*
X155178346Y-82223923D02*
X155292631Y-82414400D01*
X155292631Y-82414400D02*
X155464060Y-82509638D01*
X155464060Y-82509638D02*
X155578346Y-82509638D01*
X155578346Y-82509638D02*
X155749774Y-82414400D01*
X155749774Y-82414400D02*
X155806917Y-82319161D01*
X155806917Y-82319161D02*
X155806917Y-81652495D01*
X155806917Y-81652495D02*
X155578346Y-81652495D01*
X156321203Y-82509638D02*
X156321203Y-80509638D01*
X156321203Y-80509638D02*
X157006917Y-82509638D01*
X157006917Y-82509638D02*
X157006917Y-80509638D01*
X157578346Y-82509638D02*
X157578346Y-80509638D01*
X157578346Y-80509638D02*
X157864060Y-80509638D01*
X157864060Y-80509638D02*
X158035489Y-80604876D01*
X158035489Y-80604876D02*
X158149774Y-80795352D01*
X158149774Y-80795352D02*
X158206917Y-80985828D01*
X158206917Y-80985828D02*
X158264060Y-81366780D01*
X158264060Y-81366780D02*
X158264060Y-81652495D01*
X158264060Y-81652495D02*
X158206917Y-82033447D01*
X158206917Y-82033447D02*
X158149774Y-82223923D01*
X158149774Y-82223923D02*
X158035489Y-82414400D01*
X158035489Y-82414400D02*
X157864060Y-82509638D01*
X157864060Y-82509638D02*
X157578346Y-82509638D01*
X127411653Y-83109638D02*
X127811653Y-85109638D01*
X127811653Y-85109638D02*
X128211653Y-83109638D01*
X129297367Y-84919161D02*
X129240224Y-85014400D01*
X129240224Y-85014400D02*
X129068796Y-85109638D01*
X129068796Y-85109638D02*
X128954510Y-85109638D01*
X128954510Y-85109638D02*
X128783081Y-85014400D01*
X128783081Y-85014400D02*
X128668796Y-84823923D01*
X128668796Y-84823923D02*
X128611653Y-84633447D01*
X128611653Y-84633447D02*
X128554510Y-84252495D01*
X128554510Y-84252495D02*
X128554510Y-83966780D01*
X128554510Y-83966780D02*
X128611653Y-83585828D01*
X128611653Y-83585828D02*
X128668796Y-83395352D01*
X128668796Y-83395352D02*
X128783081Y-83204876D01*
X128783081Y-83204876D02*
X128954510Y-83109638D01*
X128954510Y-83109638D02*
X129068796Y-83109638D01*
X129068796Y-83109638D02*
X129240224Y-83204876D01*
X129240224Y-83204876D02*
X129297367Y-83300114D01*
X130497367Y-84919161D02*
X130440224Y-85014400D01*
X130440224Y-85014400D02*
X130268796Y-85109638D01*
X130268796Y-85109638D02*
X130154510Y-85109638D01*
X130154510Y-85109638D02*
X129983081Y-85014400D01*
X129983081Y-85014400D02*
X129868796Y-84823923D01*
X129868796Y-84823923D02*
X129811653Y-84633447D01*
X129811653Y-84633447D02*
X129754510Y-84252495D01*
X129754510Y-84252495D02*
X129754510Y-83966780D01*
X129754510Y-83966780D02*
X129811653Y-83585828D01*
X129811653Y-83585828D02*
X129868796Y-83395352D01*
X129868796Y-83395352D02*
X129983081Y-83204876D01*
X129983081Y-83204876D02*
X130154510Y-83109638D01*
X130154510Y-83109638D02*
X130268796Y-83109638D01*
X130268796Y-83109638D02*
X130440224Y-83204876D01*
X130440224Y-83204876D02*
X130497367Y-83300114D01*
X127583082Y-92709638D02*
X127583082Y-90709638D01*
X127583082Y-90709638D02*
X127983082Y-92138209D01*
X127983082Y-92138209D02*
X128383082Y-90709638D01*
X128383082Y-90709638D02*
X128383082Y-92709638D01*
X128954511Y-92709638D02*
X128954511Y-90709638D01*
X129525940Y-92709638D02*
X129525940Y-90709638D01*
X129525940Y-90709638D02*
X129811654Y-90709638D01*
X129811654Y-90709638D02*
X129983083Y-90804876D01*
X129983083Y-90804876D02*
X130097368Y-90995352D01*
X130097368Y-90995352D02*
X130154511Y-91185828D01*
X130154511Y-91185828D02*
X130211654Y-91566780D01*
X130211654Y-91566780D02*
X130211654Y-91852495D01*
X130211654Y-91852495D02*
X130154511Y-92233447D01*
X130154511Y-92233447D02*
X130097368Y-92423923D01*
X130097368Y-92423923D02*
X129983083Y-92614400D01*
X129983083Y-92614400D02*
X129811654Y-92709638D01*
X129811654Y-92709638D02*
X129525940Y-92709638D01*
X155178346Y-77957138D02*
X155578346Y-79957138D01*
X155578346Y-79957138D02*
X155978346Y-77957138D01*
X157064060Y-79766661D02*
X157006917Y-79861900D01*
X157006917Y-79861900D02*
X156835489Y-79957138D01*
X156835489Y-79957138D02*
X156721203Y-79957138D01*
X156721203Y-79957138D02*
X156549774Y-79861900D01*
X156549774Y-79861900D02*
X156435489Y-79671423D01*
X156435489Y-79671423D02*
X156378346Y-79480947D01*
X156378346Y-79480947D02*
X156321203Y-79099995D01*
X156321203Y-79099995D02*
X156321203Y-78814280D01*
X156321203Y-78814280D02*
X156378346Y-78433328D01*
X156378346Y-78433328D02*
X156435489Y-78242852D01*
X156435489Y-78242852D02*
X156549774Y-78052376D01*
X156549774Y-78052376D02*
X156721203Y-77957138D01*
X156721203Y-77957138D02*
X156835489Y-77957138D01*
X156835489Y-77957138D02*
X157006917Y-78052376D01*
X157006917Y-78052376D02*
X157064060Y-78147614D01*
X158264060Y-79766661D02*
X158206917Y-79861900D01*
X158206917Y-79861900D02*
X158035489Y-79957138D01*
X158035489Y-79957138D02*
X157921203Y-79957138D01*
X157921203Y-79957138D02*
X157749774Y-79861900D01*
X157749774Y-79861900D02*
X157635489Y-79671423D01*
X157635489Y-79671423D02*
X157578346Y-79480947D01*
X157578346Y-79480947D02*
X157521203Y-79099995D01*
X157521203Y-79099995D02*
X157521203Y-78814280D01*
X157521203Y-78814280D02*
X157578346Y-78433328D01*
X157578346Y-78433328D02*
X157635489Y-78242852D01*
X157635489Y-78242852D02*
X157749774Y-78052376D01*
X157749774Y-78052376D02*
X157921203Y-77957138D01*
X157921203Y-77957138D02*
X158035489Y-77957138D01*
X158035489Y-77957138D02*
X158206917Y-78052376D01*
X158206917Y-78052376D02*
X158264060Y-78147614D01*
D11*
X125116666Y-59167319D02*
X125116666Y-59881604D01*
X125116666Y-59881604D02*
X125069047Y-60024461D01*
X125069047Y-60024461D02*
X124973809Y-60119700D01*
X124973809Y-60119700D02*
X124830952Y-60167319D01*
X124830952Y-60167319D02*
X124735714Y-60167319D01*
X126021428Y-59500652D02*
X126021428Y-60167319D01*
X125783333Y-59119700D02*
X125545238Y-59833985D01*
X125545238Y-59833985D02*
X126164285Y-59833985D01*
X110954819Y-50988094D02*
X111764342Y-50988094D01*
X111764342Y-50988094D02*
X111859580Y-50940475D01*
X111859580Y-50940475D02*
X111907200Y-50892856D01*
X111907200Y-50892856D02*
X111954819Y-50797618D01*
X111954819Y-50797618D02*
X111954819Y-50607142D01*
X111954819Y-50607142D02*
X111907200Y-50511904D01*
X111907200Y-50511904D02*
X111859580Y-50464285D01*
X111859580Y-50464285D02*
X111764342Y-50416666D01*
X111764342Y-50416666D02*
X110954819Y-50416666D01*
X111907200Y-49988094D02*
X111954819Y-49845237D01*
X111954819Y-49845237D02*
X111954819Y-49607142D01*
X111954819Y-49607142D02*
X111907200Y-49511904D01*
X111907200Y-49511904D02*
X111859580Y-49464285D01*
X111859580Y-49464285D02*
X111764342Y-49416666D01*
X111764342Y-49416666D02*
X111669104Y-49416666D01*
X111669104Y-49416666D02*
X111573866Y-49464285D01*
X111573866Y-49464285D02*
X111526247Y-49511904D01*
X111526247Y-49511904D02*
X111478628Y-49607142D01*
X111478628Y-49607142D02*
X111431009Y-49797618D01*
X111431009Y-49797618D02*
X111383390Y-49892856D01*
X111383390Y-49892856D02*
X111335771Y-49940475D01*
X111335771Y-49940475D02*
X111240533Y-49988094D01*
X111240533Y-49988094D02*
X111145295Y-49988094D01*
X111145295Y-49988094D02*
X111050057Y-49940475D01*
X111050057Y-49940475D02*
X111002438Y-49892856D01*
X111002438Y-49892856D02*
X110954819Y-49797618D01*
X110954819Y-49797618D02*
X110954819Y-49559523D01*
X110954819Y-49559523D02*
X111002438Y-49416666D01*
X111431009Y-48654761D02*
X111478628Y-48511904D01*
X111478628Y-48511904D02*
X111526247Y-48464285D01*
X111526247Y-48464285D02*
X111621485Y-48416666D01*
X111621485Y-48416666D02*
X111764342Y-48416666D01*
X111764342Y-48416666D02*
X111859580Y-48464285D01*
X111859580Y-48464285D02*
X111907200Y-48511904D01*
X111907200Y-48511904D02*
X111954819Y-48607142D01*
X111954819Y-48607142D02*
X111954819Y-48988094D01*
X111954819Y-48988094D02*
X110954819Y-48988094D01*
X110954819Y-48988094D02*
X110954819Y-48654761D01*
X110954819Y-48654761D02*
X111002438Y-48559523D01*
X111002438Y-48559523D02*
X111050057Y-48511904D01*
X111050057Y-48511904D02*
X111145295Y-48464285D01*
X111145295Y-48464285D02*
X111240533Y-48464285D01*
X111240533Y-48464285D02*
X111335771Y-48511904D01*
X111335771Y-48511904D02*
X111383390Y-48559523D01*
X111383390Y-48559523D02*
X111431009Y-48654761D01*
X111431009Y-48654761D02*
X111431009Y-48988094D01*
X111954819Y-47464285D02*
X111954819Y-48035713D01*
X111954819Y-47749999D02*
X110954819Y-47749999D01*
X110954819Y-47749999D02*
X111097676Y-47845237D01*
X111097676Y-47845237D02*
X111192914Y-47940475D01*
X111192914Y-47940475D02*
X111240533Y-48035713D01*
X112978628Y-76476190D02*
X113454819Y-76476190D01*
X112454819Y-76809523D02*
X112978628Y-76476190D01*
X112978628Y-76476190D02*
X112454819Y-76142857D01*
X113454819Y-75285714D02*
X113454819Y-75857142D01*
X113454819Y-75571428D02*
X112454819Y-75571428D01*
X112454819Y-75571428D02*
X112597676Y-75666666D01*
X112597676Y-75666666D02*
X112692914Y-75761904D01*
X112692914Y-75761904D02*
X112740533Y-75857142D01*
X109954819Y-78103455D02*
X109954819Y-77484408D01*
X109954819Y-77484408D02*
X110335771Y-77817741D01*
X110335771Y-77817741D02*
X110335771Y-77674884D01*
X110335771Y-77674884D02*
X110383390Y-77579646D01*
X110383390Y-77579646D02*
X110431009Y-77532027D01*
X110431009Y-77532027D02*
X110526247Y-77484408D01*
X110526247Y-77484408D02*
X110764342Y-77484408D01*
X110764342Y-77484408D02*
X110859580Y-77532027D01*
X110859580Y-77532027D02*
X110907200Y-77579646D01*
X110907200Y-77579646D02*
X110954819Y-77674884D01*
X110954819Y-77674884D02*
X110954819Y-77960598D01*
X110954819Y-77960598D02*
X110907200Y-78055836D01*
X110907200Y-78055836D02*
X110859580Y-78103455D01*
X110050057Y-77103455D02*
X110002438Y-77055836D01*
X110002438Y-77055836D02*
X109954819Y-76960598D01*
X109954819Y-76960598D02*
X109954819Y-76722503D01*
X109954819Y-76722503D02*
X110002438Y-76627265D01*
X110002438Y-76627265D02*
X110050057Y-76579646D01*
X110050057Y-76579646D02*
X110145295Y-76532027D01*
X110145295Y-76532027D02*
X110240533Y-76532027D01*
X110240533Y-76532027D02*
X110383390Y-76579646D01*
X110383390Y-76579646D02*
X110954819Y-77151074D01*
X110954819Y-77151074D02*
X110954819Y-76532027D01*
X110859580Y-76103455D02*
X110907200Y-76055836D01*
X110907200Y-76055836D02*
X110954819Y-76103455D01*
X110954819Y-76103455D02*
X110907200Y-76151074D01*
X110907200Y-76151074D02*
X110859580Y-76103455D01*
X110859580Y-76103455D02*
X110954819Y-76103455D01*
X109954819Y-75722503D02*
X109954819Y-75055837D01*
X109954819Y-75055837D02*
X110954819Y-75484408D01*
X109954819Y-74246313D02*
X109954819Y-74436789D01*
X109954819Y-74436789D02*
X110002438Y-74532027D01*
X110002438Y-74532027D02*
X110050057Y-74579646D01*
X110050057Y-74579646D02*
X110192914Y-74674884D01*
X110192914Y-74674884D02*
X110383390Y-74722503D01*
X110383390Y-74722503D02*
X110764342Y-74722503D01*
X110764342Y-74722503D02*
X110859580Y-74674884D01*
X110859580Y-74674884D02*
X110907200Y-74627265D01*
X110907200Y-74627265D02*
X110954819Y-74532027D01*
X110954819Y-74532027D02*
X110954819Y-74341551D01*
X110954819Y-74341551D02*
X110907200Y-74246313D01*
X110907200Y-74246313D02*
X110859580Y-74198694D01*
X110859580Y-74198694D02*
X110764342Y-74151075D01*
X110764342Y-74151075D02*
X110526247Y-74151075D01*
X110526247Y-74151075D02*
X110431009Y-74198694D01*
X110431009Y-74198694D02*
X110383390Y-74246313D01*
X110383390Y-74246313D02*
X110335771Y-74341551D01*
X110335771Y-74341551D02*
X110335771Y-74532027D01*
X110335771Y-74532027D02*
X110383390Y-74627265D01*
X110383390Y-74627265D02*
X110431009Y-74674884D01*
X110431009Y-74674884D02*
X110526247Y-74722503D01*
X110383390Y-73579646D02*
X110335771Y-73674884D01*
X110335771Y-73674884D02*
X110288152Y-73722503D01*
X110288152Y-73722503D02*
X110192914Y-73770122D01*
X110192914Y-73770122D02*
X110145295Y-73770122D01*
X110145295Y-73770122D02*
X110050057Y-73722503D01*
X110050057Y-73722503D02*
X110002438Y-73674884D01*
X110002438Y-73674884D02*
X109954819Y-73579646D01*
X109954819Y-73579646D02*
X109954819Y-73389170D01*
X109954819Y-73389170D02*
X110002438Y-73293932D01*
X110002438Y-73293932D02*
X110050057Y-73246313D01*
X110050057Y-73246313D02*
X110145295Y-73198694D01*
X110145295Y-73198694D02*
X110192914Y-73198694D01*
X110192914Y-73198694D02*
X110288152Y-73246313D01*
X110288152Y-73246313D02*
X110335771Y-73293932D01*
X110335771Y-73293932D02*
X110383390Y-73389170D01*
X110383390Y-73389170D02*
X110383390Y-73579646D01*
X110383390Y-73579646D02*
X110431009Y-73674884D01*
X110431009Y-73674884D02*
X110478628Y-73722503D01*
X110478628Y-73722503D02*
X110573866Y-73770122D01*
X110573866Y-73770122D02*
X110764342Y-73770122D01*
X110764342Y-73770122D02*
X110859580Y-73722503D01*
X110859580Y-73722503D02*
X110907200Y-73674884D01*
X110907200Y-73674884D02*
X110954819Y-73579646D01*
X110954819Y-73579646D02*
X110954819Y-73389170D01*
X110954819Y-73389170D02*
X110907200Y-73293932D01*
X110907200Y-73293932D02*
X110859580Y-73246313D01*
X110859580Y-73246313D02*
X110764342Y-73198694D01*
X110764342Y-73198694D02*
X110573866Y-73198694D01*
X110573866Y-73198694D02*
X110478628Y-73246313D01*
X110478628Y-73246313D02*
X110431009Y-73293932D01*
X110431009Y-73293932D02*
X110383390Y-73389170D01*
X110954819Y-72008217D02*
X109954819Y-72008217D01*
X110954819Y-71436789D02*
X110383390Y-71865360D01*
X109954819Y-71436789D02*
X110526247Y-72008217D01*
X110954819Y-71008217D02*
X109954819Y-71008217D01*
X110431009Y-71008217D02*
X110431009Y-70436789D01*
X110954819Y-70436789D02*
X109954819Y-70436789D01*
X110288152Y-70055836D02*
X110288152Y-69532027D01*
X110288152Y-69532027D02*
X110954819Y-70055836D01*
X110954819Y-70055836D02*
X110954819Y-69532027D01*
X163569047Y-63931009D02*
X163711904Y-63978628D01*
X163711904Y-63978628D02*
X163759523Y-64026247D01*
X163759523Y-64026247D02*
X163807142Y-64121485D01*
X163807142Y-64121485D02*
X163807142Y-64264342D01*
X163807142Y-64264342D02*
X163759523Y-64359580D01*
X163759523Y-64359580D02*
X163711904Y-64407200D01*
X163711904Y-64407200D02*
X163616666Y-64454819D01*
X163616666Y-64454819D02*
X163235714Y-64454819D01*
X163235714Y-64454819D02*
X163235714Y-63454819D01*
X163235714Y-63454819D02*
X163569047Y-63454819D01*
X163569047Y-63454819D02*
X163664285Y-63502438D01*
X163664285Y-63502438D02*
X163711904Y-63550057D01*
X163711904Y-63550057D02*
X163759523Y-63645295D01*
X163759523Y-63645295D02*
X163759523Y-63740533D01*
X163759523Y-63740533D02*
X163711904Y-63835771D01*
X163711904Y-63835771D02*
X163664285Y-63883390D01*
X163664285Y-63883390D02*
X163569047Y-63931009D01*
X163569047Y-63931009D02*
X163235714Y-63931009D01*
X164140476Y-63454819D02*
X164807142Y-63454819D01*
X164807142Y-63454819D02*
X164140476Y-64454819D01*
X164140476Y-64454819D02*
X164807142Y-64454819D01*
X165711904Y-64454819D02*
X165140476Y-64454819D01*
X165426190Y-64454819D02*
X165426190Y-63454819D01*
X165426190Y-63454819D02*
X165330952Y-63597676D01*
X165330952Y-63597676D02*
X165235714Y-63692914D01*
X165235714Y-63692914D02*
X165140476Y-63740533D01*
X160819048Y-69273866D02*
X161580953Y-69273866D01*
X161200000Y-69654819D02*
X161200000Y-68892914D01*
X121248095Y-60324819D02*
X121248095Y-61134342D01*
X121248095Y-61134342D02*
X121295714Y-61229580D01*
X121295714Y-61229580D02*
X121343333Y-61277200D01*
X121343333Y-61277200D02*
X121438571Y-61324819D01*
X121438571Y-61324819D02*
X121629047Y-61324819D01*
X121629047Y-61324819D02*
X121724285Y-61277200D01*
X121724285Y-61277200D02*
X121771904Y-61229580D01*
X121771904Y-61229580D02*
X121819523Y-61134342D01*
X121819523Y-61134342D02*
X121819523Y-60324819D01*
X122248095Y-60420057D02*
X122295714Y-60372438D01*
X122295714Y-60372438D02*
X122390952Y-60324819D01*
X122390952Y-60324819D02*
X122629047Y-60324819D01*
X122629047Y-60324819D02*
X122724285Y-60372438D01*
X122724285Y-60372438D02*
X122771904Y-60420057D01*
X122771904Y-60420057D02*
X122819523Y-60515295D01*
X122819523Y-60515295D02*
X122819523Y-60610533D01*
X122819523Y-60610533D02*
X122771904Y-60753390D01*
X122771904Y-60753390D02*
X122200476Y-61324819D01*
X122200476Y-61324819D02*
X122819523Y-61324819D01*
X118748095Y-73604819D02*
X118748095Y-72604819D01*
X118748095Y-72604819D02*
X118986190Y-72604819D01*
X118986190Y-72604819D02*
X119129047Y-72652438D01*
X119129047Y-72652438D02*
X119224285Y-72747676D01*
X119224285Y-72747676D02*
X119271904Y-72842914D01*
X119271904Y-72842914D02*
X119319523Y-73033390D01*
X119319523Y-73033390D02*
X119319523Y-73176247D01*
X119319523Y-73176247D02*
X119271904Y-73366723D01*
X119271904Y-73366723D02*
X119224285Y-73461961D01*
X119224285Y-73461961D02*
X119129047Y-73557200D01*
X119129047Y-73557200D02*
X118986190Y-73604819D01*
X118986190Y-73604819D02*
X118748095Y-73604819D01*
X119700476Y-73557200D02*
X119843333Y-73604819D01*
X119843333Y-73604819D02*
X120081428Y-73604819D01*
X120081428Y-73604819D02*
X120176666Y-73557200D01*
X120176666Y-73557200D02*
X120224285Y-73509580D01*
X120224285Y-73509580D02*
X120271904Y-73414342D01*
X120271904Y-73414342D02*
X120271904Y-73319104D01*
X120271904Y-73319104D02*
X120224285Y-73223866D01*
X120224285Y-73223866D02*
X120176666Y-73176247D01*
X120176666Y-73176247D02*
X120081428Y-73128628D01*
X120081428Y-73128628D02*
X119890952Y-73081009D01*
X119890952Y-73081009D02*
X119795714Y-73033390D01*
X119795714Y-73033390D02*
X119748095Y-72985771D01*
X119748095Y-72985771D02*
X119700476Y-72890533D01*
X119700476Y-72890533D02*
X119700476Y-72795295D01*
X119700476Y-72795295D02*
X119748095Y-72700057D01*
X119748095Y-72700057D02*
X119795714Y-72652438D01*
X119795714Y-72652438D02*
X119890952Y-72604819D01*
X119890952Y-72604819D02*
X120129047Y-72604819D01*
X120129047Y-72604819D02*
X120271904Y-72652438D01*
X121224285Y-73604819D02*
X120652857Y-73604819D01*
X120938571Y-73604819D02*
X120938571Y-72604819D01*
X120938571Y-72604819D02*
X120843333Y-72747676D01*
X120843333Y-72747676D02*
X120748095Y-72842914D01*
X120748095Y-72842914D02*
X120652857Y-72890533D01*
X121557619Y-72604819D02*
X122176666Y-72604819D01*
X122176666Y-72604819D02*
X121843333Y-72985771D01*
X121843333Y-72985771D02*
X121986190Y-72985771D01*
X121986190Y-72985771D02*
X122081428Y-73033390D01*
X122081428Y-73033390D02*
X122129047Y-73081009D01*
X122129047Y-73081009D02*
X122176666Y-73176247D01*
X122176666Y-73176247D02*
X122176666Y-73414342D01*
X122176666Y-73414342D02*
X122129047Y-73509580D01*
X122129047Y-73509580D02*
X122081428Y-73557200D01*
X122081428Y-73557200D02*
X121986190Y-73604819D01*
X121986190Y-73604819D02*
X121700476Y-73604819D01*
X121700476Y-73604819D02*
X121605238Y-73557200D01*
X121605238Y-73557200D02*
X121557619Y-73509580D01*
X122795714Y-72604819D02*
X122890952Y-72604819D01*
X122890952Y-72604819D02*
X122986190Y-72652438D01*
X122986190Y-72652438D02*
X123033809Y-72700057D01*
X123033809Y-72700057D02*
X123081428Y-72795295D01*
X123081428Y-72795295D02*
X123129047Y-72985771D01*
X123129047Y-72985771D02*
X123129047Y-73223866D01*
X123129047Y-73223866D02*
X123081428Y-73414342D01*
X123081428Y-73414342D02*
X123033809Y-73509580D01*
X123033809Y-73509580D02*
X122986190Y-73557200D01*
X122986190Y-73557200D02*
X122890952Y-73604819D01*
X122890952Y-73604819D02*
X122795714Y-73604819D01*
X122795714Y-73604819D02*
X122700476Y-73557200D01*
X122700476Y-73557200D02*
X122652857Y-73509580D01*
X122652857Y-73509580D02*
X122605238Y-73414342D01*
X122605238Y-73414342D02*
X122557619Y-73223866D01*
X122557619Y-73223866D02*
X122557619Y-72985771D01*
X122557619Y-72985771D02*
X122605238Y-72795295D01*
X122605238Y-72795295D02*
X122652857Y-72700057D01*
X122652857Y-72700057D02*
X122700476Y-72652438D01*
X122700476Y-72652438D02*
X122795714Y-72604819D01*
X123510000Y-72700057D02*
X123557619Y-72652438D01*
X123557619Y-72652438D02*
X123652857Y-72604819D01*
X123652857Y-72604819D02*
X123890952Y-72604819D01*
X123890952Y-72604819D02*
X123986190Y-72652438D01*
X123986190Y-72652438D02*
X124033809Y-72700057D01*
X124033809Y-72700057D02*
X124081428Y-72795295D01*
X124081428Y-72795295D02*
X124081428Y-72890533D01*
X124081428Y-72890533D02*
X124033809Y-73033390D01*
X124033809Y-73033390D02*
X123462381Y-73604819D01*
X123462381Y-73604819D02*
X124081428Y-73604819D01*
X124510000Y-73223866D02*
X125271905Y-73223866D01*
X124890952Y-73604819D02*
X124890952Y-72842914D01*
X123166666Y-82654819D02*
X123166666Y-83369104D01*
X123166666Y-83369104D02*
X123119047Y-83511961D01*
X123119047Y-83511961D02*
X123023809Y-83607200D01*
X123023809Y-83607200D02*
X122880952Y-83654819D01*
X122880952Y-83654819D02*
X122785714Y-83654819D01*
X123547619Y-82654819D02*
X124166666Y-82654819D01*
X124166666Y-82654819D02*
X123833333Y-83035771D01*
X123833333Y-83035771D02*
X123976190Y-83035771D01*
X123976190Y-83035771D02*
X124071428Y-83083390D01*
X124071428Y-83083390D02*
X124119047Y-83131009D01*
X124119047Y-83131009D02*
X124166666Y-83226247D01*
X124166666Y-83226247D02*
X124166666Y-83464342D01*
X124166666Y-83464342D02*
X124119047Y-83559580D01*
X124119047Y-83559580D02*
X124071428Y-83607200D01*
X124071428Y-83607200D02*
X123976190Y-83654819D01*
X123976190Y-83654819D02*
X123690476Y-83654819D01*
X123690476Y-83654819D02*
X123595238Y-83607200D01*
X123595238Y-83607200D02*
X123547619Y-83559580D01*
X123121009Y-91988095D02*
X123168628Y-91845238D01*
X123168628Y-91845238D02*
X123216247Y-91797619D01*
X123216247Y-91797619D02*
X123311485Y-91750000D01*
X123311485Y-91750000D02*
X123454342Y-91750000D01*
X123454342Y-91750000D02*
X123549580Y-91797619D01*
X123549580Y-91797619D02*
X123597200Y-91845238D01*
X123597200Y-91845238D02*
X123644819Y-91940476D01*
X123644819Y-91940476D02*
X123644819Y-92321428D01*
X123644819Y-92321428D02*
X122644819Y-92321428D01*
X122644819Y-92321428D02*
X122644819Y-91988095D01*
X122644819Y-91988095D02*
X122692438Y-91892857D01*
X122692438Y-91892857D02*
X122740057Y-91845238D01*
X122740057Y-91845238D02*
X122835295Y-91797619D01*
X122835295Y-91797619D02*
X122930533Y-91797619D01*
X122930533Y-91797619D02*
X123025771Y-91845238D01*
X123025771Y-91845238D02*
X123073390Y-91892857D01*
X123073390Y-91892857D02*
X123121009Y-91988095D01*
X123121009Y-91988095D02*
X123121009Y-92321428D01*
X122644819Y-91321428D02*
X123454342Y-91321428D01*
X123454342Y-91321428D02*
X123549580Y-91273809D01*
X123549580Y-91273809D02*
X123597200Y-91226190D01*
X123597200Y-91226190D02*
X123644819Y-91130952D01*
X123644819Y-91130952D02*
X123644819Y-90940476D01*
X123644819Y-90940476D02*
X123597200Y-90845238D01*
X123597200Y-90845238D02*
X123549580Y-90797619D01*
X123549580Y-90797619D02*
X123454342Y-90750000D01*
X123454342Y-90750000D02*
X122644819Y-90750000D01*
X122644819Y-90416666D02*
X122644819Y-89845238D01*
X123644819Y-90130952D02*
X122644819Y-90130952D01*
X122644819Y-89654761D02*
X122644819Y-89083333D01*
X123644819Y-89369047D02*
X122644819Y-89369047D01*
X122644819Y-88559523D02*
X122644819Y-88369047D01*
X122644819Y-88369047D02*
X122692438Y-88273809D01*
X122692438Y-88273809D02*
X122787676Y-88178571D01*
X122787676Y-88178571D02*
X122978152Y-88130952D01*
X122978152Y-88130952D02*
X123311485Y-88130952D01*
X123311485Y-88130952D02*
X123501961Y-88178571D01*
X123501961Y-88178571D02*
X123597200Y-88273809D01*
X123597200Y-88273809D02*
X123644819Y-88369047D01*
X123644819Y-88369047D02*
X123644819Y-88559523D01*
X123644819Y-88559523D02*
X123597200Y-88654761D01*
X123597200Y-88654761D02*
X123501961Y-88749999D01*
X123501961Y-88749999D02*
X123311485Y-88797618D01*
X123311485Y-88797618D02*
X122978152Y-88797618D01*
X122978152Y-88797618D02*
X122787676Y-88749999D01*
X122787676Y-88749999D02*
X122692438Y-88654761D01*
X122692438Y-88654761D02*
X122644819Y-88559523D01*
X123644819Y-87702380D02*
X122644819Y-87702380D01*
X122644819Y-87702380D02*
X123644819Y-87130952D01*
X123644819Y-87130952D02*
X122644819Y-87130952D01*
X123597200Y-86702380D02*
X123644819Y-86559523D01*
X123644819Y-86559523D02*
X123644819Y-86321428D01*
X123644819Y-86321428D02*
X123597200Y-86226190D01*
X123597200Y-86226190D02*
X123549580Y-86178571D01*
X123549580Y-86178571D02*
X123454342Y-86130952D01*
X123454342Y-86130952D02*
X123359104Y-86130952D01*
X123359104Y-86130952D02*
X123263866Y-86178571D01*
X123263866Y-86178571D02*
X123216247Y-86226190D01*
X123216247Y-86226190D02*
X123168628Y-86321428D01*
X123168628Y-86321428D02*
X123121009Y-86511904D01*
X123121009Y-86511904D02*
X123073390Y-86607142D01*
X123073390Y-86607142D02*
X123025771Y-86654761D01*
X123025771Y-86654761D02*
X122930533Y-86702380D01*
X122930533Y-86702380D02*
X122835295Y-86702380D01*
X122835295Y-86702380D02*
X122740057Y-86654761D01*
X122740057Y-86654761D02*
X122692438Y-86607142D01*
X122692438Y-86607142D02*
X122644819Y-86511904D01*
X122644819Y-86511904D02*
X122644819Y-86273809D01*
X122644819Y-86273809D02*
X122692438Y-86130952D01*
X142238095Y-69454819D02*
X142238095Y-70264342D01*
X142238095Y-70264342D02*
X142285714Y-70359580D01*
X142285714Y-70359580D02*
X142333333Y-70407200D01*
X142333333Y-70407200D02*
X142428571Y-70454819D01*
X142428571Y-70454819D02*
X142619047Y-70454819D01*
X142619047Y-70454819D02*
X142714285Y-70407200D01*
X142714285Y-70407200D02*
X142761904Y-70359580D01*
X142761904Y-70359580D02*
X142809523Y-70264342D01*
X142809523Y-70264342D02*
X142809523Y-69454819D01*
X143809523Y-70454819D02*
X143238095Y-70454819D01*
X143523809Y-70454819D02*
X143523809Y-69454819D01*
X143523809Y-69454819D02*
X143428571Y-69597676D01*
X143428571Y-69597676D02*
X143333333Y-69692914D01*
X143333333Y-69692914D02*
X143238095Y-69740533D01*
X146904761Y-96524200D02*
X147019047Y-96562295D01*
X147019047Y-96562295D02*
X147209523Y-96562295D01*
X147209523Y-96562295D02*
X147285714Y-96524200D01*
X147285714Y-96524200D02*
X147323809Y-96486104D01*
X147323809Y-96486104D02*
X147361904Y-96409914D01*
X147361904Y-96409914D02*
X147361904Y-96333723D01*
X147361904Y-96333723D02*
X147323809Y-96257533D01*
X147323809Y-96257533D02*
X147285714Y-96219438D01*
X147285714Y-96219438D02*
X147209523Y-96181342D01*
X147209523Y-96181342D02*
X147057142Y-96143247D01*
X147057142Y-96143247D02*
X146980952Y-96105152D01*
X146980952Y-96105152D02*
X146942857Y-96067057D01*
X146942857Y-96067057D02*
X146904761Y-95990866D01*
X146904761Y-95990866D02*
X146904761Y-95914676D01*
X146904761Y-95914676D02*
X146942857Y-95838485D01*
X146942857Y-95838485D02*
X146980952Y-95800390D01*
X146980952Y-95800390D02*
X147057142Y-95762295D01*
X147057142Y-95762295D02*
X147247619Y-95762295D01*
X147247619Y-95762295D02*
X147361904Y-95800390D01*
X147628571Y-95762295D02*
X147819047Y-96562295D01*
X147819047Y-96562295D02*
X147971428Y-95990866D01*
X147971428Y-95990866D02*
X148123809Y-96562295D01*
X148123809Y-96562295D02*
X148314286Y-95762295D01*
X148619048Y-96562295D02*
X148619048Y-95762295D01*
X148619048Y-95762295D02*
X148809524Y-95762295D01*
X148809524Y-95762295D02*
X148923810Y-95800390D01*
X148923810Y-95800390D02*
X149000000Y-95876580D01*
X149000000Y-95876580D02*
X149038095Y-95952771D01*
X149038095Y-95952771D02*
X149076191Y-96105152D01*
X149076191Y-96105152D02*
X149076191Y-96219438D01*
X149076191Y-96219438D02*
X149038095Y-96371819D01*
X149038095Y-96371819D02*
X149000000Y-96448009D01*
X149000000Y-96448009D02*
X148923810Y-96524200D01*
X148923810Y-96524200D02*
X148809524Y-96562295D01*
X148809524Y-96562295D02*
X148619048Y-96562295D01*
X149419048Y-96562295D02*
X149419048Y-95762295D01*
X149952381Y-95762295D02*
X150104762Y-95762295D01*
X150104762Y-95762295D02*
X150180952Y-95800390D01*
X150180952Y-95800390D02*
X150257143Y-95876580D01*
X150257143Y-95876580D02*
X150295238Y-96028961D01*
X150295238Y-96028961D02*
X150295238Y-96295628D01*
X150295238Y-96295628D02*
X150257143Y-96448009D01*
X150257143Y-96448009D02*
X150180952Y-96524200D01*
X150180952Y-96524200D02*
X150104762Y-96562295D01*
X150104762Y-96562295D02*
X149952381Y-96562295D01*
X149952381Y-96562295D02*
X149876190Y-96524200D01*
X149876190Y-96524200D02*
X149800000Y-96448009D01*
X149800000Y-96448009D02*
X149761904Y-96295628D01*
X149761904Y-96295628D02*
X149761904Y-96028961D01*
X149761904Y-96028961D02*
X149800000Y-95876580D01*
X149800000Y-95876580D02*
X149876190Y-95800390D01*
X149876190Y-95800390D02*
X149952381Y-95762295D01*
X135490475Y-96524200D02*
X135604761Y-96562295D01*
X135604761Y-96562295D02*
X135795237Y-96562295D01*
X135795237Y-96562295D02*
X135871428Y-96524200D01*
X135871428Y-96524200D02*
X135909523Y-96486104D01*
X135909523Y-96486104D02*
X135947618Y-96409914D01*
X135947618Y-96409914D02*
X135947618Y-96333723D01*
X135947618Y-96333723D02*
X135909523Y-96257533D01*
X135909523Y-96257533D02*
X135871428Y-96219438D01*
X135871428Y-96219438D02*
X135795237Y-96181342D01*
X135795237Y-96181342D02*
X135642856Y-96143247D01*
X135642856Y-96143247D02*
X135566666Y-96105152D01*
X135566666Y-96105152D02*
X135528571Y-96067057D01*
X135528571Y-96067057D02*
X135490475Y-95990866D01*
X135490475Y-95990866D02*
X135490475Y-95914676D01*
X135490475Y-95914676D02*
X135528571Y-95838485D01*
X135528571Y-95838485D02*
X135566666Y-95800390D01*
X135566666Y-95800390D02*
X135642856Y-95762295D01*
X135642856Y-95762295D02*
X135833333Y-95762295D01*
X135833333Y-95762295D02*
X135947618Y-95800390D01*
X136214285Y-95762295D02*
X136404761Y-96562295D01*
X136404761Y-96562295D02*
X136557142Y-95990866D01*
X136557142Y-95990866D02*
X136709523Y-96562295D01*
X136709523Y-96562295D02*
X136900000Y-95762295D01*
X137661905Y-96486104D02*
X137623809Y-96524200D01*
X137623809Y-96524200D02*
X137509524Y-96562295D01*
X137509524Y-96562295D02*
X137433333Y-96562295D01*
X137433333Y-96562295D02*
X137319047Y-96524200D01*
X137319047Y-96524200D02*
X137242857Y-96448009D01*
X137242857Y-96448009D02*
X137204762Y-96371819D01*
X137204762Y-96371819D02*
X137166666Y-96219438D01*
X137166666Y-96219438D02*
X137166666Y-96105152D01*
X137166666Y-96105152D02*
X137204762Y-95952771D01*
X137204762Y-95952771D02*
X137242857Y-95876580D01*
X137242857Y-95876580D02*
X137319047Y-95800390D01*
X137319047Y-95800390D02*
X137433333Y-95762295D01*
X137433333Y-95762295D02*
X137509524Y-95762295D01*
X137509524Y-95762295D02*
X137623809Y-95800390D01*
X137623809Y-95800390D02*
X137661905Y-95838485D01*
X138385714Y-96562295D02*
X138004762Y-96562295D01*
X138004762Y-96562295D02*
X138004762Y-95762295D01*
X138652381Y-96562295D02*
X138652381Y-95762295D01*
X139109524Y-96562295D02*
X138766666Y-96105152D01*
X139109524Y-95762295D02*
X138652381Y-96219438D01*
X112431009Y-87785714D02*
X112478628Y-87642857D01*
X112478628Y-87642857D02*
X112526247Y-87595238D01*
X112526247Y-87595238D02*
X112621485Y-87547619D01*
X112621485Y-87547619D02*
X112764342Y-87547619D01*
X112764342Y-87547619D02*
X112859580Y-87595238D01*
X112859580Y-87595238D02*
X112907200Y-87642857D01*
X112907200Y-87642857D02*
X112954819Y-87738095D01*
X112954819Y-87738095D02*
X112954819Y-88119047D01*
X112954819Y-88119047D02*
X111954819Y-88119047D01*
X111954819Y-88119047D02*
X111954819Y-87785714D01*
X111954819Y-87785714D02*
X112002438Y-87690476D01*
X112002438Y-87690476D02*
X112050057Y-87642857D01*
X112050057Y-87642857D02*
X112145295Y-87595238D01*
X112145295Y-87595238D02*
X112240533Y-87595238D01*
X112240533Y-87595238D02*
X112335771Y-87642857D01*
X112335771Y-87642857D02*
X112383390Y-87690476D01*
X112383390Y-87690476D02*
X112431009Y-87785714D01*
X112431009Y-87785714D02*
X112431009Y-88119047D01*
X111954819Y-87261904D02*
X111954819Y-86690476D01*
X112954819Y-86976190D02*
X111954819Y-86976190D01*
X112954819Y-85833333D02*
X112954819Y-86404761D01*
X112954819Y-86119047D02*
X111954819Y-86119047D01*
X111954819Y-86119047D02*
X112097676Y-86214285D01*
X112097676Y-86214285D02*
X112192914Y-86309523D01*
X112192914Y-86309523D02*
X112240533Y-86404761D01*
X114359580Y-92952381D02*
X114407200Y-93000000D01*
X114407200Y-93000000D02*
X114454819Y-93142857D01*
X114454819Y-93142857D02*
X114454819Y-93238095D01*
X114454819Y-93238095D02*
X114407200Y-93380952D01*
X114407200Y-93380952D02*
X114311961Y-93476190D01*
X114311961Y-93476190D02*
X114216723Y-93523809D01*
X114216723Y-93523809D02*
X114026247Y-93571428D01*
X114026247Y-93571428D02*
X113883390Y-93571428D01*
X113883390Y-93571428D02*
X113692914Y-93523809D01*
X113692914Y-93523809D02*
X113597676Y-93476190D01*
X113597676Y-93476190D02*
X113502438Y-93380952D01*
X113502438Y-93380952D02*
X113454819Y-93238095D01*
X113454819Y-93238095D02*
X113454819Y-93142857D01*
X113454819Y-93142857D02*
X113502438Y-93000000D01*
X113502438Y-93000000D02*
X113550057Y-92952381D01*
X114454819Y-91952381D02*
X113978628Y-92285714D01*
X114454819Y-92523809D02*
X113454819Y-92523809D01*
X113454819Y-92523809D02*
X113454819Y-92142857D01*
X113454819Y-92142857D02*
X113502438Y-92047619D01*
X113502438Y-92047619D02*
X113550057Y-92000000D01*
X113550057Y-92000000D02*
X113645295Y-91952381D01*
X113645295Y-91952381D02*
X113788152Y-91952381D01*
X113788152Y-91952381D02*
X113883390Y-92000000D01*
X113883390Y-92000000D02*
X113931009Y-92047619D01*
X113931009Y-92047619D02*
X113978628Y-92142857D01*
X113978628Y-92142857D02*
X113978628Y-92523809D01*
X113550057Y-91571428D02*
X113502438Y-91523809D01*
X113502438Y-91523809D02*
X113454819Y-91428571D01*
X113454819Y-91428571D02*
X113454819Y-91190476D01*
X113454819Y-91190476D02*
X113502438Y-91095238D01*
X113502438Y-91095238D02*
X113550057Y-91047619D01*
X113550057Y-91047619D02*
X113645295Y-91000000D01*
X113645295Y-91000000D02*
X113740533Y-91000000D01*
X113740533Y-91000000D02*
X113883390Y-91047619D01*
X113883390Y-91047619D02*
X114454819Y-91619047D01*
X114454819Y-91619047D02*
X114454819Y-91000000D01*
X113454819Y-90380952D02*
X113454819Y-90285714D01*
X113454819Y-90285714D02*
X113502438Y-90190476D01*
X113502438Y-90190476D02*
X113550057Y-90142857D01*
X113550057Y-90142857D02*
X113645295Y-90095238D01*
X113645295Y-90095238D02*
X113835771Y-90047619D01*
X113835771Y-90047619D02*
X114073866Y-90047619D01*
X114073866Y-90047619D02*
X114264342Y-90095238D01*
X114264342Y-90095238D02*
X114359580Y-90142857D01*
X114359580Y-90142857D02*
X114407200Y-90190476D01*
X114407200Y-90190476D02*
X114454819Y-90285714D01*
X114454819Y-90285714D02*
X114454819Y-90380952D01*
X114454819Y-90380952D02*
X114407200Y-90476190D01*
X114407200Y-90476190D02*
X114359580Y-90523809D01*
X114359580Y-90523809D02*
X114264342Y-90571428D01*
X114264342Y-90571428D02*
X114073866Y-90619047D01*
X114073866Y-90619047D02*
X113835771Y-90619047D01*
X113835771Y-90619047D02*
X113645295Y-90571428D01*
X113645295Y-90571428D02*
X113550057Y-90523809D01*
X113550057Y-90523809D02*
X113502438Y-90476190D01*
X113502438Y-90476190D02*
X113454819Y-90380952D01*
X113454819Y-89714285D02*
X113454819Y-89095238D01*
X113454819Y-89095238D02*
X113835771Y-89428571D01*
X113835771Y-89428571D02*
X113835771Y-89285714D01*
X113835771Y-89285714D02*
X113883390Y-89190476D01*
X113883390Y-89190476D02*
X113931009Y-89142857D01*
X113931009Y-89142857D02*
X114026247Y-89095238D01*
X114026247Y-89095238D02*
X114264342Y-89095238D01*
X114264342Y-89095238D02*
X114359580Y-89142857D01*
X114359580Y-89142857D02*
X114407200Y-89190476D01*
X114407200Y-89190476D02*
X114454819Y-89285714D01*
X114454819Y-89285714D02*
X114454819Y-89571428D01*
X114454819Y-89571428D02*
X114407200Y-89666666D01*
X114407200Y-89666666D02*
X114359580Y-89714285D01*
X113550057Y-88714285D02*
X113502438Y-88666666D01*
X113502438Y-88666666D02*
X113454819Y-88571428D01*
X113454819Y-88571428D02*
X113454819Y-88333333D01*
X113454819Y-88333333D02*
X113502438Y-88238095D01*
X113502438Y-88238095D02*
X113550057Y-88190476D01*
X113550057Y-88190476D02*
X113645295Y-88142857D01*
X113645295Y-88142857D02*
X113740533Y-88142857D01*
X113740533Y-88142857D02*
X113883390Y-88190476D01*
X113883390Y-88190476D02*
X114454819Y-88761904D01*
X114454819Y-88761904D02*
X114454819Y-88142857D01*
X114550057Y-87952381D02*
X114550057Y-87190476D01*
X114359580Y-86380952D02*
X114407200Y-86428571D01*
X114407200Y-86428571D02*
X114454819Y-86571428D01*
X114454819Y-86571428D02*
X114454819Y-86666666D01*
X114454819Y-86666666D02*
X114407200Y-86809523D01*
X114407200Y-86809523D02*
X114311961Y-86904761D01*
X114311961Y-86904761D02*
X114216723Y-86952380D01*
X114216723Y-86952380D02*
X114026247Y-86999999D01*
X114026247Y-86999999D02*
X113883390Y-86999999D01*
X113883390Y-86999999D02*
X113692914Y-86952380D01*
X113692914Y-86952380D02*
X113597676Y-86904761D01*
X113597676Y-86904761D02*
X113502438Y-86809523D01*
X113502438Y-86809523D02*
X113454819Y-86666666D01*
X113454819Y-86666666D02*
X113454819Y-86571428D01*
X113454819Y-86571428D02*
X113502438Y-86428571D01*
X113502438Y-86428571D02*
X113550057Y-86380952D01*
X114454819Y-85809523D02*
X114407200Y-85904761D01*
X114407200Y-85904761D02*
X114359580Y-85952380D01*
X114359580Y-85952380D02*
X114264342Y-85999999D01*
X114264342Y-85999999D02*
X113978628Y-85999999D01*
X113978628Y-85999999D02*
X113883390Y-85952380D01*
X113883390Y-85952380D02*
X113835771Y-85904761D01*
X113835771Y-85904761D02*
X113788152Y-85809523D01*
X113788152Y-85809523D02*
X113788152Y-85666666D01*
X113788152Y-85666666D02*
X113835771Y-85571428D01*
X113835771Y-85571428D02*
X113883390Y-85523809D01*
X113883390Y-85523809D02*
X113978628Y-85476190D01*
X113978628Y-85476190D02*
X114264342Y-85476190D01*
X114264342Y-85476190D02*
X114359580Y-85523809D01*
X114359580Y-85523809D02*
X114407200Y-85571428D01*
X114407200Y-85571428D02*
X114454819Y-85666666D01*
X114454819Y-85666666D02*
X114454819Y-85809523D01*
X114454819Y-85047618D02*
X113788152Y-85047618D01*
X113454819Y-85047618D02*
X113502438Y-85095237D01*
X113502438Y-85095237D02*
X113550057Y-85047618D01*
X113550057Y-85047618D02*
X113502438Y-84999999D01*
X113502438Y-84999999D02*
X113454819Y-85047618D01*
X113454819Y-85047618D02*
X113550057Y-85047618D01*
X113788152Y-84571428D02*
X114454819Y-84571428D01*
X113883390Y-84571428D02*
X113835771Y-84523809D01*
X113835771Y-84523809D02*
X113788152Y-84428571D01*
X113788152Y-84428571D02*
X113788152Y-84285714D01*
X113788152Y-84285714D02*
X113835771Y-84190476D01*
X113835771Y-84190476D02*
X113931009Y-84142857D01*
X113931009Y-84142857D02*
X114454819Y-84142857D01*
X114550057Y-83904762D02*
X114550057Y-83142857D01*
X114359580Y-82333333D02*
X114407200Y-82380952D01*
X114407200Y-82380952D02*
X114454819Y-82523809D01*
X114454819Y-82523809D02*
X114454819Y-82619047D01*
X114454819Y-82619047D02*
X114407200Y-82761904D01*
X114407200Y-82761904D02*
X114311961Y-82857142D01*
X114311961Y-82857142D02*
X114216723Y-82904761D01*
X114216723Y-82904761D02*
X114026247Y-82952380D01*
X114026247Y-82952380D02*
X113883390Y-82952380D01*
X113883390Y-82952380D02*
X113692914Y-82904761D01*
X113692914Y-82904761D02*
X113597676Y-82857142D01*
X113597676Y-82857142D02*
X113502438Y-82761904D01*
X113502438Y-82761904D02*
X113454819Y-82619047D01*
X113454819Y-82619047D02*
X113454819Y-82523809D01*
X113454819Y-82523809D02*
X113502438Y-82380952D01*
X113502438Y-82380952D02*
X113550057Y-82333333D01*
X114407200Y-81523809D02*
X114454819Y-81619047D01*
X114454819Y-81619047D02*
X114454819Y-81809523D01*
X114454819Y-81809523D02*
X114407200Y-81904761D01*
X114407200Y-81904761D02*
X114311961Y-81952380D01*
X114311961Y-81952380D02*
X113931009Y-81952380D01*
X113931009Y-81952380D02*
X113835771Y-81904761D01*
X113835771Y-81904761D02*
X113788152Y-81809523D01*
X113788152Y-81809523D02*
X113788152Y-81619047D01*
X113788152Y-81619047D02*
X113835771Y-81523809D01*
X113835771Y-81523809D02*
X113931009Y-81476190D01*
X113931009Y-81476190D02*
X114026247Y-81476190D01*
X114026247Y-81476190D02*
X114121485Y-81952380D01*
X114454819Y-80904761D02*
X114407200Y-80999999D01*
X114407200Y-80999999D02*
X114311961Y-81047618D01*
X114311961Y-81047618D02*
X113454819Y-81047618D01*
X114454819Y-80380951D02*
X114407200Y-80476189D01*
X114407200Y-80476189D02*
X114311961Y-80523808D01*
X114311961Y-80523808D02*
X113454819Y-80523808D01*
X171116666Y-59167319D02*
X171116666Y-59881604D01*
X171116666Y-59881604D02*
X171069047Y-60024461D01*
X171069047Y-60024461D02*
X170973809Y-60119700D01*
X170973809Y-60119700D02*
X170830952Y-60167319D01*
X170830952Y-60167319D02*
X170735714Y-60167319D01*
X172069047Y-59167319D02*
X171592857Y-59167319D01*
X171592857Y-59167319D02*
X171545238Y-59643509D01*
X171545238Y-59643509D02*
X171592857Y-59595890D01*
X171592857Y-59595890D02*
X171688095Y-59548271D01*
X171688095Y-59548271D02*
X171926190Y-59548271D01*
X171926190Y-59548271D02*
X172021428Y-59595890D01*
X172021428Y-59595890D02*
X172069047Y-59643509D01*
X172069047Y-59643509D02*
X172116666Y-59738747D01*
X172116666Y-59738747D02*
X172116666Y-59976842D01*
X172116666Y-59976842D02*
X172069047Y-60072080D01*
X172069047Y-60072080D02*
X172021428Y-60119700D01*
X172021428Y-60119700D02*
X171926190Y-60167319D01*
X171926190Y-60167319D02*
X171688095Y-60167319D01*
X171688095Y-60167319D02*
X171592857Y-60119700D01*
X171592857Y-60119700D02*
X171545238Y-60072080D01*
X173954819Y-50988094D02*
X174764342Y-50988094D01*
X174764342Y-50988094D02*
X174859580Y-50940475D01*
X174859580Y-50940475D02*
X174907200Y-50892856D01*
X174907200Y-50892856D02*
X174954819Y-50797618D01*
X174954819Y-50797618D02*
X174954819Y-50607142D01*
X174954819Y-50607142D02*
X174907200Y-50511904D01*
X174907200Y-50511904D02*
X174859580Y-50464285D01*
X174859580Y-50464285D02*
X174764342Y-50416666D01*
X174764342Y-50416666D02*
X173954819Y-50416666D01*
X174907200Y-49988094D02*
X174954819Y-49845237D01*
X174954819Y-49845237D02*
X174954819Y-49607142D01*
X174954819Y-49607142D02*
X174907200Y-49511904D01*
X174907200Y-49511904D02*
X174859580Y-49464285D01*
X174859580Y-49464285D02*
X174764342Y-49416666D01*
X174764342Y-49416666D02*
X174669104Y-49416666D01*
X174669104Y-49416666D02*
X174573866Y-49464285D01*
X174573866Y-49464285D02*
X174526247Y-49511904D01*
X174526247Y-49511904D02*
X174478628Y-49607142D01*
X174478628Y-49607142D02*
X174431009Y-49797618D01*
X174431009Y-49797618D02*
X174383390Y-49892856D01*
X174383390Y-49892856D02*
X174335771Y-49940475D01*
X174335771Y-49940475D02*
X174240533Y-49988094D01*
X174240533Y-49988094D02*
X174145295Y-49988094D01*
X174145295Y-49988094D02*
X174050057Y-49940475D01*
X174050057Y-49940475D02*
X174002438Y-49892856D01*
X174002438Y-49892856D02*
X173954819Y-49797618D01*
X173954819Y-49797618D02*
X173954819Y-49559523D01*
X173954819Y-49559523D02*
X174002438Y-49416666D01*
X174431009Y-48654761D02*
X174478628Y-48511904D01*
X174478628Y-48511904D02*
X174526247Y-48464285D01*
X174526247Y-48464285D02*
X174621485Y-48416666D01*
X174621485Y-48416666D02*
X174764342Y-48416666D01*
X174764342Y-48416666D02*
X174859580Y-48464285D01*
X174859580Y-48464285D02*
X174907200Y-48511904D01*
X174907200Y-48511904D02*
X174954819Y-48607142D01*
X174954819Y-48607142D02*
X174954819Y-48988094D01*
X174954819Y-48988094D02*
X173954819Y-48988094D01*
X173954819Y-48988094D02*
X173954819Y-48654761D01*
X173954819Y-48654761D02*
X174002438Y-48559523D01*
X174002438Y-48559523D02*
X174050057Y-48511904D01*
X174050057Y-48511904D02*
X174145295Y-48464285D01*
X174145295Y-48464285D02*
X174240533Y-48464285D01*
X174240533Y-48464285D02*
X174335771Y-48511904D01*
X174335771Y-48511904D02*
X174383390Y-48559523D01*
X174383390Y-48559523D02*
X174431009Y-48654761D01*
X174431009Y-48654761D02*
X174431009Y-48988094D01*
X174050057Y-48035713D02*
X174002438Y-47988094D01*
X174002438Y-47988094D02*
X173954819Y-47892856D01*
X173954819Y-47892856D02*
X173954819Y-47654761D01*
X173954819Y-47654761D02*
X174002438Y-47559523D01*
X174002438Y-47559523D02*
X174050057Y-47511904D01*
X174050057Y-47511904D02*
X174145295Y-47464285D01*
X174145295Y-47464285D02*
X174240533Y-47464285D01*
X174240533Y-47464285D02*
X174383390Y-47511904D01*
X174383390Y-47511904D02*
X174954819Y-48083332D01*
X174954819Y-48083332D02*
X174954819Y-47464285D01*
X113904761Y-65550057D02*
X113809523Y-65502438D01*
X113809523Y-65502438D02*
X113714285Y-65407200D01*
X113714285Y-65407200D02*
X113571428Y-65264342D01*
X113571428Y-65264342D02*
X113476190Y-65216723D01*
X113476190Y-65216723D02*
X113380952Y-65216723D01*
X113428571Y-65454819D02*
X113333333Y-65407200D01*
X113333333Y-65407200D02*
X113238095Y-65311961D01*
X113238095Y-65311961D02*
X113190476Y-65121485D01*
X113190476Y-65121485D02*
X113190476Y-64788152D01*
X113190476Y-64788152D02*
X113238095Y-64597676D01*
X113238095Y-64597676D02*
X113333333Y-64502438D01*
X113333333Y-64502438D02*
X113428571Y-64454819D01*
X113428571Y-64454819D02*
X113619047Y-64454819D01*
X113619047Y-64454819D02*
X113714285Y-64502438D01*
X113714285Y-64502438D02*
X113809523Y-64597676D01*
X113809523Y-64597676D02*
X113857142Y-64788152D01*
X113857142Y-64788152D02*
X113857142Y-65121485D01*
X113857142Y-65121485D02*
X113809523Y-65311961D01*
X113809523Y-65311961D02*
X113714285Y-65407200D01*
X113714285Y-65407200D02*
X113619047Y-65454819D01*
X113619047Y-65454819D02*
X113428571Y-65454819D01*
X114809523Y-65454819D02*
X114238095Y-65454819D01*
X114523809Y-65454819D02*
X114523809Y-64454819D01*
X114523809Y-64454819D02*
X114428571Y-64597676D01*
X114428571Y-64597676D02*
X114333333Y-64692914D01*
X114333333Y-64692914D02*
X114238095Y-64740533D01*
X110050057Y-63964285D02*
X110002438Y-63916666D01*
X110002438Y-63916666D02*
X109954819Y-63821428D01*
X109954819Y-63821428D02*
X109954819Y-63583333D01*
X109954819Y-63583333D02*
X110002438Y-63488095D01*
X110002438Y-63488095D02*
X110050057Y-63440476D01*
X110050057Y-63440476D02*
X110145295Y-63392857D01*
X110145295Y-63392857D02*
X110240533Y-63392857D01*
X110240533Y-63392857D02*
X110383390Y-63440476D01*
X110383390Y-63440476D02*
X110954819Y-64011904D01*
X110954819Y-64011904D02*
X110954819Y-63392857D01*
X110954819Y-62964285D02*
X109954819Y-62964285D01*
X109954819Y-62964285D02*
X110954819Y-62392857D01*
X110954819Y-62392857D02*
X109954819Y-62392857D01*
X109954819Y-62011904D02*
X109954819Y-61392857D01*
X109954819Y-61392857D02*
X110335771Y-61726190D01*
X110335771Y-61726190D02*
X110335771Y-61583333D01*
X110335771Y-61583333D02*
X110383390Y-61488095D01*
X110383390Y-61488095D02*
X110431009Y-61440476D01*
X110431009Y-61440476D02*
X110526247Y-61392857D01*
X110526247Y-61392857D02*
X110764342Y-61392857D01*
X110764342Y-61392857D02*
X110859580Y-61440476D01*
X110859580Y-61440476D02*
X110907200Y-61488095D01*
X110907200Y-61488095D02*
X110954819Y-61583333D01*
X110954819Y-61583333D02*
X110954819Y-61869047D01*
X110954819Y-61869047D02*
X110907200Y-61964285D01*
X110907200Y-61964285D02*
X110859580Y-62011904D01*
X110954819Y-60916666D02*
X110954819Y-60726190D01*
X110954819Y-60726190D02*
X110907200Y-60630952D01*
X110907200Y-60630952D02*
X110859580Y-60583333D01*
X110859580Y-60583333D02*
X110716723Y-60488095D01*
X110716723Y-60488095D02*
X110526247Y-60440476D01*
X110526247Y-60440476D02*
X110145295Y-60440476D01*
X110145295Y-60440476D02*
X110050057Y-60488095D01*
X110050057Y-60488095D02*
X110002438Y-60535714D01*
X110002438Y-60535714D02*
X109954819Y-60630952D01*
X109954819Y-60630952D02*
X109954819Y-60821428D01*
X109954819Y-60821428D02*
X110002438Y-60916666D01*
X110002438Y-60916666D02*
X110050057Y-60964285D01*
X110050057Y-60964285D02*
X110145295Y-61011904D01*
X110145295Y-61011904D02*
X110383390Y-61011904D01*
X110383390Y-61011904D02*
X110478628Y-60964285D01*
X110478628Y-60964285D02*
X110526247Y-60916666D01*
X110526247Y-60916666D02*
X110573866Y-60821428D01*
X110573866Y-60821428D02*
X110573866Y-60630952D01*
X110573866Y-60630952D02*
X110526247Y-60535714D01*
X110526247Y-60535714D02*
X110478628Y-60488095D01*
X110478628Y-60488095D02*
X110383390Y-60440476D01*
X109954819Y-59821428D02*
X109954819Y-59726190D01*
X109954819Y-59726190D02*
X110002438Y-59630952D01*
X110002438Y-59630952D02*
X110050057Y-59583333D01*
X110050057Y-59583333D02*
X110145295Y-59535714D01*
X110145295Y-59535714D02*
X110335771Y-59488095D01*
X110335771Y-59488095D02*
X110573866Y-59488095D01*
X110573866Y-59488095D02*
X110764342Y-59535714D01*
X110764342Y-59535714D02*
X110859580Y-59583333D01*
X110859580Y-59583333D02*
X110907200Y-59630952D01*
X110907200Y-59630952D02*
X110954819Y-59726190D01*
X110954819Y-59726190D02*
X110954819Y-59821428D01*
X110954819Y-59821428D02*
X110907200Y-59916666D01*
X110907200Y-59916666D02*
X110859580Y-59964285D01*
X110859580Y-59964285D02*
X110764342Y-60011904D01*
X110764342Y-60011904D02*
X110573866Y-60059523D01*
X110573866Y-60059523D02*
X110335771Y-60059523D01*
X110335771Y-60059523D02*
X110145295Y-60011904D01*
X110145295Y-60011904D02*
X110050057Y-59964285D01*
X110050057Y-59964285D02*
X110002438Y-59916666D01*
X110002438Y-59916666D02*
X109954819Y-59821428D01*
X110288152Y-58630952D02*
X110954819Y-58630952D01*
X109907200Y-58869047D02*
X110621485Y-59107142D01*
X110621485Y-59107142D02*
X110621485Y-58488095D01*
X123166666Y-73854819D02*
X123166666Y-74569104D01*
X123166666Y-74569104D02*
X123119047Y-74711961D01*
X123119047Y-74711961D02*
X123023809Y-74807200D01*
X123023809Y-74807200D02*
X122880952Y-74854819D01*
X122880952Y-74854819D02*
X122785714Y-74854819D01*
X124166666Y-74854819D02*
X123595238Y-74854819D01*
X123880952Y-74854819D02*
X123880952Y-73854819D01*
X123880952Y-73854819D02*
X123785714Y-73997676D01*
X123785714Y-73997676D02*
X123690476Y-74092914D01*
X123690476Y-74092914D02*
X123595238Y-74140533D01*
X123644819Y-79348333D02*
X123644819Y-79824523D01*
X123644819Y-79824523D02*
X122644819Y-79824523D01*
X123644819Y-79014999D02*
X122644819Y-79014999D01*
X122692438Y-78015000D02*
X122644819Y-78110238D01*
X122644819Y-78110238D02*
X122644819Y-78253095D01*
X122644819Y-78253095D02*
X122692438Y-78395952D01*
X122692438Y-78395952D02*
X122787676Y-78491190D01*
X122787676Y-78491190D02*
X122882914Y-78538809D01*
X122882914Y-78538809D02*
X123073390Y-78586428D01*
X123073390Y-78586428D02*
X123216247Y-78586428D01*
X123216247Y-78586428D02*
X123406723Y-78538809D01*
X123406723Y-78538809D02*
X123501961Y-78491190D01*
X123501961Y-78491190D02*
X123597200Y-78395952D01*
X123597200Y-78395952D02*
X123644819Y-78253095D01*
X123644819Y-78253095D02*
X123644819Y-78157857D01*
X123644819Y-78157857D02*
X123597200Y-78015000D01*
X123597200Y-78015000D02*
X123549580Y-77967381D01*
X123549580Y-77967381D02*
X123216247Y-77967381D01*
X123216247Y-77967381D02*
X123216247Y-78157857D01*
X123644819Y-77538809D02*
X122644819Y-77538809D01*
X123121009Y-77538809D02*
X123121009Y-76967381D01*
X123644819Y-76967381D02*
X122644819Y-76967381D01*
X122644819Y-76634047D02*
X122644819Y-76062619D01*
X123644819Y-76348333D02*
X122644819Y-76348333D01*
X159686666Y-76172319D02*
X159686666Y-76886604D01*
X159686666Y-76886604D02*
X159639047Y-77029461D01*
X159639047Y-77029461D02*
X159543809Y-77124700D01*
X159543809Y-77124700D02*
X159400952Y-77172319D01*
X159400952Y-77172319D02*
X159305714Y-77172319D01*
X160115238Y-76267557D02*
X160162857Y-76219938D01*
X160162857Y-76219938D02*
X160258095Y-76172319D01*
X160258095Y-76172319D02*
X160496190Y-76172319D01*
X160496190Y-76172319D02*
X160591428Y-76219938D01*
X160591428Y-76219938D02*
X160639047Y-76267557D01*
X160639047Y-76267557D02*
X160686666Y-76362795D01*
X160686666Y-76362795D02*
X160686666Y-76458033D01*
X160686666Y-76458033D02*
X160639047Y-76600890D01*
X160639047Y-76600890D02*
X160067619Y-77172319D01*
X160067619Y-77172319D02*
X160686666Y-77172319D01*
X162014819Y-88124880D02*
X162014819Y-87934404D01*
X162014819Y-87934404D02*
X162062438Y-87839166D01*
X162062438Y-87839166D02*
X162157676Y-87743928D01*
X162157676Y-87743928D02*
X162348152Y-87696309D01*
X162348152Y-87696309D02*
X162681485Y-87696309D01*
X162681485Y-87696309D02*
X162871961Y-87743928D01*
X162871961Y-87743928D02*
X162967200Y-87839166D01*
X162967200Y-87839166D02*
X163014819Y-87934404D01*
X163014819Y-87934404D02*
X163014819Y-88124880D01*
X163014819Y-88124880D02*
X162967200Y-88220118D01*
X162967200Y-88220118D02*
X162871961Y-88315356D01*
X162871961Y-88315356D02*
X162681485Y-88362975D01*
X162681485Y-88362975D02*
X162348152Y-88362975D01*
X162348152Y-88362975D02*
X162157676Y-88315356D01*
X162157676Y-88315356D02*
X162062438Y-88220118D01*
X162062438Y-88220118D02*
X162014819Y-88124880D01*
X163014819Y-86791547D02*
X163014819Y-87267737D01*
X163014819Y-87267737D02*
X162014819Y-87267737D01*
X162491009Y-86458213D02*
X162491009Y-86124880D01*
X163014819Y-85982023D02*
X163014819Y-86458213D01*
X163014819Y-86458213D02*
X162014819Y-86458213D01*
X162014819Y-86458213D02*
X162014819Y-85982023D01*
X163014819Y-85553451D02*
X162014819Y-85553451D01*
X162014819Y-85553451D02*
X162014819Y-85315356D01*
X162014819Y-85315356D02*
X162062438Y-85172499D01*
X162062438Y-85172499D02*
X162157676Y-85077261D01*
X162157676Y-85077261D02*
X162252914Y-85029642D01*
X162252914Y-85029642D02*
X162443390Y-84982023D01*
X162443390Y-84982023D02*
X162586247Y-84982023D01*
X162586247Y-84982023D02*
X162776723Y-85029642D01*
X162776723Y-85029642D02*
X162871961Y-85077261D01*
X162871961Y-85077261D02*
X162967200Y-85172499D01*
X162967200Y-85172499D02*
X163014819Y-85315356D01*
X163014819Y-85315356D02*
X163014819Y-85553451D01*
X159904761Y-66050057D02*
X159809523Y-66002438D01*
X159809523Y-66002438D02*
X159714285Y-65907200D01*
X159714285Y-65907200D02*
X159571428Y-65764342D01*
X159571428Y-65764342D02*
X159476190Y-65716723D01*
X159476190Y-65716723D02*
X159380952Y-65716723D01*
X159428571Y-65954819D02*
X159333333Y-65907200D01*
X159333333Y-65907200D02*
X159238095Y-65811961D01*
X159238095Y-65811961D02*
X159190476Y-65621485D01*
X159190476Y-65621485D02*
X159190476Y-65288152D01*
X159190476Y-65288152D02*
X159238095Y-65097676D01*
X159238095Y-65097676D02*
X159333333Y-65002438D01*
X159333333Y-65002438D02*
X159428571Y-64954819D01*
X159428571Y-64954819D02*
X159619047Y-64954819D01*
X159619047Y-64954819D02*
X159714285Y-65002438D01*
X159714285Y-65002438D02*
X159809523Y-65097676D01*
X159809523Y-65097676D02*
X159857142Y-65288152D01*
X159857142Y-65288152D02*
X159857142Y-65621485D01*
X159857142Y-65621485D02*
X159809523Y-65811961D01*
X159809523Y-65811961D02*
X159714285Y-65907200D01*
X159714285Y-65907200D02*
X159619047Y-65954819D01*
X159619047Y-65954819D02*
X159428571Y-65954819D01*
X160238095Y-65050057D02*
X160285714Y-65002438D01*
X160285714Y-65002438D02*
X160380952Y-64954819D01*
X160380952Y-64954819D02*
X160619047Y-64954819D01*
X160619047Y-64954819D02*
X160714285Y-65002438D01*
X160714285Y-65002438D02*
X160761904Y-65050057D01*
X160761904Y-65050057D02*
X160809523Y-65145295D01*
X160809523Y-65145295D02*
X160809523Y-65240533D01*
X160809523Y-65240533D02*
X160761904Y-65383390D01*
X160761904Y-65383390D02*
X160190476Y-65954819D01*
X160190476Y-65954819D02*
X160809523Y-65954819D01*
X163550057Y-64464285D02*
X163502438Y-64416666D01*
X163502438Y-64416666D02*
X163454819Y-64321428D01*
X163454819Y-64321428D02*
X163454819Y-64083333D01*
X163454819Y-64083333D02*
X163502438Y-63988095D01*
X163502438Y-63988095D02*
X163550057Y-63940476D01*
X163550057Y-63940476D02*
X163645295Y-63892857D01*
X163645295Y-63892857D02*
X163740533Y-63892857D01*
X163740533Y-63892857D02*
X163883390Y-63940476D01*
X163883390Y-63940476D02*
X164454819Y-64511904D01*
X164454819Y-64511904D02*
X164454819Y-63892857D01*
X164454819Y-63464285D02*
X163454819Y-63464285D01*
X163454819Y-63464285D02*
X164454819Y-62892857D01*
X164454819Y-62892857D02*
X163454819Y-62892857D01*
X163454819Y-62511904D02*
X163454819Y-61892857D01*
X163454819Y-61892857D02*
X163835771Y-62226190D01*
X163835771Y-62226190D02*
X163835771Y-62083333D01*
X163835771Y-62083333D02*
X163883390Y-61988095D01*
X163883390Y-61988095D02*
X163931009Y-61940476D01*
X163931009Y-61940476D02*
X164026247Y-61892857D01*
X164026247Y-61892857D02*
X164264342Y-61892857D01*
X164264342Y-61892857D02*
X164359580Y-61940476D01*
X164359580Y-61940476D02*
X164407200Y-61988095D01*
X164407200Y-61988095D02*
X164454819Y-62083333D01*
X164454819Y-62083333D02*
X164454819Y-62369047D01*
X164454819Y-62369047D02*
X164407200Y-62464285D01*
X164407200Y-62464285D02*
X164359580Y-62511904D01*
X164454819Y-61416666D02*
X164454819Y-61226190D01*
X164454819Y-61226190D02*
X164407200Y-61130952D01*
X164407200Y-61130952D02*
X164359580Y-61083333D01*
X164359580Y-61083333D02*
X164216723Y-60988095D01*
X164216723Y-60988095D02*
X164026247Y-60940476D01*
X164026247Y-60940476D02*
X163645295Y-60940476D01*
X163645295Y-60940476D02*
X163550057Y-60988095D01*
X163550057Y-60988095D02*
X163502438Y-61035714D01*
X163502438Y-61035714D02*
X163454819Y-61130952D01*
X163454819Y-61130952D02*
X163454819Y-61321428D01*
X163454819Y-61321428D02*
X163502438Y-61416666D01*
X163502438Y-61416666D02*
X163550057Y-61464285D01*
X163550057Y-61464285D02*
X163645295Y-61511904D01*
X163645295Y-61511904D02*
X163883390Y-61511904D01*
X163883390Y-61511904D02*
X163978628Y-61464285D01*
X163978628Y-61464285D02*
X164026247Y-61416666D01*
X164026247Y-61416666D02*
X164073866Y-61321428D01*
X164073866Y-61321428D02*
X164073866Y-61130952D01*
X164073866Y-61130952D02*
X164026247Y-61035714D01*
X164026247Y-61035714D02*
X163978628Y-60988095D01*
X163978628Y-60988095D02*
X163883390Y-60940476D01*
X163454819Y-60321428D02*
X163454819Y-60226190D01*
X163454819Y-60226190D02*
X163502438Y-60130952D01*
X163502438Y-60130952D02*
X163550057Y-60083333D01*
X163550057Y-60083333D02*
X163645295Y-60035714D01*
X163645295Y-60035714D02*
X163835771Y-59988095D01*
X163835771Y-59988095D02*
X164073866Y-59988095D01*
X164073866Y-59988095D02*
X164264342Y-60035714D01*
X164264342Y-60035714D02*
X164359580Y-60083333D01*
X164359580Y-60083333D02*
X164407200Y-60130952D01*
X164407200Y-60130952D02*
X164454819Y-60226190D01*
X164454819Y-60226190D02*
X164454819Y-60321428D01*
X164454819Y-60321428D02*
X164407200Y-60416666D01*
X164407200Y-60416666D02*
X164359580Y-60464285D01*
X164359580Y-60464285D02*
X164264342Y-60511904D01*
X164264342Y-60511904D02*
X164073866Y-60559523D01*
X164073866Y-60559523D02*
X163835771Y-60559523D01*
X163835771Y-60559523D02*
X163645295Y-60511904D01*
X163645295Y-60511904D02*
X163550057Y-60464285D01*
X163550057Y-60464285D02*
X163502438Y-60416666D01*
X163502438Y-60416666D02*
X163454819Y-60321428D01*
X163788152Y-59130952D02*
X164454819Y-59130952D01*
X163407200Y-59369047D02*
X164121485Y-59607142D01*
X164121485Y-59607142D02*
X164121485Y-58988095D01*
D12*
G04 #@! TO.C,J4*
X127360000Y-58482500D02*
X127360000Y-56502500D01*
X123000000Y-59362500D02*
X124000000Y-59362500D01*
X123500000Y-58862500D02*
X123000000Y-59362500D01*
X112640000Y-56502500D02*
X112640000Y-58482500D01*
X127360000Y-52802500D02*
X127360000Y-44262500D01*
X124000000Y-59362500D02*
X123500000Y-58862500D01*
X112640000Y-52802500D02*
X112640000Y-44262500D01*
X127360000Y-44262500D02*
X112640000Y-44262500D01*
X127360000Y-58482500D02*
X112640000Y-58482500D01*
G04 #@! TO.C,Y1*
X112650000Y-71617742D02*
X112050000Y-70717742D01*
X111800000Y-78017742D02*
X114200000Y-78017742D01*
X113950000Y-70717742D02*
X113950000Y-70517742D01*
X113350000Y-71617742D02*
X113950000Y-70717742D01*
X112050000Y-70717742D02*
X112050000Y-70517742D01*
X114200000Y-71617742D02*
X111800000Y-71617742D01*
X114200000Y-78017742D02*
X114200000Y-71617742D01*
X111800000Y-71617742D02*
X111800000Y-78017742D01*
G04 #@! TO.C,BZ1*
X170550000Y-71000000D02*
G75*
G03*
X170550000Y-71000000I-6100000J0D01*
G01*
G04 #@! TO.C,U2*
X124660000Y-61870000D02*
X123010000Y-61870000D01*
X124660000Y-72150000D02*
X124660000Y-61870000D01*
X119360000Y-72150000D02*
X124660000Y-72150000D01*
X121010000Y-61870000D02*
X119360000Y-61870000D01*
X119360000Y-61870000D02*
X119360000Y-72150000D01*
X121010000Y-61870000D02*
G75*
G03*
X123010000Y-61870000I1000000J0D01*
G01*
G04 #@! TO.C,J3*
X124400000Y-82845000D02*
X125730000Y-82845000D01*
X127060000Y-85445000D02*
X127060000Y-95665000D01*
X124400000Y-95665000D02*
X127060000Y-95665000D01*
X124400000Y-85445000D02*
X124400000Y-95665000D01*
X124400000Y-85445000D02*
X127060000Y-85445000D01*
X124400000Y-84175000D02*
X124400000Y-82845000D01*
G04 #@! TO.C,U1*
X132500000Y-74900000D02*
X132500000Y-75300000D01*
X132500000Y-52000000D02*
X132500000Y-52400000D01*
X132500000Y-44500000D02*
X132500000Y-44800000D01*
X153500000Y-54600000D02*
X153500000Y-55000000D01*
X153500000Y-67300000D02*
X153500000Y-67700000D01*
X132500000Y-77400000D02*
X132500000Y-77800000D01*
X141500000Y-95500000D02*
X141900000Y-95500000D01*
X153500000Y-82500000D02*
X153500000Y-82900000D01*
X132500000Y-59600000D02*
X132500000Y-60000000D01*
X132500000Y-69800000D02*
X132500000Y-70200000D01*
X153500000Y-52000000D02*
X153500000Y-52400000D01*
X153500000Y-92700000D02*
X153500000Y-93100000D01*
X132500000Y-90100000D02*
X132500000Y-90500000D01*
X132500000Y-44500000D02*
X153500000Y-44500000D01*
X153500000Y-95500000D02*
X146700000Y-95500000D01*
X153500000Y-85100000D02*
X153500000Y-85500000D01*
X132500000Y-57100000D02*
X132500000Y-57500000D01*
X132500000Y-92700000D02*
X132500000Y-93100000D01*
X132500000Y-54600000D02*
X132500000Y-55000000D01*
X144100000Y-95500000D02*
X144500000Y-95500000D01*
X132500000Y-47167000D02*
X135507000Y-47167000D01*
X153500000Y-59600000D02*
X153500000Y-60000000D01*
X153500000Y-72300000D02*
X153500000Y-72700000D01*
X153500000Y-87600000D02*
X153500000Y-88000000D01*
X153500000Y-74900000D02*
X153500000Y-75300000D01*
X132500000Y-46900000D02*
X132500000Y-47300000D01*
X132500000Y-82500000D02*
X132500000Y-82900000D01*
X153500000Y-44500000D02*
X153500000Y-44800000D01*
X132500000Y-64700000D02*
X132500000Y-65100000D01*
X153500000Y-57100000D02*
X153500000Y-57500000D01*
X135507000Y-47167000D02*
X135507000Y-44500000D01*
X132500000Y-49500000D02*
X132500000Y-49900000D01*
X153500000Y-77400000D02*
X153500000Y-77800000D01*
X153500000Y-69800000D02*
X153500000Y-70200000D01*
X132500000Y-62200000D02*
X132500000Y-62600000D01*
X132500000Y-87600000D02*
X132500000Y-88000000D01*
X132500000Y-85100000D02*
X132500000Y-85500000D01*
X139300000Y-95500000D02*
X132500000Y-95500000D01*
X153500000Y-80000000D02*
X153500000Y-80400000D01*
X153500000Y-64700000D02*
X153500000Y-65100000D01*
X153500000Y-49500000D02*
X153500000Y-49900000D01*
X132500000Y-72300000D02*
X132500000Y-72700000D01*
X153500000Y-62200000D02*
X153500000Y-62600000D01*
X132500000Y-80000000D02*
X132500000Y-80400000D01*
X153500000Y-90100000D02*
X153500000Y-90500000D01*
X132500000Y-67300000D02*
X132500000Y-67700000D01*
X153500000Y-46900000D02*
X153500000Y-47300000D01*
G04 #@! TO.C,BT1*
X115150000Y-75250000D02*
X121150000Y-75250000D01*
X121150000Y-75250000D02*
X121150000Y-98750000D01*
X121150000Y-98750000D02*
X115150000Y-98750000D01*
X115150000Y-98750000D02*
X115150000Y-75250000D01*
G04 #@! TO.C,J5*
X173360000Y-58482500D02*
X158640000Y-58482500D01*
X173360000Y-52802500D02*
X173360000Y-44262500D01*
X158640000Y-52802500D02*
X158640000Y-44262500D01*
X173360000Y-44262500D02*
X158640000Y-44262500D01*
X158640000Y-56502500D02*
X158640000Y-58482500D01*
X173360000Y-58482500D02*
X173360000Y-56502500D01*
X169000000Y-59362500D02*
X170000000Y-59362500D01*
X170000000Y-59362500D02*
X169500000Y-58862500D01*
X169500000Y-58862500D02*
X169000000Y-59362500D01*
G04 #@! TO.C,Q1*
X115850000Y-63530000D02*
X115850000Y-59930000D01*
X111400000Y-61730000D02*
G75*
G03*
X115838478Y-63568478I2600000J0D01*
G01*
X115838478Y-59891522D02*
G75*
G03*
X111400000Y-61730000I-1838478J-1838478D01*
G01*
G04 #@! TO.C,J1*
X124400000Y-76745000D02*
X127060000Y-76745000D01*
X124400000Y-75475000D02*
X124400000Y-74145000D01*
X124400000Y-74145000D02*
X125730000Y-74145000D01*
X124400000Y-81885000D02*
X127060000Y-81885000D01*
X124400000Y-76745000D02*
X124400000Y-81885000D01*
X127060000Y-76745000D02*
X127060000Y-81885000D01*
G04 #@! TO.C,J2*
X158690000Y-80317500D02*
X158690000Y-95617500D01*
X158690000Y-79047500D02*
X158690000Y-77717500D01*
X161350000Y-80317500D02*
X161350000Y-95617500D01*
X158690000Y-80317500D02*
X161350000Y-80317500D01*
X158690000Y-77717500D02*
X160020000Y-77717500D01*
X158690000Y-95617500D02*
X161350000Y-95617500D01*
G04 #@! TO.C,Q2*
X162850000Y-63530000D02*
X162850000Y-59930000D01*
X158400000Y-61730000D02*
G75*
G03*
X162838478Y-63568478I2600000J0D01*
G01*
X162838478Y-59891522D02*
G75*
G03*
X158400000Y-61730000I-1838478J-1838478D01*
G01*
G04 #@! TD*
M02*
