M48
INCH,TZ
T1C0.0197
T2C0.0295
T3C0.0315
T4C0.0362
T5C0.0394
T6C0.0402
T7C0.0492
T8C0.0906
%
G90
G05
T1
X44114Y-27487
X44862Y-27487
T2
X44882Y-23803
X44882Y-24303
X44882Y-24803
X63386Y-23803
X63386Y-24303
X63386Y-24803
T3
X46535Y-24882
X46535Y-25882
X46535Y-26882
X46535Y-27882
X49535Y-24882
X49535Y-25882
X49535Y-26882
X49535Y-27882
T4
X45866Y-22584
X46850Y-22584
X47638Y-22584
X48622Y-22584
X63976Y-22584
X64961Y-22584
X65748Y-22584
X66732Y-22584
T5
X49500Y-29715
X49500Y-30715
X49500Y-31715
X49500Y-33140
X49500Y-34140
X49500Y-35140
X49500Y-36140
X49500Y-37140
X63000Y-31121
X63000Y-32121
X63000Y-33121
X63000Y-34121
X63000Y-35121
X63000Y-36121
X63000Y-37121
X63465Y-27953
X66024Y-27953
T6
X52799Y-18059
X52799Y-19059
X52799Y-20059
X52799Y-21059
X52799Y-22059
X52799Y-23059
X52799Y-24059
X52799Y-25059
X52799Y-26059
X52799Y-27059
X52799Y-28059
X52799Y-29059
X52799Y-30059
X52799Y-31059
X52799Y-32059
X52799Y-33059
X52799Y-34059
X52799Y-35059
X52799Y-36059
X52799Y-37059
X55299Y-36969
X56299Y-36969
X57299Y-36969
X59799Y-18059
X59799Y-19059
X59799Y-20059
X59799Y-21059
X59799Y-22059
X59799Y-23059
X59799Y-24059
X59799Y-25059
X59799Y-26059
X59799Y-27059
X59799Y-28059
X59799Y-29059
X59799Y-30059
X59799Y-31059
X59799Y-32059
X59799Y-33059
X59799Y-34059
X59799Y-35059
X59799Y-36059
X59799Y-37059
T7
X45787Y-34252
X47244Y-32283
X47244Y-36220
T8
X44657Y-21517
X49831Y-21517
X62768Y-21517
X67941Y-21517
T0
M30
