G04 #@! TF.GenerationSoftware,KiCad,Pcbnew,7.0.7-2.fc38*
G04 #@! TF.CreationDate,2023-10-09T12:01:20+01:00*
G04 #@! TF.ProjectId,Main_PCB,4d61696e-5f50-4434-922e-6b696361645f,rev?*
G04 #@! TF.SameCoordinates,Original*
G04 #@! TF.FileFunction,Soldermask,Top*
G04 #@! TF.FilePolarity,Negative*
%FSLAX46Y46*%
G04 Gerber Fmt 4.6, Leading zero omitted, Abs format (unit mm)*
G04 Created by KiCad (PCBNEW 7.0.7-2.fc38) date 2023-10-09 12:01:20*
%MOMM*%
%LPD*%
G01*
G04 APERTURE LIST*
%ADD10R,1.524000X1.524000*%
%ADD11C,1.524000*%
%ADD12C,3.500000*%
%ADD13C,1.000000*%
%ADD14R,1.600000X1.600000*%
%ADD15C,1.600000*%
%ADD16O,1.600000X1.600000*%
%ADD17R,1.700000X1.700000*%
%ADD18O,1.700000X1.700000*%
%ADD19O,1.500000X1.500000*%
%ADD20O,1.800000X1.800000*%
%ADD21R,3.500000X1.700000*%
%ADD22R,1.700000X3.500000*%
%ADD23C,2.000000*%
%ADD24R,1.500000X1.050000*%
%ADD25O,1.500000X1.050000*%
G04 APERTURE END LIST*
D10*
G04 #@! TO.C,J4*
X123500000Y-57362500D03*
D11*
X121000000Y-57362500D03*
X119000000Y-57362500D03*
X116500000Y-57362500D03*
D12*
X126570000Y-54652500D03*
X113430000Y-54652500D03*
G04 #@! TD*
D13*
G04 #@! TO.C,Y1*
X112050000Y-69817742D03*
X113950000Y-69817742D03*
G04 #@! TD*
D14*
G04 #@! TO.C,BZ1*
X161200000Y-71000000D03*
D15*
X167700000Y-71000000D03*
G04 #@! TD*
D14*
G04 #@! TO.C,U2*
X118200000Y-63200000D03*
D16*
X118200000Y-65740000D03*
X118200000Y-68280000D03*
X118200000Y-70820000D03*
X125820000Y-70820000D03*
X125820000Y-68280000D03*
X125820000Y-65740000D03*
X125820000Y-63200000D03*
G04 #@! TD*
D17*
G04 #@! TO.C,J3*
X125730000Y-84175000D03*
D18*
X125730000Y-86715000D03*
X125730000Y-89255000D03*
X125730000Y-91795000D03*
X125730000Y-94335000D03*
G04 #@! TD*
D19*
G04 #@! TO.C,U1*
X140575000Y-49030000D03*
D20*
X145725000Y-46000000D03*
X140275000Y-46000000D03*
D19*
X145425000Y-49030000D03*
D21*
X133210000Y-45870000D03*
D18*
X134110000Y-45870000D03*
D21*
X133210000Y-48410000D03*
D18*
X134110000Y-48410000D03*
D17*
X134110000Y-50950000D03*
D21*
X133210000Y-50950000D03*
X133210000Y-53490000D03*
D18*
X134110000Y-53490000D03*
D21*
X133210000Y-56030000D03*
D18*
X134110000Y-56030000D03*
X134110000Y-58570000D03*
D21*
X133210000Y-58570000D03*
X133210000Y-61110000D03*
D18*
X134110000Y-61110000D03*
D17*
X134110000Y-63650000D03*
D21*
X133210000Y-63650000D03*
D18*
X134110000Y-66190000D03*
D21*
X133210000Y-66190000D03*
X133210000Y-68730000D03*
D18*
X134110000Y-68730000D03*
X134110000Y-71270000D03*
D21*
X133210000Y-71270000D03*
X133210000Y-73810000D03*
D18*
X134110000Y-73810000D03*
D17*
X134110000Y-76350000D03*
D21*
X133210000Y-76350000D03*
D18*
X134110000Y-78890000D03*
D21*
X133210000Y-78890000D03*
X133210000Y-81430000D03*
D18*
X134110000Y-81430000D03*
D21*
X133210000Y-83970000D03*
D18*
X134110000Y-83970000D03*
X134110000Y-86510000D03*
D21*
X133210000Y-86510000D03*
X133210000Y-89050000D03*
D17*
X134110000Y-89050000D03*
D18*
X134110000Y-91590000D03*
D21*
X133210000Y-91590000D03*
D18*
X134110000Y-94130000D03*
D21*
X133210000Y-94130000D03*
D18*
X151890000Y-94130000D03*
D21*
X152790000Y-94130000D03*
X152790000Y-91590000D03*
D18*
X151890000Y-91590000D03*
D21*
X152790000Y-89050000D03*
D17*
X151890000Y-89050000D03*
D21*
X152790000Y-86510000D03*
D18*
X151890000Y-86510000D03*
D21*
X152790000Y-83970000D03*
D18*
X151890000Y-83970000D03*
D21*
X152790000Y-81430000D03*
D18*
X151890000Y-81430000D03*
D21*
X152790000Y-78890000D03*
D18*
X151890000Y-78890000D03*
D17*
X151890000Y-76350000D03*
D21*
X152790000Y-76350000D03*
D18*
X151890000Y-73810000D03*
D21*
X152790000Y-73810000D03*
X152790000Y-71270000D03*
D18*
X151890000Y-71270000D03*
X151890000Y-68730000D03*
D21*
X152790000Y-68730000D03*
X152790000Y-66190000D03*
D18*
X151890000Y-66190000D03*
D17*
X151890000Y-63650000D03*
D21*
X152790000Y-63650000D03*
X152790000Y-61110000D03*
D18*
X151890000Y-61110000D03*
X151890000Y-58570000D03*
D21*
X152790000Y-58570000D03*
X152790000Y-56030000D03*
D18*
X151890000Y-56030000D03*
X151890000Y-53490000D03*
D21*
X152790000Y-53490000D03*
X152790000Y-50950000D03*
D17*
X151890000Y-50950000D03*
D18*
X151890000Y-48410000D03*
D21*
X152790000Y-48410000D03*
D18*
X151890000Y-45870000D03*
D21*
X152790000Y-45870000D03*
D18*
X140460000Y-93900000D03*
D22*
X140460000Y-94800000D03*
X143000000Y-94800000D03*
D17*
X143000000Y-93900000D03*
D18*
X145540000Y-93900000D03*
D22*
X145540000Y-94800000D03*
G04 #@! TD*
D23*
G04 #@! TO.C,BT1*
X120000000Y-92000000D03*
X120000000Y-82000000D03*
X116300000Y-87000000D03*
G04 #@! TD*
D10*
G04 #@! TO.C,J5*
X169500000Y-57362500D03*
D11*
X167000000Y-57362500D03*
X165000000Y-57362500D03*
X162500000Y-57362500D03*
D12*
X159430000Y-54652500D03*
X172570000Y-54652500D03*
G04 #@! TD*
D24*
G04 #@! TO.C,Q1*
X114000000Y-63000000D03*
D25*
X114000000Y-61730000D03*
X114000000Y-60460000D03*
G04 #@! TD*
D17*
G04 #@! TO.C,J1*
X125730000Y-75475000D03*
D18*
X125730000Y-78015000D03*
X125730000Y-80555000D03*
G04 #@! TD*
D17*
G04 #@! TO.C,J2*
X160020000Y-79047500D03*
D18*
X160020000Y-81587500D03*
X160020000Y-84127500D03*
X160020000Y-86667500D03*
X160020000Y-89207500D03*
X160020000Y-91747500D03*
X160020000Y-94287500D03*
G04 #@! TD*
D24*
G04 #@! TO.C,Q2*
X161000000Y-63000000D03*
D25*
X161000000Y-61730000D03*
X161000000Y-60460000D03*
G04 #@! TD*
M02*
