<?xml version="1.0" encoding="utf-8"?>
<!-- Generator: Fusion 360, Shaper Origin Export Add-In, Version 1.7.0  -->
<svg xmlns="http://www.w3.org/2000/svg" xmlns:xlink="http://www.w3.org/1999/xlink" xmlns:shaper="http://www.shapertools.com/namespaces/shaper" shaper:fusionaddin="version:1.7.0" width="5.1000011cm" height="5.1000011cm" version="1.1" x="0cm" y="0cm" viewBox="0 0 5.1000011 5.1000011" enable-background="new 0 0 5.1000011 5.1000011" xml:space="preserve"><path d="M0.6300003,2.2000004 A0.3500002,0.3500002 0 0,1 0.2800002,2.5500005 L-4.1200002,2.5500005 A0.3500002,0.3500002 89.9999376 0,1 -4.4700008,2.2000003 L-4.4700008,-2.2000001 A0.3500002,0.3500002 179.9999376 0,1 -4.1200005,-2.5500006 L0.2800002,-2.5500006 A0.3500002,0.3500002 269.9999969 0,1 0.6300003,-2.2000004 L0.6300003,2.2000003z" transform="matrix(1,0,0,-1,4.4700008,2.5500005)" fill="rgb(0,0,0)" stroke-linecap="round" stroke-linejoin="round" /><path d="M-0.6300003,-1.3425001 L-3.3150003,-1.3425001 -3.3150003,1.3424999 -0.6300003,1.3424999 -0.6300003,-1.3425001z" transform="matrix(1,0,0,-1,4.4700008,2.5500005)" fill="rgb(255,255,255)" stroke="rgb(0,0,0)" stroke-width="0.0010cm" stroke-linecap="round" stroke-linejoin="round" /></svg>