<?xml version="1.0" encoding="utf-8"?>
<!-- Generator: Fusion 360, Shaper Origin Export Add-In, Version 1.7.0  -->
<svg xmlns="http://www.w3.org/2000/svg" xmlns:xlink="http://www.w3.org/1999/xlink" xmlns:shaper="http://www.shapertools.com/namespaces/shaper" shaper:fusionaddin="version:1.7.0" width="7.6000011cm" height="7.6000011cm" version="1.1" x="0cm" y="0cm" viewBox="0 0 7.6000011 7.6000011" enable-background="new 0 0 7.6000011 7.6000011" xml:space="preserve"><path d="M3.8000005,5.850001 A1.6000002,1.6000002 0 0,1 2.2000004,7.4500011 L-2.2,7.4500011 A1.6000002,1.6000002 89.9999863 0,1 -3.8000006,5.8500009 L-3.8000006,1.4500005 A1.6000002,1.6000002 179.9999863 0,1 -2.2,-0.15 L2.2000004,-0.15 A1.6000002,1.6000002 269.9999993 0,1 3.8000005,1.4500006 L3.8000005,5.850001z" transform="matrix(1,0,0,-1,3.8000006,7.4500011)" fill="rgb(0,0,0)" stroke-linecap="round" stroke-linejoin="round" /><path d="M3.5000005,5.850001 L3.5000005,1.4500005 A1.3000002,1.3000002 0.0000168 0,0 2.2000004,0.15 L-2.2,0.15 A1.3000002,1.3000002 270.0000168 0,0 -3.5000006,1.4500005 L-3.5000006,5.850001 A1.3000002,1.3000002 180.0000012 0,0 -2.2,7.1500011 L2.2000004,7.1500011 A1.3000002,1.3000002 90.0000008 0,0 3.5000005,5.850001z" transform="matrix(1,0,0,-1,3.8000006,7.4500011)" fill="rgb(255,255,255)" stroke="rgb(0,0,0)" stroke-width="0.0010cm" stroke-linecap="round" stroke-linejoin="round" /></svg>