<?xml version="1.0" encoding="utf-8"?>
<!-- Generator: Fusion 360, Shaper Origin Export Add-In, Version 1.7.0  -->
<svg xmlns="http://www.w3.org/2000/svg" xmlns:xlink="http://www.w3.org/1999/xlink" xmlns:shaper="http://www.shapertools.com/namespaces/shaper" shaper:fusionaddin="version:1.7.0" width="7.0000011cm" height="7.0000011cm" version="1.1" x="0cm" y="0cm" viewBox="0 0 7.0000011 7.0000011" enable-background="new 0 0 7.0000011 7.0000011" xml:space="preserve"><path d="M-6.5250011,2.2 L-6.5250011,-2.2000004 A1.3000002,1.3000002 179.9999988 0,1 -5.225001,-3.5000006 L-0.8250005,-3.5000006 A1.3000002,1.3000002 269.9999832 0,1 0.475,-2.2000004 L0.475,2.2 A1.3000002,1.3000002 0 0,1 -0.8250005,3.5000006 L-5.225001,3.5000006 A1.3000002,1.3000002 89.9999992 0,1 -6.5250011,2.2z" transform="matrix(1,0,0,-1,6.5250011,3.5000006)" fill="rgb(0,0,0)" stroke-linecap="round" stroke-linejoin="round" /><path d="M-5.225001,-2.5500006 A0.3500002,0.3500002 270.0000008 0,0 -5.5750011,-2.2000004 L-5.5750011,2.2000003 A0.3500002,0.3500002 180.0000168 0,0 -5.225001,2.5500006 L-0.8250003,2.5500006 A0.3500002,0.3500002 90.0000168 0,0 -0.475,2.2000004 L-0.475,-2.2000004 A0.3500002,0.3500002 0.0000009 0,0 -0.8250005,-2.5500006 L-5.225001,-2.5500006z" transform="matrix(1,0,0,-1,6.5250011,3.5000006)" fill="rgb(255,255,255)" stroke="rgb(0,0,0)" stroke-width="0.0010cm" stroke-linecap="round" stroke-linejoin="round" /></svg>