<?xml version="1.0" standalone="no"?>
 <!DOCTYPE svg PUBLIC "-//W3C//DTD SVG 1.1//EN" 
 "http://www.w3.org/Graphics/SVG/1.1/DTD/svg11.dtd"> 
<svg
  xmlns:svg="http://www.w3.org/2000/svg"
  xmlns="http://www.w3.org/2000/svg"
  xmlns:xlink="http://www.w3.org/1999/xlink"
  version="1.1"
  width="70.0786mm" height="70.0786mm" viewBox="0.0000 0.0000 70.0786 70.0786">
<title>SVG Image created as Light_PCB-Edge_Cuts.svg date 2023/10/15 16:57:46 </title>
  <desc>Image generated by PCBNEW </desc>
<g style="fill:#000000; fill-opacity:1.0000;stroke:#000000; stroke-opacity:1.0000;
stroke-linecap:round; stroke-linejoin:round;"
 transform="translate(0 0) scale(1 1)">
</g>
<g style="fill:#000000; fill-opacity:0.0; 
stroke:#000000; stroke-width:0.0000; stroke-opacity:1; 
stroke-linecap:round; stroke-linejoin:round;">
</g>
<g style="fill:#000000; fill-opacity:0.0; 
stroke:#000000; stroke-width:0.1000; stroke-opacity:1; 
stroke-linecap:round; stroke-linejoin:round;">
<path d="M70.0500 13.0500
L70.0500 57.0500
" />
<circle cx="54.8000" cy="54.3500" r="1.7000" /> 
<circle cx="15.3000" cy="54.3500" r="1.7000" /> 
<path d="M0.0500 57.0500 A13.0000 13.0000 0.0 0 0 13.0500 70.0500" />
<circle cx="54.8000" cy="22.4500" r="1.7000" /> 
<path style="fill:#000000; fill-opacity:0.0; 
stroke:#000000; stroke-width:0.1000; stroke-opacity:1; 
stroke-linecap:round; stroke-linejoin:round;fill:none"
d="M 58.0500,24.0500
62.0500,24.0500
62.0500,52.0500
58.0500,52.0500
Z" /> 
<path d="M57.0500 70.0500 A13.0000 13.0000 0.0 0 0 70.0500 57.0500" />
<path d="M13.0500 0.0500
L57.0500 0.0500
" />
<path d="M0.0500 57.0500
L0.0500 13.0500
" />
<circle cx="15.3000" cy="22.4500" r="1.7000" /> 
<path d="M13.0500 0.0500 A13.0000 13.0000 0.0 0 0 0.0500 13.0500" />
<path d="M57.0500 70.0500
L13.0500 70.0500
" />
<path d="M70.0500 13.0500 A13.0000 13.0000 0.0 0 0 57.0500 0.0500" />
<g >
</g>
<g >
</g>
<g >
</g>
<g >
</g>
<g >
</g>
<g >
</g>
<g >
</g>
<g >
</g>
<g >
</g>
<g >
</g>
<g >
</g>
<g >
</g>
<g >
</g>
<g >
</g>
<g >
</g>
<g >
</g>
<g >
</g>
<g >
</g>
<g >
</g>
<g >
</g>
<g >
</g>
<g >
</g>
</g> 
</svg>
