<?xml version="1.0" standalone="no"?>
 <!DOCTYPE svg PUBLIC "-//W3C//DTD SVG 1.1//EN" 
 "http://www.w3.org/Graphics/SVG/1.1/DTD/svg11.dtd"> 
<svg
  xmlns:svg="http://www.w3.org/2000/svg"
  xmlns="http://www.w3.org/2000/svg"
  xmlns:xlink="http://www.w3.org/1999/xlink"
  version="1.1"
  width="70.0786mm" height="70.0786mm" viewBox="0.0000 0.0000 70.0786 70.0786">
<title>SVG Image created as Light_PCB-F_Silkscreen.svg date 2023/10/15 16:57:46 </title>
  <desc>Image generated by PCBNEW </desc>
<g style="fill:#000000; fill-opacity:1.0000;stroke:#000000; stroke-opacity:1.0000;
stroke-linecap:round; stroke-linejoin:round;"
 transform="translate(0 0) scale(1 1)">
</g>
<g style="fill:#000000; fill-opacity:0.0; 
stroke:#000000; stroke-width:0.0000; stroke-opacity:1; 
stroke-linecap:round; stroke-linejoin:round;">
</g>
<g style="fill:#000000; fill-opacity:0.0; 
stroke:#000000; stroke-width:0.1500; stroke-opacity:1; 
stroke-linecap:round; stroke-linejoin:round;">
<path d="M51.9500 35.0500
L51.9500 19.9000
" />
<path d="M51.9500 50.2000
L51.9500 35.0500
" />
<path d="M18.1500 50.2000
L51.9500 50.2000
" />
<path d="M51.9500 19.9000
L57.4500 19.9000
" />
<path d="M57.4500 19.9000
L57.4500 56.9000
" />
<path d="M18.1500 19.9000
L18.1500 50.2000
" />
<path d="M51.9500 19.9000
L18.1500 19.9000
" />
<path d="M18.1500 19.9000
L12.6500 19.9000
" />
<path d="M12.6500 56.9000
L57.4500 56.9000
" />
<path d="M12.6500 19.9000
L12.6500 56.9000
" />
<g transform="rotate(-90.000000 50.8500 65.0500)">
<text x="50.8500" y="65.5500"
textLength="2.2024" font-size="1.3333" lengthAdjust="spacingAndGlyphs"
text-anchor="middle" opacity="0">D9</text>
</g>
<g class="stroked-text"><desc>D9</desc>
<path d="M51.3048 65.7881
L50.3048 65.7881
" />
<path d="M50.3048 65.7881
L50.3048 65.5500
" />
<path d="M50.3048 65.5500
L50.3524 65.4071
" />
<path d="M50.3524 65.4071
L50.4477 65.3119
" />
<path d="M50.4477 65.3119
L50.5429 65.2643
" />
<path d="M50.5429 65.2643
L50.7334 65.2167
" />
<path d="M50.7334 65.2167
L50.8762 65.2167
" />
<path d="M50.8762 65.2167
L51.0667 65.2643
" />
<path d="M51.0667 65.2643
L51.1620 65.3119
" />
<path d="M51.1620 65.3119
L51.2572 65.4071
" />
<path d="M51.2572 65.4071
L51.3048 65.5500
" />
<path d="M51.3048 65.5500
L51.3048 65.7881
" />
<path d="M51.3048 64.7405
L51.3048 64.5500
" />
<path d="M51.3048 64.5500
L51.2572 64.4548
" />
<path d="M51.2572 64.4548
L51.2096 64.4071
" />
<path d="M51.2096 64.4071
L51.0667 64.3119
" />
<path d="M51.0667 64.3119
L50.8762 64.2643
" />
<path d="M50.8762 64.2643
L50.4953 64.2643
" />
<path d="M50.4953 64.2643
L50.4001 64.3119
" />
<path d="M50.4001 64.3119
L50.3524 64.3595
" />
<path d="M50.3524 64.3595
L50.3048 64.4548
" />
<path d="M50.3048 64.4548
L50.3048 64.6452
" />
<path d="M50.3048 64.6452
L50.3524 64.7405
" />
<path d="M50.3524 64.7405
L50.4001 64.7881
" />
<path d="M50.4001 64.7881
L50.4953 64.8357
" />
<path d="M50.4953 64.8357
L50.7334 64.8357
" />
<path d="M50.7334 64.8357
L50.8286 64.7881
" />
<path d="M50.8286 64.7881
L50.8762 64.7405
" />
<path d="M50.8762 64.7405
L50.9239 64.6452
" />
<path d="M50.9239 64.6452
L50.9239 64.4548
" />
<path d="M50.9239 64.4548
L50.8762 64.3595
" />
<path d="M50.8762 64.3595
L50.8286 64.3119
" />
<path d="M50.8286 64.3119
L50.7334 64.2643
" />
</g><text x="65.0500" y="48.0500"
textLength="2.2024" font-size="1.3333" lengthAdjust="spacingAndGlyphs"
text-anchor="middle" opacity="0">D7</text>
<g class="stroked-text"><desc>D7</desc>
<path d="M64.3119 48.0048
L64.3119 47.0048
" />
<path d="M64.3119 47.0048
L64.5500 47.0048
" />
<path d="M64.5500 47.0048
L64.6929 47.0524
" />
<path d="M64.6929 47.0524
L64.7881 47.1477
" />
<path d="M64.7881 47.1477
L64.8357 47.2429
" />
<path d="M64.8357 47.2429
L64.8833 47.4334
" />
<path d="M64.8833 47.4334
L64.8833 47.5762
" />
<path d="M64.8833 47.5762
L64.8357 47.7667
" />
<path d="M64.8357 47.7667
L64.7881 47.8620
" />
<path d="M64.7881 47.8620
L64.6929 47.9572
" />
<path d="M64.6929 47.9572
L64.5500 48.0048
" />
<path d="M64.5500 48.0048
L64.3119 48.0048
" />
<path d="M65.2167 47.0048
L65.8833 47.0048
" />
<path d="M65.8833 47.0048
L65.4548 48.0048
" />
</g><text x="5.0500" y="37.2000"
textLength="3.1548" font-size="1.3333" lengthAdjust="spacingAndGlyphs"
text-anchor="middle" opacity="0">D14</text>
<g class="stroked-text"><desc>D14</desc>
<path d="M3.8357 37.1548
L3.8357 36.1548
" />
<path d="M3.8357 36.1548
L4.0738 36.1548
" />
<path d="M4.0738 36.1548
L4.2167 36.2024
" />
<path d="M4.2167 36.2024
L4.3119 36.2977
" />
<path d="M4.3119 36.2977
L4.3595 36.3929
" />
<path d="M4.3595 36.3929
L4.4071 36.5834
" />
<path d="M4.4071 36.5834
L4.4071 36.7262
" />
<path d="M4.4071 36.7262
L4.3595 36.9167
" />
<path d="M4.3595 36.9167
L4.3119 37.0120
" />
<path d="M4.3119 37.0120
L4.2167 37.1072
" />
<path d="M4.2167 37.1072
L4.0738 37.1548
" />
<path d="M4.0738 37.1548
L3.8357 37.1548
" />
<path d="M5.3595 37.1548
L4.7881 37.1548
" />
<path d="M5.0738 37.1548
L5.0738 36.1548
" />
<path d="M5.0738 36.1548
L4.9786 36.2977
" />
<path d="M4.9786 36.2977
L4.8833 36.3929
" />
<path d="M4.8833 36.3929
L4.7881 36.4405
" />
<path d="M6.2167 36.4882
L6.2167 37.1548
" />
<path d="M5.9786 36.1072
L5.7405 36.8215
" />
<path d="M5.7405 36.8215
L6.3595 36.8215
" />
</g><g transform="rotate(-45.000000 61.5401 6.2264)">
<text x="61.5401" y="6.7264"
textLength="2.2024" font-size="1.3333" lengthAdjust="spacingAndGlyphs"
text-anchor="middle" opacity="0">D4</text>
</g>
<g class="stroked-text"><desc>D4</desc>
<path d="M61.3398 7.0699
L60.6327 6.3628
" />
<path d="M60.6327 6.3628
L60.8011 6.1945
" />
<path d="M60.8011 6.1945
L60.9358 6.1271
" />
<path d="M60.9358 6.1271
L61.0704 6.1271
" />
<path d="M61.0704 6.1271
L61.1715 6.1608
" />
<path d="M61.1715 6.1608
L61.3398 6.2618
" />
<path d="M61.3398 6.2618
L61.4408 6.3628
" />
<path d="M61.4408 6.3628
L61.5419 6.5312
" />
<path d="M61.5419 6.5312
L61.5755 6.6322
" />
<path d="M61.5755 6.6322
L61.5755 6.7669
" />
<path d="M61.5755 6.7669
L61.5082 6.9016
" />
<path d="M61.5082 6.9016
L61.3398 7.0699
" />
<path d="M61.8786 5.5884
L62.3500 6.0598
" />
<path d="M61.4408 5.4874
L61.7776 6.1608
" />
<path d="M61.7776 6.1608
L62.2153 5.7231
" />
</g><text x="65.0500" y="19.7500"
textLength="2.2024" font-size="1.3333" lengthAdjust="spacingAndGlyphs"
text-anchor="middle" opacity="0">D5</text>
<g class="stroked-text"><desc>D5</desc>
<path d="M64.3119 19.7048
L64.3119 18.7048
" />
<path d="M64.3119 18.7048
L64.5500 18.7048
" />
<path d="M64.5500 18.7048
L64.6929 18.7524
" />
<path d="M64.6929 18.7524
L64.7881 18.8477
" />
<path d="M64.7881 18.8477
L64.8357 18.9429
" />
<path d="M64.8357 18.9429
L64.8833 19.1334
" />
<path d="M64.8833 19.1334
L64.8833 19.2762
" />
<path d="M64.8833 19.2762
L64.8357 19.4667
" />
<path d="M64.8357 19.4667
L64.7881 19.5620
" />
<path d="M64.7881 19.5620
L64.6929 19.6572
" />
<path d="M64.6929 19.6572
L64.5500 19.7048
" />
<path d="M64.5500 19.7048
L64.3119 19.7048
" />
<path d="M65.7881 18.7048
L65.3119 18.7048
" />
<path d="M65.3119 18.7048
L65.2643 19.1810
" />
<path d="M65.2643 19.1810
L65.3119 19.1334
" />
<path d="M65.3119 19.1334
L65.4071 19.0858
" />
<path d="M65.4071 19.0858
L65.6452 19.0858
" />
<path d="M65.6452 19.0858
L65.7405 19.1334
" />
<path d="M65.7405 19.1334
L65.7881 19.1810
" />
<path d="M65.7881 19.1810
L65.8357 19.2762
" />
<path d="M65.8357 19.2762
L65.8357 19.5143
" />
<path d="M65.8357 19.5143
L65.7881 19.6096
" />
<path d="M65.7881 19.6096
L65.7405 19.6572
" />
<path d="M65.7405 19.6572
L65.6452 19.7048
" />
<path d="M65.6452 19.7048
L65.4071 19.7048
" />
<path d="M65.4071 19.7048
L65.3119 19.6572
" />
<path d="M65.3119 19.6572
L65.2643 19.6096
" />
</g><g transform="rotate(-45.000000 8.5599 63.8736)">
<text x="8.5599" y="64.3736"
textLength="3.1548" font-size="1.3333" lengthAdjust="spacingAndGlyphs"
text-anchor="middle" opacity="0">D12</text>
</g>
<g class="stroked-text"><desc>D12</desc>
<path d="M8.0228 65.0538
L7.3157 64.3467
" />
<path d="M7.3157 64.3467
L7.4841 64.1783
" />
<path d="M7.4841 64.1783
L7.6188 64.1110
" />
<path d="M7.6188 64.1110
L7.7535 64.1110
" />
<path d="M7.7535 64.1110
L7.8545 64.1447
" />
<path d="M7.8545 64.1447
L8.0228 64.2457
" />
<path d="M8.0228 64.2457
L8.1239 64.3467
" />
<path d="M8.1239 64.3467
L8.2249 64.5151
" />
<path d="M8.2249 64.5151
L8.2585 64.6161
" />
<path d="M8.2585 64.6161
L8.2585 64.7508
" />
<path d="M8.2585 64.7508
L8.1912 64.8855
" />
<path d="M8.1912 64.8855
L8.0228 65.0538
" />
<path d="M9.1003 63.9763
L8.6963 64.3804
" />
<path d="M8.8983 64.1783
L8.1912 63.4712
" />
<path d="M8.1912 63.4712
L8.2249 63.6396
" />
<path d="M8.2249 63.6396
L8.2249 63.7743
" />
<path d="M8.2249 63.7743
L8.1912 63.8753
" />
<path d="M8.7300 63.0672
L8.7300 62.9998
" />
<path d="M8.7300 62.9998
L8.7636 62.8988
" />
<path d="M8.7636 62.8988
L8.9320 62.7305
" />
<path d="M8.9320 62.7305
L9.0330 62.6968
" />
<path d="M9.0330 62.6968
L9.1003 62.6968
" />
<path d="M9.1003 62.6968
L9.2014 62.7305
" />
<path d="M9.2014 62.7305
L9.2687 62.7978
" />
<path d="M9.2687 62.7978
L9.3360 62.9325
" />
<path d="M9.3360 62.9325
L9.3360 63.7406
" />
<path d="M9.3360 63.7406
L9.7738 63.3029
" />
</g><g transform="rotate(-90.000000 37.0500 8.0500)">
<text x="37.0500" y="8.5500"
textLength="2.2024" font-size="1.3333" lengthAdjust="spacingAndGlyphs"
text-anchor="middle" opacity="0">R1</text>
</g>
<g class="stroked-text"><desc>R1</desc>
<path d="M37.5048 8.2167
L37.0286 8.5500
" />
<path d="M37.5048 8.7881
L36.5048 8.7881
" />
<path d="M36.5048 8.7881
L36.5048 8.4071
" />
<path d="M36.5048 8.4071
L36.5524 8.3119
" />
<path d="M36.5524 8.3119
L36.6001 8.2643
" />
<path d="M36.6001 8.2643
L36.6953 8.2167
" />
<path d="M36.6953 8.2167
L36.8382 8.2167
" />
<path d="M36.8382 8.2167
L36.9334 8.2643
" />
<path d="M36.9334 8.2643
L36.9810 8.3119
" />
<path d="M36.9810 8.3119
L37.0286 8.4071
" />
<path d="M37.0286 8.4071
L37.0286 8.7881
" />
<path d="M37.5048 7.2643
L37.5048 7.8357
" />
<path d="M37.5048 7.5500
L36.5048 7.5500
" />
<path d="M36.5048 7.5500
L36.6477 7.6452
" />
<path d="M36.6477 7.6452
L36.7429 7.7405
" />
<path d="M36.7429 7.7405
L36.7905 7.8357
" />
</g><text x="5.0500" y="23.0500"
textLength="3.1548" font-size="1.3333" lengthAdjust="spacingAndGlyphs"
text-anchor="middle" opacity="0">D15</text>
<g class="stroked-text"><desc>D15</desc>
<path d="M3.8357 23.0048
L3.8357 22.0048
" />
<path d="M3.8357 22.0048
L4.0738 22.0048
" />
<path d="M4.0738 22.0048
L4.2167 22.0524
" />
<path d="M4.2167 22.0524
L4.3119 22.1477
" />
<path d="M4.3119 22.1477
L4.3595 22.2429
" />
<path d="M4.3595 22.2429
L4.4071 22.4334
" />
<path d="M4.4071 22.4334
L4.4071 22.5762
" />
<path d="M4.4071 22.5762
L4.3595 22.7667
" />
<path d="M4.3595 22.7667
L4.3119 22.8620
" />
<path d="M4.3119 22.8620
L4.2167 22.9572
" />
<path d="M4.2167 22.9572
L4.0738 23.0048
" />
<path d="M4.0738 23.0048
L3.8357 23.0048
" />
<path d="M5.3595 23.0048
L4.7881 23.0048
" />
<path d="M5.0738 23.0048
L5.0738 22.0048
" />
<path d="M5.0738 22.0048
L4.9786 22.1477
" />
<path d="M4.9786 22.1477
L4.8833 22.2429
" />
<path d="M4.8833 22.2429
L4.7881 22.2905
" />
<path d="M6.2643 22.0048
L5.7881 22.0048
" />
<path d="M5.7881 22.0048
L5.7405 22.4810
" />
<path d="M5.7405 22.4810
L5.7881 22.4334
" />
<path d="M5.7881 22.4334
L5.8833 22.3858
" />
<path d="M5.8833 22.3858
L6.1214 22.3858
" />
<path d="M6.1214 22.3858
L6.2167 22.4334
" />
<path d="M6.2167 22.4334
L6.2643 22.4810
" />
<path d="M6.2643 22.4810
L6.3119 22.5762
" />
<path d="M6.3119 22.5762
L6.3119 22.8143
" />
<path d="M6.3119 22.8143
L6.2643 22.9096
" />
<path d="M6.2643 22.9096
L6.2167 22.9572
" />
<path d="M6.2167 22.9572
L6.1214 23.0048
" />
<path d="M6.1214 23.0048
L5.8833 23.0048
" />
<path d="M5.8833 23.0048
L5.7881 22.9572
" />
<path d="M5.7881 22.9572
L5.7405 22.9096
" />
</g><g transform="rotate(-90.000000 22.5500 65.0500)">
<text x="22.5500" y="65.5500"
textLength="3.1548" font-size="1.3333" lengthAdjust="spacingAndGlyphs"
text-anchor="middle" opacity="0">D11</text>
</g>
<g class="stroked-text"><desc>D11</desc>
<path d="M23.0048 66.2643
L22.0048 66.2643
" />
<path d="M22.0048 66.2643
L22.0048 66.0262
" />
<path d="M22.0048 66.0262
L22.0524 65.8833
" />
<path d="M22.0524 65.8833
L22.1477 65.7881
" />
<path d="M22.1477 65.7881
L22.2429 65.7405
" />
<path d="M22.2429 65.7405
L22.4334 65.6929
" />
<path d="M22.4334 65.6929
L22.5762 65.6929
" />
<path d="M22.5762 65.6929
L22.7667 65.7405
" />
<path d="M22.7667 65.7405
L22.8620 65.7881
" />
<path d="M22.8620 65.7881
L22.9572 65.8833
" />
<path d="M22.9572 65.8833
L23.0048 66.0262
" />
<path d="M23.0048 66.0262
L23.0048 66.2643
" />
<path d="M23.0048 64.7405
L23.0048 65.3119
" />
<path d="M23.0048 65.0262
L22.0048 65.0262
" />
<path d="M22.0048 65.0262
L22.1477 65.1214
" />
<path d="M22.1477 65.1214
L22.2429 65.2167
" />
<path d="M22.2429 65.2167
L22.2905 65.3119
" />
<path d="M23.0048 63.7881
L23.0048 64.3595
" />
<path d="M23.0048 64.0738
L22.0048 64.0738
" />
<path d="M22.0048 64.0738
L22.1477 64.1690
" />
<path d="M22.1477 64.1690
L22.2429 64.2643
" />
<path d="M22.2429 64.2643
L22.2905 64.3595
" />
</g><g transform="rotate(-90.000000 47.5500 5.0500)">
<text x="47.5500" y="5.5500"
textLength="2.2024" font-size="1.3333" lengthAdjust="spacingAndGlyphs"
text-anchor="middle" opacity="0">D3</text>
</g>
<g class="stroked-text"><desc>D3</desc>
<path d="M48.0048 5.7881
L47.0048 5.7881
" />
<path d="M47.0048 5.7881
L47.0048 5.5500
" />
<path d="M47.0048 5.5500
L47.0524 5.4071
" />
<path d="M47.0524 5.4071
L47.1477 5.3119
" />
<path d="M47.1477 5.3119
L47.2429 5.2643
" />
<path d="M47.2429 5.2643
L47.4334 5.2167
" />
<path d="M47.4334 5.2167
L47.5762 5.2167
" />
<path d="M47.5762 5.2167
L47.7667 5.2643
" />
<path d="M47.7667 5.2643
L47.8620 5.3119
" />
<path d="M47.8620 5.3119
L47.9572 5.4071
" />
<path d="M47.9572 5.4071
L48.0048 5.5500
" />
<path d="M48.0048 5.5500
L48.0048 5.7881
" />
<path d="M47.0048 4.8833
L47.0048 4.2643
" />
<path d="M47.0048 4.2643
L47.3858 4.5976
" />
<path d="M47.3858 4.5976
L47.3858 4.4548
" />
<path d="M47.3858 4.4548
L47.4334 4.3595
" />
<path d="M47.4334 4.3595
L47.4810 4.3119
" />
<path d="M47.4810 4.3119
L47.5762 4.2643
" />
<path d="M47.5762 4.2643
L47.8143 4.2643
" />
<path d="M47.8143 4.2643
L47.9096 4.3119
" />
<path d="M47.9096 4.3119
L47.9572 4.3595
" />
<path d="M47.9572 4.3595
L48.0048 4.4548
" />
<path d="M48.0048 4.4548
L48.0048 4.7405
" />
<path d="M48.0048 4.7405
L47.9572 4.8357
" />
<path d="M47.9572 4.8357
L47.9096 4.8833
" />
</g><g transform="rotate(-90.000000 33.4000 5.0500)">
<text x="33.4000" y="5.5500"
textLength="2.2024" font-size="1.3333" lengthAdjust="spacingAndGlyphs"
text-anchor="middle" opacity="0">D2</text>
</g>
<g class="stroked-text"><desc>D2</desc>
<path d="M33.8548 5.7881
L32.8548 5.7881
" />
<path d="M32.8548 5.7881
L32.8548 5.5500
" />
<path d="M32.8548 5.5500
L32.9024 5.4071
" />
<path d="M32.9024 5.4071
L32.9977 5.3119
" />
<path d="M32.9977 5.3119
L33.0929 5.2643
" />
<path d="M33.0929 5.2643
L33.2834 5.2167
" />
<path d="M33.2834 5.2167
L33.4262 5.2167
" />
<path d="M33.4262 5.2167
L33.6167 5.2643
" />
<path d="M33.6167 5.2643
L33.7120 5.3119
" />
<path d="M33.7120 5.3119
L33.8072 5.4071
" />
<path d="M33.8072 5.4071
L33.8548 5.5500
" />
<path d="M33.8548 5.5500
L33.8548 5.7881
" />
<path d="M32.9501 4.8357
L32.9024 4.7881
" />
<path d="M32.9024 4.7881
L32.8548 4.6929
" />
<path d="M32.8548 4.6929
L32.8548 4.4548
" />
<path d="M32.8548 4.4548
L32.9024 4.3595
" />
<path d="M32.9024 4.3595
L32.9501 4.3119
" />
<path d="M32.9501 4.3119
L33.0453 4.2643
" />
<path d="M33.0453 4.2643
L33.1405 4.2643
" />
<path d="M33.1405 4.2643
L33.2834 4.3119
" />
<path d="M33.2834 4.3119
L33.8548 4.8833
" />
<path d="M33.8548 4.8833
L33.8548 4.2643
" />
</g><g transform="rotate(45.000000 6.2264 8.5599)">
<text x="6.2264" y="9.0599"
textLength="3.1548" font-size="1.3333" lengthAdjust="spacingAndGlyphs"
text-anchor="middle" opacity="0">D16</text>
</g>
<g class="stroked-text"><desc>D16</desc>
<path d="M5.0462 8.0228
L5.7533 7.3157
" />
<path d="M5.7533 7.3157
L5.9216 7.4841
" />
<path d="M5.9216 7.4841
L5.9890 7.6188
" />
<path d="M5.9890 7.6188
L5.9890 7.7535
" />
<path d="M5.9890 7.7535
L5.9553 7.8545
" />
<path d="M5.9553 7.8545
L5.8543 8.0228
" />
<path d="M5.8543 8.0228
L5.7533 8.1239
" />
<path d="M5.7533 8.1239
L5.5849 8.2249
" />
<path d="M5.5849 8.2249
L5.4839 8.2585
" />
<path d="M5.4839 8.2585
L5.3492 8.2585
" />
<path d="M5.3492 8.2585
L5.2145 8.1912
" />
<path d="M5.2145 8.1912
L5.0462 8.0228
" />
<path d="M6.1237 9.1003
L5.7196 8.6963
" />
<path d="M5.9216 8.8983
L6.6288 8.1912
" />
<path d="M6.6288 8.1912
L6.4604 8.2249
" />
<path d="M6.4604 8.2249
L6.3257 8.2249
" />
<path d="M6.3257 8.2249
L6.2247 8.1912
" />
<path d="M7.4369 8.9993
L7.3022 8.8646
" />
<path d="M7.3022 8.8646
L7.2012 8.8310
" />
<path d="M7.2012 8.8310
L7.1338 8.8310
" />
<path d="M7.1338 8.8310
L6.9655 8.8646
" />
<path d="M6.9655 8.8646
L6.7971 8.9657
" />
<path d="M6.7971 8.9657
L6.5277 9.2350
" />
<path d="M6.5277 9.2350
L6.4941 9.3360
" />
<path d="M6.4941 9.3360
L6.4941 9.4034
" />
<path d="M6.4941 9.4034
L6.5277 9.5044
" />
<path d="M6.5277 9.5044
L6.6624 9.6391
" />
<path d="M6.6624 9.6391
L6.7634 9.6728
" />
<path d="M6.7634 9.6728
L6.8308 9.6728
" />
<path d="M6.8308 9.6728
L6.9318 9.6391
" />
<path d="M6.9318 9.6391
L7.1002 9.4707
" />
<path d="M7.1002 9.4707
L7.1338 9.3697
" />
<path d="M7.1338 9.3697
L7.1338 9.3024
" />
<path d="M7.1338 9.3024
L7.1002 9.2014
" />
<path d="M7.1002 9.2014
L6.9655 9.0667
" />
<path d="M6.9655 9.0667
L6.8645 9.0330
" />
<path d="M6.8645 9.0330
L6.7971 9.0330
" />
<path d="M6.7971 9.0330
L6.6961 9.0667
" />
</g><g transform="rotate(45.000000 63.8736 61.5401)">
<text x="63.8736" y="62.0401"
textLength="2.2024" font-size="1.3333" lengthAdjust="spacingAndGlyphs"
text-anchor="middle" opacity="0">D8</text>
</g>
<g class="stroked-text"><desc>D8</desc>
<path d="M63.0301 61.3398
L63.7372 60.6327
" />
<path d="M63.7372 60.6327
L63.9055 60.8011
" />
<path d="M63.9055 60.8011
L63.9729 60.9358
" />
<path d="M63.9729 60.9358
L63.9729 61.0704
" />
<path d="M63.9729 61.0704
L63.9392 61.1715
" />
<path d="M63.9392 61.1715
L63.8382 61.3398
" />
<path d="M63.8382 61.3398
L63.7372 61.4408
" />
<path d="M63.7372 61.4408
L63.5688 61.5419
" />
<path d="M63.5688 61.5419
L63.4678 61.5755
" />
<path d="M63.4678 61.5755
L63.3331 61.5755
" />
<path d="M63.3331 61.5755
L63.1984 61.5082
" />
<path d="M63.1984 61.5082
L63.0301 61.3398
" />
<path d="M64.2422 61.7439
L64.2086 61.6429
" />
<path d="M64.2086 61.6429
L64.2086 61.5755
" />
<path d="M64.2086 61.5755
L64.2422 61.4745
" />
<path d="M64.2422 61.4745
L64.2759 61.4408
" />
<path d="M64.2759 61.4408
L64.3769 61.4072
" />
<path d="M64.3769 61.4072
L64.4443 61.4072
" />
<path d="M64.4443 61.4072
L64.5453 61.4408
" />
<path d="M64.5453 61.4408
L64.6800 61.5755
" />
<path d="M64.6800 61.5755
L64.7137 61.6765
" />
<path d="M64.7137 61.6765
L64.7137 61.7439
" />
<path d="M64.7137 61.7439
L64.6800 61.8449
" />
<path d="M64.6800 61.8449
L64.6463 61.8786
" />
<path d="M64.6463 61.8786
L64.5453 61.9122
" />
<path d="M64.5453 61.9122
L64.4779 61.9122
" />
<path d="M64.4779 61.9122
L64.3769 61.8786
" />
<path d="M64.3769 61.8786
L64.2422 61.7439
" />
<path d="M64.2422 61.7439
L64.1412 61.7102
" />
<path d="M64.1412 61.7102
L64.0739 61.7102
" />
<path d="M64.0739 61.7102
L63.9729 61.7439
" />
<path d="M63.9729 61.7439
L63.8382 61.8786
" />
<path d="M63.8382 61.8786
L63.8045 61.9796
" />
<path d="M63.8045 61.9796
L63.8045 62.0469
" />
<path d="M63.8045 62.0469
L63.8382 62.1479
" />
<path d="M63.8382 62.1479
L63.9729 62.2826
" />
<path d="M63.9729 62.2826
L64.0739 62.3163
" />
<path d="M64.0739 62.3163
L64.1412 62.3163
" />
<path d="M64.1412 62.3163
L64.2422 62.2826
" />
<path d="M64.2422 62.2826
L64.3769 62.1479
" />
<path d="M64.3769 62.1479
L64.4106 62.0469
" />
<path d="M64.4106 62.0469
L64.4106 61.9796
" />
<path d="M64.4106 61.9796
L64.3769 61.8786
" />
</g><g transform="rotate(-90.000000 19.2500 5.0500)">
<text x="19.2500" y="5.5500"
textLength="2.2024" font-size="1.3333" lengthAdjust="spacingAndGlyphs"
text-anchor="middle" opacity="0">D1</text>
</g>
<g class="stroked-text"><desc>D1</desc>
<path d="M19.7048 5.7881
L18.7048 5.7881
" />
<path d="M18.7048 5.7881
L18.7048 5.5500
" />
<path d="M18.7048 5.5500
L18.7524 5.4071
" />
<path d="M18.7524 5.4071
L18.8477 5.3119
" />
<path d="M18.8477 5.3119
L18.9429 5.2643
" />
<path d="M18.9429 5.2643
L19.1334 5.2167
" />
<path d="M19.1334 5.2167
L19.2762 5.2167
" />
<path d="M19.2762 5.2167
L19.4667 5.2643
" />
<path d="M19.4667 5.2643
L19.5620 5.3119
" />
<path d="M19.5620 5.3119
L19.6572 5.4071
" />
<path d="M19.6572 5.4071
L19.7048 5.5500
" />
<path d="M19.7048 5.5500
L19.7048 5.7881
" />
<path d="M19.7048 4.2643
L19.7048 4.8357
" />
<path d="M19.7048 4.5500
L18.7048 4.5500
" />
<path d="M18.7048 4.5500
L18.8477 4.6452
" />
<path d="M18.8477 4.6452
L18.9429 4.7405
" />
<path d="M18.9429 4.7405
L18.9905 4.8357
" />
</g><text x="65.0500" y="33.9000"
textLength="2.2024" font-size="1.3333" lengthAdjust="spacingAndGlyphs"
text-anchor="middle" opacity="0">D6</text>
<g class="stroked-text"><desc>D6</desc>
<path d="M64.3119 33.8548
L64.3119 32.8548
" />
<path d="M64.3119 32.8548
L64.5500 32.8548
" />
<path d="M64.5500 32.8548
L64.6929 32.9024
" />
<path d="M64.6929 32.9024
L64.7881 32.9977
" />
<path d="M64.7881 32.9977
L64.8357 33.0929
" />
<path d="M64.8357 33.0929
L64.8833 33.2834
" />
<path d="M64.8833 33.2834
L64.8833 33.4262
" />
<path d="M64.8833 33.4262
L64.8357 33.6167
" />
<path d="M64.8357 33.6167
L64.7881 33.7120
" />
<path d="M64.7881 33.7120
L64.6929 33.8072
" />
<path d="M64.6929 33.8072
L64.5500 33.8548
" />
<path d="M64.5500 33.8548
L64.3119 33.8548
" />
<path d="M65.7405 32.8548
L65.5500 32.8548
" />
<path d="M65.5500 32.8548
L65.4548 32.9024
" />
<path d="M65.4548 32.9024
L65.4071 32.9501
" />
<path d="M65.4071 32.9501
L65.3119 33.0929
" />
<path d="M65.3119 33.0929
L65.2643 33.2834
" />
<path d="M65.2643 33.2834
L65.2643 33.6643
" />
<path d="M65.2643 33.6643
L65.3119 33.7596
" />
<path d="M65.3119 33.7596
L65.3595 33.8072
" />
<path d="M65.3595 33.8072
L65.4548 33.8548
" />
<path d="M65.4548 33.8548
L65.6452 33.8548
" />
<path d="M65.6452 33.8548
L65.7405 33.8072
" />
<path d="M65.7405 33.8072
L65.7881 33.7596
" />
<path d="M65.7881 33.7596
L65.8357 33.6643
" />
<path d="M65.8357 33.6643
L65.8357 33.4262
" />
<path d="M65.8357 33.4262
L65.7881 33.3310
" />
<path d="M65.7881 33.3310
L65.7405 33.2834
" />
<path d="M65.7405 33.2834
L65.6452 33.2358
" />
<path d="M65.6452 33.2358
L65.4548 33.2358
" />
<path d="M65.4548 33.2358
L65.3595 33.2834
" />
<path d="M65.3595 33.2834
L65.3119 33.3310
" />
<path d="M65.3119 33.3310
L65.2643 33.4262
" />
</g><g transform="rotate(-90.000000 36.7000 65.0500)">
<text x="36.7000" y="65.5500"
textLength="3.1548" font-size="1.3333" lengthAdjust="spacingAndGlyphs"
text-anchor="middle" opacity="0">D10</text>
</g>
<g class="stroked-text"><desc>D10</desc>
<path d="M37.1548 66.2643
L36.1548 66.2643
" />
<path d="M36.1548 66.2643
L36.1548 66.0262
" />
<path d="M36.1548 66.0262
L36.2024 65.8833
" />
<path d="M36.2024 65.8833
L36.2977 65.7881
" />
<path d="M36.2977 65.7881
L36.3929 65.7405
" />
<path d="M36.3929 65.7405
L36.5834 65.6929
" />
<path d="M36.5834 65.6929
L36.7262 65.6929
" />
<path d="M36.7262 65.6929
L36.9167 65.7405
" />
<path d="M36.9167 65.7405
L37.0120 65.7881
" />
<path d="M37.0120 65.7881
L37.1072 65.8833
" />
<path d="M37.1072 65.8833
L37.1548 66.0262
" />
<path d="M37.1548 66.0262
L37.1548 66.2643
" />
<path d="M37.1548 64.7405
L37.1548 65.3119
" />
<path d="M37.1548 65.0262
L36.1548 65.0262
" />
<path d="M36.1548 65.0262
L36.2977 65.1214
" />
<path d="M36.2977 65.1214
L36.3929 65.2167
" />
<path d="M36.3929 65.2167
L36.4405 65.3119
" />
<path d="M36.1548 64.1214
L36.1548 64.0262
" />
<path d="M36.1548 64.0262
L36.2024 63.9310
" />
<path d="M36.2024 63.9310
L36.2501 63.8833
" />
<path d="M36.2501 63.8833
L36.3453 63.8357
" />
<path d="M36.3453 63.8357
L36.5358 63.7881
" />
<path d="M36.5358 63.7881
L36.7739 63.7881
" />
<path d="M36.7739 63.7881
L36.9643 63.8357
" />
<path d="M36.9643 63.8357
L37.0596 63.8833
" />
<path d="M37.0596 63.8833
L37.1072 63.9310
" />
<path d="M37.1072 63.9310
L37.1548 64.0262
" />
<path d="M37.1548 64.0262
L37.1548 64.1214
" />
<path d="M37.1548 64.1214
L37.1072 64.2167
" />
<path d="M37.1072 64.2167
L37.0596 64.2643
" />
<path d="M37.0596 64.2643
L36.9643 64.3119
" />
<path d="M36.9643 64.3119
L36.7739 64.3595
" />
<path d="M36.7739 64.3595
L36.5358 64.3595
" />
<path d="M36.5358 64.3595
L36.3453 64.3119
" />
<path d="M36.3453 64.3119
L36.2501 64.2643
" />
<path d="M36.2501 64.2643
L36.2024 64.2167
" />
<path d="M36.2024 64.2167
L36.1548 64.1214
" />
</g><text x="5.0500" y="51.3500"
textLength="3.1548" font-size="1.3333" lengthAdjust="spacingAndGlyphs"
text-anchor="middle" opacity="0">D13</text>
<g class="stroked-text"><desc>D13</desc>
<path d="M3.8357 51.3048
L3.8357 50.3048
" />
<path d="M3.8357 50.3048
L4.0738 50.3048
" />
<path d="M4.0738 50.3048
L4.2167 50.3524
" />
<path d="M4.2167 50.3524
L4.3119 50.4477
" />
<path d="M4.3119 50.4477
L4.3595 50.5429
" />
<path d="M4.3595 50.5429
L4.4071 50.7334
" />
<path d="M4.4071 50.7334
L4.4071 50.8762
" />
<path d="M4.4071 50.8762
L4.3595 51.0667
" />
<path d="M4.3595 51.0667
L4.3119 51.1620
" />
<path d="M4.3119 51.1620
L4.2167 51.2572
" />
<path d="M4.2167 51.2572
L4.0738 51.3048
" />
<path d="M4.0738 51.3048
L3.8357 51.3048
" />
<path d="M5.3595 51.3048
L4.7881 51.3048
" />
<path d="M5.0738 51.3048
L5.0738 50.3048
" />
<path d="M5.0738 50.3048
L4.9786 50.4477
" />
<path d="M4.9786 50.4477
L4.8833 50.5429
" />
<path d="M4.8833 50.5429
L4.7881 50.5905
" />
<path d="M5.6929 50.3048
L6.3119 50.3048
" />
<path d="M6.3119 50.3048
L5.9786 50.6858
" />
<path d="M5.9786 50.6858
L6.1214 50.6858
" />
<path d="M6.1214 50.6858
L6.2167 50.7334
" />
<path d="M6.2167 50.7334
L6.2643 50.7810
" />
<path d="M6.2643 50.7810
L6.3119 50.8762
" />
<path d="M6.3119 50.8762
L6.3119 51.1143
" />
<path d="M6.3119 51.1143
L6.2643 51.2096
" />
<path d="M6.2643 51.2096
L6.2167 51.2572
" />
<path d="M6.2167 51.2572
L6.1214 51.3048
" />
<path d="M6.1214 51.3048
L5.8357 51.3048
" />
<path d="M5.8357 51.3048
L5.7405 51.2572
" />
<path d="M5.7405 51.2572
L5.6929 51.2096
" />
</g></g>
<g style="fill:#000000; fill-opacity:0.0; 
stroke:#000000; stroke-width:0.1200; stroke-opacity:1; 
stroke-linecap:round; stroke-linejoin:round;">
<path d="M50.1600 63.1900
L48.2400 63.1900
" />
<path d="M48.2400 63.1900
L48.2400 66.0500
" />
<path d="M50.1600 66.0500
L50.1600 63.1900
" />
<path d="M63.1900 48.2400
L63.1900 50.1600
" />
<path d="M63.1900 50.1600
L66.0500 50.1600
" />
<path d="M66.0500 48.2400
L63.1900 48.2400
" />
<path d="M6.9100 36.0100
L6.9100 34.0900
" />
<path d="M6.9100 34.0900
L4.0500 34.0900
" />
<path d="M4.0500 36.0100
L6.9100 36.0100
" />
<path d="M60.7128 8.0295
L62.0705 9.3872
" />
<path d="M62.0705 9.3872
L64.0928 7.3649
" />
<path d="M62.7351 6.0072
L60.7128 8.0295
" />
<path d="M63.1900 19.9400
L63.1900 21.8600
" />
<path d="M63.1900 21.8600
L66.0500 21.8600
" />
<path d="M66.0500 19.9400
L63.1900 19.9400
" />
<path d="M9.3872 62.0705
L8.0295 60.7128
" />
<path d="M8.0295 60.7128
L6.0072 62.7351
" />
<path d="M7.3649 64.0928
L9.3872 62.0705
" />
<path d="M34.2771 8.7850
L33.8229 8.7850
" />
<path d="M34.2771 7.3150
L33.8229 7.3150
" />
<path d="M6.9100 21.8600
L6.9100 19.9400
" />
<path d="M6.9100 19.9400
L4.0500 19.9400
" />
<path d="M4.0500 21.8600
L6.9100 21.8600
" />
<path d="M21.8600 63.1900
L19.9400 63.1900
" />
<path d="M19.9400 63.1900
L19.9400 66.0500
" />
<path d="M21.8600 66.0500
L21.8600 63.1900
" />
<path d="M48.2400 6.9100
L50.1600 6.9100
" />
<path d="M50.1600 6.9100
L50.1600 4.0500
" />
<path d="M48.2400 4.0500
L48.2400 6.9100
" />
<path d="M34.0900 6.9100
L36.0100 6.9100
" />
<path d="M36.0100 6.9100
L36.0100 4.0500
" />
<path d="M34.0900 4.0500
L34.0900 6.9100
" />
<path d="M8.0295 9.3872
L9.3872 8.0295
" />
<path d="M9.3872 8.0295
L7.3649 6.0072
" />
<path d="M6.0072 7.3649
L8.0295 9.3872
" />
<path d="M62.0705 60.7128
L60.7128 62.0705
" />
<path d="M60.7128 62.0705
L62.7351 64.0928
" />
<path d="M64.0928 62.7351
L62.0705 60.7128
" />
<path d="M19.9400 6.9100
L21.8600 6.9100
" />
<path d="M21.8600 6.9100
L21.8600 4.0500
" />
<path d="M19.9400 4.0500
L19.9400 6.9100
" />
<path d="M63.1900 34.0900
L63.1900 36.0100
" />
<path d="M63.1900 36.0100
L66.0500 36.0100
" />
<path d="M66.0500 34.0900
L63.1900 34.0900
" />
<path d="M36.0100 63.1900
L34.0900 63.1900
" />
<path d="M34.0900 63.1900
L34.0900 66.0500
" />
<path d="M36.0100 66.0500
L36.0100 63.1900
" />
<path d="M6.9100 50.1600
L6.9100 48.2400
" />
<path d="M6.9100 48.2400
L4.0500 48.2400
" />
<path d="M4.0500 50.1600
L6.9100 50.1600
" />
<g >
</g>
<g >
</g>
<g >
</g>
<g >
</g>
<g >
</g>
<g >
</g>
<g >
</g>
<g >
</g>
<g >
</g>
<g >
</g>
<g >
</g>
<g >
</g>
<g >
</g>
<g >
</g>
<g >
</g>
<g >
</g>
<g >
</g>
<g >
</g>
<g >
</g>
<g >
</g>
<g >
</g>
<g >
</g>
</g>
<g style="fill:#000000; fill-opacity:0.0; 
stroke:#000000; stroke-width:0.1200; stroke-opacity:1; 
stroke-linecap:round; stroke-linejoin:round;">
</g>
<g style="fill:#000000; fill-opacity:0.0; 
stroke:#000000; stroke-width:0.1000; stroke-opacity:1; 
stroke-linecap:round; stroke-linejoin:round;">
<path d="M70.0500 13.0500
L70.0500 57.0500
" />
<circle cx="54.8000" cy="54.3500" r="1.7000" /> 
<circle cx="15.3000" cy="54.3500" r="1.7000" /> 
<path d="M0.0500 57.0500 A13.0000 13.0000 0.0 0 0 13.0500 70.0500" />
<circle cx="54.8000" cy="22.4500" r="1.7000" /> 
<path style="fill:#000000; fill-opacity:0.0; 
stroke:#000000; stroke-width:0.1000; stroke-opacity:1; 
stroke-linecap:round; stroke-linejoin:round;fill:none"
d="M 58.0500,24.0500
62.0500,24.0500
62.0500,52.0500
58.0500,52.0500
Z" /> 
<path d="M57.0500 70.0500 A13.0000 13.0000 0.0 0 0 70.0500 57.0500" />
<path d="M13.0500 0.0500
L57.0500 0.0500
" />
<path d="M0.0500 57.0500
L0.0500 13.0500
" />
<circle cx="15.3000" cy="22.4500" r="1.7000" /> 
<path d="M13.0500 0.0500 A13.0000 13.0000 0.0 0 0 0.0500 13.0500" />
<path d="M57.0500 70.0500
L13.0500 70.0500
" />
<path d="M70.0500 13.0500 A13.0000 13.0000 0.0 0 0 57.0500 0.0500" />
<g >
</g>
<g >
</g>
<g >
</g>
<g >
</g>
<g >
</g>
<g >
</g>
<g >
</g>
<g >
</g>
<g >
</g>
<g >
</g>
<g >
</g>
<g >
</g>
<g >
</g>
<g >
</g>
<g >
</g>
<g >
</g>
<g >
</g>
<g >
</g>
<g >
</g>
<g >
</g>
<g >
</g>
<g >
</g>
</g> 
</svg>
