<?xml version="1.0" standalone="no"?>
 <!DOCTYPE svg PUBLIC "-//W3C//DTD SVG 1.1//EN" 
 "http://www.w3.org/Graphics/SVG/1.1/DTD/svg11.dtd"> 
<svg
  xmlns:svg="http://www.w3.org/2000/svg"
  xmlns="http://www.w3.org/2000/svg"
  xmlns:xlink="http://www.w3.org/1999/xlink"
  version="1.1"
  width="70.0786mm" height="70.0786mm" viewBox="0.0000 0.0000 70.0786 70.0786">
<title>SVG Image created as Light_PCB-B_Silkscreen.svg date 2023/10/15 16:57:46 </title>
  <desc>Image generated by PCBNEW </desc>
<g style="fill:#000000; fill-opacity:1.0000;stroke:#000000; stroke-opacity:1.0000;
stroke-linecap:round; stroke-linejoin:round;"
 transform="translate(0 0) scale(1 1)">
</g>
<g style="fill:#000000; fill-opacity:0.0; 
stroke:#000000; stroke-width:0.0000; stroke-opacity:1; 
stroke-linecap:round; stroke-linejoin:round;">
</g>
<g style="fill:#000000; fill-opacity:0.0; 
stroke:#000000; stroke-width:0.1500; stroke-opacity:1; 
stroke-linecap:round; stroke-linejoin:round;">
<text x="35.0400" y="17.1900"
transform="scale(-1 1) translate(-70.080000 0)"
textLength="2.7281" font-size="1.0667" lengthAdjust="spacingAndGlyphs"
text-anchor="middle" opacity="0">GND</text>
<g class="stroked-text"><desc>GND</desc>
<path d="M35.6495 15.6976
L35.7257 15.6261
" />
<path d="M35.7257 15.6261
L35.8400 15.6261
" />
<path d="M35.8400 15.6261
L35.9543 15.6976
" />
<path d="M35.9543 15.6976
L36.0305 15.8404
" />
<path d="M36.0305 15.8404
L36.0686 15.9833
" />
<path d="M36.0686 15.9833
L36.1067 16.2690
" />
<path d="M36.1067 16.2690
L36.1067 16.4833
" />
<path d="M36.1067 16.4833
L36.0686 16.7690
" />
<path d="M36.0686 16.7690
L36.0305 16.9118
" />
<path d="M36.0305 16.9118
L35.9543 17.0547
" />
<path d="M35.9543 17.0547
L35.8400 17.1261
" />
<path d="M35.8400 17.1261
L35.7638 17.1261
" />
<path d="M35.7638 17.1261
L35.6495 17.0547
" />
<path d="M35.6495 17.0547
L35.6114 16.9833
" />
<path d="M35.6114 16.9833
L35.6114 16.4833
" />
<path d="M35.6114 16.4833
L35.7638 16.4833
" />
<path d="M35.2686 17.1261
L35.2686 15.6261
" />
<path d="M35.2686 15.6261
L34.8114 17.1261
" />
<path d="M34.8114 17.1261
L34.8114 15.6261
" />
<path d="M34.4305 17.1261
L34.4305 15.6261
" />
<path d="M34.4305 15.6261
L34.2400 15.6261
" />
<path d="M34.2400 15.6261
L34.1257 15.6976
" />
<path d="M34.1257 15.6976
L34.0495 15.8404
" />
<path d="M34.0495 15.8404
L34.0114 15.9833
" />
<path d="M34.0114 15.9833
L33.9733 16.2690
" />
<path d="M33.9733 16.2690
L33.9733 16.4833
" />
<path d="M33.9733 16.4833
L34.0114 16.7690
" />
<path d="M34.0114 16.7690
L34.0495 16.9118
" />
<path d="M34.0495 16.9118
L34.1257 17.0547
" />
<path d="M34.1257 17.0547
L34.2400 17.1261
" />
<path d="M34.2400 17.1261
L34.4305 17.1261
" />
</g><text x="35.0500" y="34.7800"
transform="scale(-1 1) translate(-70.100000 0)"
textLength="36.6500" font-size="2.0000" lengthAdjust="spacingAndGlyphs"
text-anchor="middle" opacity="0">Sunrise Alarm V3: Light PCB V1</text>
<g class="stroked-text"><desc>Sunrise Alarm V3: Light PCB V1</desc>
<path d="M53.0143 34.6447
L52.8000 34.7161
" />
<path d="M52.8000 34.7161
L52.4429 34.7161
" />
<path d="M52.4429 34.7161
L52.3000 34.6447
" />
<path d="M52.3000 34.6447
L52.2286 34.5733
" />
<path d="M52.2286 34.5733
L52.1571 34.4304
" />
<path d="M52.1571 34.4304
L52.1571 34.2876
" />
<path d="M52.1571 34.2876
L52.2286 34.1447
" />
<path d="M52.2286 34.1447
L52.3000 34.0733
" />
<path d="M52.3000 34.0733
L52.4429 34.0018
" />
<path d="M52.4429 34.0018
L52.7286 33.9304
" />
<path d="M52.7286 33.9304
L52.8714 33.8590
" />
<path d="M52.8714 33.8590
L52.9429 33.7876
" />
<path d="M52.9429 33.7876
L53.0143 33.6447
" />
<path d="M53.0143 33.6447
L53.0143 33.5018
" />
<path d="M53.0143 33.5018
L52.9429 33.3590
" />
<path d="M52.9429 33.3590
L52.8714 33.2876
" />
<path d="M52.8714 33.2876
L52.7286 33.2161
" />
<path d="M52.7286 33.2161
L52.3714 33.2161
" />
<path d="M52.3714 33.2161
L52.1571 33.2876
" />
<path d="M50.8714 33.7161
L50.8714 34.7161
" />
<path d="M51.5143 33.7161
L51.5143 34.5018
" />
<path d="M51.5143 34.5018
L51.4429 34.6447
" />
<path d="M51.4429 34.6447
L51.3000 34.7161
" />
<path d="M51.3000 34.7161
L51.0857 34.7161
" />
<path d="M51.0857 34.7161
L50.9429 34.6447
" />
<path d="M50.9429 34.6447
L50.8714 34.5733
" />
<path d="M50.1571 33.7161
L50.1571 34.7161
" />
<path d="M50.1571 33.8590
L50.0857 33.7876
" />
<path d="M50.0857 33.7876
L49.9429 33.7161
" />
<path d="M49.9429 33.7161
L49.7286 33.7161
" />
<path d="M49.7286 33.7161
L49.5857 33.7876
" />
<path d="M49.5857 33.7876
L49.5143 33.9304
" />
<path d="M49.5143 33.9304
L49.5143 34.7161
" />
<path d="M48.8000 34.7161
L48.8000 33.7161
" />
<path d="M48.8000 34.0018
L48.7286 33.8590
" />
<path d="M48.7286 33.8590
L48.6571 33.7876
" />
<path d="M48.6571 33.7876
L48.5143 33.7161
" />
<path d="M48.5143 33.7161
L48.3714 33.7161
" />
<path d="M47.8714 34.7161
L47.8714 33.7161
" />
<path d="M47.8714 33.2161
L47.9429 33.2876
" />
<path d="M47.9429 33.2876
L47.8714 33.3590
" />
<path d="M47.8714 33.3590
L47.8000 33.2876
" />
<path d="M47.8000 33.2876
L47.8714 33.2161
" />
<path d="M47.8714 33.2161
L47.8714 33.3590
" />
<path d="M47.2286 34.6447
L47.0857 34.7161
" />
<path d="M47.0857 34.7161
L46.8000 34.7161
" />
<path d="M46.8000 34.7161
L46.6571 34.6447
" />
<path d="M46.6571 34.6447
L46.5857 34.5018
" />
<path d="M46.5857 34.5018
L46.5857 34.4304
" />
<path d="M46.5857 34.4304
L46.6571 34.2876
" />
<path d="M46.6571 34.2876
L46.8000 34.2161
" />
<path d="M46.8000 34.2161
L47.0143 34.2161
" />
<path d="M47.0143 34.2161
L47.1571 34.1447
" />
<path d="M47.1571 34.1447
L47.2286 34.0018
" />
<path d="M47.2286 34.0018
L47.2286 33.9304
" />
<path d="M47.2286 33.9304
L47.1571 33.7876
" />
<path d="M47.1571 33.7876
L47.0143 33.7161
" />
<path d="M47.0143 33.7161
L46.8000 33.7161
" />
<path d="M46.8000 33.7161
L46.6571 33.7876
" />
<path d="M45.3714 34.6447
L45.5143 34.7161
" />
<path d="M45.5143 34.7161
L45.8000 34.7161
" />
<path d="M45.8000 34.7161
L45.9429 34.6447
" />
<path d="M45.9429 34.6447
L46.0143 34.5018
" />
<path d="M46.0143 34.5018
L46.0143 33.9304
" />
<path d="M46.0143 33.9304
L45.9429 33.7876
" />
<path d="M45.9429 33.7876
L45.8000 33.7161
" />
<path d="M45.8000 33.7161
L45.5143 33.7161
" />
<path d="M45.5143 33.7161
L45.3714 33.7876
" />
<path d="M45.3714 33.7876
L45.3000 33.9304
" />
<path d="M45.3000 33.9304
L45.3000 34.0733
" />
<path d="M45.3000 34.0733
L46.0143 34.2161
" />
<path d="M43.5857 34.2876
L42.8714 34.2876
" />
<path d="M43.7286 34.7161
L43.2286 33.2161
" />
<path d="M43.2286 33.2161
L42.7286 34.7161
" />
<path d="M42.0143 34.7161
L42.1571 34.6447
" />
<path d="M42.1571 34.6447
L42.2286 34.5018
" />
<path d="M42.2286 34.5018
L42.2286 33.2161
" />
<path d="M40.8000 34.7161
L40.8000 33.9304
" />
<path d="M40.8000 33.9304
L40.8714 33.7876
" />
<path d="M40.8714 33.7876
L41.0143 33.7161
" />
<path d="M41.0143 33.7161
L41.3000 33.7161
" />
<path d="M41.3000 33.7161
L41.4429 33.7876
" />
<path d="M40.8000 34.6447
L40.9429 34.7161
" />
<path d="M40.9429 34.7161
L41.3000 34.7161
" />
<path d="M41.3000 34.7161
L41.4429 34.6447
" />
<path d="M41.4429 34.6447
L41.5143 34.5018
" />
<path d="M41.5143 34.5018
L41.5143 34.3590
" />
<path d="M41.5143 34.3590
L41.4429 34.2161
" />
<path d="M41.4429 34.2161
L41.3000 34.1447
" />
<path d="M41.3000 34.1447
L40.9429 34.1447
" />
<path d="M40.9429 34.1447
L40.8000 34.0733
" />
<path d="M40.0857 34.7161
L40.0857 33.7161
" />
<path d="M40.0857 34.0018
L40.0143 33.8590
" />
<path d="M40.0143 33.8590
L39.9429 33.7876
" />
<path d="M39.9429 33.7876
L39.8000 33.7161
" />
<path d="M39.8000 33.7161
L39.6571 33.7161
" />
<path d="M39.1571 34.7161
L39.1571 33.7161
" />
<path d="M39.1571 33.8590
L39.0857 33.7876
" />
<path d="M39.0857 33.7876
L38.9429 33.7161
" />
<path d="M38.9429 33.7161
L38.7286 33.7161
" />
<path d="M38.7286 33.7161
L38.5857 33.7876
" />
<path d="M38.5857 33.7876
L38.5143 33.9304
" />
<path d="M38.5143 33.9304
L38.5143 34.7161
" />
<path d="M38.5143 33.9304
L38.4429 33.7876
" />
<path d="M38.4429 33.7876
L38.3000 33.7161
" />
<path d="M38.3000 33.7161
L38.0857 33.7161
" />
<path d="M38.0857 33.7161
L37.9429 33.7876
" />
<path d="M37.9429 33.7876
L37.8714 33.9304
" />
<path d="M37.8714 33.9304
L37.8714 34.7161
" />
<path d="M36.2286 33.2161
L35.7286 34.7161
" />
<path d="M35.7286 34.7161
L35.2286 33.2161
" />
<path d="M34.8714 33.2161
L33.9429 33.2161
" />
<path d="M33.9429 33.2161
L34.4429 33.7876
" />
<path d="M34.4429 33.7876
L34.2286 33.7876
" />
<path d="M34.2286 33.7876
L34.0857 33.8590
" />
<path d="M34.0857 33.8590
L34.0143 33.9304
" />
<path d="M34.0143 33.9304
L33.9429 34.0733
" />
<path d="M33.9429 34.0733
L33.9429 34.4304
" />
<path d="M33.9429 34.4304
L34.0143 34.5733
" />
<path d="M34.0143 34.5733
L34.0857 34.6447
" />
<path d="M34.0857 34.6447
L34.2286 34.7161
" />
<path d="M34.2286 34.7161
L34.6571 34.7161
" />
<path d="M34.6571 34.7161
L34.8000 34.6447
" />
<path d="M34.8000 34.6447
L34.8714 34.5733
" />
<path d="M33.3000 34.5733
L33.2286 34.6447
" />
<path d="M33.2286 34.6447
L33.3000 34.7161
" />
<path d="M33.3000 34.7161
L33.3714 34.6447
" />
<path d="M33.3714 34.6447
L33.3000 34.5733
" />
<path d="M33.3000 34.5733
L33.3000 34.7161
" />
<path d="M33.3000 33.7876
L33.2286 33.8590
" />
<path d="M33.2286 33.8590
L33.3000 33.9304
" />
<path d="M33.3000 33.9304
L33.3714 33.8590
" />
<path d="M33.3714 33.8590
L33.3000 33.7876
" />
<path d="M33.3000 33.7876
L33.3000 33.9304
" />
<path d="M30.7286 34.7161
L31.4429 34.7161
" />
<path d="M31.4429 34.7161
L31.4429 33.2161
" />
<path d="M30.2286 34.7161
L30.2286 33.7161
" />
<path d="M30.2286 33.2161
L30.3000 33.2876
" />
<path d="M30.3000 33.2876
L30.2286 33.3590
" />
<path d="M30.2286 33.3590
L30.1571 33.2876
" />
<path d="M30.1571 33.2876
L30.2286 33.2161
" />
<path d="M30.2286 33.2161
L30.2286 33.3590
" />
<path d="M28.8714 33.7161
L28.8714 34.9304
" />
<path d="M28.8714 34.9304
L28.9429 35.0733
" />
<path d="M28.9429 35.0733
L29.0143 35.1447
" />
<path d="M29.0143 35.1447
L29.1571 35.2161
" />
<path d="M29.1571 35.2161
L29.3714 35.2161
" />
<path d="M29.3714 35.2161
L29.5143 35.1447
" />
<path d="M28.8714 34.6447
L29.0143 34.7161
" />
<path d="M29.0143 34.7161
L29.3000 34.7161
" />
<path d="M29.3000 34.7161
L29.4429 34.6447
" />
<path d="M29.4429 34.6447
L29.5143 34.5733
" />
<path d="M29.5143 34.5733
L29.5857 34.4304
" />
<path d="M29.5857 34.4304
L29.5857 34.0018
" />
<path d="M29.5857 34.0018
L29.5143 33.8590
" />
<path d="M29.5143 33.8590
L29.4429 33.7876
" />
<path d="M29.4429 33.7876
L29.3000 33.7161
" />
<path d="M29.3000 33.7161
L29.0143 33.7161
" />
<path d="M29.0143 33.7161
L28.8714 33.7876
" />
<path d="M28.1571 34.7161
L28.1571 33.2161
" />
<path d="M27.5143 34.7161
L27.5143 33.9304
" />
<path d="M27.5143 33.9304
L27.5857 33.7876
" />
<path d="M27.5857 33.7876
L27.7286 33.7161
" />
<path d="M27.7286 33.7161
L27.9429 33.7161
" />
<path d="M27.9429 33.7161
L28.0857 33.7876
" />
<path d="M28.0857 33.7876
L28.1571 33.8590
" />
<path d="M27.0143 33.7161
L26.4429 33.7161
" />
<path d="M26.8000 33.2161
L26.8000 34.5018
" />
<path d="M26.8000 34.5018
L26.7286 34.6447
" />
<path d="M26.7286 34.6447
L26.5857 34.7161
" />
<path d="M26.5857 34.7161
L26.4429 34.7161
" />
<path d="M24.8000 34.7161
L24.8000 33.2161
" />
<path d="M24.8000 33.2161
L24.2286 33.2161
" />
<path d="M24.2286 33.2161
L24.0857 33.2876
" />
<path d="M24.0857 33.2876
L24.0143 33.3590
" />
<path d="M24.0143 33.3590
L23.9429 33.5018
" />
<path d="M23.9429 33.5018
L23.9429 33.7161
" />
<path d="M23.9429 33.7161
L24.0143 33.8590
" />
<path d="M24.0143 33.8590
L24.0857 33.9304
" />
<path d="M24.0857 33.9304
L24.2286 34.0018
" />
<path d="M24.2286 34.0018
L24.8000 34.0018
" />
<path d="M22.4429 34.5733
L22.5143 34.6447
" />
<path d="M22.5143 34.6447
L22.7286 34.7161
" />
<path d="M22.7286 34.7161
L22.8714 34.7161
" />
<path d="M22.8714 34.7161
L23.0857 34.6447
" />
<path d="M23.0857 34.6447
L23.2286 34.5018
" />
<path d="M23.2286 34.5018
L23.3000 34.3590
" />
<path d="M23.3000 34.3590
L23.3714 34.0733
" />
<path d="M23.3714 34.0733
L23.3714 33.8590
" />
<path d="M23.3714 33.8590
L23.3000 33.5733
" />
<path d="M23.3000 33.5733
L23.2286 33.4304
" />
<path d="M23.2286 33.4304
L23.0857 33.2876
" />
<path d="M23.0857 33.2876
L22.8714 33.2161
" />
<path d="M22.8714 33.2161
L22.7286 33.2161
" />
<path d="M22.7286 33.2161
L22.5143 33.2876
" />
<path d="M22.5143 33.2876
L22.4429 33.3590
" />
<path d="M21.3000 33.9304
L21.0857 34.0018
" />
<path d="M21.0857 34.0018
L21.0143 34.0733
" />
<path d="M21.0143 34.0733
L20.9429 34.2161
" />
<path d="M20.9429 34.2161
L20.9429 34.4304
" />
<path d="M20.9429 34.4304
L21.0143 34.5733
" />
<path d="M21.0143 34.5733
L21.0857 34.6447
" />
<path d="M21.0857 34.6447
L21.2286 34.7161
" />
<path d="M21.2286 34.7161
L21.8000 34.7161
" />
<path d="M21.8000 34.7161
L21.8000 33.2161
" />
<path d="M21.8000 33.2161
L21.3000 33.2161
" />
<path d="M21.3000 33.2161
L21.1571 33.2876
" />
<path d="M21.1571 33.2876
L21.0857 33.3590
" />
<path d="M21.0857 33.3590
L21.0143 33.5018
" />
<path d="M21.0143 33.5018
L21.0143 33.6447
" />
<path d="M21.0143 33.6447
L21.0857 33.7876
" />
<path d="M21.0857 33.7876
L21.1571 33.8590
" />
<path d="M21.1571 33.8590
L21.3000 33.9304
" />
<path d="M21.3000 33.9304
L21.8000 33.9304
" />
<path d="M19.3714 33.2161
L18.8714 34.7161
" />
<path d="M18.8714 34.7161
L18.3714 33.2161
" />
<path d="M17.0857 34.7161
L17.9429 34.7161
" />
<path d="M17.5143 34.7161
L17.5143 33.2161
" />
<path d="M17.5143 33.2161
L17.6571 33.4304
" />
<path d="M17.6571 33.4304
L17.8000 33.5733
" />
<path d="M17.8000 33.5733
L17.9429 33.6447
" />
</g><text x="37.5800" y="17.2000"
transform="scale(-1 1) translate(-75.160000 0)"
textLength="2.5757" font-size="1.0667" lengthAdjust="spacingAndGlyphs"
text-anchor="middle" opacity="0">VCC</text>
<g class="stroked-text"><desc>VCC</desc>
<path d="M38.6467 15.6361
L38.3800 17.1361
" />
<path d="M38.3800 17.1361
L38.1133 15.6361
" />
<path d="M37.3895 16.9933
L37.4276 17.0647
" />
<path d="M37.4276 17.0647
L37.5419 17.1361
" />
<path d="M37.5419 17.1361
L37.6181 17.1361
" />
<path d="M37.6181 17.1361
L37.7324 17.0647
" />
<path d="M37.7324 17.0647
L37.8086 16.9218
" />
<path d="M37.8086 16.9218
L37.8467 16.7790
" />
<path d="M37.8467 16.7790
L37.8848 16.4933
" />
<path d="M37.8848 16.4933
L37.8848 16.2790
" />
<path d="M37.8848 16.2790
L37.8467 15.9933
" />
<path d="M37.8467 15.9933
L37.8086 15.8504
" />
<path d="M37.8086 15.8504
L37.7324 15.7076
" />
<path d="M37.7324 15.7076
L37.6181 15.6361
" />
<path d="M37.6181 15.6361
L37.5419 15.6361
" />
<path d="M37.5419 15.6361
L37.4276 15.7076
" />
<path d="M37.4276 15.7076
L37.3895 15.7790
" />
<path d="M36.5895 16.9933
L36.6276 17.0647
" />
<path d="M36.6276 17.0647
L36.7419 17.1361
" />
<path d="M36.7419 17.1361
L36.8181 17.1361
" />
<path d="M36.8181 17.1361
L36.9324 17.0647
" />
<path d="M36.9324 17.0647
L37.0086 16.9218
" />
<path d="M37.0086 16.9218
L37.0467 16.7790
" />
<path d="M37.0467 16.7790
L37.0848 16.4933
" />
<path d="M37.0848 16.4933
L37.0848 16.2790
" />
<path d="M37.0848 16.2790
L37.0467 15.9933
" />
<path d="M37.0467 15.9933
L37.0086 15.8504
" />
<path d="M37.0086 15.8504
L36.9324 15.7076
" />
<path d="M36.9324 15.7076
L36.8181 15.6361
" />
<path d="M36.8181 15.6361
L36.7419 15.6361
" />
<path d="M36.7419 15.6361
L36.6276 15.7076
" />
<path d="M36.6276 15.7076
L36.5895 15.7790
" />
</g><text x="32.4800" y="17.1800"
transform="scale(-1 1) translate(-64.960000 0)"
textLength="1.5090" font-size="1.0667" lengthAdjust="spacingAndGlyphs"
text-anchor="middle" opacity="0">IN</text>
<g class="stroked-text"><desc>IN</desc>
<path d="M32.8990 17.1161
L32.8990 15.6161
" />
<path d="M32.5181 17.1161
L32.5181 15.6161
" />
<path d="M32.5181 15.6161
L32.0610 17.1161
" />
<path d="M32.0610 17.1161
L32.0610 15.6161
" />
</g><g transform="rotate(-90.000000 37.0500 10.0500)">
<text x="37.0500" y="10.5500"
transform="scale(-1 1) translate(-74.100000 0)"
textLength="2.2500" font-size="1.3333" lengthAdjust="spacingAndGlyphs"
text-anchor="middle" opacity="0">Q1</text>
</g>
<g class="stroked-text"><desc>Q1</desc>
<path d="M37.6001 9.9548
L37.5524 9.8595
" />
<path d="M37.5524 9.8595
L37.4572 9.7643
" />
<path d="M37.4572 9.7643
L37.3143 9.6214
" />
<path d="M37.3143 9.6214
L37.2667 9.5262
" />
<path d="M37.2667 9.5262
L37.2667 9.4310
" />
<path d="M37.5048 9.4786
L37.4572 9.3833
" />
<path d="M37.4572 9.3833
L37.3620 9.2881
" />
<path d="M37.3620 9.2881
L37.1715 9.2405
" />
<path d="M37.1715 9.2405
L36.8382 9.2405
" />
<path d="M36.8382 9.2405
L36.6477 9.2881
" />
<path d="M36.6477 9.2881
L36.5524 9.3833
" />
<path d="M36.5524 9.3833
L36.5048 9.4786
" />
<path d="M36.5048 9.4786
L36.5048 9.6690
" />
<path d="M36.5048 9.6690
L36.5524 9.7643
" />
<path d="M36.5524 9.7643
L36.6477 9.8595
" />
<path d="M36.6477 9.8595
L36.8382 9.9071
" />
<path d="M36.8382 9.9071
L37.1715 9.9071
" />
<path d="M37.1715 9.9071
L37.3620 9.8595
" />
<path d="M37.3620 9.8595
L37.4572 9.7643
" />
<path d="M37.4572 9.7643
L37.5048 9.6690
" />
<path d="M37.5048 9.6690
L37.5048 9.4786
" />
<path d="M37.5048 10.8595
L37.5048 10.2881
" />
<path d="M37.5048 10.5738
L36.5048 10.5738
" />
<path d="M36.5048 10.5738
L36.6477 10.4786
" />
<path d="M36.6477 10.4786
L36.7429 10.3833
" />
<path d="M36.7429 10.3833
L36.7905 10.2881
" />
</g><g transform="rotate(-90.000000 40.3450 14.0250)">
<text x="40.3450" y="14.5250"
transform="scale(-1 1) translate(-80.690000 0)"
textLength="1.9643" font-size="1.3333" lengthAdjust="spacingAndGlyphs"
text-anchor="middle" opacity="0">J1</text>
</g>
<g class="stroked-text"><desc>J1</desc>
<path d="M39.7998 13.6917
L40.5141 13.6917
" />
<path d="M40.5141 13.6917
L40.6570 13.6440
" />
<path d="M40.6570 13.6440
L40.7522 13.5488
" />
<path d="M40.7522 13.5488
L40.7998 13.4060
" />
<path d="M40.7998 13.4060
L40.7998 13.3107
" />
<path d="M40.7998 14.6917
L40.7998 14.1202
" />
<path d="M40.7998 14.4060
L39.7998 14.4060
" />
<path d="M39.7998 14.4060
L39.9427 14.3107
" />
<path d="M39.9427 14.3107
L40.0379 14.2155
" />
<path d="M40.0379 14.2155
L40.0855 14.1202
" />
</g></g>
<g style="fill:#000000; fill-opacity:0.0; 
stroke:#000000; stroke-width:0.1200; stroke-opacity:1; 
stroke-linecap:round; stroke-linejoin:round;">
<path d="M35.5800 11.9000
L31.9800 11.9000
" />
<path d="M35.6185 11.8885 A2.6000 2.6000 0.0 0 0 33.7800 7.4500" />
<path d="M33.7800 7.4500 A2.6000 2.6000 0.0 0 0 31.9415 11.8885" />
<path d="M31.1650 15.3550
L31.1650 12.6950
" />
<path d="M36.3050 15.3550
L31.1650 15.3550
" />
<path d="M36.3050 15.3550
L36.3050 12.6950
" />
<path d="M38.9050 14.0250
L38.9050 12.6950
" />
<path d="M36.3050 12.6950
L31.1650 12.6950
" />
<path d="M38.9050 12.6950
L37.5750 12.6950
" />
<g >
</g>
<g >
</g>
<g >
</g>
<g >
</g>
<g >
</g>
<g >
</g>
<g >
</g>
<g >
</g>
<g >
</g>
<g >
</g>
<g >
</g>
<g >
</g>
<g >
</g>
<g >
</g>
<g >
</g>
<g >
</g>
<g >
</g>
<g >
</g>
<g >
</g>
<g >
</g>
<g >
</g>
<g >
</g>
</g>
<g style="fill:#000000; fill-opacity:0.0; 
stroke:#000000; stroke-width:0.1200; stroke-opacity:1; 
stroke-linecap:round; stroke-linejoin:round;">
</g>
<g style="fill:#000000; fill-opacity:0.0; 
stroke:#000000; stroke-width:0.1000; stroke-opacity:1; 
stroke-linecap:round; stroke-linejoin:round;">
<path d="M70.0500 13.0500
L70.0500 57.0500
" />
<circle cx="54.8000" cy="54.3500" r="1.7000" /> 
<circle cx="15.3000" cy="54.3500" r="1.7000" /> 
<path d="M0.0500 57.0500 A13.0000 13.0000 0.0 0 0 13.0500 70.0500" />
<circle cx="54.8000" cy="22.4500" r="1.7000" /> 
<path style="fill:#000000; fill-opacity:0.0; 
stroke:#000000; stroke-width:0.1000; stroke-opacity:1; 
stroke-linecap:round; stroke-linejoin:round;fill:none"
d="M 58.0500,24.0500
62.0500,24.0500
62.0500,52.0500
58.0500,52.0500
Z" /> 
<path d="M57.0500 70.0500 A13.0000 13.0000 0.0 0 0 70.0500 57.0500" />
<path d="M13.0500 0.0500
L57.0500 0.0500
" />
<path d="M0.0500 57.0500
L0.0500 13.0500
" />
<circle cx="15.3000" cy="22.4500" r="1.7000" /> 
<path d="M13.0500 0.0500 A13.0000 13.0000 0.0 0 0 0.0500 13.0500" />
<path d="M57.0500 70.0500
L13.0500 70.0500
" />
<path d="M70.0500 13.0500 A13.0000 13.0000 0.0 0 0 57.0500 0.0500" />
<g >
</g>
<g >
</g>
<g >
</g>
<g >
</g>
<g >
</g>
<g >
</g>
<g >
</g>
<g >
</g>
<g >
</g>
<g >
</g>
<g >
</g>
<g >
</g>
<g >
</g>
<g >
</g>
<g >
</g>
<g >
</g>
<g >
</g>
<g >
</g>
<g >
</g>
<g >
</g>
<g >
</g>
<g >
</g>
</g> 
</svg>
