G04 #@! TF.GenerationSoftware,KiCad,Pcbnew,7.0.7-2.fc38*
G04 #@! TF.CreationDate,2023-10-09T12:23:22+01:00*
G04 #@! TF.ProjectId,Light_PCB,4c696768-745f-4504-9342-2e6b69636164,rev?*
G04 #@! TF.SameCoordinates,Original*
G04 #@! TF.FileFunction,Legend,Top*
G04 #@! TF.FilePolarity,Positive*
%FSLAX46Y46*%
G04 Gerber Fmt 4.6, Leading zero omitted, Abs format (unit mm)*
G04 Created by KiCad (PCBNEW 7.0.7-2.fc38) date 2023-10-09 12:23:22*
%MOMM*%
%LPD*%
G01*
G04 APERTURE LIST*
%ADD10C,0.150000*%
%ADD11C,0.120000*%
G04 APERTURE END LIST*
D10*
X151900000Y-85000000D02*
X151900000Y-69850000D01*
X151900000Y-100150000D02*
X151900000Y-85000000D01*
X118100000Y-100150000D02*
X151900000Y-100150000D01*
X151900000Y-69850000D02*
X157400000Y-69850000D01*
X157400000Y-69850000D02*
X157400000Y-106850000D01*
X118100000Y-69850000D02*
X118100000Y-100150000D01*
X151900000Y-69850000D02*
X118100000Y-69850000D01*
X118100000Y-69850000D02*
X112600000Y-69850000D01*
X112600000Y-106850000D02*
X157400000Y-106850000D01*
X112600000Y-69850000D02*
X112600000Y-106850000D01*
X151254819Y-115738094D02*
X150254819Y-115738094D01*
X150254819Y-115738094D02*
X150254819Y-115499999D01*
X150254819Y-115499999D02*
X150302438Y-115357142D01*
X150302438Y-115357142D02*
X150397676Y-115261904D01*
X150397676Y-115261904D02*
X150492914Y-115214285D01*
X150492914Y-115214285D02*
X150683390Y-115166666D01*
X150683390Y-115166666D02*
X150826247Y-115166666D01*
X150826247Y-115166666D02*
X151016723Y-115214285D01*
X151016723Y-115214285D02*
X151111961Y-115261904D01*
X151111961Y-115261904D02*
X151207200Y-115357142D01*
X151207200Y-115357142D02*
X151254819Y-115499999D01*
X151254819Y-115499999D02*
X151254819Y-115738094D01*
X151254819Y-114690475D02*
X151254819Y-114499999D01*
X151254819Y-114499999D02*
X151207200Y-114404761D01*
X151207200Y-114404761D02*
X151159580Y-114357142D01*
X151159580Y-114357142D02*
X151016723Y-114261904D01*
X151016723Y-114261904D02*
X150826247Y-114214285D01*
X150826247Y-114214285D02*
X150445295Y-114214285D01*
X150445295Y-114214285D02*
X150350057Y-114261904D01*
X150350057Y-114261904D02*
X150302438Y-114309523D01*
X150302438Y-114309523D02*
X150254819Y-114404761D01*
X150254819Y-114404761D02*
X150254819Y-114595237D01*
X150254819Y-114595237D02*
X150302438Y-114690475D01*
X150302438Y-114690475D02*
X150350057Y-114738094D01*
X150350057Y-114738094D02*
X150445295Y-114785713D01*
X150445295Y-114785713D02*
X150683390Y-114785713D01*
X150683390Y-114785713D02*
X150778628Y-114738094D01*
X150778628Y-114738094D02*
X150826247Y-114690475D01*
X150826247Y-114690475D02*
X150873866Y-114595237D01*
X150873866Y-114595237D02*
X150873866Y-114404761D01*
X150873866Y-114404761D02*
X150826247Y-114309523D01*
X150826247Y-114309523D02*
X150778628Y-114261904D01*
X150778628Y-114261904D02*
X150683390Y-114214285D01*
X164261905Y-97954819D02*
X164261905Y-96954819D01*
X164261905Y-96954819D02*
X164500000Y-96954819D01*
X164500000Y-96954819D02*
X164642857Y-97002438D01*
X164642857Y-97002438D02*
X164738095Y-97097676D01*
X164738095Y-97097676D02*
X164785714Y-97192914D01*
X164785714Y-97192914D02*
X164833333Y-97383390D01*
X164833333Y-97383390D02*
X164833333Y-97526247D01*
X164833333Y-97526247D02*
X164785714Y-97716723D01*
X164785714Y-97716723D02*
X164738095Y-97811961D01*
X164738095Y-97811961D02*
X164642857Y-97907200D01*
X164642857Y-97907200D02*
X164500000Y-97954819D01*
X164500000Y-97954819D02*
X164261905Y-97954819D01*
X165166667Y-96954819D02*
X165833333Y-96954819D01*
X165833333Y-96954819D02*
X165404762Y-97954819D01*
X103785714Y-87104819D02*
X103785714Y-86104819D01*
X103785714Y-86104819D02*
X104023809Y-86104819D01*
X104023809Y-86104819D02*
X104166666Y-86152438D01*
X104166666Y-86152438D02*
X104261904Y-86247676D01*
X104261904Y-86247676D02*
X104309523Y-86342914D01*
X104309523Y-86342914D02*
X104357142Y-86533390D01*
X104357142Y-86533390D02*
X104357142Y-86676247D01*
X104357142Y-86676247D02*
X104309523Y-86866723D01*
X104309523Y-86866723D02*
X104261904Y-86961961D01*
X104261904Y-86961961D02*
X104166666Y-87057200D01*
X104166666Y-87057200D02*
X104023809Y-87104819D01*
X104023809Y-87104819D02*
X103785714Y-87104819D01*
X105309523Y-87104819D02*
X104738095Y-87104819D01*
X105023809Y-87104819D02*
X105023809Y-86104819D01*
X105023809Y-86104819D02*
X104928571Y-86247676D01*
X104928571Y-86247676D02*
X104833333Y-86342914D01*
X104833333Y-86342914D02*
X104738095Y-86390533D01*
X106166666Y-86438152D02*
X106166666Y-87104819D01*
X105928571Y-86057200D02*
X105690476Y-86771485D01*
X105690476Y-86771485D02*
X106309523Y-86771485D01*
X161289821Y-57019937D02*
X160582715Y-56312830D01*
X160582715Y-56312830D02*
X160751073Y-56144471D01*
X160751073Y-56144471D02*
X160885760Y-56077128D01*
X160885760Y-56077128D02*
X161020447Y-56077128D01*
X161020447Y-56077128D02*
X161121463Y-56110800D01*
X161121463Y-56110800D02*
X161289821Y-56211815D01*
X161289821Y-56211815D02*
X161390837Y-56312830D01*
X161390837Y-56312830D02*
X161491852Y-56481189D01*
X161491852Y-56481189D02*
X161525524Y-56582204D01*
X161525524Y-56582204D02*
X161525524Y-56716891D01*
X161525524Y-56716891D02*
X161458180Y-56851578D01*
X161458180Y-56851578D02*
X161289821Y-57019937D01*
X161828569Y-55538380D02*
X162299974Y-56009784D01*
X161390837Y-55437365D02*
X161727554Y-56110800D01*
X161727554Y-56110800D02*
X162165287Y-55673067D01*
X164261905Y-69654819D02*
X164261905Y-68654819D01*
X164261905Y-68654819D02*
X164500000Y-68654819D01*
X164500000Y-68654819D02*
X164642857Y-68702438D01*
X164642857Y-68702438D02*
X164738095Y-68797676D01*
X164738095Y-68797676D02*
X164785714Y-68892914D01*
X164785714Y-68892914D02*
X164833333Y-69083390D01*
X164833333Y-69083390D02*
X164833333Y-69226247D01*
X164833333Y-69226247D02*
X164785714Y-69416723D01*
X164785714Y-69416723D02*
X164738095Y-69511961D01*
X164738095Y-69511961D02*
X164642857Y-69607200D01*
X164642857Y-69607200D02*
X164500000Y-69654819D01*
X164500000Y-69654819D02*
X164261905Y-69654819D01*
X165738095Y-68654819D02*
X165261905Y-68654819D01*
X165261905Y-68654819D02*
X165214286Y-69131009D01*
X165214286Y-69131009D02*
X165261905Y-69083390D01*
X165261905Y-69083390D02*
X165357143Y-69035771D01*
X165357143Y-69035771D02*
X165595238Y-69035771D01*
X165595238Y-69035771D02*
X165690476Y-69083390D01*
X165690476Y-69083390D02*
X165738095Y-69131009D01*
X165738095Y-69131009D02*
X165785714Y-69226247D01*
X165785714Y-69226247D02*
X165785714Y-69464342D01*
X165785714Y-69464342D02*
X165738095Y-69559580D01*
X165738095Y-69559580D02*
X165690476Y-69607200D01*
X165690476Y-69607200D02*
X165595238Y-69654819D01*
X165595238Y-69654819D02*
X165357143Y-69654819D01*
X165357143Y-69654819D02*
X165261905Y-69607200D01*
X165261905Y-69607200D02*
X165214286Y-69559580D01*
X107972847Y-115003815D02*
X107265741Y-114296708D01*
X107265741Y-114296708D02*
X107434099Y-114128349D01*
X107434099Y-114128349D02*
X107568786Y-114061006D01*
X107568786Y-114061006D02*
X107703473Y-114061006D01*
X107703473Y-114061006D02*
X107804489Y-114094678D01*
X107804489Y-114094678D02*
X107972847Y-114195693D01*
X107972847Y-114195693D02*
X108073863Y-114296708D01*
X108073863Y-114296708D02*
X108174878Y-114465067D01*
X108174878Y-114465067D02*
X108208550Y-114566082D01*
X108208550Y-114566082D02*
X108208550Y-114700769D01*
X108208550Y-114700769D02*
X108141206Y-114835456D01*
X108141206Y-114835456D02*
X107972847Y-115003815D01*
X109050343Y-113926319D02*
X108646282Y-114330380D01*
X108848313Y-114128349D02*
X108141206Y-113421243D01*
X108141206Y-113421243D02*
X108174878Y-113589601D01*
X108174878Y-113589601D02*
X108174878Y-113724288D01*
X108174878Y-113724288D02*
X108141206Y-113825304D01*
X108679954Y-113017181D02*
X108679954Y-112949838D01*
X108679954Y-112949838D02*
X108713626Y-112848823D01*
X108713626Y-112848823D02*
X108881985Y-112680464D01*
X108881985Y-112680464D02*
X108983000Y-112646792D01*
X108983000Y-112646792D02*
X109050344Y-112646792D01*
X109050344Y-112646792D02*
X109151359Y-112680464D01*
X109151359Y-112680464D02*
X109218702Y-112747807D01*
X109218702Y-112747807D02*
X109286046Y-112882494D01*
X109286046Y-112882494D02*
X109286046Y-113690616D01*
X109286046Y-113690616D02*
X109723779Y-113252884D01*
X137454819Y-58166666D02*
X136978628Y-58499999D01*
X137454819Y-58738094D02*
X136454819Y-58738094D01*
X136454819Y-58738094D02*
X136454819Y-58357142D01*
X136454819Y-58357142D02*
X136502438Y-58261904D01*
X136502438Y-58261904D02*
X136550057Y-58214285D01*
X136550057Y-58214285D02*
X136645295Y-58166666D01*
X136645295Y-58166666D02*
X136788152Y-58166666D01*
X136788152Y-58166666D02*
X136883390Y-58214285D01*
X136883390Y-58214285D02*
X136931009Y-58261904D01*
X136931009Y-58261904D02*
X136978628Y-58357142D01*
X136978628Y-58357142D02*
X136978628Y-58738094D01*
X137454819Y-57214285D02*
X137454819Y-57785713D01*
X137454819Y-57499999D02*
X136454819Y-57499999D01*
X136454819Y-57499999D02*
X136597676Y-57595237D01*
X136597676Y-57595237D02*
X136692914Y-57690475D01*
X136692914Y-57690475D02*
X136740533Y-57785713D01*
X103785714Y-72954819D02*
X103785714Y-71954819D01*
X103785714Y-71954819D02*
X104023809Y-71954819D01*
X104023809Y-71954819D02*
X104166666Y-72002438D01*
X104166666Y-72002438D02*
X104261904Y-72097676D01*
X104261904Y-72097676D02*
X104309523Y-72192914D01*
X104309523Y-72192914D02*
X104357142Y-72383390D01*
X104357142Y-72383390D02*
X104357142Y-72526247D01*
X104357142Y-72526247D02*
X104309523Y-72716723D01*
X104309523Y-72716723D02*
X104261904Y-72811961D01*
X104261904Y-72811961D02*
X104166666Y-72907200D01*
X104166666Y-72907200D02*
X104023809Y-72954819D01*
X104023809Y-72954819D02*
X103785714Y-72954819D01*
X105309523Y-72954819D02*
X104738095Y-72954819D01*
X105023809Y-72954819D02*
X105023809Y-71954819D01*
X105023809Y-71954819D02*
X104928571Y-72097676D01*
X104928571Y-72097676D02*
X104833333Y-72192914D01*
X104833333Y-72192914D02*
X104738095Y-72240533D01*
X106214285Y-71954819D02*
X105738095Y-71954819D01*
X105738095Y-71954819D02*
X105690476Y-72431009D01*
X105690476Y-72431009D02*
X105738095Y-72383390D01*
X105738095Y-72383390D02*
X105833333Y-72335771D01*
X105833333Y-72335771D02*
X106071428Y-72335771D01*
X106071428Y-72335771D02*
X106166666Y-72383390D01*
X106166666Y-72383390D02*
X106214285Y-72431009D01*
X106214285Y-72431009D02*
X106261904Y-72526247D01*
X106261904Y-72526247D02*
X106261904Y-72764342D01*
X106261904Y-72764342D02*
X106214285Y-72859580D01*
X106214285Y-72859580D02*
X106166666Y-72907200D01*
X106166666Y-72907200D02*
X106071428Y-72954819D01*
X106071428Y-72954819D02*
X105833333Y-72954819D01*
X105833333Y-72954819D02*
X105738095Y-72907200D01*
X105738095Y-72907200D02*
X105690476Y-72859580D01*
X122954819Y-116214285D02*
X121954819Y-116214285D01*
X121954819Y-116214285D02*
X121954819Y-115976190D01*
X121954819Y-115976190D02*
X122002438Y-115833333D01*
X122002438Y-115833333D02*
X122097676Y-115738095D01*
X122097676Y-115738095D02*
X122192914Y-115690476D01*
X122192914Y-115690476D02*
X122383390Y-115642857D01*
X122383390Y-115642857D02*
X122526247Y-115642857D01*
X122526247Y-115642857D02*
X122716723Y-115690476D01*
X122716723Y-115690476D02*
X122811961Y-115738095D01*
X122811961Y-115738095D02*
X122907200Y-115833333D01*
X122907200Y-115833333D02*
X122954819Y-115976190D01*
X122954819Y-115976190D02*
X122954819Y-116214285D01*
X122954819Y-114690476D02*
X122954819Y-115261904D01*
X122954819Y-114976190D02*
X121954819Y-114976190D01*
X121954819Y-114976190D02*
X122097676Y-115071428D01*
X122097676Y-115071428D02*
X122192914Y-115166666D01*
X122192914Y-115166666D02*
X122240533Y-115261904D01*
X122954819Y-113738095D02*
X122954819Y-114309523D01*
X122954819Y-114023809D02*
X121954819Y-114023809D01*
X121954819Y-114023809D02*
X122097676Y-114119047D01*
X122097676Y-114119047D02*
X122192914Y-114214285D01*
X122192914Y-114214285D02*
X122240533Y-114309523D01*
X147954819Y-55738094D02*
X146954819Y-55738094D01*
X146954819Y-55738094D02*
X146954819Y-55499999D01*
X146954819Y-55499999D02*
X147002438Y-55357142D01*
X147002438Y-55357142D02*
X147097676Y-55261904D01*
X147097676Y-55261904D02*
X147192914Y-55214285D01*
X147192914Y-55214285D02*
X147383390Y-55166666D01*
X147383390Y-55166666D02*
X147526247Y-55166666D01*
X147526247Y-55166666D02*
X147716723Y-55214285D01*
X147716723Y-55214285D02*
X147811961Y-55261904D01*
X147811961Y-55261904D02*
X147907200Y-55357142D01*
X147907200Y-55357142D02*
X147954819Y-55499999D01*
X147954819Y-55499999D02*
X147954819Y-55738094D01*
X146954819Y-54833332D02*
X146954819Y-54214285D01*
X146954819Y-54214285D02*
X147335771Y-54547618D01*
X147335771Y-54547618D02*
X147335771Y-54404761D01*
X147335771Y-54404761D02*
X147383390Y-54309523D01*
X147383390Y-54309523D02*
X147431009Y-54261904D01*
X147431009Y-54261904D02*
X147526247Y-54214285D01*
X147526247Y-54214285D02*
X147764342Y-54214285D01*
X147764342Y-54214285D02*
X147859580Y-54261904D01*
X147859580Y-54261904D02*
X147907200Y-54309523D01*
X147907200Y-54309523D02*
X147954819Y-54404761D01*
X147954819Y-54404761D02*
X147954819Y-54690475D01*
X147954819Y-54690475D02*
X147907200Y-54785713D01*
X147907200Y-54785713D02*
X147859580Y-54833332D01*
X133804819Y-55738094D02*
X132804819Y-55738094D01*
X132804819Y-55738094D02*
X132804819Y-55499999D01*
X132804819Y-55499999D02*
X132852438Y-55357142D01*
X132852438Y-55357142D02*
X132947676Y-55261904D01*
X132947676Y-55261904D02*
X133042914Y-55214285D01*
X133042914Y-55214285D02*
X133233390Y-55166666D01*
X133233390Y-55166666D02*
X133376247Y-55166666D01*
X133376247Y-55166666D02*
X133566723Y-55214285D01*
X133566723Y-55214285D02*
X133661961Y-55261904D01*
X133661961Y-55261904D02*
X133757200Y-55357142D01*
X133757200Y-55357142D02*
X133804819Y-55499999D01*
X133804819Y-55499999D02*
X133804819Y-55738094D01*
X132900057Y-54785713D02*
X132852438Y-54738094D01*
X132852438Y-54738094D02*
X132804819Y-54642856D01*
X132804819Y-54642856D02*
X132804819Y-54404761D01*
X132804819Y-54404761D02*
X132852438Y-54309523D01*
X132852438Y-54309523D02*
X132900057Y-54261904D01*
X132900057Y-54261904D02*
X132995295Y-54214285D01*
X132995295Y-54214285D02*
X133090533Y-54214285D01*
X133090533Y-54214285D02*
X133233390Y-54261904D01*
X133233390Y-54261904D02*
X133804819Y-54833332D01*
X133804819Y-54833332D02*
X133804819Y-54214285D01*
X104996184Y-57972847D02*
X105703291Y-57265741D01*
X105703291Y-57265741D02*
X105871650Y-57434099D01*
X105871650Y-57434099D02*
X105938993Y-57568786D01*
X105938993Y-57568786D02*
X105938993Y-57703473D01*
X105938993Y-57703473D02*
X105905321Y-57804489D01*
X105905321Y-57804489D02*
X105804306Y-57972847D01*
X105804306Y-57972847D02*
X105703291Y-58073863D01*
X105703291Y-58073863D02*
X105534932Y-58174878D01*
X105534932Y-58174878D02*
X105433917Y-58208550D01*
X105433917Y-58208550D02*
X105299230Y-58208550D01*
X105299230Y-58208550D02*
X105164543Y-58141206D01*
X105164543Y-58141206D02*
X104996184Y-57972847D01*
X106073680Y-59050343D02*
X105669619Y-58646282D01*
X105871650Y-58848313D02*
X106578756Y-58141206D01*
X106578756Y-58141206D02*
X106410398Y-58174878D01*
X106410398Y-58174878D02*
X106275711Y-58174878D01*
X106275711Y-58174878D02*
X106174695Y-58141206D01*
X107386879Y-58949328D02*
X107252192Y-58814641D01*
X107252192Y-58814641D02*
X107151176Y-58780970D01*
X107151176Y-58780970D02*
X107083833Y-58780970D01*
X107083833Y-58780970D02*
X106915474Y-58814641D01*
X106915474Y-58814641D02*
X106747115Y-58915657D01*
X106747115Y-58915657D02*
X106477741Y-59185031D01*
X106477741Y-59185031D02*
X106444070Y-59286046D01*
X106444070Y-59286046D02*
X106444070Y-59353389D01*
X106444070Y-59353389D02*
X106477741Y-59454405D01*
X106477741Y-59454405D02*
X106612428Y-59589092D01*
X106612428Y-59589092D02*
X106713444Y-59622763D01*
X106713444Y-59622763D02*
X106780787Y-59622763D01*
X106780787Y-59622763D02*
X106881802Y-59589092D01*
X106881802Y-59589092D02*
X107050161Y-59420733D01*
X107050161Y-59420733D02*
X107083833Y-59319718D01*
X107083833Y-59319718D02*
X107083833Y-59252374D01*
X107083833Y-59252374D02*
X107050161Y-59151359D01*
X107050161Y-59151359D02*
X106915474Y-59016672D01*
X106915474Y-59016672D02*
X106814459Y-58983000D01*
X106814459Y-58983000D02*
X106747115Y-58983000D01*
X106747115Y-58983000D02*
X106646100Y-59016672D01*
X162980062Y-111289821D02*
X163687169Y-110582715D01*
X163687169Y-110582715D02*
X163855528Y-110751073D01*
X163855528Y-110751073D02*
X163922871Y-110885760D01*
X163922871Y-110885760D02*
X163922871Y-111020447D01*
X163922871Y-111020447D02*
X163889199Y-111121463D01*
X163889199Y-111121463D02*
X163788184Y-111289821D01*
X163788184Y-111289821D02*
X163687169Y-111390837D01*
X163687169Y-111390837D02*
X163518810Y-111491852D01*
X163518810Y-111491852D02*
X163417795Y-111525524D01*
X163417795Y-111525524D02*
X163283108Y-111525524D01*
X163283108Y-111525524D02*
X163148421Y-111458180D01*
X163148421Y-111458180D02*
X162980062Y-111289821D01*
X164192245Y-111693882D02*
X164158573Y-111592867D01*
X164158573Y-111592867D02*
X164158573Y-111525524D01*
X164158573Y-111525524D02*
X164192245Y-111424508D01*
X164192245Y-111424508D02*
X164225917Y-111390837D01*
X164225917Y-111390837D02*
X164326932Y-111357165D01*
X164326932Y-111357165D02*
X164394276Y-111357165D01*
X164394276Y-111357165D02*
X164495291Y-111390837D01*
X164495291Y-111390837D02*
X164629978Y-111525524D01*
X164629978Y-111525524D02*
X164663650Y-111626539D01*
X164663650Y-111626539D02*
X164663650Y-111693882D01*
X164663650Y-111693882D02*
X164629978Y-111794898D01*
X164629978Y-111794898D02*
X164596306Y-111828569D01*
X164596306Y-111828569D02*
X164495291Y-111862241D01*
X164495291Y-111862241D02*
X164427947Y-111862241D01*
X164427947Y-111862241D02*
X164326932Y-111828569D01*
X164326932Y-111828569D02*
X164192245Y-111693882D01*
X164192245Y-111693882D02*
X164091230Y-111660211D01*
X164091230Y-111660211D02*
X164023886Y-111660211D01*
X164023886Y-111660211D02*
X163922871Y-111693882D01*
X163922871Y-111693882D02*
X163788184Y-111828569D01*
X163788184Y-111828569D02*
X163754512Y-111929585D01*
X163754512Y-111929585D02*
X163754512Y-111996928D01*
X163754512Y-111996928D02*
X163788184Y-112097943D01*
X163788184Y-112097943D02*
X163922871Y-112232630D01*
X163922871Y-112232630D02*
X164023886Y-112266302D01*
X164023886Y-112266302D02*
X164091230Y-112266302D01*
X164091230Y-112266302D02*
X164192245Y-112232630D01*
X164192245Y-112232630D02*
X164326932Y-112097943D01*
X164326932Y-112097943D02*
X164360604Y-111996928D01*
X164360604Y-111996928D02*
X164360604Y-111929585D01*
X164360604Y-111929585D02*
X164326932Y-111828569D01*
X119654819Y-55738094D02*
X118654819Y-55738094D01*
X118654819Y-55738094D02*
X118654819Y-55499999D01*
X118654819Y-55499999D02*
X118702438Y-55357142D01*
X118702438Y-55357142D02*
X118797676Y-55261904D01*
X118797676Y-55261904D02*
X118892914Y-55214285D01*
X118892914Y-55214285D02*
X119083390Y-55166666D01*
X119083390Y-55166666D02*
X119226247Y-55166666D01*
X119226247Y-55166666D02*
X119416723Y-55214285D01*
X119416723Y-55214285D02*
X119511961Y-55261904D01*
X119511961Y-55261904D02*
X119607200Y-55357142D01*
X119607200Y-55357142D02*
X119654819Y-55499999D01*
X119654819Y-55499999D02*
X119654819Y-55738094D01*
X119654819Y-54214285D02*
X119654819Y-54785713D01*
X119654819Y-54499999D02*
X118654819Y-54499999D01*
X118654819Y-54499999D02*
X118797676Y-54595237D01*
X118797676Y-54595237D02*
X118892914Y-54690475D01*
X118892914Y-54690475D02*
X118940533Y-54785713D01*
X164261905Y-83804819D02*
X164261905Y-82804819D01*
X164261905Y-82804819D02*
X164500000Y-82804819D01*
X164500000Y-82804819D02*
X164642857Y-82852438D01*
X164642857Y-82852438D02*
X164738095Y-82947676D01*
X164738095Y-82947676D02*
X164785714Y-83042914D01*
X164785714Y-83042914D02*
X164833333Y-83233390D01*
X164833333Y-83233390D02*
X164833333Y-83376247D01*
X164833333Y-83376247D02*
X164785714Y-83566723D01*
X164785714Y-83566723D02*
X164738095Y-83661961D01*
X164738095Y-83661961D02*
X164642857Y-83757200D01*
X164642857Y-83757200D02*
X164500000Y-83804819D01*
X164500000Y-83804819D02*
X164261905Y-83804819D01*
X165690476Y-82804819D02*
X165500000Y-82804819D01*
X165500000Y-82804819D02*
X165404762Y-82852438D01*
X165404762Y-82852438D02*
X165357143Y-82900057D01*
X165357143Y-82900057D02*
X165261905Y-83042914D01*
X165261905Y-83042914D02*
X165214286Y-83233390D01*
X165214286Y-83233390D02*
X165214286Y-83614342D01*
X165214286Y-83614342D02*
X165261905Y-83709580D01*
X165261905Y-83709580D02*
X165309524Y-83757200D01*
X165309524Y-83757200D02*
X165404762Y-83804819D01*
X165404762Y-83804819D02*
X165595238Y-83804819D01*
X165595238Y-83804819D02*
X165690476Y-83757200D01*
X165690476Y-83757200D02*
X165738095Y-83709580D01*
X165738095Y-83709580D02*
X165785714Y-83614342D01*
X165785714Y-83614342D02*
X165785714Y-83376247D01*
X165785714Y-83376247D02*
X165738095Y-83281009D01*
X165738095Y-83281009D02*
X165690476Y-83233390D01*
X165690476Y-83233390D02*
X165595238Y-83185771D01*
X165595238Y-83185771D02*
X165404762Y-83185771D01*
X165404762Y-83185771D02*
X165309524Y-83233390D01*
X165309524Y-83233390D02*
X165261905Y-83281009D01*
X165261905Y-83281009D02*
X165214286Y-83376247D01*
X137104819Y-116214285D02*
X136104819Y-116214285D01*
X136104819Y-116214285D02*
X136104819Y-115976190D01*
X136104819Y-115976190D02*
X136152438Y-115833333D01*
X136152438Y-115833333D02*
X136247676Y-115738095D01*
X136247676Y-115738095D02*
X136342914Y-115690476D01*
X136342914Y-115690476D02*
X136533390Y-115642857D01*
X136533390Y-115642857D02*
X136676247Y-115642857D01*
X136676247Y-115642857D02*
X136866723Y-115690476D01*
X136866723Y-115690476D02*
X136961961Y-115738095D01*
X136961961Y-115738095D02*
X137057200Y-115833333D01*
X137057200Y-115833333D02*
X137104819Y-115976190D01*
X137104819Y-115976190D02*
X137104819Y-116214285D01*
X137104819Y-114690476D02*
X137104819Y-115261904D01*
X137104819Y-114976190D02*
X136104819Y-114976190D01*
X136104819Y-114976190D02*
X136247676Y-115071428D01*
X136247676Y-115071428D02*
X136342914Y-115166666D01*
X136342914Y-115166666D02*
X136390533Y-115261904D01*
X136104819Y-114071428D02*
X136104819Y-113976190D01*
X136104819Y-113976190D02*
X136152438Y-113880952D01*
X136152438Y-113880952D02*
X136200057Y-113833333D01*
X136200057Y-113833333D02*
X136295295Y-113785714D01*
X136295295Y-113785714D02*
X136485771Y-113738095D01*
X136485771Y-113738095D02*
X136723866Y-113738095D01*
X136723866Y-113738095D02*
X136914342Y-113785714D01*
X136914342Y-113785714D02*
X137009580Y-113833333D01*
X137009580Y-113833333D02*
X137057200Y-113880952D01*
X137057200Y-113880952D02*
X137104819Y-113976190D01*
X137104819Y-113976190D02*
X137104819Y-114071428D01*
X137104819Y-114071428D02*
X137057200Y-114166666D01*
X137057200Y-114166666D02*
X137009580Y-114214285D01*
X137009580Y-114214285D02*
X136914342Y-114261904D01*
X136914342Y-114261904D02*
X136723866Y-114309523D01*
X136723866Y-114309523D02*
X136485771Y-114309523D01*
X136485771Y-114309523D02*
X136295295Y-114261904D01*
X136295295Y-114261904D02*
X136200057Y-114214285D01*
X136200057Y-114214285D02*
X136152438Y-114166666D01*
X136152438Y-114166666D02*
X136104819Y-114071428D01*
X103785714Y-101254819D02*
X103785714Y-100254819D01*
X103785714Y-100254819D02*
X104023809Y-100254819D01*
X104023809Y-100254819D02*
X104166666Y-100302438D01*
X104166666Y-100302438D02*
X104261904Y-100397676D01*
X104261904Y-100397676D02*
X104309523Y-100492914D01*
X104309523Y-100492914D02*
X104357142Y-100683390D01*
X104357142Y-100683390D02*
X104357142Y-100826247D01*
X104357142Y-100826247D02*
X104309523Y-101016723D01*
X104309523Y-101016723D02*
X104261904Y-101111961D01*
X104261904Y-101111961D02*
X104166666Y-101207200D01*
X104166666Y-101207200D02*
X104023809Y-101254819D01*
X104023809Y-101254819D02*
X103785714Y-101254819D01*
X105309523Y-101254819D02*
X104738095Y-101254819D01*
X105023809Y-101254819D02*
X105023809Y-100254819D01*
X105023809Y-100254819D02*
X104928571Y-100397676D01*
X104928571Y-100397676D02*
X104833333Y-100492914D01*
X104833333Y-100492914D02*
X104738095Y-100540533D01*
X105642857Y-100254819D02*
X106261904Y-100254819D01*
X106261904Y-100254819D02*
X105928571Y-100635771D01*
X105928571Y-100635771D02*
X106071428Y-100635771D01*
X106071428Y-100635771D02*
X106166666Y-100683390D01*
X106166666Y-100683390D02*
X106214285Y-100731009D01*
X106214285Y-100731009D02*
X106261904Y-100826247D01*
X106261904Y-100826247D02*
X106261904Y-101064342D01*
X106261904Y-101064342D02*
X106214285Y-101159580D01*
X106214285Y-101159580D02*
X106166666Y-101207200D01*
X106166666Y-101207200D02*
X106071428Y-101254819D01*
X106071428Y-101254819D02*
X105785714Y-101254819D01*
X105785714Y-101254819D02*
X105690476Y-101207200D01*
X105690476Y-101207200D02*
X105642857Y-101159580D01*
D11*
G04 #@! TO.C,D9*
X150110000Y-113140000D02*
X148190000Y-113140000D01*
X150110000Y-116000000D02*
X150110000Y-113140000D01*
X148190000Y-113140000D02*
X148190000Y-116000000D01*
G04 #@! TO.C,D7*
X163140000Y-100110000D02*
X166000000Y-100110000D01*
X163140000Y-98190000D02*
X163140000Y-100110000D01*
X166000000Y-98190000D02*
X163140000Y-98190000D01*
G04 #@! TO.C,D14*
X106860000Y-84040000D02*
X104000000Y-84040000D01*
X106860000Y-85960000D02*
X106860000Y-84040000D01*
X104000000Y-85960000D02*
X106860000Y-85960000D01*
G04 #@! TO.C,D4*
X160662813Y-57979542D02*
X162020458Y-59337187D01*
X162020458Y-59337187D02*
X164042783Y-57314862D01*
X162685138Y-55957217D02*
X160662813Y-57979542D01*
G04 #@! TO.C,D5*
X163140000Y-69890000D02*
X163140000Y-71810000D01*
X166000000Y-69890000D02*
X163140000Y-69890000D01*
X163140000Y-71810000D02*
X166000000Y-71810000D01*
G04 #@! TO.C,D12*
X107979542Y-110662813D02*
X105957217Y-112685138D01*
X107314862Y-114042783D02*
X109337187Y-112020458D01*
X109337187Y-112020458D02*
X107979542Y-110662813D01*
G04 #@! TO.C,R1*
X134227064Y-58735000D02*
X133772936Y-58735000D01*
X134227064Y-57265000D02*
X133772936Y-57265000D01*
G04 #@! TO.C,D15*
X106860000Y-69890000D02*
X104000000Y-69890000D01*
X104000000Y-71810000D02*
X106860000Y-71810000D01*
X106860000Y-71810000D02*
X106860000Y-69890000D01*
G04 #@! TO.C,D11*
X119890000Y-113140000D02*
X119890000Y-116000000D01*
X121810000Y-113140000D02*
X119890000Y-113140000D01*
X121810000Y-116000000D02*
X121810000Y-113140000D01*
G04 #@! TO.C,D3*
X150110000Y-56860000D02*
X150110000Y-54000000D01*
X148190000Y-54000000D02*
X148190000Y-56860000D01*
X148190000Y-56860000D02*
X150110000Y-56860000D01*
G04 #@! TO.C,D2*
X135960000Y-56860000D02*
X135960000Y-54000000D01*
X134040000Y-56860000D02*
X135960000Y-56860000D01*
X134040000Y-54000000D02*
X134040000Y-56860000D01*
G04 #@! TO.C,D16*
X107979542Y-59337187D02*
X109337187Y-57979542D01*
X109337187Y-57979542D02*
X107314862Y-55957217D01*
X105957217Y-57314862D02*
X107979542Y-59337187D01*
G04 #@! TO.C,D8*
X162020458Y-110662813D02*
X160662813Y-112020458D01*
X164042783Y-112685138D02*
X162020458Y-110662813D01*
X160662813Y-112020458D02*
X162685138Y-114042783D01*
G04 #@! TO.C,D1*
X119890000Y-56860000D02*
X121810000Y-56860000D01*
X119890000Y-54000000D02*
X119890000Y-56860000D01*
X121810000Y-56860000D02*
X121810000Y-54000000D01*
G04 #@! TO.C,D6*
X163140000Y-85960000D02*
X166000000Y-85960000D01*
X166000000Y-84040000D02*
X163140000Y-84040000D01*
X163140000Y-84040000D02*
X163140000Y-85960000D01*
G04 #@! TO.C,D10*
X135960000Y-116000000D02*
X135960000Y-113140000D01*
X135960000Y-113140000D02*
X134040000Y-113140000D01*
X134040000Y-113140000D02*
X134040000Y-116000000D01*
G04 #@! TO.C,D13*
X106860000Y-98190000D02*
X104000000Y-98190000D01*
X104000000Y-100110000D02*
X106860000Y-100110000D01*
X106860000Y-100110000D02*
X106860000Y-98190000D01*
G04 #@! TD*
M02*
