G04 #@! TF.GenerationSoftware,KiCad,Pcbnew,7.0.7-2.fc38*
G04 #@! TF.CreationDate,2023-10-09T12:23:23+01:00*
G04 #@! TF.ProjectId,Light_PCB,4c696768-745f-4504-9342-2e6b69636164,rev?*
G04 #@! TF.SameCoordinates,Original*
G04 #@! TF.FileFunction,Legend,Bot*
G04 #@! TF.FilePolarity,Positive*
%FSLAX46Y46*%
G04 Gerber Fmt 4.6, Leading zero omitted, Abs format (unit mm)*
G04 Created by KiCad (PCBNEW 7.0.7-2.fc38) date 2023-10-09 12:23:23*
%MOMM*%
%LPD*%
G01*
G04 APERTURE LIST*
%ADD10C,0.150000*%
%ADD11C,0.120000*%
G04 APERTURE END LIST*
D10*
X135599523Y-65647557D02*
X135675713Y-65576128D01*
X135675713Y-65576128D02*
X135789999Y-65576128D01*
X135789999Y-65576128D02*
X135904285Y-65647557D01*
X135904285Y-65647557D02*
X135980475Y-65790414D01*
X135980475Y-65790414D02*
X136018570Y-65933271D01*
X136018570Y-65933271D02*
X136056666Y-66218985D01*
X136056666Y-66218985D02*
X136056666Y-66433271D01*
X136056666Y-66433271D02*
X136018570Y-66718985D01*
X136018570Y-66718985D02*
X135980475Y-66861842D01*
X135980475Y-66861842D02*
X135904285Y-67004700D01*
X135904285Y-67004700D02*
X135789999Y-67076128D01*
X135789999Y-67076128D02*
X135713808Y-67076128D01*
X135713808Y-67076128D02*
X135599523Y-67004700D01*
X135599523Y-67004700D02*
X135561427Y-66933271D01*
X135561427Y-66933271D02*
X135561427Y-66433271D01*
X135561427Y-66433271D02*
X135713808Y-66433271D01*
X135218570Y-67076128D02*
X135218570Y-65576128D01*
X135218570Y-65576128D02*
X134761427Y-67076128D01*
X134761427Y-67076128D02*
X134761427Y-65576128D01*
X134380475Y-67076128D02*
X134380475Y-65576128D01*
X134380475Y-65576128D02*
X134189999Y-65576128D01*
X134189999Y-65576128D02*
X134075713Y-65647557D01*
X134075713Y-65647557D02*
X133999523Y-65790414D01*
X133999523Y-65790414D02*
X133961428Y-65933271D01*
X133961428Y-65933271D02*
X133923332Y-66218985D01*
X133923332Y-66218985D02*
X133923332Y-66433271D01*
X133923332Y-66433271D02*
X133961428Y-66718985D01*
X133961428Y-66718985D02*
X133999523Y-66861842D01*
X133999523Y-66861842D02*
X134075713Y-67004700D01*
X134075713Y-67004700D02*
X134189999Y-67076128D01*
X134189999Y-67076128D02*
X134380475Y-67076128D01*
X152964284Y-84594700D02*
X152749999Y-84666128D01*
X152749999Y-84666128D02*
X152392856Y-84666128D01*
X152392856Y-84666128D02*
X152249999Y-84594700D01*
X152249999Y-84594700D02*
X152178570Y-84523271D01*
X152178570Y-84523271D02*
X152107141Y-84380414D01*
X152107141Y-84380414D02*
X152107141Y-84237557D01*
X152107141Y-84237557D02*
X152178570Y-84094700D01*
X152178570Y-84094700D02*
X152249999Y-84023271D01*
X152249999Y-84023271D02*
X152392856Y-83951842D01*
X152392856Y-83951842D02*
X152678570Y-83880414D01*
X152678570Y-83880414D02*
X152821427Y-83808985D01*
X152821427Y-83808985D02*
X152892856Y-83737557D01*
X152892856Y-83737557D02*
X152964284Y-83594700D01*
X152964284Y-83594700D02*
X152964284Y-83451842D01*
X152964284Y-83451842D02*
X152892856Y-83308985D01*
X152892856Y-83308985D02*
X152821427Y-83237557D01*
X152821427Y-83237557D02*
X152678570Y-83166128D01*
X152678570Y-83166128D02*
X152321427Y-83166128D01*
X152321427Y-83166128D02*
X152107141Y-83237557D01*
X150821428Y-83666128D02*
X150821428Y-84666128D01*
X151464285Y-83666128D02*
X151464285Y-84451842D01*
X151464285Y-84451842D02*
X151392856Y-84594700D01*
X151392856Y-84594700D02*
X151249999Y-84666128D01*
X151249999Y-84666128D02*
X151035713Y-84666128D01*
X151035713Y-84666128D02*
X150892856Y-84594700D01*
X150892856Y-84594700D02*
X150821428Y-84523271D01*
X150107142Y-83666128D02*
X150107142Y-84666128D01*
X150107142Y-83808985D02*
X150035713Y-83737557D01*
X150035713Y-83737557D02*
X149892856Y-83666128D01*
X149892856Y-83666128D02*
X149678570Y-83666128D01*
X149678570Y-83666128D02*
X149535713Y-83737557D01*
X149535713Y-83737557D02*
X149464285Y-83880414D01*
X149464285Y-83880414D02*
X149464285Y-84666128D01*
X148749999Y-84666128D02*
X148749999Y-83666128D01*
X148749999Y-83951842D02*
X148678570Y-83808985D01*
X148678570Y-83808985D02*
X148607142Y-83737557D01*
X148607142Y-83737557D02*
X148464284Y-83666128D01*
X148464284Y-83666128D02*
X148321427Y-83666128D01*
X147821428Y-84666128D02*
X147821428Y-83666128D01*
X147821428Y-83166128D02*
X147892856Y-83237557D01*
X147892856Y-83237557D02*
X147821428Y-83308985D01*
X147821428Y-83308985D02*
X147749999Y-83237557D01*
X147749999Y-83237557D02*
X147821428Y-83166128D01*
X147821428Y-83166128D02*
X147821428Y-83308985D01*
X147178570Y-84594700D02*
X147035713Y-84666128D01*
X147035713Y-84666128D02*
X146749999Y-84666128D01*
X146749999Y-84666128D02*
X146607142Y-84594700D01*
X146607142Y-84594700D02*
X146535713Y-84451842D01*
X146535713Y-84451842D02*
X146535713Y-84380414D01*
X146535713Y-84380414D02*
X146607142Y-84237557D01*
X146607142Y-84237557D02*
X146749999Y-84166128D01*
X146749999Y-84166128D02*
X146964285Y-84166128D01*
X146964285Y-84166128D02*
X147107142Y-84094700D01*
X147107142Y-84094700D02*
X147178570Y-83951842D01*
X147178570Y-83951842D02*
X147178570Y-83880414D01*
X147178570Y-83880414D02*
X147107142Y-83737557D01*
X147107142Y-83737557D02*
X146964285Y-83666128D01*
X146964285Y-83666128D02*
X146749999Y-83666128D01*
X146749999Y-83666128D02*
X146607142Y-83737557D01*
X145321427Y-84594700D02*
X145464284Y-84666128D01*
X145464284Y-84666128D02*
X145749999Y-84666128D01*
X145749999Y-84666128D02*
X145892856Y-84594700D01*
X145892856Y-84594700D02*
X145964284Y-84451842D01*
X145964284Y-84451842D02*
X145964284Y-83880414D01*
X145964284Y-83880414D02*
X145892856Y-83737557D01*
X145892856Y-83737557D02*
X145749999Y-83666128D01*
X145749999Y-83666128D02*
X145464284Y-83666128D01*
X145464284Y-83666128D02*
X145321427Y-83737557D01*
X145321427Y-83737557D02*
X145249999Y-83880414D01*
X145249999Y-83880414D02*
X145249999Y-84023271D01*
X145249999Y-84023271D02*
X145964284Y-84166128D01*
X143535713Y-84237557D02*
X142821428Y-84237557D01*
X143678570Y-84666128D02*
X143178570Y-83166128D01*
X143178570Y-83166128D02*
X142678570Y-84666128D01*
X141964285Y-84666128D02*
X142107142Y-84594700D01*
X142107142Y-84594700D02*
X142178571Y-84451842D01*
X142178571Y-84451842D02*
X142178571Y-83166128D01*
X140750000Y-84666128D02*
X140750000Y-83880414D01*
X140750000Y-83880414D02*
X140821428Y-83737557D01*
X140821428Y-83737557D02*
X140964285Y-83666128D01*
X140964285Y-83666128D02*
X141250000Y-83666128D01*
X141250000Y-83666128D02*
X141392857Y-83737557D01*
X140750000Y-84594700D02*
X140892857Y-84666128D01*
X140892857Y-84666128D02*
X141250000Y-84666128D01*
X141250000Y-84666128D02*
X141392857Y-84594700D01*
X141392857Y-84594700D02*
X141464285Y-84451842D01*
X141464285Y-84451842D02*
X141464285Y-84308985D01*
X141464285Y-84308985D02*
X141392857Y-84166128D01*
X141392857Y-84166128D02*
X141250000Y-84094700D01*
X141250000Y-84094700D02*
X140892857Y-84094700D01*
X140892857Y-84094700D02*
X140750000Y-84023271D01*
X140035714Y-84666128D02*
X140035714Y-83666128D01*
X140035714Y-83951842D02*
X139964285Y-83808985D01*
X139964285Y-83808985D02*
X139892857Y-83737557D01*
X139892857Y-83737557D02*
X139749999Y-83666128D01*
X139749999Y-83666128D02*
X139607142Y-83666128D01*
X139107143Y-84666128D02*
X139107143Y-83666128D01*
X139107143Y-83808985D02*
X139035714Y-83737557D01*
X139035714Y-83737557D02*
X138892857Y-83666128D01*
X138892857Y-83666128D02*
X138678571Y-83666128D01*
X138678571Y-83666128D02*
X138535714Y-83737557D01*
X138535714Y-83737557D02*
X138464286Y-83880414D01*
X138464286Y-83880414D02*
X138464286Y-84666128D01*
X138464286Y-83880414D02*
X138392857Y-83737557D01*
X138392857Y-83737557D02*
X138250000Y-83666128D01*
X138250000Y-83666128D02*
X138035714Y-83666128D01*
X138035714Y-83666128D02*
X137892857Y-83737557D01*
X137892857Y-83737557D02*
X137821428Y-83880414D01*
X137821428Y-83880414D02*
X137821428Y-84666128D01*
X136178571Y-83166128D02*
X135678571Y-84666128D01*
X135678571Y-84666128D02*
X135178571Y-83166128D01*
X134821429Y-83166128D02*
X133892857Y-83166128D01*
X133892857Y-83166128D02*
X134392857Y-83737557D01*
X134392857Y-83737557D02*
X134178572Y-83737557D01*
X134178572Y-83737557D02*
X134035715Y-83808985D01*
X134035715Y-83808985D02*
X133964286Y-83880414D01*
X133964286Y-83880414D02*
X133892857Y-84023271D01*
X133892857Y-84023271D02*
X133892857Y-84380414D01*
X133892857Y-84380414D02*
X133964286Y-84523271D01*
X133964286Y-84523271D02*
X134035715Y-84594700D01*
X134035715Y-84594700D02*
X134178572Y-84666128D01*
X134178572Y-84666128D02*
X134607143Y-84666128D01*
X134607143Y-84666128D02*
X134750000Y-84594700D01*
X134750000Y-84594700D02*
X134821429Y-84523271D01*
X133250001Y-84523271D02*
X133178572Y-84594700D01*
X133178572Y-84594700D02*
X133250001Y-84666128D01*
X133250001Y-84666128D02*
X133321429Y-84594700D01*
X133321429Y-84594700D02*
X133250001Y-84523271D01*
X133250001Y-84523271D02*
X133250001Y-84666128D01*
X133250001Y-83737557D02*
X133178572Y-83808985D01*
X133178572Y-83808985D02*
X133250001Y-83880414D01*
X133250001Y-83880414D02*
X133321429Y-83808985D01*
X133321429Y-83808985D02*
X133250001Y-83737557D01*
X133250001Y-83737557D02*
X133250001Y-83880414D01*
X130678572Y-84666128D02*
X131392858Y-84666128D01*
X131392858Y-84666128D02*
X131392858Y-83166128D01*
X130178572Y-84666128D02*
X130178572Y-83666128D01*
X130178572Y-83166128D02*
X130250000Y-83237557D01*
X130250000Y-83237557D02*
X130178572Y-83308985D01*
X130178572Y-83308985D02*
X130107143Y-83237557D01*
X130107143Y-83237557D02*
X130178572Y-83166128D01*
X130178572Y-83166128D02*
X130178572Y-83308985D01*
X128821429Y-83666128D02*
X128821429Y-84880414D01*
X128821429Y-84880414D02*
X128892857Y-85023271D01*
X128892857Y-85023271D02*
X128964286Y-85094700D01*
X128964286Y-85094700D02*
X129107143Y-85166128D01*
X129107143Y-85166128D02*
X129321429Y-85166128D01*
X129321429Y-85166128D02*
X129464286Y-85094700D01*
X128821429Y-84594700D02*
X128964286Y-84666128D01*
X128964286Y-84666128D02*
X129250000Y-84666128D01*
X129250000Y-84666128D02*
X129392857Y-84594700D01*
X129392857Y-84594700D02*
X129464286Y-84523271D01*
X129464286Y-84523271D02*
X129535714Y-84380414D01*
X129535714Y-84380414D02*
X129535714Y-83951842D01*
X129535714Y-83951842D02*
X129464286Y-83808985D01*
X129464286Y-83808985D02*
X129392857Y-83737557D01*
X129392857Y-83737557D02*
X129250000Y-83666128D01*
X129250000Y-83666128D02*
X128964286Y-83666128D01*
X128964286Y-83666128D02*
X128821429Y-83737557D01*
X128107143Y-84666128D02*
X128107143Y-83166128D01*
X127464286Y-84666128D02*
X127464286Y-83880414D01*
X127464286Y-83880414D02*
X127535714Y-83737557D01*
X127535714Y-83737557D02*
X127678571Y-83666128D01*
X127678571Y-83666128D02*
X127892857Y-83666128D01*
X127892857Y-83666128D02*
X128035714Y-83737557D01*
X128035714Y-83737557D02*
X128107143Y-83808985D01*
X126964285Y-83666128D02*
X126392857Y-83666128D01*
X126750000Y-83166128D02*
X126750000Y-84451842D01*
X126750000Y-84451842D02*
X126678571Y-84594700D01*
X126678571Y-84594700D02*
X126535714Y-84666128D01*
X126535714Y-84666128D02*
X126392857Y-84666128D01*
X124750000Y-84666128D02*
X124750000Y-83166128D01*
X124750000Y-83166128D02*
X124178571Y-83166128D01*
X124178571Y-83166128D02*
X124035714Y-83237557D01*
X124035714Y-83237557D02*
X123964285Y-83308985D01*
X123964285Y-83308985D02*
X123892857Y-83451842D01*
X123892857Y-83451842D02*
X123892857Y-83666128D01*
X123892857Y-83666128D02*
X123964285Y-83808985D01*
X123964285Y-83808985D02*
X124035714Y-83880414D01*
X124035714Y-83880414D02*
X124178571Y-83951842D01*
X124178571Y-83951842D02*
X124750000Y-83951842D01*
X122392857Y-84523271D02*
X122464285Y-84594700D01*
X122464285Y-84594700D02*
X122678571Y-84666128D01*
X122678571Y-84666128D02*
X122821428Y-84666128D01*
X122821428Y-84666128D02*
X123035714Y-84594700D01*
X123035714Y-84594700D02*
X123178571Y-84451842D01*
X123178571Y-84451842D02*
X123250000Y-84308985D01*
X123250000Y-84308985D02*
X123321428Y-84023271D01*
X123321428Y-84023271D02*
X123321428Y-83808985D01*
X123321428Y-83808985D02*
X123250000Y-83523271D01*
X123250000Y-83523271D02*
X123178571Y-83380414D01*
X123178571Y-83380414D02*
X123035714Y-83237557D01*
X123035714Y-83237557D02*
X122821428Y-83166128D01*
X122821428Y-83166128D02*
X122678571Y-83166128D01*
X122678571Y-83166128D02*
X122464285Y-83237557D01*
X122464285Y-83237557D02*
X122392857Y-83308985D01*
X121250000Y-83880414D02*
X121035714Y-83951842D01*
X121035714Y-83951842D02*
X120964285Y-84023271D01*
X120964285Y-84023271D02*
X120892857Y-84166128D01*
X120892857Y-84166128D02*
X120892857Y-84380414D01*
X120892857Y-84380414D02*
X120964285Y-84523271D01*
X120964285Y-84523271D02*
X121035714Y-84594700D01*
X121035714Y-84594700D02*
X121178571Y-84666128D01*
X121178571Y-84666128D02*
X121750000Y-84666128D01*
X121750000Y-84666128D02*
X121750000Y-83166128D01*
X121750000Y-83166128D02*
X121250000Y-83166128D01*
X121250000Y-83166128D02*
X121107143Y-83237557D01*
X121107143Y-83237557D02*
X121035714Y-83308985D01*
X121035714Y-83308985D02*
X120964285Y-83451842D01*
X120964285Y-83451842D02*
X120964285Y-83594700D01*
X120964285Y-83594700D02*
X121035714Y-83737557D01*
X121035714Y-83737557D02*
X121107143Y-83808985D01*
X121107143Y-83808985D02*
X121250000Y-83880414D01*
X121250000Y-83880414D02*
X121750000Y-83880414D01*
X119321428Y-83166128D02*
X118821428Y-84666128D01*
X118821428Y-84666128D02*
X118321428Y-83166128D01*
X117035714Y-84666128D02*
X117892857Y-84666128D01*
X117464286Y-84666128D02*
X117464286Y-83166128D01*
X117464286Y-83166128D02*
X117607143Y-83380414D01*
X117607143Y-83380414D02*
X117750000Y-83523271D01*
X117750000Y-83523271D02*
X117892857Y-83594700D01*
X138596666Y-65586128D02*
X138329999Y-67086128D01*
X138329999Y-67086128D02*
X138063333Y-65586128D01*
X137339523Y-66943271D02*
X137377619Y-67014700D01*
X137377619Y-67014700D02*
X137491904Y-67086128D01*
X137491904Y-67086128D02*
X137568095Y-67086128D01*
X137568095Y-67086128D02*
X137682381Y-67014700D01*
X137682381Y-67014700D02*
X137758571Y-66871842D01*
X137758571Y-66871842D02*
X137796666Y-66728985D01*
X137796666Y-66728985D02*
X137834762Y-66443271D01*
X137834762Y-66443271D02*
X137834762Y-66228985D01*
X137834762Y-66228985D02*
X137796666Y-65943271D01*
X137796666Y-65943271D02*
X137758571Y-65800414D01*
X137758571Y-65800414D02*
X137682381Y-65657557D01*
X137682381Y-65657557D02*
X137568095Y-65586128D01*
X137568095Y-65586128D02*
X137491904Y-65586128D01*
X137491904Y-65586128D02*
X137377619Y-65657557D01*
X137377619Y-65657557D02*
X137339523Y-65728985D01*
X136539523Y-66943271D02*
X136577619Y-67014700D01*
X136577619Y-67014700D02*
X136691904Y-67086128D01*
X136691904Y-67086128D02*
X136768095Y-67086128D01*
X136768095Y-67086128D02*
X136882381Y-67014700D01*
X136882381Y-67014700D02*
X136958571Y-66871842D01*
X136958571Y-66871842D02*
X136996666Y-66728985D01*
X136996666Y-66728985D02*
X137034762Y-66443271D01*
X137034762Y-66443271D02*
X137034762Y-66228985D01*
X137034762Y-66228985D02*
X136996666Y-65943271D01*
X136996666Y-65943271D02*
X136958571Y-65800414D01*
X136958571Y-65800414D02*
X136882381Y-65657557D01*
X136882381Y-65657557D02*
X136768095Y-65586128D01*
X136768095Y-65586128D02*
X136691904Y-65586128D01*
X136691904Y-65586128D02*
X136577619Y-65657557D01*
X136577619Y-65657557D02*
X136539523Y-65728985D01*
X132849046Y-67066128D02*
X132849046Y-65566128D01*
X132468094Y-67066128D02*
X132468094Y-65566128D01*
X132468094Y-65566128D02*
X132010951Y-67066128D01*
X132010951Y-67066128D02*
X132010951Y-65566128D01*
X137550057Y-59904761D02*
X137502438Y-59809523D01*
X137502438Y-59809523D02*
X137407200Y-59714285D01*
X137407200Y-59714285D02*
X137264342Y-59571428D01*
X137264342Y-59571428D02*
X137216723Y-59476190D01*
X137216723Y-59476190D02*
X137216723Y-59380952D01*
X137454819Y-59428571D02*
X137407200Y-59333333D01*
X137407200Y-59333333D02*
X137311961Y-59238095D01*
X137311961Y-59238095D02*
X137121485Y-59190476D01*
X137121485Y-59190476D02*
X136788152Y-59190476D01*
X136788152Y-59190476D02*
X136597676Y-59238095D01*
X136597676Y-59238095D02*
X136502438Y-59333333D01*
X136502438Y-59333333D02*
X136454819Y-59428571D01*
X136454819Y-59428571D02*
X136454819Y-59619047D01*
X136454819Y-59619047D02*
X136502438Y-59714285D01*
X136502438Y-59714285D02*
X136597676Y-59809523D01*
X136597676Y-59809523D02*
X136788152Y-59857142D01*
X136788152Y-59857142D02*
X137121485Y-59857142D01*
X137121485Y-59857142D02*
X137311961Y-59809523D01*
X137311961Y-59809523D02*
X137407200Y-59714285D01*
X137407200Y-59714285D02*
X137454819Y-59619047D01*
X137454819Y-59619047D02*
X137454819Y-59428571D01*
X137454819Y-60809523D02*
X137454819Y-60238095D01*
X137454819Y-60523809D02*
X136454819Y-60523809D01*
X136454819Y-60523809D02*
X136597676Y-60428571D01*
X136597676Y-60428571D02*
X136692914Y-60333333D01*
X136692914Y-60333333D02*
X136740533Y-60238095D01*
X139749819Y-63641666D02*
X140464104Y-63641666D01*
X140464104Y-63641666D02*
X140606961Y-63594047D01*
X140606961Y-63594047D02*
X140702200Y-63498809D01*
X140702200Y-63498809D02*
X140749819Y-63355952D01*
X140749819Y-63355952D02*
X140749819Y-63260714D01*
X140749819Y-64641666D02*
X140749819Y-64070238D01*
X140749819Y-64355952D02*
X139749819Y-64355952D01*
X139749819Y-64355952D02*
X139892676Y-64260714D01*
X139892676Y-64260714D02*
X139987914Y-64165476D01*
X139987914Y-64165476D02*
X140035533Y-64070238D01*
D11*
G04 #@! TO.C,Q1*
X135530000Y-61850000D02*
X131930000Y-61850000D01*
X133730000Y-57400000D02*
G75*
G03*
X131891522Y-61838478I0J-2600000D01*
G01*
X135568478Y-61838478D02*
G75*
G03*
X133730000Y-57400000I-1838478J1838478D01*
G01*
G04 #@! TO.C,J1*
X138855000Y-62645000D02*
X137525000Y-62645000D01*
X131115000Y-65305000D02*
X131115000Y-62645000D01*
X138855000Y-63975000D02*
X138855000Y-62645000D01*
X136255000Y-65305000D02*
X136255000Y-62645000D01*
X136255000Y-65305000D02*
X131115000Y-65305000D01*
X136255000Y-62645000D02*
X131115000Y-62645000D01*
G04 #@! TD*
M02*
