G04 #@! TF.GenerationSoftware,KiCad,Pcbnew,7.0.7-2.fc38*
G04 #@! TF.CreationDate,2023-10-09T12:18:05+01:00*
G04 #@! TF.ProjectId,Button_PCB,42757474-6f6e-45f5-9043-422e6b696361,rev?*
G04 #@! TF.SameCoordinates,Original*
G04 #@! TF.FileFunction,Copper,L2,Bot*
G04 #@! TF.FilePolarity,Positive*
%FSLAX46Y46*%
G04 Gerber Fmt 4.6, Leading zero omitted, Abs format (unit mm)*
G04 Created by KiCad (PCBNEW 7.0.7-2.fc38) date 2023-10-09 12:18:05*
%MOMM*%
%LPD*%
G01*
G04 APERTURE LIST*
G04 #@! TA.AperFunction,ComponentPad*
%ADD10C,1.524000*%
G04 #@! TD*
G04 #@! TA.AperFunction,ComponentPad*
%ADD11R,1.700000X1.700000*%
G04 #@! TD*
G04 #@! TA.AperFunction,ComponentPad*
%ADD12O,1.700000X1.700000*%
G04 #@! TD*
G04 APERTURE END LIST*
D10*
G04 #@! TO.P,J4,1,Pin_1*
G04 #@! TO.N,GND*
X113160000Y-73840000D03*
G04 #@! TO.P,J4,2,Pin_2*
G04 #@! TO.N,LEFT_BUT*
X115700000Y-73840000D03*
G04 #@! TO.P,J4,3,Pin_3*
G04 #@! TO.N,VCC*
X118240000Y-73840000D03*
G04 #@! TD*
G04 #@! TO.P,J2,1,Pin_1*
G04 #@! TO.N,GND*
X139760000Y-73840000D03*
G04 #@! TO.P,J2,2,Pin_2*
G04 #@! TO.N,RIGHT_BUT*
X142300000Y-73840000D03*
G04 #@! TO.P,J2,3,Pin_3*
G04 #@! TO.N,VCC*
X144840000Y-73840000D03*
G04 #@! TD*
G04 #@! TO.P,J3,1,Pin_1*
G04 #@! TO.N,GND*
X126460000Y-73840000D03*
G04 #@! TO.P,J3,2,Pin_2*
G04 #@! TO.N,MIDDLE_BUT*
X129000000Y-73840000D03*
G04 #@! TO.P,J3,3,Pin_3*
G04 #@! TO.N,VCC*
X131540000Y-73840000D03*
G04 #@! TD*
D11*
G04 #@! TO.P,J1,1,Pin_1*
G04 #@! TO.N,VCC*
X134075000Y-68400000D03*
D12*
G04 #@! TO.P,J1,2,Pin_2*
G04 #@! TO.N,GND*
X131535000Y-68400000D03*
G04 #@! TO.P,J1,3,Pin_3*
G04 #@! TO.N,RIGHT_BUT*
X128995000Y-68400000D03*
G04 #@! TO.P,J1,4,Pin_4*
G04 #@! TO.N,MIDDLE_BUT*
X126455000Y-68400000D03*
G04 #@! TO.P,J1,5,Pin_5*
G04 #@! TO.N,LEFT_BUT*
X123915000Y-68400000D03*
G04 #@! TD*
G04 #@! TA.AperFunction,Conductor*
G04 #@! TO.N,GND*
G36*
X147551737Y-66250598D02*
G01*
X147582860Y-66252345D01*
X147665648Y-66256994D01*
X147856320Y-66268528D01*
X147862924Y-66269287D01*
X148005028Y-66293432D01*
X148166232Y-66322974D01*
X148172177Y-66324370D01*
X148316117Y-66365839D01*
X148467702Y-66413075D01*
X148472924Y-66414966D01*
X148598912Y-66467153D01*
X148613571Y-66473225D01*
X148756581Y-66537588D01*
X148761115Y-66539857D01*
X148895519Y-66614139D01*
X149029066Y-66694871D01*
X149032837Y-66697344D01*
X149157558Y-66785838D01*
X149159917Y-66787598D01*
X149281392Y-66882767D01*
X149284469Y-66885343D01*
X149398681Y-66987408D01*
X149401208Y-66989798D01*
X149510200Y-67098790D01*
X149512590Y-67101317D01*
X149614655Y-67215529D01*
X149617231Y-67218606D01*
X149712400Y-67340081D01*
X149714160Y-67342440D01*
X149728471Y-67362609D01*
X149783948Y-67440797D01*
X149802641Y-67467141D01*
X149805136Y-67470946D01*
X149885861Y-67604481D01*
X149960138Y-67738877D01*
X149962413Y-67743424D01*
X150026774Y-67886428D01*
X150085025Y-68027057D01*
X150086938Y-68032341D01*
X150134163Y-68183892D01*
X150175621Y-68327795D01*
X150177029Y-68333786D01*
X150206567Y-68494968D01*
X150230708Y-68637056D01*
X150231472Y-68643703D01*
X150243014Y-68834514D01*
X150249402Y-68948263D01*
X150249500Y-68951741D01*
X150249500Y-90398258D01*
X150249402Y-90401736D01*
X150243014Y-90515485D01*
X150231472Y-90706295D01*
X150230708Y-90712942D01*
X150206567Y-90855031D01*
X150177029Y-91016212D01*
X150175621Y-91022203D01*
X150134163Y-91166107D01*
X150086938Y-91317657D01*
X150085025Y-91322941D01*
X150026774Y-91463571D01*
X149962413Y-91606574D01*
X149960139Y-91611121D01*
X149885861Y-91745518D01*
X149805136Y-91879053D01*
X149802641Y-91882857D01*
X149714160Y-92007558D01*
X149712400Y-92009917D01*
X149617231Y-92131392D01*
X149614655Y-92134469D01*
X149512590Y-92248681D01*
X149510200Y-92251208D01*
X149401208Y-92360200D01*
X149398681Y-92362590D01*
X149284469Y-92464655D01*
X149281392Y-92467231D01*
X149159917Y-92562400D01*
X149157558Y-92564160D01*
X149032857Y-92652641D01*
X149029053Y-92655136D01*
X148895518Y-92735861D01*
X148761121Y-92810139D01*
X148756574Y-92812413D01*
X148613571Y-92876774D01*
X148472941Y-92935025D01*
X148467657Y-92936938D01*
X148316107Y-92984163D01*
X148172203Y-93025621D01*
X148166212Y-93027029D01*
X148005031Y-93056567D01*
X147862942Y-93080708D01*
X147856295Y-93081472D01*
X147665485Y-93093014D01*
X147551736Y-93099402D01*
X147548258Y-93099500D01*
X110451742Y-93099500D01*
X110448264Y-93099402D01*
X110334514Y-93093014D01*
X110143703Y-93081472D01*
X110137056Y-93080708D01*
X109994968Y-93056567D01*
X109833786Y-93027029D01*
X109827795Y-93025621D01*
X109683892Y-92984163D01*
X109532341Y-92936938D01*
X109527057Y-92935025D01*
X109386428Y-92876774D01*
X109243424Y-92812413D01*
X109238877Y-92810138D01*
X109104481Y-92735861D01*
X108970946Y-92655136D01*
X108967149Y-92652646D01*
X108896519Y-92602532D01*
X108842440Y-92564160D01*
X108840081Y-92562400D01*
X108718606Y-92467231D01*
X108715529Y-92464655D01*
X108601317Y-92362590D01*
X108598790Y-92360200D01*
X108489798Y-92251208D01*
X108487408Y-92248681D01*
X108385343Y-92134469D01*
X108382767Y-92131392D01*
X108287598Y-92009917D01*
X108285838Y-92007558D01*
X108282651Y-92003066D01*
X108197344Y-91882837D01*
X108194863Y-91879053D01*
X108114138Y-91745518D01*
X108039857Y-91611115D01*
X108037585Y-91606574D01*
X107973225Y-91463571D01*
X107959439Y-91430288D01*
X107950000Y-91382836D01*
X107950000Y-90400004D01*
X108744732Y-90400004D01*
X108763777Y-90654154D01*
X108820103Y-90900936D01*
X108820492Y-90902637D01*
X108913607Y-91139888D01*
X109041041Y-91360612D01*
X109199950Y-91559877D01*
X109386783Y-91733232D01*
X109597366Y-91876805D01*
X109597371Y-91876807D01*
X109597372Y-91876808D01*
X109597373Y-91876809D01*
X109755937Y-91953169D01*
X109826996Y-91987389D01*
X109869157Y-92000394D01*
X109876249Y-92003066D01*
X109911245Y-92018755D01*
X109939189Y-92021996D01*
X110070542Y-92062513D01*
X110070547Y-92062513D01*
X110070548Y-92062514D01*
X110118109Y-92069683D01*
X110125301Y-92071207D01*
X110127981Y-92071942D01*
X110128046Y-92071958D01*
X110162236Y-92081352D01*
X110189247Y-92080405D01*
X110322565Y-92100500D01*
X110322571Y-92100500D01*
X110374692Y-92100500D01*
X110381810Y-92100910D01*
X110419689Y-92105284D01*
X110445190Y-92100500D01*
X110577431Y-92100500D01*
X110577435Y-92100500D01*
X110633035Y-92092119D01*
X110639885Y-92091474D01*
X110645249Y-92091269D01*
X110645250Y-92091268D01*
X110647309Y-92091190D01*
X110647349Y-92091187D01*
X110677791Y-92090019D01*
X110701198Y-92081845D01*
X110829458Y-92062513D01*
X110887169Y-92044711D01*
X110893563Y-92043110D01*
X110901131Y-92041643D01*
X110901138Y-92041640D01*
X110901832Y-92041506D01*
X110901841Y-92041504D01*
X110930545Y-92035937D01*
X110951435Y-92024887D01*
X111073004Y-91987389D01*
X111131179Y-91959373D01*
X111137082Y-91956899D01*
X111146440Y-91953539D01*
X111146447Y-91953535D01*
X111147436Y-91953180D01*
X111147464Y-91953169D01*
X111172160Y-91944299D01*
X111190202Y-91930949D01*
X111302634Y-91876805D01*
X111359509Y-91838028D01*
X111364770Y-91834814D01*
X111375425Y-91829021D01*
X111375431Y-91829016D01*
X111397077Y-91817246D01*
X111412058Y-91802200D01*
X111513217Y-91733232D01*
X111566865Y-91683454D01*
X111571428Y-91679614D01*
X111600157Y-91657715D01*
X111611983Y-91641590D01*
X111700050Y-91559877D01*
X111748445Y-91499191D01*
X111752229Y-91494874D01*
X111763461Y-91483204D01*
X111763464Y-91483199D01*
X111764117Y-91482521D01*
X111764124Y-91482514D01*
X111776752Y-91469392D01*
X111785434Y-91452808D01*
X111858959Y-91360612D01*
X111860836Y-91357362D01*
X111883759Y-91317657D01*
X111900033Y-91289467D01*
X111902993Y-91284831D01*
X111913419Y-91270010D01*
X111913423Y-91270001D01*
X111922813Y-91256652D01*
X111928484Y-91240189D01*
X111986393Y-91139888D01*
X112018103Y-91059090D01*
X112020252Y-91054241D01*
X112024257Y-91046152D01*
X112029074Y-91036424D01*
X112029075Y-91036420D01*
X112031138Y-91032254D01*
X112031850Y-91031481D01*
X112033300Y-91027885D01*
X112033837Y-91026798D01*
X112035357Y-91016569D01*
X112037086Y-91011105D01*
X112038459Y-91007225D01*
X112079508Y-90902637D01*
X112099887Y-90813346D01*
X112101214Y-90808472D01*
X112107476Y-90788685D01*
X112108719Y-90786836D01*
X112110208Y-90780469D01*
X112110168Y-90772058D01*
X112111628Y-90762601D01*
X112112447Y-90758321D01*
X112136222Y-90654157D01*
X112143436Y-90557889D01*
X112143977Y-90553170D01*
X112147506Y-90530325D01*
X112147506Y-90530323D01*
X112147649Y-90529398D01*
X112147653Y-90529360D01*
X112148657Y-90522856D01*
X112147764Y-90516848D01*
X112147790Y-90515485D01*
X112148161Y-90496058D01*
X112148318Y-90492735D01*
X112155268Y-90400004D01*
X145844732Y-90400004D01*
X145863777Y-90654154D01*
X145920103Y-90900936D01*
X145920492Y-90902637D01*
X146013607Y-91139888D01*
X146141041Y-91360612D01*
X146299950Y-91559877D01*
X146486783Y-91733232D01*
X146697366Y-91876805D01*
X146697371Y-91876807D01*
X146697372Y-91876808D01*
X146697373Y-91876809D01*
X146855937Y-91953169D01*
X146926996Y-91987389D01*
X146969157Y-92000394D01*
X146976249Y-92003066D01*
X147011245Y-92018755D01*
X147039189Y-92021996D01*
X147170542Y-92062513D01*
X147170547Y-92062513D01*
X147170548Y-92062514D01*
X147218109Y-92069683D01*
X147225301Y-92071207D01*
X147227981Y-92071942D01*
X147228046Y-92071958D01*
X147262236Y-92081352D01*
X147289247Y-92080405D01*
X147422565Y-92100500D01*
X147422571Y-92100500D01*
X147474692Y-92100500D01*
X147481810Y-92100910D01*
X147519689Y-92105284D01*
X147545190Y-92100500D01*
X147677431Y-92100500D01*
X147677435Y-92100500D01*
X147733035Y-92092119D01*
X147739885Y-92091474D01*
X147745249Y-92091269D01*
X147745250Y-92091268D01*
X147747309Y-92091190D01*
X147747349Y-92091187D01*
X147777791Y-92090019D01*
X147801198Y-92081845D01*
X147929458Y-92062513D01*
X147987169Y-92044711D01*
X147993563Y-92043110D01*
X148001131Y-92041643D01*
X148001138Y-92041640D01*
X148001832Y-92041506D01*
X148001841Y-92041504D01*
X148030545Y-92035937D01*
X148051435Y-92024887D01*
X148173004Y-91987389D01*
X148231179Y-91959373D01*
X148237082Y-91956899D01*
X148246440Y-91953539D01*
X148246447Y-91953535D01*
X148247436Y-91953180D01*
X148247464Y-91953169D01*
X148272160Y-91944299D01*
X148290202Y-91930949D01*
X148402634Y-91876805D01*
X148459509Y-91838028D01*
X148464770Y-91834814D01*
X148475425Y-91829021D01*
X148475431Y-91829016D01*
X148497077Y-91817246D01*
X148512058Y-91802200D01*
X148613217Y-91733232D01*
X148666865Y-91683454D01*
X148671428Y-91679614D01*
X148700157Y-91657715D01*
X148711983Y-91641590D01*
X148800050Y-91559877D01*
X148848445Y-91499191D01*
X148852229Y-91494874D01*
X148863461Y-91483204D01*
X148863464Y-91483199D01*
X148864117Y-91482521D01*
X148864124Y-91482514D01*
X148876752Y-91469392D01*
X148885434Y-91452808D01*
X148958959Y-91360612D01*
X148960836Y-91357362D01*
X148983759Y-91317657D01*
X149000033Y-91289467D01*
X149002993Y-91284831D01*
X149013419Y-91270010D01*
X149013423Y-91270001D01*
X149022813Y-91256652D01*
X149028484Y-91240189D01*
X149086393Y-91139888D01*
X149118103Y-91059090D01*
X149120252Y-91054241D01*
X149124257Y-91046152D01*
X149129074Y-91036424D01*
X149129075Y-91036420D01*
X149131138Y-91032254D01*
X149131850Y-91031481D01*
X149133300Y-91027885D01*
X149133837Y-91026798D01*
X149135357Y-91016569D01*
X149137086Y-91011105D01*
X149138459Y-91007225D01*
X149179508Y-90902637D01*
X149199887Y-90813346D01*
X149201214Y-90808472D01*
X149207476Y-90788685D01*
X149208719Y-90786836D01*
X149210208Y-90780469D01*
X149210168Y-90772058D01*
X149211628Y-90762601D01*
X149212447Y-90758321D01*
X149236222Y-90654157D01*
X149243436Y-90557889D01*
X149243977Y-90553170D01*
X149247506Y-90530325D01*
X149247506Y-90530323D01*
X149247649Y-90529398D01*
X149247653Y-90529360D01*
X149248657Y-90522856D01*
X149247764Y-90516848D01*
X149247790Y-90515485D01*
X149248161Y-90496058D01*
X149248318Y-90492735D01*
X149255268Y-90400000D01*
X149255137Y-90398258D01*
X149254512Y-90389915D01*
X149248318Y-90307268D01*
X149248161Y-90303938D01*
X149247763Y-90283150D01*
X149248927Y-90278889D01*
X149247694Y-90270905D01*
X149247691Y-90270878D01*
X149247506Y-90269681D01*
X149247506Y-90269675D01*
X149243978Y-90246838D01*
X149243435Y-90242102D01*
X149236222Y-90145843D01*
X149212442Y-90041657D01*
X149211628Y-90037394D01*
X149210166Y-90027934D01*
X149210927Y-90022225D01*
X149210592Y-90021165D01*
X149209006Y-90014389D01*
X149207476Y-90011314D01*
X149206953Y-90009664D01*
X149201208Y-89991509D01*
X149199889Y-89986661D01*
X149179508Y-89897363D01*
X149138462Y-89792782D01*
X149137085Y-89788890D01*
X149135360Y-89783441D01*
X149135205Y-89775961D01*
X149133299Y-89772112D01*
X149132073Y-89769072D01*
X149131139Y-89767746D01*
X149129063Y-89763554D01*
X149120235Y-89745725D01*
X149118107Y-89740918D01*
X149086393Y-89660112D01*
X149028485Y-89559812D01*
X149025373Y-89546983D01*
X149003006Y-89515185D01*
X149000022Y-89510512D01*
X148960835Y-89442638D01*
X148958959Y-89439388D01*
X148885434Y-89347191D01*
X148880071Y-89334055D01*
X148852240Y-89305137D01*
X148848445Y-89300808D01*
X148800050Y-89240123D01*
X148800047Y-89240120D01*
X148711983Y-89158408D01*
X148704224Y-89145382D01*
X148671427Y-89120383D01*
X148666839Y-89116521D01*
X148613217Y-89066767D01*
X148512058Y-88997798D01*
X148501847Y-88985346D01*
X148464795Y-88965197D01*
X148459485Y-88961955D01*
X148402634Y-88923195D01*
X148402630Y-88923193D01*
X148290201Y-88869050D01*
X148277562Y-88857639D01*
X148248837Y-88847322D01*
X148248828Y-88847318D01*
X148237094Y-88843103D01*
X148231152Y-88840613D01*
X148173006Y-88812612D01*
X148173004Y-88812611D01*
X148122177Y-88796933D01*
X148051434Y-88775111D01*
X148036484Y-88765213D01*
X147993597Y-88756895D01*
X147987122Y-88755274D01*
X147929463Y-88737488D01*
X147929459Y-88737487D01*
X147929458Y-88737487D01*
X147881876Y-88730315D01*
X147801191Y-88718153D01*
X147784124Y-88710218D01*
X147739874Y-88708523D01*
X147733001Y-88707875D01*
X147677440Y-88699500D01*
X147677435Y-88699500D01*
X147545192Y-88699500D01*
X147526308Y-88693955D01*
X147491178Y-88698010D01*
X147491171Y-88698011D01*
X147481819Y-88699091D01*
X147474704Y-88699500D01*
X147422557Y-88699500D01*
X147289233Y-88719596D01*
X147268904Y-88716814D01*
X147229073Y-88727758D01*
X147229038Y-88727767D01*
X147225274Y-88728799D01*
X147218115Y-88730315D01*
X147170539Y-88737487D01*
X147039113Y-88778026D01*
X147017772Y-88778316D01*
X146976247Y-88796933D01*
X146969153Y-88799606D01*
X146926998Y-88812609D01*
X146697370Y-88923192D01*
X146486782Y-89066768D01*
X146299952Y-89240121D01*
X146299950Y-89240123D01*
X146141041Y-89439388D01*
X146013608Y-89660109D01*
X145920492Y-89897362D01*
X145920490Y-89897369D01*
X145863777Y-90145845D01*
X145844732Y-90399995D01*
X145844732Y-90400004D01*
X112155268Y-90400004D01*
X112155268Y-90400000D01*
X112155137Y-90398258D01*
X112154512Y-90389915D01*
X112148318Y-90307268D01*
X112148161Y-90303938D01*
X112147763Y-90283150D01*
X112148927Y-90278889D01*
X112147694Y-90270905D01*
X112147691Y-90270878D01*
X112147506Y-90269681D01*
X112147506Y-90269675D01*
X112143978Y-90246838D01*
X112143435Y-90242102D01*
X112136222Y-90145843D01*
X112112442Y-90041657D01*
X112111628Y-90037394D01*
X112110166Y-90027934D01*
X112110927Y-90022225D01*
X112110592Y-90021165D01*
X112109006Y-90014389D01*
X112107476Y-90011314D01*
X112106953Y-90009664D01*
X112101208Y-89991509D01*
X112099889Y-89986661D01*
X112079508Y-89897363D01*
X112038462Y-89792782D01*
X112037085Y-89788890D01*
X112035360Y-89783441D01*
X112035205Y-89775961D01*
X112033299Y-89772112D01*
X112032073Y-89769072D01*
X112031139Y-89767746D01*
X112029063Y-89763554D01*
X112020235Y-89745725D01*
X112018107Y-89740918D01*
X111986393Y-89660112D01*
X111928485Y-89559812D01*
X111925373Y-89546983D01*
X111903006Y-89515185D01*
X111900022Y-89510512D01*
X111860835Y-89442638D01*
X111858959Y-89439388D01*
X111785434Y-89347191D01*
X111780071Y-89334055D01*
X111752240Y-89305137D01*
X111748445Y-89300808D01*
X111700050Y-89240123D01*
X111700047Y-89240120D01*
X111611983Y-89158408D01*
X111604224Y-89145382D01*
X111571427Y-89120383D01*
X111566839Y-89116521D01*
X111513217Y-89066767D01*
X111412058Y-88997798D01*
X111401847Y-88985346D01*
X111364795Y-88965197D01*
X111359485Y-88961955D01*
X111302634Y-88923195D01*
X111302630Y-88923193D01*
X111190201Y-88869050D01*
X111177562Y-88857639D01*
X111148837Y-88847322D01*
X111148828Y-88847318D01*
X111137094Y-88843103D01*
X111131152Y-88840613D01*
X111073006Y-88812612D01*
X111073004Y-88812611D01*
X111022177Y-88796933D01*
X110951434Y-88775111D01*
X110936484Y-88765213D01*
X110893597Y-88756895D01*
X110887122Y-88755274D01*
X110829463Y-88737488D01*
X110829459Y-88737487D01*
X110829458Y-88737487D01*
X110781876Y-88730315D01*
X110701191Y-88718153D01*
X110684124Y-88710218D01*
X110639874Y-88708523D01*
X110633001Y-88707875D01*
X110577440Y-88699500D01*
X110577435Y-88699500D01*
X110445192Y-88699500D01*
X110426308Y-88693955D01*
X110391178Y-88698010D01*
X110391171Y-88698011D01*
X110381819Y-88699091D01*
X110374704Y-88699500D01*
X110322557Y-88699500D01*
X110189233Y-88719596D01*
X110168904Y-88716814D01*
X110129073Y-88727758D01*
X110129038Y-88727767D01*
X110125274Y-88728799D01*
X110118115Y-88730315D01*
X110070539Y-88737487D01*
X109939113Y-88778026D01*
X109917772Y-88778316D01*
X109876247Y-88796933D01*
X109869153Y-88799606D01*
X109826998Y-88812609D01*
X109597370Y-88923192D01*
X109386782Y-89066768D01*
X109199952Y-89240121D01*
X109199950Y-89240123D01*
X109041041Y-89439388D01*
X108913608Y-89660109D01*
X108820492Y-89897362D01*
X108820490Y-89897369D01*
X108763777Y-90145845D01*
X108744732Y-90399995D01*
X108744732Y-90400004D01*
X107950000Y-90400004D01*
X107950000Y-73840000D01*
X111893179Y-73840000D01*
X111912424Y-74059976D01*
X111912426Y-74059986D01*
X111969575Y-74273270D01*
X111969580Y-74273284D01*
X112062899Y-74473407D01*
X112062900Y-74473409D01*
X112108258Y-74538187D01*
X112637050Y-74009395D01*
X112698373Y-73975910D01*
X112768064Y-73980894D01*
X112823998Y-74022765D01*
X112828539Y-74029254D01*
X112875813Y-74101612D01*
X112976157Y-74179713D01*
X112976160Y-74179714D01*
X112976511Y-74179987D01*
X113017324Y-74236697D01*
X113020999Y-74306470D01*
X112988030Y-74365522D01*
X112461811Y-74891741D01*
X112526582Y-74937094D01*
X112526592Y-74937100D01*
X112726715Y-75030419D01*
X112726729Y-75030424D01*
X112940013Y-75087573D01*
X112940023Y-75087575D01*
X113159999Y-75106821D01*
X113160001Y-75106821D01*
X113379976Y-75087575D01*
X113379986Y-75087573D01*
X113593270Y-75030424D01*
X113593284Y-75030419D01*
X113793408Y-74937100D01*
X113793420Y-74937093D01*
X113858186Y-74891742D01*
X113858187Y-74891740D01*
X113329276Y-74362829D01*
X113295791Y-74301506D01*
X113300775Y-74231814D01*
X113342647Y-74175881D01*
X113357933Y-74166097D01*
X113397251Y-74144820D01*
X113483371Y-74051269D01*
X113484083Y-74049643D01*
X113485652Y-74047777D01*
X113488992Y-74042666D01*
X113489609Y-74043069D01*
X113529036Y-73996158D01*
X113595770Y-73975464D01*
X113663099Y-73994135D01*
X113685322Y-74011769D01*
X114211740Y-74538187D01*
X114211742Y-74538186D01*
X114257093Y-74473420D01*
X114257097Y-74473413D01*
X114312927Y-74353684D01*
X114359099Y-74301244D01*
X114426292Y-74282091D01*
X114493174Y-74302306D01*
X114537692Y-74353682D01*
X114595511Y-74477676D01*
X114595512Y-74477677D01*
X114723023Y-74659781D01*
X114880219Y-74816977D01*
X115062323Y-74944488D01*
X115263804Y-75038440D01*
X115478537Y-75095978D01*
X115636724Y-75109817D01*
X115699998Y-75115353D01*
X115700000Y-75115353D01*
X115700002Y-75115353D01*
X115755365Y-75110509D01*
X115921463Y-75095978D01*
X116136196Y-75038440D01*
X116337677Y-74944488D01*
X116519781Y-74816977D01*
X116676977Y-74659781D01*
X116804488Y-74477677D01*
X116857618Y-74363738D01*
X116903790Y-74311299D01*
X116970983Y-74292147D01*
X117037865Y-74312363D01*
X117082381Y-74363738D01*
X117135512Y-74477677D01*
X117263023Y-74659781D01*
X117420219Y-74816977D01*
X117602323Y-74944488D01*
X117803804Y-75038440D01*
X118018537Y-75095978D01*
X118176724Y-75109817D01*
X118239998Y-75115353D01*
X118240000Y-75115353D01*
X118240002Y-75115353D01*
X118295365Y-75110509D01*
X118461463Y-75095978D01*
X118676196Y-75038440D01*
X118877677Y-74944488D01*
X119059781Y-74816977D01*
X119216977Y-74659781D01*
X119344488Y-74477677D01*
X119438440Y-74276196D01*
X119495978Y-74061463D01*
X119515353Y-73840000D01*
X125193179Y-73840000D01*
X125212424Y-74059976D01*
X125212426Y-74059986D01*
X125269575Y-74273270D01*
X125269580Y-74273284D01*
X125362899Y-74473407D01*
X125362900Y-74473409D01*
X125408258Y-74538187D01*
X125937050Y-74009395D01*
X125998373Y-73975910D01*
X126068064Y-73980894D01*
X126123998Y-74022765D01*
X126128539Y-74029254D01*
X126175813Y-74101612D01*
X126276157Y-74179713D01*
X126276160Y-74179714D01*
X126276511Y-74179987D01*
X126317324Y-74236697D01*
X126320999Y-74306470D01*
X126288030Y-74365522D01*
X125761811Y-74891741D01*
X125826582Y-74937094D01*
X125826592Y-74937100D01*
X126026715Y-75030419D01*
X126026729Y-75030424D01*
X126240013Y-75087573D01*
X126240023Y-75087575D01*
X126459999Y-75106821D01*
X126460001Y-75106821D01*
X126679976Y-75087575D01*
X126679986Y-75087573D01*
X126893270Y-75030424D01*
X126893284Y-75030419D01*
X127093408Y-74937100D01*
X127093420Y-74937093D01*
X127158186Y-74891742D01*
X127158187Y-74891740D01*
X126629276Y-74362829D01*
X126595791Y-74301506D01*
X126600775Y-74231814D01*
X126642647Y-74175881D01*
X126657933Y-74166097D01*
X126697251Y-74144820D01*
X126783371Y-74051269D01*
X126784083Y-74049643D01*
X126785652Y-74047777D01*
X126788992Y-74042666D01*
X126789609Y-74043069D01*
X126829036Y-73996158D01*
X126895770Y-73975464D01*
X126963099Y-73994135D01*
X126985322Y-74011769D01*
X127511740Y-74538187D01*
X127511742Y-74538186D01*
X127557093Y-74473420D01*
X127557097Y-74473413D01*
X127612927Y-74353684D01*
X127659099Y-74301244D01*
X127726292Y-74282091D01*
X127793174Y-74302306D01*
X127837692Y-74353682D01*
X127895511Y-74477676D01*
X127895512Y-74477677D01*
X128023023Y-74659781D01*
X128180219Y-74816977D01*
X128362323Y-74944488D01*
X128563804Y-75038440D01*
X128778537Y-75095978D01*
X128936724Y-75109817D01*
X128999998Y-75115353D01*
X129000000Y-75115353D01*
X129000002Y-75115353D01*
X129055365Y-75110509D01*
X129221463Y-75095978D01*
X129436196Y-75038440D01*
X129637677Y-74944488D01*
X129819781Y-74816977D01*
X129976977Y-74659781D01*
X130104488Y-74477677D01*
X130157618Y-74363738D01*
X130203790Y-74311299D01*
X130270983Y-74292147D01*
X130337865Y-74312363D01*
X130382381Y-74363738D01*
X130435512Y-74477677D01*
X130563023Y-74659781D01*
X130720219Y-74816977D01*
X130902323Y-74944488D01*
X131103804Y-75038440D01*
X131318537Y-75095978D01*
X131476724Y-75109817D01*
X131539998Y-75115353D01*
X131540000Y-75115353D01*
X131540002Y-75115353D01*
X131595365Y-75110509D01*
X131761463Y-75095978D01*
X131976196Y-75038440D01*
X132177677Y-74944488D01*
X132359781Y-74816977D01*
X132516977Y-74659781D01*
X132644488Y-74477677D01*
X132738440Y-74276196D01*
X132795978Y-74061463D01*
X132815353Y-73840000D01*
X138493179Y-73840000D01*
X138512424Y-74059976D01*
X138512426Y-74059986D01*
X138569575Y-74273270D01*
X138569580Y-74273284D01*
X138662899Y-74473407D01*
X138662900Y-74473409D01*
X138708258Y-74538187D01*
X139237050Y-74009395D01*
X139298373Y-73975910D01*
X139368064Y-73980894D01*
X139423998Y-74022765D01*
X139428539Y-74029254D01*
X139475813Y-74101612D01*
X139576157Y-74179713D01*
X139576160Y-74179714D01*
X139576511Y-74179987D01*
X139617324Y-74236697D01*
X139620999Y-74306470D01*
X139588030Y-74365522D01*
X139061811Y-74891741D01*
X139126582Y-74937094D01*
X139126592Y-74937100D01*
X139326715Y-75030419D01*
X139326729Y-75030424D01*
X139540013Y-75087573D01*
X139540023Y-75087575D01*
X139759999Y-75106821D01*
X139760001Y-75106821D01*
X139979976Y-75087575D01*
X139979986Y-75087573D01*
X140193270Y-75030424D01*
X140193284Y-75030419D01*
X140393408Y-74937100D01*
X140393420Y-74937093D01*
X140458186Y-74891742D01*
X140458187Y-74891740D01*
X139929276Y-74362829D01*
X139895791Y-74301506D01*
X139900775Y-74231814D01*
X139942647Y-74175881D01*
X139957933Y-74166097D01*
X139997251Y-74144820D01*
X140083371Y-74051269D01*
X140084083Y-74049643D01*
X140085652Y-74047777D01*
X140088992Y-74042666D01*
X140089609Y-74043069D01*
X140129036Y-73996158D01*
X140195770Y-73975464D01*
X140263099Y-73994135D01*
X140285322Y-74011769D01*
X140811740Y-74538187D01*
X140811742Y-74538186D01*
X140857093Y-74473420D01*
X140857097Y-74473413D01*
X140912927Y-74353684D01*
X140959099Y-74301244D01*
X141026292Y-74282091D01*
X141093174Y-74302306D01*
X141137692Y-74353682D01*
X141195511Y-74477676D01*
X141195512Y-74477677D01*
X141323023Y-74659781D01*
X141480219Y-74816977D01*
X141662323Y-74944488D01*
X141863804Y-75038440D01*
X142078537Y-75095978D01*
X142236724Y-75109817D01*
X142299998Y-75115353D01*
X142300000Y-75115353D01*
X142300002Y-75115353D01*
X142355365Y-75110509D01*
X142521463Y-75095978D01*
X142736196Y-75038440D01*
X142937677Y-74944488D01*
X143119781Y-74816977D01*
X143276977Y-74659781D01*
X143404488Y-74477677D01*
X143457618Y-74363738D01*
X143503790Y-74311299D01*
X143570983Y-74292147D01*
X143637865Y-74312363D01*
X143682381Y-74363738D01*
X143735512Y-74477677D01*
X143863023Y-74659781D01*
X144020219Y-74816977D01*
X144202323Y-74944488D01*
X144403804Y-75038440D01*
X144618537Y-75095978D01*
X144776724Y-75109817D01*
X144839998Y-75115353D01*
X144840000Y-75115353D01*
X144840002Y-75115353D01*
X144895365Y-75110509D01*
X145061463Y-75095978D01*
X145276196Y-75038440D01*
X145477677Y-74944488D01*
X145659781Y-74816977D01*
X145816977Y-74659781D01*
X145944488Y-74477677D01*
X146038440Y-74276196D01*
X146095978Y-74061463D01*
X146115353Y-73840000D01*
X146112562Y-73808102D01*
X146107057Y-73745177D01*
X146095978Y-73618537D01*
X146038440Y-73403804D01*
X145944488Y-73202324D01*
X145944485Y-73202320D01*
X145944485Y-73202319D01*
X145816978Y-73020220D01*
X145816975Y-73020217D01*
X145659781Y-72863023D01*
X145519677Y-72764921D01*
X145477676Y-72735511D01*
X145376936Y-72688536D01*
X145276196Y-72641560D01*
X145276193Y-72641559D01*
X145276191Y-72641558D01*
X145061465Y-72584022D01*
X145061457Y-72584021D01*
X144840002Y-72564647D01*
X144839998Y-72564647D01*
X144618542Y-72584021D01*
X144618535Y-72584022D01*
X144403800Y-72641561D01*
X144202323Y-72735512D01*
X144202319Y-72735514D01*
X144020217Y-72863023D01*
X143863023Y-73020217D01*
X143735514Y-73202319D01*
X143735512Y-73202323D01*
X143682382Y-73316261D01*
X143636209Y-73368700D01*
X143569016Y-73387852D01*
X143502135Y-73367636D01*
X143457618Y-73316261D01*
X143448130Y-73295914D01*
X143404488Y-73202324D01*
X143404485Y-73202320D01*
X143404485Y-73202319D01*
X143276978Y-73020220D01*
X143276975Y-73020217D01*
X143119781Y-72863023D01*
X142979677Y-72764921D01*
X142937676Y-72735511D01*
X142836936Y-72688536D01*
X142736196Y-72641560D01*
X142736193Y-72641559D01*
X142736191Y-72641558D01*
X142521465Y-72584022D01*
X142521457Y-72584021D01*
X142300002Y-72564647D01*
X142299998Y-72564647D01*
X142078542Y-72584021D01*
X142078535Y-72584022D01*
X141863800Y-72641561D01*
X141662323Y-72735512D01*
X141662319Y-72735514D01*
X141480217Y-72863023D01*
X141323023Y-73020217D01*
X141195514Y-73202319D01*
X141195514Y-73202320D01*
X141137692Y-73326318D01*
X141091519Y-73378757D01*
X141024325Y-73397908D01*
X140957444Y-73377692D01*
X140912928Y-73326316D01*
X140857100Y-73206593D01*
X140857099Y-73206591D01*
X140811740Y-73141811D01*
X140282949Y-73670602D01*
X140221626Y-73704087D01*
X140151934Y-73699103D01*
X140096001Y-73657231D01*
X140091460Y-73650743D01*
X140044189Y-73578391D01*
X140044187Y-73578388D01*
X139988673Y-73535180D01*
X139943843Y-73500287D01*
X139943840Y-73500285D01*
X139943488Y-73500012D01*
X139902675Y-73443301D01*
X139899000Y-73373529D01*
X139931969Y-73314477D01*
X140458187Y-72788258D01*
X140393409Y-72742900D01*
X140393407Y-72742899D01*
X140193284Y-72649580D01*
X140193270Y-72649575D01*
X139979986Y-72592426D01*
X139979976Y-72592424D01*
X139760001Y-72573179D01*
X139759999Y-72573179D01*
X139540023Y-72592424D01*
X139540013Y-72592426D01*
X139326729Y-72649575D01*
X139326720Y-72649579D01*
X139126586Y-72742903D01*
X139061812Y-72788257D01*
X139061811Y-72788258D01*
X139590723Y-73317170D01*
X139624208Y-73378493D01*
X139619224Y-73448185D01*
X139577352Y-73504118D01*
X139562059Y-73513906D01*
X139522749Y-73535179D01*
X139522748Y-73535179D01*
X139436626Y-73628733D01*
X139436626Y-73628734D01*
X139435911Y-73630365D01*
X139434340Y-73632233D01*
X139431008Y-73637334D01*
X139430391Y-73636931D01*
X139390952Y-73683849D01*
X139324215Y-73704535D01*
X139256888Y-73685857D01*
X139234677Y-73668230D01*
X138708258Y-73141811D01*
X138708257Y-73141812D01*
X138662903Y-73206586D01*
X138569579Y-73406720D01*
X138569575Y-73406729D01*
X138512426Y-73620013D01*
X138512424Y-73620023D01*
X138493179Y-73839999D01*
X138493179Y-73840000D01*
X132815353Y-73840000D01*
X132812562Y-73808102D01*
X132807057Y-73745177D01*
X132795978Y-73618537D01*
X132738440Y-73403804D01*
X132644488Y-73202324D01*
X132644485Y-73202320D01*
X132644485Y-73202319D01*
X132516978Y-73020220D01*
X132516975Y-73020217D01*
X132359781Y-72863023D01*
X132219677Y-72764921D01*
X132177676Y-72735511D01*
X132076936Y-72688536D01*
X131976196Y-72641560D01*
X131976193Y-72641559D01*
X131976191Y-72641558D01*
X131761465Y-72584022D01*
X131761457Y-72584021D01*
X131540002Y-72564647D01*
X131539998Y-72564647D01*
X131318542Y-72584021D01*
X131318535Y-72584022D01*
X131103800Y-72641561D01*
X130902323Y-72735512D01*
X130902319Y-72735514D01*
X130720217Y-72863023D01*
X130563023Y-73020217D01*
X130435514Y-73202319D01*
X130435512Y-73202323D01*
X130382382Y-73316261D01*
X130336209Y-73368700D01*
X130269016Y-73387852D01*
X130202135Y-73367636D01*
X130157618Y-73316261D01*
X130148130Y-73295914D01*
X130104488Y-73202324D01*
X130104485Y-73202320D01*
X130104485Y-73202319D01*
X129976978Y-73020220D01*
X129976975Y-73020217D01*
X129819781Y-72863023D01*
X129679677Y-72764921D01*
X129637676Y-72735511D01*
X129536936Y-72688536D01*
X129436196Y-72641560D01*
X129436193Y-72641559D01*
X129436191Y-72641558D01*
X129221465Y-72584022D01*
X129221457Y-72584021D01*
X129000002Y-72564647D01*
X128999998Y-72564647D01*
X128778542Y-72584021D01*
X128778535Y-72584022D01*
X128563800Y-72641561D01*
X128362323Y-72735512D01*
X128362319Y-72735514D01*
X128180217Y-72863023D01*
X128023023Y-73020217D01*
X127895514Y-73202319D01*
X127895514Y-73202320D01*
X127837692Y-73326318D01*
X127791519Y-73378757D01*
X127724325Y-73397908D01*
X127657444Y-73377692D01*
X127612928Y-73326316D01*
X127557100Y-73206593D01*
X127557099Y-73206591D01*
X127511740Y-73141811D01*
X126982949Y-73670602D01*
X126921626Y-73704087D01*
X126851934Y-73699103D01*
X126796001Y-73657231D01*
X126791460Y-73650743D01*
X126744189Y-73578391D01*
X126744187Y-73578388D01*
X126688673Y-73535180D01*
X126643843Y-73500287D01*
X126643840Y-73500285D01*
X126643488Y-73500012D01*
X126602675Y-73443301D01*
X126599000Y-73373529D01*
X126631969Y-73314477D01*
X127158187Y-72788258D01*
X127093409Y-72742900D01*
X127093407Y-72742899D01*
X126893284Y-72649580D01*
X126893270Y-72649575D01*
X126679986Y-72592426D01*
X126679976Y-72592424D01*
X126460001Y-72573179D01*
X126459999Y-72573179D01*
X126240023Y-72592424D01*
X126240013Y-72592426D01*
X126026729Y-72649575D01*
X126026720Y-72649579D01*
X125826586Y-72742903D01*
X125761812Y-72788257D01*
X125761811Y-72788258D01*
X126290723Y-73317170D01*
X126324208Y-73378493D01*
X126319224Y-73448185D01*
X126277352Y-73504118D01*
X126262059Y-73513906D01*
X126222749Y-73535179D01*
X126222748Y-73535179D01*
X126136626Y-73628733D01*
X126136626Y-73628734D01*
X126135911Y-73630365D01*
X126134340Y-73632233D01*
X126131008Y-73637334D01*
X126130391Y-73636931D01*
X126090952Y-73683849D01*
X126024215Y-73704535D01*
X125956888Y-73685857D01*
X125934677Y-73668230D01*
X125408258Y-73141811D01*
X125408257Y-73141812D01*
X125362903Y-73206586D01*
X125269579Y-73406720D01*
X125269575Y-73406729D01*
X125212426Y-73620013D01*
X125212424Y-73620023D01*
X125193179Y-73839999D01*
X125193179Y-73840000D01*
X119515353Y-73840000D01*
X119512562Y-73808102D01*
X119507057Y-73745177D01*
X119495978Y-73618537D01*
X119438440Y-73403804D01*
X119344488Y-73202324D01*
X119344485Y-73202320D01*
X119344485Y-73202319D01*
X119216978Y-73020220D01*
X119216975Y-73020217D01*
X119059781Y-72863023D01*
X118919677Y-72764921D01*
X118877676Y-72735511D01*
X118776936Y-72688536D01*
X118676196Y-72641560D01*
X118676193Y-72641559D01*
X118676191Y-72641558D01*
X118461465Y-72584022D01*
X118461457Y-72584021D01*
X118240002Y-72564647D01*
X118239998Y-72564647D01*
X118018542Y-72584021D01*
X118018535Y-72584022D01*
X117803800Y-72641561D01*
X117602323Y-72735512D01*
X117602319Y-72735514D01*
X117420217Y-72863023D01*
X117263023Y-73020217D01*
X117135514Y-73202319D01*
X117135512Y-73202323D01*
X117082382Y-73316261D01*
X117036209Y-73368700D01*
X116969016Y-73387852D01*
X116902135Y-73367636D01*
X116857618Y-73316261D01*
X116848130Y-73295914D01*
X116804488Y-73202324D01*
X116804485Y-73202320D01*
X116804485Y-73202319D01*
X116676978Y-73020220D01*
X116676975Y-73020217D01*
X116519781Y-72863023D01*
X116379677Y-72764921D01*
X116337676Y-72735511D01*
X116236936Y-72688536D01*
X116136196Y-72641560D01*
X116136193Y-72641559D01*
X116136191Y-72641558D01*
X115921465Y-72584022D01*
X115921457Y-72584021D01*
X115700002Y-72564647D01*
X115699998Y-72564647D01*
X115478542Y-72584021D01*
X115478535Y-72584022D01*
X115263800Y-72641561D01*
X115062323Y-72735512D01*
X115062319Y-72735514D01*
X114880217Y-72863023D01*
X114723023Y-73020217D01*
X114595514Y-73202319D01*
X114595514Y-73202320D01*
X114537692Y-73326318D01*
X114491519Y-73378757D01*
X114424325Y-73397908D01*
X114357444Y-73377692D01*
X114312928Y-73326316D01*
X114257100Y-73206593D01*
X114257099Y-73206591D01*
X114211740Y-73141811D01*
X113682949Y-73670602D01*
X113621626Y-73704087D01*
X113551934Y-73699103D01*
X113496001Y-73657231D01*
X113491460Y-73650743D01*
X113444189Y-73578391D01*
X113444187Y-73578388D01*
X113388673Y-73535180D01*
X113343843Y-73500287D01*
X113343840Y-73500285D01*
X113343488Y-73500012D01*
X113302675Y-73443301D01*
X113299000Y-73373529D01*
X113331969Y-73314477D01*
X113858187Y-72788258D01*
X113793409Y-72742900D01*
X113793407Y-72742899D01*
X113593284Y-72649580D01*
X113593270Y-72649575D01*
X113379986Y-72592426D01*
X113379976Y-72592424D01*
X113160001Y-72573179D01*
X113159999Y-72573179D01*
X112940023Y-72592424D01*
X112940013Y-72592426D01*
X112726729Y-72649575D01*
X112726720Y-72649579D01*
X112526586Y-72742903D01*
X112461812Y-72788257D01*
X112461811Y-72788258D01*
X112990723Y-73317170D01*
X113024208Y-73378493D01*
X113019224Y-73448185D01*
X112977352Y-73504118D01*
X112962059Y-73513906D01*
X112922749Y-73535179D01*
X112922748Y-73535179D01*
X112836626Y-73628733D01*
X112836626Y-73628734D01*
X112835911Y-73630365D01*
X112834340Y-73632233D01*
X112831008Y-73637334D01*
X112830391Y-73636931D01*
X112790952Y-73683849D01*
X112724215Y-73704535D01*
X112656888Y-73685857D01*
X112634677Y-73668230D01*
X112108258Y-73141811D01*
X112108257Y-73141812D01*
X112062903Y-73206586D01*
X111969579Y-73406720D01*
X111969575Y-73406729D01*
X111912426Y-73620013D01*
X111912424Y-73620023D01*
X111893179Y-73839999D01*
X111893179Y-73840000D01*
X107950000Y-73840000D01*
X107950000Y-68950004D01*
X108744732Y-68950004D01*
X108763777Y-69204154D01*
X108820103Y-69450936D01*
X108820492Y-69452637D01*
X108883532Y-69613260D01*
X108913608Y-69689890D01*
X108940536Y-69736531D01*
X109041041Y-69910612D01*
X109199950Y-70109877D01*
X109386783Y-70283232D01*
X109597366Y-70426805D01*
X109597371Y-70426807D01*
X109597372Y-70426808D01*
X109597373Y-70426809D01*
X109755937Y-70503169D01*
X109826996Y-70537389D01*
X109869157Y-70550394D01*
X109876249Y-70553066D01*
X109911245Y-70568755D01*
X109939189Y-70571996D01*
X110070542Y-70612513D01*
X110070547Y-70612513D01*
X110070548Y-70612514D01*
X110118109Y-70619683D01*
X110125301Y-70621207D01*
X110127981Y-70621942D01*
X110128046Y-70621958D01*
X110162236Y-70631352D01*
X110189247Y-70630405D01*
X110322565Y-70650500D01*
X110322571Y-70650500D01*
X110374692Y-70650500D01*
X110381810Y-70650910D01*
X110419689Y-70655284D01*
X110445190Y-70650500D01*
X110577431Y-70650500D01*
X110577435Y-70650500D01*
X110633035Y-70642119D01*
X110639885Y-70641474D01*
X110645249Y-70641269D01*
X110645250Y-70641268D01*
X110647309Y-70641190D01*
X110647349Y-70641187D01*
X110677791Y-70640019D01*
X110701198Y-70631845D01*
X110829458Y-70612513D01*
X110887169Y-70594711D01*
X110893563Y-70593110D01*
X110901131Y-70591643D01*
X110901138Y-70591640D01*
X110901832Y-70591506D01*
X110901841Y-70591504D01*
X110930545Y-70585937D01*
X110951435Y-70574887D01*
X111073004Y-70537389D01*
X111131179Y-70509373D01*
X111137082Y-70506899D01*
X111146440Y-70503539D01*
X111146447Y-70503535D01*
X111147436Y-70503180D01*
X111147464Y-70503169D01*
X111172160Y-70494299D01*
X111190202Y-70480949D01*
X111302634Y-70426805D01*
X111359509Y-70388028D01*
X111364770Y-70384814D01*
X111375425Y-70379021D01*
X111375431Y-70379016D01*
X111397077Y-70367246D01*
X111412058Y-70352200D01*
X111513217Y-70283232D01*
X111566865Y-70233454D01*
X111571428Y-70229614D01*
X111600157Y-70207715D01*
X111611983Y-70191590D01*
X111700050Y-70109877D01*
X111748445Y-70049191D01*
X111752229Y-70044874D01*
X111763461Y-70033204D01*
X111763464Y-70033199D01*
X111764117Y-70032521D01*
X111764124Y-70032514D01*
X111776752Y-70019392D01*
X111785434Y-70002808D01*
X111858959Y-69910612D01*
X111860836Y-69907362D01*
X111873920Y-69884696D01*
X111900033Y-69839467D01*
X111902993Y-69834831D01*
X111913419Y-69820010D01*
X111913423Y-69820001D01*
X111922813Y-69806652D01*
X111928484Y-69790189D01*
X111986393Y-69689888D01*
X112018103Y-69609090D01*
X112020252Y-69604241D01*
X112029074Y-69586424D01*
X112029075Y-69586420D01*
X112031138Y-69582254D01*
X112031850Y-69581481D01*
X112033300Y-69577885D01*
X112033837Y-69576798D01*
X112035357Y-69566569D01*
X112037086Y-69561105D01*
X112038459Y-69557225D01*
X112079508Y-69452637D01*
X112099887Y-69363346D01*
X112101214Y-69358472D01*
X112107476Y-69338685D01*
X112108719Y-69336836D01*
X112110208Y-69330469D01*
X112110168Y-69322058D01*
X112111628Y-69312601D01*
X112112447Y-69308321D01*
X112136222Y-69204157D01*
X112143436Y-69107889D01*
X112143977Y-69103170D01*
X112147506Y-69080325D01*
X112147506Y-69080323D01*
X112147649Y-69079398D01*
X112147653Y-69079360D01*
X112148657Y-69072856D01*
X112147764Y-69066848D01*
X112147779Y-69066012D01*
X112148161Y-69046058D01*
X112148318Y-69042735D01*
X112155268Y-68950000D01*
X112148318Y-68857268D01*
X112148161Y-68853938D01*
X112147763Y-68833150D01*
X112148927Y-68828889D01*
X112147694Y-68820905D01*
X112147691Y-68820878D01*
X112147506Y-68819681D01*
X112147506Y-68819675D01*
X112143978Y-68796838D01*
X112143435Y-68792102D01*
X112136222Y-68695843D01*
X112112442Y-68591657D01*
X112111628Y-68587394D01*
X112110166Y-68577934D01*
X112110927Y-68572225D01*
X112110592Y-68571165D01*
X112109006Y-68564389D01*
X112107476Y-68561314D01*
X112106953Y-68559664D01*
X112101208Y-68541509D01*
X112099889Y-68536661D01*
X112079508Y-68447363D01*
X112060921Y-68400005D01*
X122551844Y-68400005D01*
X122570434Y-68624359D01*
X122570436Y-68624371D01*
X122625703Y-68842614D01*
X122716140Y-69048792D01*
X122839276Y-69237265D01*
X122839284Y-69237276D01*
X122958355Y-69366619D01*
X122991760Y-69402906D01*
X123169424Y-69541189D01*
X123169425Y-69541189D01*
X123169427Y-69541191D01*
X123253004Y-69586420D01*
X123367426Y-69648342D01*
X123580365Y-69721444D01*
X123802431Y-69758500D01*
X124027569Y-69758500D01*
X124249635Y-69721444D01*
X124462574Y-69648342D01*
X124660576Y-69541189D01*
X124838240Y-69402906D01*
X124943295Y-69288787D01*
X124990715Y-69237276D01*
X124990715Y-69237275D01*
X124990722Y-69237268D01*
X125081193Y-69098790D01*
X125134338Y-69053437D01*
X125203569Y-69044013D01*
X125266905Y-69073515D01*
X125288804Y-69098787D01*
X125379278Y-69237268D01*
X125379283Y-69237273D01*
X125379284Y-69237276D01*
X125498355Y-69366619D01*
X125531760Y-69402906D01*
X125709424Y-69541189D01*
X125709425Y-69541189D01*
X125709427Y-69541191D01*
X125793004Y-69586420D01*
X125907426Y-69648342D01*
X126120365Y-69721444D01*
X126342431Y-69758500D01*
X126567569Y-69758500D01*
X126789635Y-69721444D01*
X127002574Y-69648342D01*
X127200576Y-69541189D01*
X127378240Y-69402906D01*
X127483295Y-69288787D01*
X127530715Y-69237276D01*
X127530715Y-69237275D01*
X127530722Y-69237268D01*
X127621193Y-69098790D01*
X127674338Y-69053437D01*
X127743569Y-69044013D01*
X127806905Y-69073515D01*
X127828804Y-69098787D01*
X127919278Y-69237268D01*
X127919283Y-69237273D01*
X127919284Y-69237276D01*
X128038355Y-69366619D01*
X128071760Y-69402906D01*
X128249424Y-69541189D01*
X128249425Y-69541189D01*
X128249427Y-69541191D01*
X128333004Y-69586420D01*
X128447426Y-69648342D01*
X128660365Y-69721444D01*
X128882431Y-69758500D01*
X129107569Y-69758500D01*
X129329635Y-69721444D01*
X129542574Y-69648342D01*
X129740576Y-69541189D01*
X129918240Y-69402906D01*
X130023295Y-69288787D01*
X130070715Y-69237276D01*
X130070715Y-69237275D01*
X130070722Y-69237268D01*
X130164749Y-69093347D01*
X130217894Y-69047994D01*
X130287125Y-69038570D01*
X130350461Y-69068072D01*
X130370130Y-69090048D01*
X130496890Y-69271078D01*
X130663917Y-69438105D01*
X130857421Y-69573600D01*
X131071507Y-69673429D01*
X131071516Y-69673433D01*
X131285000Y-69730634D01*
X131285000Y-69012301D01*
X131304685Y-68945262D01*
X131357489Y-68899507D01*
X131426647Y-68889563D01*
X131499237Y-68900000D01*
X131499238Y-68900000D01*
X131570762Y-68900000D01*
X131570763Y-68900000D01*
X131643353Y-68889563D01*
X131712512Y-68899507D01*
X131765315Y-68945262D01*
X131785000Y-69012301D01*
X131785000Y-69730634D01*
X131998483Y-69673433D01*
X131998492Y-69673429D01*
X132212578Y-69573600D01*
X132406078Y-69438108D01*
X132521914Y-69322272D01*
X132583237Y-69288787D01*
X132652929Y-69293771D01*
X132708863Y-69335642D01*
X132725777Y-69366619D01*
X132774110Y-69496203D01*
X132774111Y-69496204D01*
X132861739Y-69613261D01*
X132978796Y-69700889D01*
X133115799Y-69751989D01*
X133143050Y-69754918D01*
X133176345Y-69758499D01*
X133176362Y-69758500D01*
X134973638Y-69758500D01*
X134973654Y-69758499D01*
X135000692Y-69755591D01*
X135034201Y-69751989D01*
X135171204Y-69700889D01*
X135288261Y-69613261D01*
X135375889Y-69496204D01*
X135426989Y-69359201D01*
X135432462Y-69308296D01*
X135433499Y-69298654D01*
X135433500Y-69298637D01*
X135433500Y-68950004D01*
X145844732Y-68950004D01*
X145863777Y-69204154D01*
X145920103Y-69450936D01*
X145920492Y-69452637D01*
X145983532Y-69613260D01*
X146013608Y-69689890D01*
X146040536Y-69736531D01*
X146141041Y-69910612D01*
X146299950Y-70109877D01*
X146486783Y-70283232D01*
X146697366Y-70426805D01*
X146697371Y-70426807D01*
X146697372Y-70426808D01*
X146697373Y-70426809D01*
X146855937Y-70503169D01*
X146926996Y-70537389D01*
X146969157Y-70550394D01*
X146976249Y-70553066D01*
X147011245Y-70568755D01*
X147039189Y-70571996D01*
X147170542Y-70612513D01*
X147170547Y-70612513D01*
X147170548Y-70612514D01*
X147218109Y-70619683D01*
X147225301Y-70621207D01*
X147227981Y-70621942D01*
X147228046Y-70621958D01*
X147262236Y-70631352D01*
X147289247Y-70630405D01*
X147422565Y-70650500D01*
X147422571Y-70650500D01*
X147474692Y-70650500D01*
X147481810Y-70650910D01*
X147519689Y-70655284D01*
X147545190Y-70650500D01*
X147677431Y-70650500D01*
X147677435Y-70650500D01*
X147733035Y-70642119D01*
X147739885Y-70641474D01*
X147745249Y-70641269D01*
X147745250Y-70641268D01*
X147747309Y-70641190D01*
X147747349Y-70641187D01*
X147777791Y-70640019D01*
X147801198Y-70631845D01*
X147929458Y-70612513D01*
X147987169Y-70594711D01*
X147993563Y-70593110D01*
X148001131Y-70591643D01*
X148001138Y-70591640D01*
X148001832Y-70591506D01*
X148001841Y-70591504D01*
X148030545Y-70585937D01*
X148051435Y-70574887D01*
X148173004Y-70537389D01*
X148231179Y-70509373D01*
X148237082Y-70506899D01*
X148246440Y-70503539D01*
X148246447Y-70503535D01*
X148247436Y-70503180D01*
X148247464Y-70503169D01*
X148272160Y-70494299D01*
X148290202Y-70480949D01*
X148402634Y-70426805D01*
X148459509Y-70388028D01*
X148464770Y-70384814D01*
X148475425Y-70379021D01*
X148475431Y-70379016D01*
X148497077Y-70367246D01*
X148512058Y-70352200D01*
X148613217Y-70283232D01*
X148666865Y-70233454D01*
X148671428Y-70229614D01*
X148700157Y-70207715D01*
X148711983Y-70191590D01*
X148800050Y-70109877D01*
X148848445Y-70049191D01*
X148852229Y-70044874D01*
X148863461Y-70033204D01*
X148863464Y-70033199D01*
X148864117Y-70032521D01*
X148864124Y-70032514D01*
X148876752Y-70019392D01*
X148885434Y-70002808D01*
X148958959Y-69910612D01*
X148960836Y-69907362D01*
X148973920Y-69884696D01*
X149000033Y-69839467D01*
X149002993Y-69834831D01*
X149013419Y-69820010D01*
X149013423Y-69820001D01*
X149022813Y-69806652D01*
X149028484Y-69790189D01*
X149086393Y-69689888D01*
X149118103Y-69609090D01*
X149120252Y-69604241D01*
X149129074Y-69586424D01*
X149129075Y-69586420D01*
X149131138Y-69582254D01*
X149131850Y-69581481D01*
X149133300Y-69577885D01*
X149133837Y-69576798D01*
X149135357Y-69566569D01*
X149137086Y-69561105D01*
X149138459Y-69557225D01*
X149179508Y-69452637D01*
X149199887Y-69363346D01*
X149201214Y-69358472D01*
X149207476Y-69338685D01*
X149208719Y-69336836D01*
X149210208Y-69330469D01*
X149210168Y-69322058D01*
X149211628Y-69312601D01*
X149212447Y-69308321D01*
X149236222Y-69204157D01*
X149243436Y-69107889D01*
X149243977Y-69103170D01*
X149247506Y-69080325D01*
X149247506Y-69080323D01*
X149247649Y-69079398D01*
X149247653Y-69079360D01*
X149248657Y-69072856D01*
X149247764Y-69066848D01*
X149247779Y-69066012D01*
X149248161Y-69046058D01*
X149248318Y-69042735D01*
X149255268Y-68950000D01*
X149248318Y-68857268D01*
X149248161Y-68853938D01*
X149247763Y-68833150D01*
X149248927Y-68828889D01*
X149247694Y-68820905D01*
X149247691Y-68820878D01*
X149247506Y-68819681D01*
X149247506Y-68819675D01*
X149243978Y-68796838D01*
X149243435Y-68792102D01*
X149236222Y-68695843D01*
X149212442Y-68591657D01*
X149211628Y-68587394D01*
X149210166Y-68577934D01*
X149210927Y-68572225D01*
X149210592Y-68571165D01*
X149209006Y-68564389D01*
X149207476Y-68561314D01*
X149206953Y-68559664D01*
X149201208Y-68541509D01*
X149199889Y-68536661D01*
X149179508Y-68447363D01*
X149138462Y-68342782D01*
X149137085Y-68338890D01*
X149135360Y-68333441D01*
X149135205Y-68325961D01*
X149133299Y-68322112D01*
X149132073Y-68319072D01*
X149131139Y-68317746D01*
X149124257Y-68303848D01*
X149120235Y-68295725D01*
X149118107Y-68290918D01*
X149086393Y-68210112D01*
X149028485Y-68109812D01*
X149025373Y-68096983D01*
X149003006Y-68065185D01*
X149000022Y-68060512D01*
X148998810Y-68058412D01*
X148958959Y-67989388D01*
X148885434Y-67897191D01*
X148880071Y-67884055D01*
X148852240Y-67855137D01*
X148848445Y-67850808D01*
X148800050Y-67790123D01*
X148800047Y-67790120D01*
X148711983Y-67708408D01*
X148704224Y-67695382D01*
X148671427Y-67670383D01*
X148666839Y-67666521D01*
X148613217Y-67616767D01*
X148512058Y-67547798D01*
X148501847Y-67535346D01*
X148464795Y-67515197D01*
X148459485Y-67511955D01*
X148402634Y-67473195D01*
X148402630Y-67473193D01*
X148290201Y-67419050D01*
X148277562Y-67407639D01*
X148248837Y-67397322D01*
X148248828Y-67397318D01*
X148237094Y-67393103D01*
X148231152Y-67390613D01*
X148173006Y-67362612D01*
X148173004Y-67362611D01*
X148122177Y-67346933D01*
X148051434Y-67325111D01*
X148036484Y-67315213D01*
X147993597Y-67306895D01*
X147987122Y-67305274D01*
X147929463Y-67287488D01*
X147929459Y-67287487D01*
X147929458Y-67287487D01*
X147881876Y-67280315D01*
X147801191Y-67268153D01*
X147784124Y-67260218D01*
X147739874Y-67258523D01*
X147733001Y-67257875D01*
X147677440Y-67249500D01*
X147677435Y-67249500D01*
X147545192Y-67249500D01*
X147526308Y-67243955D01*
X147491178Y-67248010D01*
X147491171Y-67248011D01*
X147481819Y-67249091D01*
X147474704Y-67249500D01*
X147422557Y-67249500D01*
X147289233Y-67269596D01*
X147268904Y-67266814D01*
X147229073Y-67277758D01*
X147229038Y-67277767D01*
X147225274Y-67278799D01*
X147218115Y-67280315D01*
X147170539Y-67287487D01*
X147039113Y-67328026D01*
X147017772Y-67328316D01*
X146976247Y-67346933D01*
X146969153Y-67349606D01*
X146926998Y-67362609D01*
X146697370Y-67473192D01*
X146486782Y-67616768D01*
X146299952Y-67790121D01*
X146299950Y-67790123D01*
X146141041Y-67989388D01*
X146013608Y-68210109D01*
X145920492Y-68447362D01*
X145920490Y-68447369D01*
X145863777Y-68695845D01*
X145844732Y-68949995D01*
X145844732Y-68950004D01*
X135433500Y-68950004D01*
X135433500Y-67501362D01*
X135433499Y-67501345D01*
X135429821Y-67467141D01*
X135426989Y-67440799D01*
X135424222Y-67433381D01*
X135397559Y-67361894D01*
X135375889Y-67303796D01*
X135288261Y-67186739D01*
X135171204Y-67099111D01*
X135170343Y-67098790D01*
X135034203Y-67048011D01*
X134973654Y-67041500D01*
X134973638Y-67041500D01*
X133176362Y-67041500D01*
X133176345Y-67041500D01*
X133115797Y-67048011D01*
X133115795Y-67048011D01*
X132978795Y-67099111D01*
X132861739Y-67186739D01*
X132774111Y-67303795D01*
X132725777Y-67433381D01*
X132683905Y-67489314D01*
X132618441Y-67513730D01*
X132550168Y-67498878D01*
X132521915Y-67477727D01*
X132406082Y-67361894D01*
X132212578Y-67226399D01*
X131998492Y-67126570D01*
X131998486Y-67126567D01*
X131785000Y-67069364D01*
X131784999Y-67069364D01*
X131785000Y-67787698D01*
X131765315Y-67854737D01*
X131712511Y-67900492D01*
X131643355Y-67910436D01*
X131570766Y-67900000D01*
X131570763Y-67900000D01*
X131499237Y-67900000D01*
X131499233Y-67900000D01*
X131426645Y-67910436D01*
X131357487Y-67900492D01*
X131304684Y-67854736D01*
X131285000Y-67787698D01*
X131285000Y-67069364D01*
X131284999Y-67069364D01*
X131071513Y-67126567D01*
X131071507Y-67126570D01*
X130857422Y-67226399D01*
X130857420Y-67226400D01*
X130663926Y-67361886D01*
X130663920Y-67361891D01*
X130496891Y-67528920D01*
X130496890Y-67528922D01*
X130370131Y-67709952D01*
X130315554Y-67753577D01*
X130246055Y-67760769D01*
X130183701Y-67729247D01*
X130164752Y-67706656D01*
X130070722Y-67562732D01*
X130070715Y-67562725D01*
X130070715Y-67562723D01*
X129918243Y-67397097D01*
X129918238Y-67397092D01*
X129777420Y-67287488D01*
X129740576Y-67258811D01*
X129740575Y-67258810D01*
X129740572Y-67258808D01*
X129542580Y-67151661D01*
X129542577Y-67151659D01*
X129542574Y-67151658D01*
X129542571Y-67151657D01*
X129542569Y-67151656D01*
X129329637Y-67078556D01*
X129107569Y-67041500D01*
X128882431Y-67041500D01*
X128660362Y-67078556D01*
X128447430Y-67151656D01*
X128447419Y-67151661D01*
X128249427Y-67258808D01*
X128249422Y-67258812D01*
X128071761Y-67397092D01*
X128071756Y-67397097D01*
X127919284Y-67562723D01*
X127919276Y-67562734D01*
X127828808Y-67701206D01*
X127775662Y-67746562D01*
X127706431Y-67755986D01*
X127643095Y-67726484D01*
X127621192Y-67701206D01*
X127530723Y-67562734D01*
X127530715Y-67562723D01*
X127378243Y-67397097D01*
X127378238Y-67397092D01*
X127237420Y-67287488D01*
X127200576Y-67258811D01*
X127200575Y-67258810D01*
X127200572Y-67258808D01*
X127002580Y-67151661D01*
X127002577Y-67151659D01*
X127002574Y-67151658D01*
X127002571Y-67151657D01*
X127002569Y-67151656D01*
X126789637Y-67078556D01*
X126567569Y-67041500D01*
X126342431Y-67041500D01*
X126120362Y-67078556D01*
X125907430Y-67151656D01*
X125907419Y-67151661D01*
X125709427Y-67258808D01*
X125709422Y-67258812D01*
X125531761Y-67397092D01*
X125531756Y-67397097D01*
X125379284Y-67562723D01*
X125379276Y-67562734D01*
X125288808Y-67701206D01*
X125235662Y-67746562D01*
X125166431Y-67755986D01*
X125103095Y-67726484D01*
X125081192Y-67701206D01*
X124990723Y-67562734D01*
X124990715Y-67562723D01*
X124838243Y-67397097D01*
X124838238Y-67397092D01*
X124697420Y-67287488D01*
X124660576Y-67258811D01*
X124660575Y-67258810D01*
X124660572Y-67258808D01*
X124462580Y-67151661D01*
X124462577Y-67151659D01*
X124462574Y-67151658D01*
X124462571Y-67151657D01*
X124462569Y-67151656D01*
X124249637Y-67078556D01*
X124027569Y-67041500D01*
X123802431Y-67041500D01*
X123580362Y-67078556D01*
X123367430Y-67151656D01*
X123367419Y-67151661D01*
X123169427Y-67258808D01*
X123169422Y-67258812D01*
X122991761Y-67397092D01*
X122991756Y-67397097D01*
X122839284Y-67562723D01*
X122839276Y-67562734D01*
X122716140Y-67751207D01*
X122625703Y-67957385D01*
X122570436Y-68175628D01*
X122570434Y-68175640D01*
X122551844Y-68399994D01*
X122551844Y-68400005D01*
X112060921Y-68400005D01*
X112038462Y-68342782D01*
X112037085Y-68338890D01*
X112035360Y-68333441D01*
X112035205Y-68325961D01*
X112033299Y-68322112D01*
X112032073Y-68319072D01*
X112031139Y-68317746D01*
X112024257Y-68303848D01*
X112020235Y-68295725D01*
X112018107Y-68290918D01*
X111986393Y-68210112D01*
X111928485Y-68109812D01*
X111925373Y-68096983D01*
X111903006Y-68065185D01*
X111900022Y-68060512D01*
X111898810Y-68058412D01*
X111858959Y-67989388D01*
X111785434Y-67897191D01*
X111780071Y-67884055D01*
X111752240Y-67855137D01*
X111748445Y-67850808D01*
X111700050Y-67790123D01*
X111700047Y-67790120D01*
X111611983Y-67708408D01*
X111604224Y-67695382D01*
X111571427Y-67670383D01*
X111566839Y-67666521D01*
X111513217Y-67616767D01*
X111412058Y-67547798D01*
X111401847Y-67535346D01*
X111364795Y-67515197D01*
X111359485Y-67511955D01*
X111302634Y-67473195D01*
X111302630Y-67473193D01*
X111190201Y-67419050D01*
X111177562Y-67407639D01*
X111148837Y-67397322D01*
X111148828Y-67397318D01*
X111137094Y-67393103D01*
X111131152Y-67390613D01*
X111073006Y-67362612D01*
X111073004Y-67362611D01*
X111022177Y-67346933D01*
X110951434Y-67325111D01*
X110936484Y-67315213D01*
X110893597Y-67306895D01*
X110887122Y-67305274D01*
X110829463Y-67287488D01*
X110829459Y-67287487D01*
X110829458Y-67287487D01*
X110781876Y-67280315D01*
X110701191Y-67268153D01*
X110684124Y-67260218D01*
X110639874Y-67258523D01*
X110633001Y-67257875D01*
X110577440Y-67249500D01*
X110577435Y-67249500D01*
X110445192Y-67249500D01*
X110426308Y-67243955D01*
X110391178Y-67248010D01*
X110391171Y-67248011D01*
X110381819Y-67249091D01*
X110374704Y-67249500D01*
X110322557Y-67249500D01*
X110189233Y-67269596D01*
X110168904Y-67266814D01*
X110129073Y-67277758D01*
X110129038Y-67277767D01*
X110125274Y-67278799D01*
X110118115Y-67280315D01*
X110070539Y-67287487D01*
X109939113Y-67328026D01*
X109917772Y-67328316D01*
X109876247Y-67346933D01*
X109869153Y-67349606D01*
X109826998Y-67362609D01*
X109597370Y-67473192D01*
X109386782Y-67616768D01*
X109199952Y-67790121D01*
X109199950Y-67790123D01*
X109041041Y-67989388D01*
X108913608Y-68210109D01*
X108820492Y-68447362D01*
X108820490Y-68447369D01*
X108763777Y-68695845D01*
X108744732Y-68949995D01*
X108744732Y-68950004D01*
X107950000Y-68950004D01*
X107950000Y-67967162D01*
X107959438Y-67919712D01*
X107973231Y-67886412D01*
X107974293Y-67884055D01*
X108037592Y-67743409D01*
X108039851Y-67738894D01*
X108114149Y-67604462D01*
X108194886Y-67470908D01*
X108197326Y-67467186D01*
X108285871Y-67342394D01*
X108287578Y-67340107D01*
X108382790Y-67218578D01*
X108385327Y-67215547D01*
X108487443Y-67101279D01*
X108489763Y-67098826D01*
X108598826Y-66989763D01*
X108601279Y-66987443D01*
X108715547Y-66885327D01*
X108718578Y-66882790D01*
X108840107Y-66787578D01*
X108842394Y-66785871D01*
X108967186Y-66697326D01*
X108970908Y-66694886D01*
X109104462Y-66614149D01*
X109238904Y-66539846D01*
X109243398Y-66537597D01*
X109386420Y-66473228D01*
X109527089Y-66414961D01*
X109532283Y-66413079D01*
X109683858Y-66365846D01*
X109827835Y-66324367D01*
X109833758Y-66322975D01*
X109994911Y-66293442D01*
X110137079Y-66269287D01*
X110143675Y-66268529D01*
X110334274Y-66256999D01*
X110423000Y-66252016D01*
X110448263Y-66250598D01*
X110451740Y-66250500D01*
X128999901Y-66250500D01*
X147548260Y-66250500D01*
X147551737Y-66250598D01*
G37*
G04 #@! TD.AperFunction*
G04 #@! TD*
M02*
