G04 #@! TF.GenerationSoftware,KiCad,Pcbnew,7.0.7-2.fc38*
G04 #@! TF.CreationDate,2023-10-09T12:18:05+01:00*
G04 #@! TF.ProjectId,Button_PCB,42757474-6f6e-45f5-9043-422e6b696361,rev?*
G04 #@! TF.SameCoordinates,Original*
G04 #@! TF.FileFunction,Legend,Top*
G04 #@! TF.FilePolarity,Positive*
%FSLAX46Y46*%
G04 Gerber Fmt 4.6, Leading zero omitted, Abs format (unit mm)*
G04 Created by KiCad (PCBNEW 7.0.7-2.fc38) date 2023-10-09 12:18:05*
%MOMM*%
%LPD*%
G01*
G04 APERTURE LIST*
%ADD10C,0.150000*%
%ADD11C,0.120000*%
G04 APERTURE END LIST*
D10*
X116428570Y-90307200D02*
X116571427Y-90354819D01*
X116571427Y-90354819D02*
X116809522Y-90354819D01*
X116809522Y-90354819D02*
X116904760Y-90307200D01*
X116904760Y-90307200D02*
X116952379Y-90259580D01*
X116952379Y-90259580D02*
X116999998Y-90164342D01*
X116999998Y-90164342D02*
X116999998Y-90069104D01*
X116999998Y-90069104D02*
X116952379Y-89973866D01*
X116952379Y-89973866D02*
X116904760Y-89926247D01*
X116904760Y-89926247D02*
X116809522Y-89878628D01*
X116809522Y-89878628D02*
X116619046Y-89831009D01*
X116619046Y-89831009D02*
X116523808Y-89783390D01*
X116523808Y-89783390D02*
X116476189Y-89735771D01*
X116476189Y-89735771D02*
X116428570Y-89640533D01*
X116428570Y-89640533D02*
X116428570Y-89545295D01*
X116428570Y-89545295D02*
X116476189Y-89450057D01*
X116476189Y-89450057D02*
X116523808Y-89402438D01*
X116523808Y-89402438D02*
X116619046Y-89354819D01*
X116619046Y-89354819D02*
X116857141Y-89354819D01*
X116857141Y-89354819D02*
X116999998Y-89402438D01*
X117857141Y-89688152D02*
X117857141Y-90354819D01*
X117428570Y-89688152D02*
X117428570Y-90211961D01*
X117428570Y-90211961D02*
X117476189Y-90307200D01*
X117476189Y-90307200D02*
X117571427Y-90354819D01*
X117571427Y-90354819D02*
X117714284Y-90354819D01*
X117714284Y-90354819D02*
X117809522Y-90307200D01*
X117809522Y-90307200D02*
X117857141Y-90259580D01*
X118333332Y-89688152D02*
X118333332Y-90354819D01*
X118333332Y-89783390D02*
X118380951Y-89735771D01*
X118380951Y-89735771D02*
X118476189Y-89688152D01*
X118476189Y-89688152D02*
X118619046Y-89688152D01*
X118619046Y-89688152D02*
X118714284Y-89735771D01*
X118714284Y-89735771D02*
X118761903Y-89831009D01*
X118761903Y-89831009D02*
X118761903Y-90354819D01*
X119238094Y-90354819D02*
X119238094Y-89688152D01*
X119238094Y-89878628D02*
X119285713Y-89783390D01*
X119285713Y-89783390D02*
X119333332Y-89735771D01*
X119333332Y-89735771D02*
X119428570Y-89688152D01*
X119428570Y-89688152D02*
X119523808Y-89688152D01*
X119857142Y-90354819D02*
X119857142Y-89688152D01*
X119857142Y-89354819D02*
X119809523Y-89402438D01*
X119809523Y-89402438D02*
X119857142Y-89450057D01*
X119857142Y-89450057D02*
X119904761Y-89402438D01*
X119904761Y-89402438D02*
X119857142Y-89354819D01*
X119857142Y-89354819D02*
X119857142Y-89450057D01*
X120285713Y-90307200D02*
X120380951Y-90354819D01*
X120380951Y-90354819D02*
X120571427Y-90354819D01*
X120571427Y-90354819D02*
X120666665Y-90307200D01*
X120666665Y-90307200D02*
X120714284Y-90211961D01*
X120714284Y-90211961D02*
X120714284Y-90164342D01*
X120714284Y-90164342D02*
X120666665Y-90069104D01*
X120666665Y-90069104D02*
X120571427Y-90021485D01*
X120571427Y-90021485D02*
X120428570Y-90021485D01*
X120428570Y-90021485D02*
X120333332Y-89973866D01*
X120333332Y-89973866D02*
X120285713Y-89878628D01*
X120285713Y-89878628D02*
X120285713Y-89831009D01*
X120285713Y-89831009D02*
X120333332Y-89735771D01*
X120333332Y-89735771D02*
X120428570Y-89688152D01*
X120428570Y-89688152D02*
X120571427Y-89688152D01*
X120571427Y-89688152D02*
X120666665Y-89735771D01*
X121523808Y-90307200D02*
X121428570Y-90354819D01*
X121428570Y-90354819D02*
X121238094Y-90354819D01*
X121238094Y-90354819D02*
X121142856Y-90307200D01*
X121142856Y-90307200D02*
X121095237Y-90211961D01*
X121095237Y-90211961D02*
X121095237Y-89831009D01*
X121095237Y-89831009D02*
X121142856Y-89735771D01*
X121142856Y-89735771D02*
X121238094Y-89688152D01*
X121238094Y-89688152D02*
X121428570Y-89688152D01*
X121428570Y-89688152D02*
X121523808Y-89735771D01*
X121523808Y-89735771D02*
X121571427Y-89831009D01*
X121571427Y-89831009D02*
X121571427Y-89926247D01*
X121571427Y-89926247D02*
X121095237Y-90021485D01*
X122714285Y-90069104D02*
X123190475Y-90069104D01*
X122619047Y-90354819D02*
X122952380Y-89354819D01*
X122952380Y-89354819D02*
X123285713Y-90354819D01*
X123761904Y-90354819D02*
X123666666Y-90307200D01*
X123666666Y-90307200D02*
X123619047Y-90211961D01*
X123619047Y-90211961D02*
X123619047Y-89354819D01*
X124571428Y-90354819D02*
X124571428Y-89831009D01*
X124571428Y-89831009D02*
X124523809Y-89735771D01*
X124523809Y-89735771D02*
X124428571Y-89688152D01*
X124428571Y-89688152D02*
X124238095Y-89688152D01*
X124238095Y-89688152D02*
X124142857Y-89735771D01*
X124571428Y-90307200D02*
X124476190Y-90354819D01*
X124476190Y-90354819D02*
X124238095Y-90354819D01*
X124238095Y-90354819D02*
X124142857Y-90307200D01*
X124142857Y-90307200D02*
X124095238Y-90211961D01*
X124095238Y-90211961D02*
X124095238Y-90116723D01*
X124095238Y-90116723D02*
X124142857Y-90021485D01*
X124142857Y-90021485D02*
X124238095Y-89973866D01*
X124238095Y-89973866D02*
X124476190Y-89973866D01*
X124476190Y-89973866D02*
X124571428Y-89926247D01*
X125047619Y-90354819D02*
X125047619Y-89688152D01*
X125047619Y-89878628D02*
X125095238Y-89783390D01*
X125095238Y-89783390D02*
X125142857Y-89735771D01*
X125142857Y-89735771D02*
X125238095Y-89688152D01*
X125238095Y-89688152D02*
X125333333Y-89688152D01*
X125666667Y-90354819D02*
X125666667Y-89688152D01*
X125666667Y-89783390D02*
X125714286Y-89735771D01*
X125714286Y-89735771D02*
X125809524Y-89688152D01*
X125809524Y-89688152D02*
X125952381Y-89688152D01*
X125952381Y-89688152D02*
X126047619Y-89735771D01*
X126047619Y-89735771D02*
X126095238Y-89831009D01*
X126095238Y-89831009D02*
X126095238Y-90354819D01*
X126095238Y-89831009D02*
X126142857Y-89735771D01*
X126142857Y-89735771D02*
X126238095Y-89688152D01*
X126238095Y-89688152D02*
X126380952Y-89688152D01*
X126380952Y-89688152D02*
X126476191Y-89735771D01*
X126476191Y-89735771D02*
X126523810Y-89831009D01*
X126523810Y-89831009D02*
X126523810Y-90354819D01*
X127619048Y-89354819D02*
X127952381Y-90354819D01*
X127952381Y-90354819D02*
X128285714Y-89354819D01*
X128523810Y-89354819D02*
X129142857Y-89354819D01*
X129142857Y-89354819D02*
X128809524Y-89735771D01*
X128809524Y-89735771D02*
X128952381Y-89735771D01*
X128952381Y-89735771D02*
X129047619Y-89783390D01*
X129047619Y-89783390D02*
X129095238Y-89831009D01*
X129095238Y-89831009D02*
X129142857Y-89926247D01*
X129142857Y-89926247D02*
X129142857Y-90164342D01*
X129142857Y-90164342D02*
X129095238Y-90259580D01*
X129095238Y-90259580D02*
X129047619Y-90307200D01*
X129047619Y-90307200D02*
X128952381Y-90354819D01*
X128952381Y-90354819D02*
X128666667Y-90354819D01*
X128666667Y-90354819D02*
X128571429Y-90307200D01*
X128571429Y-90307200D02*
X128523810Y-90259580D01*
X129571429Y-90259580D02*
X129619048Y-90307200D01*
X129619048Y-90307200D02*
X129571429Y-90354819D01*
X129571429Y-90354819D02*
X129523810Y-90307200D01*
X129523810Y-90307200D02*
X129571429Y-90259580D01*
X129571429Y-90259580D02*
X129571429Y-90354819D01*
X129571429Y-89735771D02*
X129619048Y-89783390D01*
X129619048Y-89783390D02*
X129571429Y-89831009D01*
X129571429Y-89831009D02*
X129523810Y-89783390D01*
X129523810Y-89783390D02*
X129571429Y-89735771D01*
X129571429Y-89735771D02*
X129571429Y-89831009D01*
X131142857Y-89831009D02*
X131285714Y-89878628D01*
X131285714Y-89878628D02*
X131333333Y-89926247D01*
X131333333Y-89926247D02*
X131380952Y-90021485D01*
X131380952Y-90021485D02*
X131380952Y-90164342D01*
X131380952Y-90164342D02*
X131333333Y-90259580D01*
X131333333Y-90259580D02*
X131285714Y-90307200D01*
X131285714Y-90307200D02*
X131190476Y-90354819D01*
X131190476Y-90354819D02*
X130809524Y-90354819D01*
X130809524Y-90354819D02*
X130809524Y-89354819D01*
X130809524Y-89354819D02*
X131142857Y-89354819D01*
X131142857Y-89354819D02*
X131238095Y-89402438D01*
X131238095Y-89402438D02*
X131285714Y-89450057D01*
X131285714Y-89450057D02*
X131333333Y-89545295D01*
X131333333Y-89545295D02*
X131333333Y-89640533D01*
X131333333Y-89640533D02*
X131285714Y-89735771D01*
X131285714Y-89735771D02*
X131238095Y-89783390D01*
X131238095Y-89783390D02*
X131142857Y-89831009D01*
X131142857Y-89831009D02*
X130809524Y-89831009D01*
X132238095Y-89688152D02*
X132238095Y-90354819D01*
X131809524Y-89688152D02*
X131809524Y-90211961D01*
X131809524Y-90211961D02*
X131857143Y-90307200D01*
X131857143Y-90307200D02*
X131952381Y-90354819D01*
X131952381Y-90354819D02*
X132095238Y-90354819D01*
X132095238Y-90354819D02*
X132190476Y-90307200D01*
X132190476Y-90307200D02*
X132238095Y-90259580D01*
X132571429Y-89688152D02*
X132952381Y-89688152D01*
X132714286Y-89354819D02*
X132714286Y-90211961D01*
X132714286Y-90211961D02*
X132761905Y-90307200D01*
X132761905Y-90307200D02*
X132857143Y-90354819D01*
X132857143Y-90354819D02*
X132952381Y-90354819D01*
X133142858Y-89688152D02*
X133523810Y-89688152D01*
X133285715Y-89354819D02*
X133285715Y-90211961D01*
X133285715Y-90211961D02*
X133333334Y-90307200D01*
X133333334Y-90307200D02*
X133428572Y-90354819D01*
X133428572Y-90354819D02*
X133523810Y-90354819D01*
X134000001Y-90354819D02*
X133904763Y-90307200D01*
X133904763Y-90307200D02*
X133857144Y-90259580D01*
X133857144Y-90259580D02*
X133809525Y-90164342D01*
X133809525Y-90164342D02*
X133809525Y-89878628D01*
X133809525Y-89878628D02*
X133857144Y-89783390D01*
X133857144Y-89783390D02*
X133904763Y-89735771D01*
X133904763Y-89735771D02*
X134000001Y-89688152D01*
X134000001Y-89688152D02*
X134142858Y-89688152D01*
X134142858Y-89688152D02*
X134238096Y-89735771D01*
X134238096Y-89735771D02*
X134285715Y-89783390D01*
X134285715Y-89783390D02*
X134333334Y-89878628D01*
X134333334Y-89878628D02*
X134333334Y-90164342D01*
X134333334Y-90164342D02*
X134285715Y-90259580D01*
X134285715Y-90259580D02*
X134238096Y-90307200D01*
X134238096Y-90307200D02*
X134142858Y-90354819D01*
X134142858Y-90354819D02*
X134000001Y-90354819D01*
X134761906Y-89688152D02*
X134761906Y-90354819D01*
X134761906Y-89783390D02*
X134809525Y-89735771D01*
X134809525Y-89735771D02*
X134904763Y-89688152D01*
X134904763Y-89688152D02*
X135047620Y-89688152D01*
X135047620Y-89688152D02*
X135142858Y-89735771D01*
X135142858Y-89735771D02*
X135190477Y-89831009D01*
X135190477Y-89831009D02*
X135190477Y-90354819D01*
X136428573Y-90354819D02*
X136428573Y-89354819D01*
X136428573Y-89354819D02*
X136809525Y-89354819D01*
X136809525Y-89354819D02*
X136904763Y-89402438D01*
X136904763Y-89402438D02*
X136952382Y-89450057D01*
X136952382Y-89450057D02*
X137000001Y-89545295D01*
X137000001Y-89545295D02*
X137000001Y-89688152D01*
X137000001Y-89688152D02*
X136952382Y-89783390D01*
X136952382Y-89783390D02*
X136904763Y-89831009D01*
X136904763Y-89831009D02*
X136809525Y-89878628D01*
X136809525Y-89878628D02*
X136428573Y-89878628D01*
X138000001Y-90259580D02*
X137952382Y-90307200D01*
X137952382Y-90307200D02*
X137809525Y-90354819D01*
X137809525Y-90354819D02*
X137714287Y-90354819D01*
X137714287Y-90354819D02*
X137571430Y-90307200D01*
X137571430Y-90307200D02*
X137476192Y-90211961D01*
X137476192Y-90211961D02*
X137428573Y-90116723D01*
X137428573Y-90116723D02*
X137380954Y-89926247D01*
X137380954Y-89926247D02*
X137380954Y-89783390D01*
X137380954Y-89783390D02*
X137428573Y-89592914D01*
X137428573Y-89592914D02*
X137476192Y-89497676D01*
X137476192Y-89497676D02*
X137571430Y-89402438D01*
X137571430Y-89402438D02*
X137714287Y-89354819D01*
X137714287Y-89354819D02*
X137809525Y-89354819D01*
X137809525Y-89354819D02*
X137952382Y-89402438D01*
X137952382Y-89402438D02*
X138000001Y-89450057D01*
X138761906Y-89831009D02*
X138904763Y-89878628D01*
X138904763Y-89878628D02*
X138952382Y-89926247D01*
X138952382Y-89926247D02*
X139000001Y-90021485D01*
X139000001Y-90021485D02*
X139000001Y-90164342D01*
X139000001Y-90164342D02*
X138952382Y-90259580D01*
X138952382Y-90259580D02*
X138904763Y-90307200D01*
X138904763Y-90307200D02*
X138809525Y-90354819D01*
X138809525Y-90354819D02*
X138428573Y-90354819D01*
X138428573Y-90354819D02*
X138428573Y-89354819D01*
X138428573Y-89354819D02*
X138761906Y-89354819D01*
X138761906Y-89354819D02*
X138857144Y-89402438D01*
X138857144Y-89402438D02*
X138904763Y-89450057D01*
X138904763Y-89450057D02*
X138952382Y-89545295D01*
X138952382Y-89545295D02*
X138952382Y-89640533D01*
X138952382Y-89640533D02*
X138904763Y-89735771D01*
X138904763Y-89735771D02*
X138857144Y-89783390D01*
X138857144Y-89783390D02*
X138761906Y-89831009D01*
X138761906Y-89831009D02*
X138428573Y-89831009D01*
X140047621Y-89354819D02*
X140380954Y-90354819D01*
X140380954Y-90354819D02*
X140714287Y-89354819D01*
X141571430Y-90354819D02*
X141000002Y-90354819D01*
X141285716Y-90354819D02*
X141285716Y-89354819D01*
X141285716Y-89354819D02*
X141190478Y-89497676D01*
X141190478Y-89497676D02*
X141095240Y-89592914D01*
X141095240Y-89592914D02*
X141000002Y-89640533D01*
X115416666Y-79834819D02*
X115416666Y-80549104D01*
X115416666Y-80549104D02*
X115369047Y-80691961D01*
X115369047Y-80691961D02*
X115273809Y-80787200D01*
X115273809Y-80787200D02*
X115130952Y-80834819D01*
X115130952Y-80834819D02*
X115035714Y-80834819D01*
X116321428Y-80168152D02*
X116321428Y-80834819D01*
X116083333Y-79787200D02*
X115845238Y-80501485D01*
X115845238Y-80501485D02*
X116464285Y-80501485D01*
X111583332Y-82334819D02*
X111107142Y-82334819D01*
X111107142Y-82334819D02*
X111107142Y-81334819D01*
X111916666Y-81811009D02*
X112249999Y-81811009D01*
X112392856Y-82334819D02*
X111916666Y-82334819D01*
X111916666Y-82334819D02*
X111916666Y-81334819D01*
X111916666Y-81334819D02*
X112392856Y-81334819D01*
X113154761Y-81811009D02*
X112821428Y-81811009D01*
X112821428Y-82334819D02*
X112821428Y-81334819D01*
X112821428Y-81334819D02*
X113297618Y-81334819D01*
X113535714Y-81334819D02*
X114107142Y-81334819D01*
X113821428Y-82334819D02*
X113821428Y-81334819D01*
X114202381Y-82430057D02*
X114964285Y-82430057D01*
X115535714Y-81811009D02*
X115678571Y-81858628D01*
X115678571Y-81858628D02*
X115726190Y-81906247D01*
X115726190Y-81906247D02*
X115773809Y-82001485D01*
X115773809Y-82001485D02*
X115773809Y-82144342D01*
X115773809Y-82144342D02*
X115726190Y-82239580D01*
X115726190Y-82239580D02*
X115678571Y-82287200D01*
X115678571Y-82287200D02*
X115583333Y-82334819D01*
X115583333Y-82334819D02*
X115202381Y-82334819D01*
X115202381Y-82334819D02*
X115202381Y-81334819D01*
X115202381Y-81334819D02*
X115535714Y-81334819D01*
X115535714Y-81334819D02*
X115630952Y-81382438D01*
X115630952Y-81382438D02*
X115678571Y-81430057D01*
X115678571Y-81430057D02*
X115726190Y-81525295D01*
X115726190Y-81525295D02*
X115726190Y-81620533D01*
X115726190Y-81620533D02*
X115678571Y-81715771D01*
X115678571Y-81715771D02*
X115630952Y-81763390D01*
X115630952Y-81763390D02*
X115535714Y-81811009D01*
X115535714Y-81811009D02*
X115202381Y-81811009D01*
X116202381Y-81334819D02*
X116202381Y-82144342D01*
X116202381Y-82144342D02*
X116250000Y-82239580D01*
X116250000Y-82239580D02*
X116297619Y-82287200D01*
X116297619Y-82287200D02*
X116392857Y-82334819D01*
X116392857Y-82334819D02*
X116583333Y-82334819D01*
X116583333Y-82334819D02*
X116678571Y-82287200D01*
X116678571Y-82287200D02*
X116726190Y-82239580D01*
X116726190Y-82239580D02*
X116773809Y-82144342D01*
X116773809Y-82144342D02*
X116773809Y-81334819D01*
X117107143Y-81334819D02*
X117678571Y-81334819D01*
X117392857Y-82334819D02*
X117392857Y-81334819D01*
X117869048Y-81334819D02*
X118440476Y-81334819D01*
X118154762Y-82334819D02*
X118154762Y-81334819D01*
X118964286Y-81334819D02*
X119154762Y-81334819D01*
X119154762Y-81334819D02*
X119250000Y-81382438D01*
X119250000Y-81382438D02*
X119345238Y-81477676D01*
X119345238Y-81477676D02*
X119392857Y-81668152D01*
X119392857Y-81668152D02*
X119392857Y-82001485D01*
X119392857Y-82001485D02*
X119345238Y-82191961D01*
X119345238Y-82191961D02*
X119250000Y-82287200D01*
X119250000Y-82287200D02*
X119154762Y-82334819D01*
X119154762Y-82334819D02*
X118964286Y-82334819D01*
X118964286Y-82334819D02*
X118869048Y-82287200D01*
X118869048Y-82287200D02*
X118773810Y-82191961D01*
X118773810Y-82191961D02*
X118726191Y-82001485D01*
X118726191Y-82001485D02*
X118726191Y-81668152D01*
X118726191Y-81668152D02*
X118773810Y-81477676D01*
X118773810Y-81477676D02*
X118869048Y-81382438D01*
X118869048Y-81382438D02*
X118964286Y-81334819D01*
X119821429Y-82334819D02*
X119821429Y-81334819D01*
X119821429Y-81334819D02*
X120392857Y-82334819D01*
X120392857Y-82334819D02*
X120392857Y-81334819D01*
X142016666Y-79834819D02*
X142016666Y-80549104D01*
X142016666Y-80549104D02*
X141969047Y-80691961D01*
X141969047Y-80691961D02*
X141873809Y-80787200D01*
X141873809Y-80787200D02*
X141730952Y-80834819D01*
X141730952Y-80834819D02*
X141635714Y-80834819D01*
X142445238Y-79930057D02*
X142492857Y-79882438D01*
X142492857Y-79882438D02*
X142588095Y-79834819D01*
X142588095Y-79834819D02*
X142826190Y-79834819D01*
X142826190Y-79834819D02*
X142921428Y-79882438D01*
X142921428Y-79882438D02*
X142969047Y-79930057D01*
X142969047Y-79930057D02*
X143016666Y-80025295D01*
X143016666Y-80025295D02*
X143016666Y-80120533D01*
X143016666Y-80120533D02*
X142969047Y-80263390D01*
X142969047Y-80263390D02*
X142397619Y-80834819D01*
X142397619Y-80834819D02*
X143016666Y-80834819D01*
X137802380Y-82334819D02*
X137469047Y-81858628D01*
X137230952Y-82334819D02*
X137230952Y-81334819D01*
X137230952Y-81334819D02*
X137611904Y-81334819D01*
X137611904Y-81334819D02*
X137707142Y-81382438D01*
X137707142Y-81382438D02*
X137754761Y-81430057D01*
X137754761Y-81430057D02*
X137802380Y-81525295D01*
X137802380Y-81525295D02*
X137802380Y-81668152D01*
X137802380Y-81668152D02*
X137754761Y-81763390D01*
X137754761Y-81763390D02*
X137707142Y-81811009D01*
X137707142Y-81811009D02*
X137611904Y-81858628D01*
X137611904Y-81858628D02*
X137230952Y-81858628D01*
X138230952Y-82334819D02*
X138230952Y-81334819D01*
X139230951Y-81382438D02*
X139135713Y-81334819D01*
X139135713Y-81334819D02*
X138992856Y-81334819D01*
X138992856Y-81334819D02*
X138849999Y-81382438D01*
X138849999Y-81382438D02*
X138754761Y-81477676D01*
X138754761Y-81477676D02*
X138707142Y-81572914D01*
X138707142Y-81572914D02*
X138659523Y-81763390D01*
X138659523Y-81763390D02*
X138659523Y-81906247D01*
X138659523Y-81906247D02*
X138707142Y-82096723D01*
X138707142Y-82096723D02*
X138754761Y-82191961D01*
X138754761Y-82191961D02*
X138849999Y-82287200D01*
X138849999Y-82287200D02*
X138992856Y-82334819D01*
X138992856Y-82334819D02*
X139088094Y-82334819D01*
X139088094Y-82334819D02*
X139230951Y-82287200D01*
X139230951Y-82287200D02*
X139278570Y-82239580D01*
X139278570Y-82239580D02*
X139278570Y-81906247D01*
X139278570Y-81906247D02*
X139088094Y-81906247D01*
X139707142Y-82334819D02*
X139707142Y-81334819D01*
X139707142Y-81811009D02*
X140278570Y-81811009D01*
X140278570Y-82334819D02*
X140278570Y-81334819D01*
X140611904Y-81334819D02*
X141183332Y-81334819D01*
X140897618Y-82334819D02*
X140897618Y-81334819D01*
X141278571Y-82430057D02*
X142040475Y-82430057D01*
X142611904Y-81811009D02*
X142754761Y-81858628D01*
X142754761Y-81858628D02*
X142802380Y-81906247D01*
X142802380Y-81906247D02*
X142849999Y-82001485D01*
X142849999Y-82001485D02*
X142849999Y-82144342D01*
X142849999Y-82144342D02*
X142802380Y-82239580D01*
X142802380Y-82239580D02*
X142754761Y-82287200D01*
X142754761Y-82287200D02*
X142659523Y-82334819D01*
X142659523Y-82334819D02*
X142278571Y-82334819D01*
X142278571Y-82334819D02*
X142278571Y-81334819D01*
X142278571Y-81334819D02*
X142611904Y-81334819D01*
X142611904Y-81334819D02*
X142707142Y-81382438D01*
X142707142Y-81382438D02*
X142754761Y-81430057D01*
X142754761Y-81430057D02*
X142802380Y-81525295D01*
X142802380Y-81525295D02*
X142802380Y-81620533D01*
X142802380Y-81620533D02*
X142754761Y-81715771D01*
X142754761Y-81715771D02*
X142707142Y-81763390D01*
X142707142Y-81763390D02*
X142611904Y-81811009D01*
X142611904Y-81811009D02*
X142278571Y-81811009D01*
X143278571Y-81334819D02*
X143278571Y-82144342D01*
X143278571Y-82144342D02*
X143326190Y-82239580D01*
X143326190Y-82239580D02*
X143373809Y-82287200D01*
X143373809Y-82287200D02*
X143469047Y-82334819D01*
X143469047Y-82334819D02*
X143659523Y-82334819D01*
X143659523Y-82334819D02*
X143754761Y-82287200D01*
X143754761Y-82287200D02*
X143802380Y-82239580D01*
X143802380Y-82239580D02*
X143849999Y-82144342D01*
X143849999Y-82144342D02*
X143849999Y-81334819D01*
X144183333Y-81334819D02*
X144754761Y-81334819D01*
X144469047Y-82334819D02*
X144469047Y-81334819D01*
X144945238Y-81334819D02*
X145516666Y-81334819D01*
X145230952Y-82334819D02*
X145230952Y-81334819D01*
X146040476Y-81334819D02*
X146230952Y-81334819D01*
X146230952Y-81334819D02*
X146326190Y-81382438D01*
X146326190Y-81382438D02*
X146421428Y-81477676D01*
X146421428Y-81477676D02*
X146469047Y-81668152D01*
X146469047Y-81668152D02*
X146469047Y-82001485D01*
X146469047Y-82001485D02*
X146421428Y-82191961D01*
X146421428Y-82191961D02*
X146326190Y-82287200D01*
X146326190Y-82287200D02*
X146230952Y-82334819D01*
X146230952Y-82334819D02*
X146040476Y-82334819D01*
X146040476Y-82334819D02*
X145945238Y-82287200D01*
X145945238Y-82287200D02*
X145850000Y-82191961D01*
X145850000Y-82191961D02*
X145802381Y-82001485D01*
X145802381Y-82001485D02*
X145802381Y-81668152D01*
X145802381Y-81668152D02*
X145850000Y-81477676D01*
X145850000Y-81477676D02*
X145945238Y-81382438D01*
X145945238Y-81382438D02*
X146040476Y-81334819D01*
X146897619Y-82334819D02*
X146897619Y-81334819D01*
X146897619Y-81334819D02*
X147469047Y-82334819D01*
X147469047Y-82334819D02*
X147469047Y-81334819D01*
X128716666Y-79834819D02*
X128716666Y-80549104D01*
X128716666Y-80549104D02*
X128669047Y-80691961D01*
X128669047Y-80691961D02*
X128573809Y-80787200D01*
X128573809Y-80787200D02*
X128430952Y-80834819D01*
X128430952Y-80834819D02*
X128335714Y-80834819D01*
X129097619Y-79834819D02*
X129716666Y-79834819D01*
X129716666Y-79834819D02*
X129383333Y-80215771D01*
X129383333Y-80215771D02*
X129526190Y-80215771D01*
X129526190Y-80215771D02*
X129621428Y-80263390D01*
X129621428Y-80263390D02*
X129669047Y-80311009D01*
X129669047Y-80311009D02*
X129716666Y-80406247D01*
X129716666Y-80406247D02*
X129716666Y-80644342D01*
X129716666Y-80644342D02*
X129669047Y-80739580D01*
X129669047Y-80739580D02*
X129621428Y-80787200D01*
X129621428Y-80787200D02*
X129526190Y-80834819D01*
X129526190Y-80834819D02*
X129240476Y-80834819D01*
X129240476Y-80834819D02*
X129145238Y-80787200D01*
X129145238Y-80787200D02*
X129097619Y-80739580D01*
X123971429Y-82334819D02*
X123971429Y-81334819D01*
X123971429Y-81334819D02*
X124271429Y-82049104D01*
X124271429Y-82049104D02*
X124571429Y-81334819D01*
X124571429Y-81334819D02*
X124571429Y-82334819D01*
X125000000Y-82334819D02*
X125000000Y-81334819D01*
X125428571Y-82334819D02*
X125428571Y-81334819D01*
X125428571Y-81334819D02*
X125642857Y-81334819D01*
X125642857Y-81334819D02*
X125771428Y-81382438D01*
X125771428Y-81382438D02*
X125857143Y-81477676D01*
X125857143Y-81477676D02*
X125900000Y-81572914D01*
X125900000Y-81572914D02*
X125942857Y-81763390D01*
X125942857Y-81763390D02*
X125942857Y-81906247D01*
X125942857Y-81906247D02*
X125900000Y-82096723D01*
X125900000Y-82096723D02*
X125857143Y-82191961D01*
X125857143Y-82191961D02*
X125771428Y-82287200D01*
X125771428Y-82287200D02*
X125642857Y-82334819D01*
X125642857Y-82334819D02*
X125428571Y-82334819D01*
X126328571Y-82334819D02*
X126328571Y-81334819D01*
X126328571Y-81334819D02*
X126542857Y-81334819D01*
X126542857Y-81334819D02*
X126671428Y-81382438D01*
X126671428Y-81382438D02*
X126757143Y-81477676D01*
X126757143Y-81477676D02*
X126800000Y-81572914D01*
X126800000Y-81572914D02*
X126842857Y-81763390D01*
X126842857Y-81763390D02*
X126842857Y-81906247D01*
X126842857Y-81906247D02*
X126800000Y-82096723D01*
X126800000Y-82096723D02*
X126757143Y-82191961D01*
X126757143Y-82191961D02*
X126671428Y-82287200D01*
X126671428Y-82287200D02*
X126542857Y-82334819D01*
X126542857Y-82334819D02*
X126328571Y-82334819D01*
X127657143Y-82334819D02*
X127228571Y-82334819D01*
X127228571Y-82334819D02*
X127228571Y-81334819D01*
X127957142Y-81811009D02*
X128257142Y-81811009D01*
X128385714Y-82334819D02*
X127957142Y-82334819D01*
X127957142Y-82334819D02*
X127957142Y-81334819D01*
X127957142Y-81334819D02*
X128385714Y-81334819D01*
X128557143Y-82430057D02*
X129242857Y-82430057D01*
X129757142Y-81811009D02*
X129885714Y-81858628D01*
X129885714Y-81858628D02*
X129928571Y-81906247D01*
X129928571Y-81906247D02*
X129971428Y-82001485D01*
X129971428Y-82001485D02*
X129971428Y-82144342D01*
X129971428Y-82144342D02*
X129928571Y-82239580D01*
X129928571Y-82239580D02*
X129885714Y-82287200D01*
X129885714Y-82287200D02*
X129799999Y-82334819D01*
X129799999Y-82334819D02*
X129457142Y-82334819D01*
X129457142Y-82334819D02*
X129457142Y-81334819D01*
X129457142Y-81334819D02*
X129757142Y-81334819D01*
X129757142Y-81334819D02*
X129842857Y-81382438D01*
X129842857Y-81382438D02*
X129885714Y-81430057D01*
X129885714Y-81430057D02*
X129928571Y-81525295D01*
X129928571Y-81525295D02*
X129928571Y-81620533D01*
X129928571Y-81620533D02*
X129885714Y-81715771D01*
X129885714Y-81715771D02*
X129842857Y-81763390D01*
X129842857Y-81763390D02*
X129757142Y-81811009D01*
X129757142Y-81811009D02*
X129457142Y-81811009D01*
X130357142Y-81334819D02*
X130357142Y-82144342D01*
X130357142Y-82144342D02*
X130399999Y-82239580D01*
X130399999Y-82239580D02*
X130442857Y-82287200D01*
X130442857Y-82287200D02*
X130528571Y-82334819D01*
X130528571Y-82334819D02*
X130699999Y-82334819D01*
X130699999Y-82334819D02*
X130785714Y-82287200D01*
X130785714Y-82287200D02*
X130828571Y-82239580D01*
X130828571Y-82239580D02*
X130871428Y-82144342D01*
X130871428Y-82144342D02*
X130871428Y-81334819D01*
X131171428Y-81334819D02*
X131685714Y-81334819D01*
X131428571Y-82334819D02*
X131428571Y-81334819D01*
X131857142Y-81334819D02*
X132371428Y-81334819D01*
X132114285Y-82334819D02*
X132114285Y-81334819D01*
X132842856Y-81334819D02*
X133014284Y-81334819D01*
X133014284Y-81334819D02*
X133099999Y-81382438D01*
X133099999Y-81382438D02*
X133185713Y-81477676D01*
X133185713Y-81477676D02*
X133228570Y-81668152D01*
X133228570Y-81668152D02*
X133228570Y-82001485D01*
X133228570Y-82001485D02*
X133185713Y-82191961D01*
X133185713Y-82191961D02*
X133099999Y-82287200D01*
X133099999Y-82287200D02*
X133014284Y-82334819D01*
X133014284Y-82334819D02*
X132842856Y-82334819D01*
X132842856Y-82334819D02*
X132757142Y-82287200D01*
X132757142Y-82287200D02*
X132671427Y-82191961D01*
X132671427Y-82191961D02*
X132628570Y-82001485D01*
X132628570Y-82001485D02*
X132628570Y-81668152D01*
X132628570Y-81668152D02*
X132671427Y-81477676D01*
X132671427Y-81477676D02*
X132757142Y-81382438D01*
X132757142Y-81382438D02*
X132842856Y-81334819D01*
X133614284Y-82334819D02*
X133614284Y-81334819D01*
X133614284Y-81334819D02*
X134128570Y-82334819D01*
X134128570Y-82334819D02*
X134128570Y-81334819D01*
D11*
G04 #@! TO.C,J4*
X115700000Y-73800000D02*
X115700000Y-72570000D01*
X115700000Y-72570000D02*
X121300000Y-72570000D01*
X121300000Y-72570000D02*
X110100000Y-72570000D01*
X110100000Y-72570000D02*
X110100000Y-86770000D01*
X110100000Y-86770000D02*
X121300000Y-86770000D01*
X121300000Y-86770000D02*
X121300000Y-72570000D01*
G04 #@! TO.C,J2*
X142300000Y-72570000D02*
X147900000Y-72570000D01*
X142300000Y-73800000D02*
X142300000Y-72570000D01*
X147900000Y-72570000D02*
X136700000Y-72570000D01*
X136700000Y-72570000D02*
X136700000Y-86770000D01*
X136700000Y-86770000D02*
X147900000Y-86770000D01*
X147900000Y-86770000D02*
X147900000Y-72570000D01*
G04 #@! TO.C,J3*
X129000000Y-72570000D02*
X134600000Y-72570000D01*
X129000000Y-73800000D02*
X129000000Y-72570000D01*
X134600000Y-72570000D02*
X123400000Y-72570000D01*
X123400000Y-72570000D02*
X123400000Y-86770000D01*
X123400000Y-86770000D02*
X134600000Y-86770000D01*
X134600000Y-86770000D02*
X134600000Y-72570000D01*
G04 #@! TD*
M02*
