G04 #@! TF.GenerationSoftware,KiCad,Pcbnew,7.0.7-2.fc38*
G04 #@! TF.CreationDate,2023-10-09T12:18:04+01:00*
G04 #@! TF.ProjectId,Button_PCB,42757474-6f6e-45f5-9043-422e6b696361,rev?*
G04 #@! TF.SameCoordinates,Original*
G04 #@! TF.FileFunction,Copper,L1,Top*
G04 #@! TF.FilePolarity,Positive*
%FSLAX46Y46*%
G04 Gerber Fmt 4.6, Leading zero omitted, Abs format (unit mm)*
G04 Created by KiCad (PCBNEW 7.0.7-2.fc38) date 2023-10-09 12:18:04*
%MOMM*%
%LPD*%
G01*
G04 APERTURE LIST*
G04 #@! TA.AperFunction,ComponentPad*
%ADD10C,1.524000*%
G04 #@! TD*
G04 #@! TA.AperFunction,ComponentPad*
%ADD11R,1.700000X1.700000*%
G04 #@! TD*
G04 #@! TA.AperFunction,ComponentPad*
%ADD12O,1.700000X1.700000*%
G04 #@! TD*
G04 #@! TA.AperFunction,Conductor*
%ADD13C,1.500000*%
G04 #@! TD*
G04 APERTURE END LIST*
D10*
G04 #@! TO.P,J4,1,Pin_1*
G04 #@! TO.N,GND*
X113160000Y-73840000D03*
G04 #@! TO.P,J4,2,Pin_2*
G04 #@! TO.N,LEFT_BUT*
X115700000Y-73840000D03*
G04 #@! TO.P,J4,3,Pin_3*
G04 #@! TO.N,VCC*
X118240000Y-73840000D03*
G04 #@! TD*
G04 #@! TO.P,J2,1,Pin_1*
G04 #@! TO.N,GND*
X139760000Y-73840000D03*
G04 #@! TO.P,J2,2,Pin_2*
G04 #@! TO.N,RIGHT_BUT*
X142300000Y-73840000D03*
G04 #@! TO.P,J2,3,Pin_3*
G04 #@! TO.N,VCC*
X144840000Y-73840000D03*
G04 #@! TD*
G04 #@! TO.P,J3,1,Pin_1*
G04 #@! TO.N,GND*
X126460000Y-73840000D03*
G04 #@! TO.P,J3,2,Pin_2*
G04 #@! TO.N,MIDDLE_BUT*
X129000000Y-73840000D03*
G04 #@! TO.P,J3,3,Pin_3*
G04 #@! TO.N,VCC*
X131540000Y-73840000D03*
G04 #@! TD*
D11*
G04 #@! TO.P,J1,1,Pin_1*
G04 #@! TO.N,VCC*
X134075000Y-68400000D03*
D12*
G04 #@! TO.P,J1,2,Pin_2*
G04 #@! TO.N,GND*
X131535000Y-68400000D03*
G04 #@! TO.P,J1,3,Pin_3*
G04 #@! TO.N,RIGHT_BUT*
X128995000Y-68400000D03*
G04 #@! TO.P,J1,4,Pin_4*
G04 #@! TO.N,MIDDLE_BUT*
X126455000Y-68400000D03*
G04 #@! TO.P,J1,5,Pin_5*
G04 #@! TO.N,LEFT_BUT*
X123915000Y-68400000D03*
G04 #@! TD*
D13*
G04 #@! TO.N,VCC*
X144840000Y-71180000D02*
X144840000Y-73840000D01*
X131540000Y-75470000D02*
X130810000Y-76200000D01*
X134075000Y-68400000D02*
X142060000Y-68400000D01*
X144840000Y-73840000D02*
X144840000Y-74870000D01*
X120600000Y-76200000D02*
X118240000Y-73840000D01*
X143510000Y-76200000D02*
X133900000Y-76200000D01*
X131540000Y-73840000D02*
X131540000Y-75470000D01*
X142060000Y-68400000D02*
X144840000Y-71180000D01*
X144840000Y-74870000D02*
X143510000Y-76200000D01*
X130810000Y-76200000D02*
X120600000Y-76200000D01*
X133900000Y-76200000D02*
X131540000Y-73840000D01*
G04 #@! TO.N,RIGHT_BUT*
X141605000Y-71755000D02*
X142300000Y-72450000D01*
X128995000Y-68400000D02*
X128995000Y-69305000D01*
X142300000Y-72450000D02*
X142300000Y-73840000D01*
X128995000Y-69305000D02*
X131445000Y-71755000D01*
X131445000Y-71755000D02*
X141605000Y-71755000D01*
G04 #@! TO.N,MIDDLE_BUT*
X126455000Y-68400000D02*
X126455000Y-69940000D01*
X129000000Y-72485000D02*
X129000000Y-73840000D01*
X126455000Y-69940000D02*
X129000000Y-72485000D01*
G04 #@! TO.N,LEFT_BUT*
X117655000Y-68400000D02*
X115700000Y-70355000D01*
X115700000Y-70355000D02*
X115700000Y-73840000D01*
X123915000Y-68400000D02*
X117655000Y-68400000D01*
G04 #@! TD*
M02*
