G04 #@! TF.GenerationSoftware,KiCad,Pcbnew,7.0.7-2.fc38*
G04 #@! TF.CreationDate,2023-10-09T12:18:05+01:00*
G04 #@! TF.ProjectId,Button_PCB,42757474-6f6e-45f5-9043-422e6b696361,rev?*
G04 #@! TF.SameCoordinates,Original*
G04 #@! TF.FileFunction,Legend,Bot*
G04 #@! TF.FilePolarity,Positive*
%FSLAX46Y46*%
G04 Gerber Fmt 4.6, Leading zero omitted, Abs format (unit mm)*
G04 Created by KiCad (PCBNEW 7.0.7-2.fc38) date 2023-10-09 12:18:05*
%MOMM*%
%LPD*%
G01*
G04 APERTURE LIST*
%ADD10C,0.150000*%
%ADD11C,0.120000*%
G04 APERTURE END LIST*
D10*
X129342856Y-70904819D02*
X129609523Y-70428628D01*
X129799999Y-70904819D02*
X129799999Y-69904819D01*
X129799999Y-69904819D02*
X129495237Y-69904819D01*
X129495237Y-69904819D02*
X129419047Y-69952438D01*
X129419047Y-69952438D02*
X129380952Y-70000057D01*
X129380952Y-70000057D02*
X129342856Y-70095295D01*
X129342856Y-70095295D02*
X129342856Y-70238152D01*
X129342856Y-70238152D02*
X129380952Y-70333390D01*
X129380952Y-70333390D02*
X129419047Y-70381009D01*
X129419047Y-70381009D02*
X129495237Y-70428628D01*
X129495237Y-70428628D02*
X129799999Y-70428628D01*
X128999999Y-70904819D02*
X128999999Y-69904819D01*
X128200000Y-69952438D02*
X128276190Y-69904819D01*
X128276190Y-69904819D02*
X128390476Y-69904819D01*
X128390476Y-69904819D02*
X128504762Y-69952438D01*
X128504762Y-69952438D02*
X128580952Y-70047676D01*
X128580952Y-70047676D02*
X128619047Y-70142914D01*
X128619047Y-70142914D02*
X128657143Y-70333390D01*
X128657143Y-70333390D02*
X128657143Y-70476247D01*
X128657143Y-70476247D02*
X128619047Y-70666723D01*
X128619047Y-70666723D02*
X128580952Y-70761961D01*
X128580952Y-70761961D02*
X128504762Y-70857200D01*
X128504762Y-70857200D02*
X128390476Y-70904819D01*
X128390476Y-70904819D02*
X128314285Y-70904819D01*
X128314285Y-70904819D02*
X128200000Y-70857200D01*
X128200000Y-70857200D02*
X128161904Y-70809580D01*
X128161904Y-70809580D02*
X128161904Y-70476247D01*
X128161904Y-70476247D02*
X128314285Y-70476247D01*
X132139523Y-69962438D02*
X132215713Y-69914819D01*
X132215713Y-69914819D02*
X132329999Y-69914819D01*
X132329999Y-69914819D02*
X132444285Y-69962438D01*
X132444285Y-69962438D02*
X132520475Y-70057676D01*
X132520475Y-70057676D02*
X132558570Y-70152914D01*
X132558570Y-70152914D02*
X132596666Y-70343390D01*
X132596666Y-70343390D02*
X132596666Y-70486247D01*
X132596666Y-70486247D02*
X132558570Y-70676723D01*
X132558570Y-70676723D02*
X132520475Y-70771961D01*
X132520475Y-70771961D02*
X132444285Y-70867200D01*
X132444285Y-70867200D02*
X132329999Y-70914819D01*
X132329999Y-70914819D02*
X132253808Y-70914819D01*
X132253808Y-70914819D02*
X132139523Y-70867200D01*
X132139523Y-70867200D02*
X132101427Y-70819580D01*
X132101427Y-70819580D02*
X132101427Y-70486247D01*
X132101427Y-70486247D02*
X132253808Y-70486247D01*
X131758570Y-70914819D02*
X131758570Y-69914819D01*
X131758570Y-69914819D02*
X131301427Y-70914819D01*
X131301427Y-70914819D02*
X131301427Y-69914819D01*
X130920475Y-70914819D02*
X130920475Y-69914819D01*
X130920475Y-69914819D02*
X130729999Y-69914819D01*
X130729999Y-69914819D02*
X130615713Y-69962438D01*
X130615713Y-69962438D02*
X130539523Y-70057676D01*
X130539523Y-70057676D02*
X130501428Y-70152914D01*
X130501428Y-70152914D02*
X130463332Y-70343390D01*
X130463332Y-70343390D02*
X130463332Y-70486247D01*
X130463332Y-70486247D02*
X130501428Y-70676723D01*
X130501428Y-70676723D02*
X130539523Y-70771961D01*
X130539523Y-70771961D02*
X130615713Y-70867200D01*
X130615713Y-70867200D02*
X130729999Y-70914819D01*
X130729999Y-70914819D02*
X130920475Y-70914819D01*
X124377142Y-70904819D02*
X124758094Y-70904819D01*
X124758094Y-70904819D02*
X124758094Y-69904819D01*
X124110475Y-70381009D02*
X123843809Y-70381009D01*
X123729523Y-70904819D02*
X124110475Y-70904819D01*
X124110475Y-70904819D02*
X124110475Y-69904819D01*
X124110475Y-69904819D02*
X123729523Y-69904819D01*
X123119999Y-70381009D02*
X123386665Y-70381009D01*
X123386665Y-70904819D02*
X123386665Y-69904819D01*
X123386665Y-69904819D02*
X123005713Y-69904819D01*
X135116666Y-69904819D02*
X134849999Y-70904819D01*
X134849999Y-70904819D02*
X134583333Y-69904819D01*
X133859523Y-70809580D02*
X133897619Y-70857200D01*
X133897619Y-70857200D02*
X134011904Y-70904819D01*
X134011904Y-70904819D02*
X134088095Y-70904819D01*
X134088095Y-70904819D02*
X134202381Y-70857200D01*
X134202381Y-70857200D02*
X134278571Y-70761961D01*
X134278571Y-70761961D02*
X134316666Y-70666723D01*
X134316666Y-70666723D02*
X134354762Y-70476247D01*
X134354762Y-70476247D02*
X134354762Y-70333390D01*
X134354762Y-70333390D02*
X134316666Y-70142914D01*
X134316666Y-70142914D02*
X134278571Y-70047676D01*
X134278571Y-70047676D02*
X134202381Y-69952438D01*
X134202381Y-69952438D02*
X134088095Y-69904819D01*
X134088095Y-69904819D02*
X134011904Y-69904819D01*
X134011904Y-69904819D02*
X133897619Y-69952438D01*
X133897619Y-69952438D02*
X133859523Y-70000057D01*
X133059523Y-70809580D02*
X133097619Y-70857200D01*
X133097619Y-70857200D02*
X133211904Y-70904819D01*
X133211904Y-70904819D02*
X133288095Y-70904819D01*
X133288095Y-70904819D02*
X133402381Y-70857200D01*
X133402381Y-70857200D02*
X133478571Y-70761961D01*
X133478571Y-70761961D02*
X133516666Y-70666723D01*
X133516666Y-70666723D02*
X133554762Y-70476247D01*
X133554762Y-70476247D02*
X133554762Y-70333390D01*
X133554762Y-70333390D02*
X133516666Y-70142914D01*
X133516666Y-70142914D02*
X133478571Y-70047676D01*
X133478571Y-70047676D02*
X133402381Y-69952438D01*
X133402381Y-69952438D02*
X133288095Y-69904819D01*
X133288095Y-69904819D02*
X133211904Y-69904819D01*
X133211904Y-69904819D02*
X133097619Y-69952438D01*
X133097619Y-69952438D02*
X133059523Y-70000057D01*
X127347142Y-70904819D02*
X127347142Y-69904819D01*
X127347142Y-69904819D02*
X127080476Y-70619104D01*
X127080476Y-70619104D02*
X126813809Y-69904819D01*
X126813809Y-69904819D02*
X126813809Y-70904819D01*
X126432856Y-70904819D02*
X126432856Y-69904819D01*
X126051904Y-70904819D02*
X126051904Y-69904819D01*
X126051904Y-69904819D02*
X125861428Y-69904819D01*
X125861428Y-69904819D02*
X125747142Y-69952438D01*
X125747142Y-69952438D02*
X125670952Y-70047676D01*
X125670952Y-70047676D02*
X125632857Y-70142914D01*
X125632857Y-70142914D02*
X125594761Y-70333390D01*
X125594761Y-70333390D02*
X125594761Y-70476247D01*
X125594761Y-70476247D02*
X125632857Y-70666723D01*
X125632857Y-70666723D02*
X125670952Y-70761961D01*
X125670952Y-70761961D02*
X125747142Y-70857200D01*
X125747142Y-70857200D02*
X125861428Y-70904819D01*
X125861428Y-70904819D02*
X126051904Y-70904819D01*
X136793333Y-67844819D02*
X136793333Y-68559104D01*
X136793333Y-68559104D02*
X136840952Y-68701961D01*
X136840952Y-68701961D02*
X136936190Y-68797200D01*
X136936190Y-68797200D02*
X137079047Y-68844819D01*
X137079047Y-68844819D02*
X137174285Y-68844819D01*
X135793333Y-68844819D02*
X136364761Y-68844819D01*
X136079047Y-68844819D02*
X136079047Y-67844819D01*
X136079047Y-67844819D02*
X136174285Y-67987676D01*
X136174285Y-67987676D02*
X136269523Y-68082914D01*
X136269523Y-68082914D02*
X136364761Y-68130533D01*
D11*
G04 #@! TO.C,J1*
X132805000Y-69730000D02*
X132805000Y-67070000D01*
X122585000Y-69730000D02*
X122585000Y-67070000D01*
X134075000Y-69730000D02*
X135405000Y-69730000D01*
X135405000Y-69730000D02*
X135405000Y-68400000D01*
X132805000Y-67070000D02*
X122585000Y-67070000D01*
X132805000Y-69730000D02*
X122585000Y-69730000D01*
G04 #@! TD*
M02*
